ISO-10303-21;
HEADER;
/* Generated by software containing ST-Developer
 * from STEP Tools, Inc. (www.steptools.com) 
 */
/* OPTION: using custom renumber hook */

FILE_DESCRIPTION(
/* description */ ('STEP AP214',
'CAx-IF Rec.Pracs.---User Defined Attributes---1.5---2016-08-15'),
/* implementation_level */ '2;1');

FILE_NAME(
/* name */ '6ab80d4e5ab6cc7561e59ab4',
/* time_stamp */ '2026-09-26T18:22:12Z',
/* author */ (''),
/* organization */ (''),
/* preprocessor_version */ 'ST-DEVELOPER v20',
/* originating_system */ 'ONSHAPE BY PTC INC, 1.221',
/* authorisation */ '  ');

FILE_SCHEMA (('AUTOMOTIVE_DESIGN {1 0 10303 214 3 1 1}'));
ENDSEC;

DATA;
#10=PROPERTY_DEFINITION_REPRESENTATION(#14,#12);
#11=PROPERTY_DEFINITION_REPRESENTATION(#15,#13);
#12=REPRESENTATION('',(#16),#2156);
#13=REPRESENTATION('',(#17),#2156);
#14=PROPERTY_DEFINITION('pmi validation property','',#2161);
#15=PROPERTY_DEFINITION('pmi validation property','',#2161);
#16=VALUE_REPRESENTATION_ITEM('number of annotations',COUNT_MEASURE(0.));
#17=VALUE_REPRESENTATION_ITEM('number of views',COUNT_MEASURE(0.));
#18=SHAPE_REPRESENTATION_RELATIONSHIP('','',#1318,#19);
#19=ADVANCED_BREP_SHAPE_REPRESENTATION('',(#1316),#2156);
#20=SPHERICAL_SURFACE('',#1356,0.005);
#21=SPHERICAL_SURFACE('',#1358,0.005);
#22=CYLINDRICAL_SURFACE('',#1349,0.005);
#23=CYLINDRICAL_SURFACE('',#1351,0.005);
#24=CYLINDRICAL_SURFACE('',#1353,0.005);
#25=CYLINDRICAL_SURFACE('',#1360,0.005);
#26=CYLINDRICAL_SURFACE('',#1362,0.005);
#27=CYLINDRICAL_SURFACE('',#1364,0.005);
#28=CYLINDRICAL_SURFACE('',#1366,0.005);
#29=CYLINDRICAL_SURFACE('',#1368,0.005);
#30=CYLINDRICAL_SURFACE('',#1397,0.0023);
#31=CYLINDRICAL_SURFACE('',#1401,0.0023);
#32=CYLINDRICAL_SURFACE('',#1405,0.0023);
#33=CYLINDRICAL_SURFACE('',#1409,0.0023);
#34=CYLINDRICAL_SURFACE('',#1413,0.0016);
#35=CYLINDRICAL_SURFACE('',#1416,0.0016);
#36=CYLINDRICAL_SURFACE('',#1419,0.0016);
#37=CYLINDRICAL_SURFACE('',#1422,0.0016);
#38=CYLINDRICAL_SURFACE('',#1432,0.0016);
#39=CYLINDRICAL_SURFACE('',#1433,0.0016);
#40=ELLIPSE('',#1331,0.00556395730946426,0.005);
#41=ELLIPSE('',#1332,0.00556395730946426,0.005);
#42=ELLIPSE('',#1361,0.00943766784756578,0.005);
#43=ELLIPSE('',#1363,0.00943766784756578,0.005);
#44=ELLIPSE('',#1365,0.00707106781186547,0.005);
#45=ELLIPSE('',#1367,0.00707106781186547,0.005);
#46=LINE('',#1801,#177);
#47=LINE('',#1804,#178);
#48=LINE('',#1806,#179);
#49=LINE('',#1808,#180);
#50=LINE('',#1809,#181);
#51=LINE('',#1812,#182);
#52=LINE('',#1814,#183);
#53=LINE('',#1816,#184);
#54=LINE('',#1822,#185);
#55=LINE('',#1825,#186);
#56=LINE('',#1827,#187);
#57=LINE('',#1829,#188);
#58=LINE('',#1830,#189);
#59=LINE('',#1833,#190);
#60=LINE('',#1835,#191);
#61=LINE('',#1837,#192);
#62=LINE('',#1838,#193);
#63=LINE('',#1841,#194);
#64=LINE('',#1843,#195);
#65=LINE('',#1845,#196);
#66=LINE('',#1847,#197);
#67=LINE('',#1850,#198);
#68=LINE('',#1852,#199);
#69=LINE('',#1854,#200);
#70=LINE('',#1855,#201);
#71=LINE('',#1858,#202);
#72=LINE('',#1860,#203);
#73=LINE('',#1862,#204);
#74=LINE('',#1864,#205);
#75=LINE('',#1867,#206);
#76=LINE('',#1869,#207);
#77=LINE('',#1871,#208);
#78=LINE('',#1872,#209);
#79=LINE('',#1875,#210);
#80=LINE('',#1877,#211);
#81=LINE('',#1879,#212);
#82=LINE('',#1881,#213);
#83=LINE('',#1887,#214);
#84=LINE('',#1891,#215);
#85=LINE('',#1893,#216);
#86=LINE('',#1894,#217);
#87=LINE('',#1896,#218);
#88=LINE('',#1900,#219);
#89=LINE('',#1902,#220);
#90=LINE('',#1904,#221);
#91=LINE('',#1906,#222);
#92=LINE('',#1908,#223);
#93=LINE('',#1910,#224);
#94=LINE('',#1912,#225);
#95=LINE('',#1915,#226);
#96=LINE('',#1916,#227);
#97=LINE('',#1918,#228);
#98=LINE('',#1921,#229);
#99=LINE('',#1923,#230);
#100=LINE('',#1925,#231);
#101=LINE('',#1926,#232);
#102=LINE('',#1929,#233);
#103=LINE('',#1931,#234);
#104=LINE('',#1933,#235);
#105=LINE('',#1934,#236);
#106=LINE('',#1937,#237);
#107=LINE('',#1939,#238);
#108=LINE('',#1941,#239);
#109=LINE('',#1942,#240);
#110=LINE('',#1945,#241);
#111=LINE('',#1947,#242);
#112=LINE('',#1949,#243);
#113=LINE('',#1950,#244);
#114=LINE('',#1951,#245);
#115=LINE('',#1957,#246);
#116=LINE('',#1959,#247);
#117=LINE('',#1961,#248);
#118=LINE('',#1963,#249);
#119=LINE('',#1965,#250);
#120=LINE('',#1967,#251);
#121=LINE('',#1969,#252);
#122=LINE('',#1971,#253);
#123=LINE('',#1973,#254);
#124=LINE('',#1974,#255);
#125=LINE('',#1976,#256);
#126=LINE('',#1978,#257);
#127=LINE('',#2001,#258);
#128=LINE('',#2002,#259);
#129=LINE('',#2004,#260);
#130=LINE('',#2006,#261);
#131=LINE('',#2009,#262);
#132=LINE('',#2011,#263);
#133=LINE('',#2013,#264);
#134=LINE('',#2015,#265);
#135=LINE('',#2017,#266);
#136=LINE('',#2019,#267);
#137=LINE('',#2021,#268);
#138=LINE('',#2023,#269);
#139=LINE('',#2028,#270);
#140=LINE('',#2030,#271);
#141=LINE('',#2032,#272);
#142=LINE('',#2034,#273);
#143=LINE('',#2036,#274);
#144=LINE('',#2038,#275);
#145=LINE('',#2040,#276);
#146=LINE('',#2042,#277);
#147=LINE('',#2047,#278);
#148=LINE('',#2049,#279);
#149=LINE('',#2051,#280);
#150=LINE('',#2053,#281);
#151=LINE('',#2055,#282);
#152=LINE('',#2057,#283);
#153=LINE('',#2059,#284);
#154=LINE('',#2061,#285);
#155=LINE('',#2066,#286);
#156=LINE('',#2068,#287);
#157=LINE('',#2070,#288);
#158=LINE('',#2072,#289);
#159=LINE('',#2074,#290);
#160=LINE('',#2076,#291);
#161=LINE('',#2078,#292);
#162=LINE('',#2080,#293);
#163=LINE('',#2125,#294);
#164=LINE('',#2127,#295);
#165=LINE('',#2129,#296);
#166=LINE('',#2131,#297);
#167=LINE('',#2133,#298);
#168=LINE('',#2135,#299);
#169=LINE('',#2137,#300);
#170=LINE('',#2139,#301);
#171=LINE('',#2141,#302);
#172=LINE('',#2143,#303);
#173=LINE('',#2145,#304);
#174=LINE('',#2147,#305);
#175=LINE('',#2149,#306);
#176=LINE('',#2151,#307);
#177=VECTOR('',#1442,1.);
#178=VECTOR('',#1443,1.);
#179=VECTOR('',#1444,1.);
#180=VECTOR('',#1445,1.);
#181=VECTOR('',#1446,1.);
#182=VECTOR('',#1447,1.);
#183=VECTOR('',#1448,1.);
#184=VECTOR('',#1449,1.);
#185=VECTOR('',#1456,1.);
#186=VECTOR('',#1457,1.);
#187=VECTOR('',#1458,1.);
#188=VECTOR('',#1459,1.);
#189=VECTOR('',#1460,1.);
#190=VECTOR('',#1461,1.);
#191=VECTOR('',#1462,1.);
#192=VECTOR('',#1463,1.);
#193=VECTOR('',#1464,1.);
#194=VECTOR('',#1465,1.);
#195=VECTOR('',#1466,1.);
#196=VECTOR('',#1467,1.);
#197=VECTOR('',#1470,1.);
#198=VECTOR('',#1471,1.);
#199=VECTOR('',#1472,1.);
#200=VECTOR('',#1473,1.);
#201=VECTOR('',#1474,1.);
#202=VECTOR('',#1475,1.);
#203=VECTOR('',#1476,1.);
#204=VECTOR('',#1477,1.);
#205=VECTOR('',#1480,1.);
#206=VECTOR('',#1481,1.);
#207=VECTOR('',#1482,1.);
#208=VECTOR('',#1483,1.);
#209=VECTOR('',#1484,1.);
#210=VECTOR('',#1485,1.);
#211=VECTOR('',#1486,1.);
#212=VECTOR('',#1487,1.);
#213=VECTOR('',#1490,1.);
#214=VECTOR('',#1495,1.);
#215=VECTOR('',#1498,1.);
#216=VECTOR('',#1499,1.);
#217=VECTOR('',#1500,1.);
#218=VECTOR('',#1501,1.);
#219=VECTOR('',#1506,1.);
#220=VECTOR('',#1507,1.);
#221=VECTOR('',#1508,1.);
#222=VECTOR('',#1511,1.);
#223=VECTOR('',#1512,1.);
#224=VECTOR('',#1513,1.);
#225=VECTOR('',#1516,1.);
#226=VECTOR('',#1517,1.);
#227=VECTOR('',#1518,1.);
#228=VECTOR('',#1521,1.);
#229=VECTOR('',#1522,1.);
#230=VECTOR('',#1523,1.);
#231=VECTOR('',#1524,1.);
#232=VECTOR('',#1525,1.);
#233=VECTOR('',#1526,1.);
#234=VECTOR('',#1527,1.);
#235=VECTOR('',#1528,1.);
#236=VECTOR('',#1529,1.);
#237=VECTOR('',#1530,1.);
#238=VECTOR('',#1531,1.);
#239=VECTOR('',#1532,1.);
#240=VECTOR('',#1533,1.);
#241=VECTOR('',#1534,1.);
#242=VECTOR('',#1535,1.);
#243=VECTOR('',#1536,1.);
#244=VECTOR('',#1537,1.);
#245=VECTOR('',#1538,1.);
#246=VECTOR('',#1549,1.);
#247=VECTOR('',#1550,1.);
#248=VECTOR('',#1551,1.);
#249=VECTOR('',#1554,1.);
#250=VECTOR('',#1555,1.);
#251=VECTOR('',#1558,1.);
#252=VECTOR('',#1559,1.);
#253=VECTOR('',#1562,1.);
#254=VECTOR('',#1565,1.);
#255=VECTOR('',#1566,1.);
#256=VECTOR('',#1569,1.);
#257=VECTOR('',#1572,1.);
#258=VECTOR('',#1617,1.);
#259=VECTOR('',#1618,1.);
#260=VECTOR('',#1621,1.);
#261=VECTOR('',#1624,1.);
#262=VECTOR('',#1629,1.);
#263=VECTOR('',#1630,1.);
#264=VECTOR('',#1631,1.);
#265=VECTOR('',#1634,1.);
#266=VECTOR('',#1635,1.);
#267=VECTOR('',#1638,1.);
#268=VECTOR('',#1639,1.);
#269=VECTOR('',#1642,1.);
#270=VECTOR('',#1649,1.);
#271=VECTOR('',#1650,1.);
#272=VECTOR('',#1651,1.);
#273=VECTOR('',#1654,1.);
#274=VECTOR('',#1655,1.);
#275=VECTOR('',#1658,1.);
#276=VECTOR('',#1659,1.);
#277=VECTOR('',#1662,1.);
#278=VECTOR('',#1669,1.);
#279=VECTOR('',#1670,1.);
#280=VECTOR('',#1671,1.);
#281=VECTOR('',#1674,1.);
#282=VECTOR('',#1675,1.);
#283=VECTOR('',#1678,1.);
#284=VECTOR('',#1679,1.);
#285=VECTOR('',#1682,1.);
#286=VECTOR('',#1689,1.);
#287=VECTOR('',#1690,1.);
#288=VECTOR('',#1691,1.);
#289=VECTOR('',#1694,1.);
#290=VECTOR('',#1695,1.);
#291=VECTOR('',#1698,1.);
#292=VECTOR('',#1699,1.);
#293=VECTOR('',#1702,1.);
#294=VECTOR('',#1765,1.);
#295=VECTOR('',#1766,1.);
#296=VECTOR('',#1767,1.);
#297=VECTOR('',#1770,1.);
#298=VECTOR('',#1771,1.);
#299=VECTOR('',#1772,1.);
#300=VECTOR('',#1775,1.);
#301=VECTOR('',#1776,1.);
#302=VECTOR('',#1777,1.);
#303=VECTOR('',#1780,1.);
#304=VECTOR('',#1781,1.);
#305=VECTOR('',#1782,1.);
#306=VECTOR('',#1785,1.);
#307=VECTOR('',#1788,1.);
#308=ORIENTED_EDGE('',*,*,#642,.F.);
#309=ORIENTED_EDGE('',*,*,#643,.F.);
#310=ORIENTED_EDGE('',*,*,#644,.T.);
#311=ORIENTED_EDGE('',*,*,#645,.T.);
#312=ORIENTED_EDGE('',*,*,#646,.T.);
#313=ORIENTED_EDGE('',*,*,#647,.T.);
#314=ORIENTED_EDGE('',*,*,#648,.F.);
#315=ORIENTED_EDGE('',*,*,#649,.T.);
#316=ORIENTED_EDGE('',*,*,#650,.T.);
#317=ORIENTED_EDGE('',*,*,#651,.F.);
#318=ORIENTED_EDGE('',*,*,#652,.T.);
#319=ORIENTED_EDGE('',*,*,#653,.T.);
#320=ORIENTED_EDGE('',*,*,#654,.F.);
#321=ORIENTED_EDGE('',*,*,#655,.T.);
#322=ORIENTED_EDGE('',*,*,#656,.F.);
#323=ORIENTED_EDGE('',*,*,#657,.F.);
#324=ORIENTED_EDGE('',*,*,#658,.F.);
#325=ORIENTED_EDGE('',*,*,#659,.T.);
#326=ORIENTED_EDGE('',*,*,#660,.T.);
#327=ORIENTED_EDGE('',*,*,#661,.F.);
#328=ORIENTED_EDGE('',*,*,#662,.F.);
#329=ORIENTED_EDGE('',*,*,#663,.T.);
#330=ORIENTED_EDGE('',*,*,#664,.T.);
#331=ORIENTED_EDGE('',*,*,#665,.F.);
#332=ORIENTED_EDGE('',*,*,#666,.T.);
#333=ORIENTED_EDGE('',*,*,#667,.T.);
#334=ORIENTED_EDGE('',*,*,#668,.T.);
#335=ORIENTED_EDGE('',*,*,#669,.T.);
#336=ORIENTED_EDGE('',*,*,#670,.T.);
#337=ORIENTED_EDGE('',*,*,#671,.T.);
#338=ORIENTED_EDGE('',*,*,#672,.T.);
#339=ORIENTED_EDGE('',*,*,#673,.T.);
#340=ORIENTED_EDGE('',*,*,#674,.T.);
#341=ORIENTED_EDGE('',*,*,#675,.F.);
#342=ORIENTED_EDGE('',*,*,#676,.F.);
#343=ORIENTED_EDGE('',*,*,#677,.T.);
#344=ORIENTED_EDGE('',*,*,#678,.F.);
#345=ORIENTED_EDGE('',*,*,#679,.T.);
#346=ORIENTED_EDGE('',*,*,#680,.T.);
#347=ORIENTED_EDGE('',*,*,#681,.F.);
#348=ORIENTED_EDGE('',*,*,#682,.F.);
#349=ORIENTED_EDGE('',*,*,#683,.T.);
#350=ORIENTED_EDGE('',*,*,#670,.F.);
#351=ORIENTED_EDGE('',*,*,#684,.T.);
#352=ORIENTED_EDGE('',*,*,#685,.T.);
#353=ORIENTED_EDGE('',*,*,#686,.T.);
#354=ORIENTED_EDGE('',*,*,#687,.T.);
#355=ORIENTED_EDGE('',*,*,#688,.F.);
#356=ORIENTED_EDGE('',*,*,#675,.T.);
#357=ORIENTED_EDGE('',*,*,#689,.T.);
#358=ORIENTED_EDGE('',*,*,#690,.T.);
#359=ORIENTED_EDGE('',*,*,#691,.T.);
#360=ORIENTED_EDGE('',*,*,#646,.F.);
#361=ORIENTED_EDGE('',*,*,#692,.T.);
#362=ORIENTED_EDGE('',*,*,#693,.T.);
#363=ORIENTED_EDGE('',*,*,#694,.T.);
#364=ORIENTED_EDGE('',*,*,#685,.F.);
#365=ORIENTED_EDGE('',*,*,#695,.T.);
#366=ORIENTED_EDGE('',*,*,#696,.T.);
#367=ORIENTED_EDGE('',*,*,#697,.T.);
#368=ORIENTED_EDGE('',*,*,#698,.T.);
#369=ORIENTED_EDGE('',*,*,#699,.T.);
#370=ORIENTED_EDGE('',*,*,#682,.T.);
#371=ORIENTED_EDGE('',*,*,#700,.T.);
#372=ORIENTED_EDGE('',*,*,#701,.T.);
#373=ORIENTED_EDGE('',*,*,#702,.T.);
#374=ORIENTED_EDGE('',*,*,#703,.T.);
#375=ORIENTED_EDGE('',*,*,#704,.T.);
#376=ORIENTED_EDGE('',*,*,#705,.T.);
#377=ORIENTED_EDGE('',*,*,#706,.T.);
#378=ORIENTED_EDGE('',*,*,#707,.T.);
#379=ORIENTED_EDGE('',*,*,#708,.T.);
#380=ORIENTED_EDGE('',*,*,#709,.T.);
#381=ORIENTED_EDGE('',*,*,#710,.T.);
#382=ORIENTED_EDGE('',*,*,#711,.T.);
#383=ORIENTED_EDGE('',*,*,#712,.T.);
#384=ORIENTED_EDGE('',*,*,#713,.T.);
#385=ORIENTED_EDGE('',*,*,#714,.T.);
#386=ORIENTED_EDGE('',*,*,#715,.T.);
#387=ORIENTED_EDGE('',*,*,#716,.T.);
#388=ORIENTED_EDGE('',*,*,#717,.T.);
#389=ORIENTED_EDGE('',*,*,#677,.F.);
#390=ORIENTED_EDGE('',*,*,#718,.F.);
#391=ORIENTED_EDGE('',*,*,#661,.T.);
#392=ORIENTED_EDGE('',*,*,#688,.T.);
#393=ORIENTED_EDGE('',*,*,#719,.T.);
#394=ORIENTED_EDGE('',*,*,#658,.T.);
#395=ORIENTED_EDGE('',*,*,#718,.T.);
#396=ORIENTED_EDGE('',*,*,#676,.T.);
#397=ORIENTED_EDGE('',*,*,#660,.F.);
#398=ORIENTED_EDGE('',*,*,#720,.T.);
#399=ORIENTED_EDGE('',*,*,#689,.F.);
#400=ORIENTED_EDGE('',*,*,#674,.F.);
#401=ORIENTED_EDGE('',*,*,#717,.F.);
#402=ORIENTED_EDGE('',*,*,#721,.T.);
#403=ORIENTED_EDGE('',*,*,#722,.T.);
#404=ORIENTED_EDGE('',*,*,#723,.F.);
#405=ORIENTED_EDGE('',*,*,#678,.T.);
#406=ORIENTED_EDGE('',*,*,#723,.T.);
#407=ORIENTED_EDGE('',*,*,#724,.T.);
#408=ORIENTED_EDGE('',*,*,#725,.F.);
#409=ORIENTED_EDGE('',*,*,#679,.F.);
#410=ORIENTED_EDGE('',*,*,#725,.T.);
#411=ORIENTED_EDGE('',*,*,#726,.T.);
#412=ORIENTED_EDGE('',*,*,#727,.F.);
#413=ORIENTED_EDGE('',*,*,#680,.F.);
#414=ORIENTED_EDGE('',*,*,#727,.T.);
#415=ORIENTED_EDGE('',*,*,#728,.T.);
#416=ORIENTED_EDGE('',*,*,#721,.F.);
#417=ORIENTED_EDGE('',*,*,#681,.T.);
#418=ORIENTED_EDGE('',*,*,#649,.F.);
#419=ORIENTED_EDGE('',*,*,#729,.F.);
#420=ORIENTED_EDGE('',*,*,#662,.T.);
#421=ORIENTED_EDGE('',*,*,#730,.T.);
#422=ORIENTED_EDGE('',*,*,#648,.T.);
#423=ORIENTED_EDGE('',*,*,#731,.F.);
#424=ORIENTED_EDGE('',*,*,#663,.F.);
#425=ORIENTED_EDGE('',*,*,#729,.T.);
#426=ORIENTED_EDGE('',*,*,#651,.T.);
#427=ORIENTED_EDGE('',*,*,#732,.F.);
#428=ORIENTED_EDGE('',*,*,#664,.F.);
#429=ORIENTED_EDGE('',*,*,#731,.T.);
#430=ORIENTED_EDGE('',*,*,#650,.F.);
#431=ORIENTED_EDGE('',*,*,#730,.F.);
#432=ORIENTED_EDGE('',*,*,#665,.T.);
#433=ORIENTED_EDGE('',*,*,#732,.T.);
#434=ORIENTED_EDGE('',*,*,#684,.F.);
#435=ORIENTED_EDGE('',*,*,#673,.F.);
#436=ORIENTED_EDGE('',*,*,#733,.F.);
#437=ORIENTED_EDGE('',*,*,#695,.F.);
#438=ORIENTED_EDGE('',*,*,#683,.F.);
#439=ORIENTED_EDGE('',*,*,#699,.F.);
#440=ORIENTED_EDGE('',*,*,#734,.F.);
#441=ORIENTED_EDGE('',*,*,#671,.F.);
#442=ORIENTED_EDGE('',*,*,#735,.F.);
#443=ORIENTED_EDGE('',*,*,#672,.F.);
#444=ORIENTED_EDGE('',*,*,#736,.F.);
#445=ORIENTED_EDGE('',*,*,#693,.F.);
#446=ORIENTED_EDGE('',*,*,#733,.T.);
#447=ORIENTED_EDGE('',*,*,#735,.T.);
#448=ORIENTED_EDGE('',*,*,#737,.F.);
#449=ORIENTED_EDGE('',*,*,#736,.T.);
#450=ORIENTED_EDGE('',*,*,#734,.T.);
#451=ORIENTED_EDGE('',*,*,#738,.F.);
#452=ORIENTED_EDGE('',*,*,#737,.T.);
#453=ORIENTED_EDGE('',*,*,#692,.F.);
#454=ORIENTED_EDGE('',*,*,#739,.F.);
#455=ORIENTED_EDGE('',*,*,#696,.F.);
#456=ORIENTED_EDGE('',*,*,#738,.T.);
#457=ORIENTED_EDGE('',*,*,#698,.F.);
#458=ORIENTED_EDGE('',*,*,#740,.F.);
#459=ORIENTED_EDGE('',*,*,#694,.F.);
#460=ORIENTED_EDGE('',*,*,#739,.T.);
#461=ORIENTED_EDGE('',*,*,#645,.F.);
#462=ORIENTED_EDGE('',*,*,#741,.F.);
#463=ORIENTED_EDGE('',*,*,#686,.F.);
#464=ORIENTED_EDGE('',*,*,#697,.F.);
#465=ORIENTED_EDGE('',*,*,#700,.F.);
#466=ORIENTED_EDGE('',*,*,#691,.F.);
#467=ORIENTED_EDGE('',*,*,#742,.F.);
#468=ORIENTED_EDGE('',*,*,#647,.F.);
#469=ORIENTED_EDGE('',*,*,#740,.T.);
#470=ORIENTED_EDGE('',*,*,#741,.T.);
#471=ORIENTED_EDGE('',*,*,#644,.F.);
#472=ORIENTED_EDGE('',*,*,#742,.T.);
#473=ORIENTED_EDGE('',*,*,#690,.F.);
#474=ORIENTED_EDGE('',*,*,#720,.F.);
#475=ORIENTED_EDGE('',*,*,#659,.F.);
#476=ORIENTED_EDGE('',*,*,#719,.F.);
#477=ORIENTED_EDGE('',*,*,#687,.F.);
#478=ORIENTED_EDGE('',*,*,#743,.F.);
#479=ORIENTED_EDGE('',*,*,#669,.F.);
#480=ORIENTED_EDGE('',*,*,#744,.F.);
#481=ORIENTED_EDGE('',*,*,#722,.F.);
#482=ORIENTED_EDGE('',*,*,#744,.T.);
#483=ORIENTED_EDGE('',*,*,#668,.F.);
#484=ORIENTED_EDGE('',*,*,#745,.F.);
#485=ORIENTED_EDGE('',*,*,#724,.F.);
#486=ORIENTED_EDGE('',*,*,#743,.T.);
#487=ORIENTED_EDGE('',*,*,#728,.F.);
#488=ORIENTED_EDGE('',*,*,#746,.F.);
#489=ORIENTED_EDGE('',*,*,#666,.F.);
#490=ORIENTED_EDGE('',*,*,#745,.T.);
#491=ORIENTED_EDGE('',*,*,#667,.F.);
#492=ORIENTED_EDGE('',*,*,#746,.T.);
#493=ORIENTED_EDGE('',*,*,#726,.F.);
#494=ORIENTED_EDGE('',*,*,#714,.F.);
#495=ORIENTED_EDGE('',*,*,#747,.F.);
#496=ORIENTED_EDGE('',*,*,#748,.T.);
#497=ORIENTED_EDGE('',*,*,#749,.T.);
#498=ORIENTED_EDGE('',*,*,#715,.F.);
#499=ORIENTED_EDGE('',*,*,#749,.F.);
#500=ORIENTED_EDGE('',*,*,#750,.T.);
#501=ORIENTED_EDGE('',*,*,#751,.T.);
#502=ORIENTED_EDGE('',*,*,#716,.F.);
#503=ORIENTED_EDGE('',*,*,#751,.F.);
#504=ORIENTED_EDGE('',*,*,#752,.T.);
#505=ORIENTED_EDGE('',*,*,#753,.T.);
#506=ORIENTED_EDGE('',*,*,#713,.F.);
#507=ORIENTED_EDGE('',*,*,#753,.F.);
#508=ORIENTED_EDGE('',*,*,#754,.T.);
#509=ORIENTED_EDGE('',*,*,#747,.T.);
#510=ORIENTED_EDGE('',*,*,#755,.T.);
#511=ORIENTED_EDGE('',*,*,#748,.F.);
#512=ORIENTED_EDGE('',*,*,#754,.F.);
#513=ORIENTED_EDGE('',*,*,#752,.F.);
#514=ORIENTED_EDGE('',*,*,#750,.F.);
#515=ORIENTED_EDGE('',*,*,#710,.F.);
#516=ORIENTED_EDGE('',*,*,#756,.F.);
#517=ORIENTED_EDGE('',*,*,#757,.T.);
#518=ORIENTED_EDGE('',*,*,#758,.T.);
#519=ORIENTED_EDGE('',*,*,#711,.F.);
#520=ORIENTED_EDGE('',*,*,#758,.F.);
#521=ORIENTED_EDGE('',*,*,#759,.T.);
#522=ORIENTED_EDGE('',*,*,#760,.T.);
#523=ORIENTED_EDGE('',*,*,#712,.F.);
#524=ORIENTED_EDGE('',*,*,#760,.F.);
#525=ORIENTED_EDGE('',*,*,#761,.T.);
#526=ORIENTED_EDGE('',*,*,#762,.T.);
#527=ORIENTED_EDGE('',*,*,#709,.F.);
#528=ORIENTED_EDGE('',*,*,#762,.F.);
#529=ORIENTED_EDGE('',*,*,#763,.T.);
#530=ORIENTED_EDGE('',*,*,#756,.T.);
#531=ORIENTED_EDGE('',*,*,#764,.T.);
#532=ORIENTED_EDGE('',*,*,#757,.F.);
#533=ORIENTED_EDGE('',*,*,#763,.F.);
#534=ORIENTED_EDGE('',*,*,#761,.F.);
#535=ORIENTED_EDGE('',*,*,#759,.F.);
#536=ORIENTED_EDGE('',*,*,#706,.F.);
#537=ORIENTED_EDGE('',*,*,#765,.F.);
#538=ORIENTED_EDGE('',*,*,#766,.T.);
#539=ORIENTED_EDGE('',*,*,#767,.T.);
#540=ORIENTED_EDGE('',*,*,#707,.F.);
#541=ORIENTED_EDGE('',*,*,#767,.F.);
#542=ORIENTED_EDGE('',*,*,#768,.T.);
#543=ORIENTED_EDGE('',*,*,#769,.T.);
#544=ORIENTED_EDGE('',*,*,#708,.F.);
#545=ORIENTED_EDGE('',*,*,#769,.F.);
#546=ORIENTED_EDGE('',*,*,#770,.T.);
#547=ORIENTED_EDGE('',*,*,#771,.T.);
#548=ORIENTED_EDGE('',*,*,#705,.F.);
#549=ORIENTED_EDGE('',*,*,#771,.F.);
#550=ORIENTED_EDGE('',*,*,#772,.T.);
#551=ORIENTED_EDGE('',*,*,#765,.T.);
#552=ORIENTED_EDGE('',*,*,#773,.T.);
#553=ORIENTED_EDGE('',*,*,#766,.F.);
#554=ORIENTED_EDGE('',*,*,#772,.F.);
#555=ORIENTED_EDGE('',*,*,#770,.F.);
#556=ORIENTED_EDGE('',*,*,#768,.F.);
#557=ORIENTED_EDGE('',*,*,#702,.F.);
#558=ORIENTED_EDGE('',*,*,#774,.F.);
#559=ORIENTED_EDGE('',*,*,#775,.T.);
#560=ORIENTED_EDGE('',*,*,#776,.T.);
#561=ORIENTED_EDGE('',*,*,#703,.F.);
#562=ORIENTED_EDGE('',*,*,#776,.F.);
#563=ORIENTED_EDGE('',*,*,#777,.T.);
#564=ORIENTED_EDGE('',*,*,#778,.T.);
#565=ORIENTED_EDGE('',*,*,#704,.F.);
#566=ORIENTED_EDGE('',*,*,#778,.F.);
#567=ORIENTED_EDGE('',*,*,#779,.T.);
#568=ORIENTED_EDGE('',*,*,#780,.T.);
#569=ORIENTED_EDGE('',*,*,#701,.F.);
#570=ORIENTED_EDGE('',*,*,#780,.F.);
#571=ORIENTED_EDGE('',*,*,#781,.T.);
#572=ORIENTED_EDGE('',*,*,#774,.T.);
#573=ORIENTED_EDGE('',*,*,#782,.T.);
#574=ORIENTED_EDGE('',*,*,#775,.F.);
#575=ORIENTED_EDGE('',*,*,#781,.F.);
#576=ORIENTED_EDGE('',*,*,#779,.F.);
#577=ORIENTED_EDGE('',*,*,#777,.F.);
#578=ORIENTED_EDGE('',*,*,#783,.T.);
#579=ORIENTED_EDGE('',*,*,#782,.F.);
#580=ORIENTED_EDGE('',*,*,#784,.F.);
#581=ORIENTED_EDGE('',*,*,#783,.F.);
#582=ORIENTED_EDGE('',*,*,#785,.T.);
#583=ORIENTED_EDGE('',*,*,#773,.F.);
#584=ORIENTED_EDGE('',*,*,#786,.F.);
#585=ORIENTED_EDGE('',*,*,#785,.F.);
#586=ORIENTED_EDGE('',*,*,#787,.T.);
#587=ORIENTED_EDGE('',*,*,#764,.F.);
#588=ORIENTED_EDGE('',*,*,#788,.F.);
#589=ORIENTED_EDGE('',*,*,#787,.F.);
#590=ORIENTED_EDGE('',*,*,#789,.T.);
#591=ORIENTED_EDGE('',*,*,#755,.F.);
#592=ORIENTED_EDGE('',*,*,#790,.F.);
#593=ORIENTED_EDGE('',*,*,#789,.F.);
#594=ORIENTED_EDGE('',*,*,#791,.T.);
#595=ORIENTED_EDGE('',*,*,#790,.T.);
#596=ORIENTED_EDGE('',*,*,#791,.F.);
#597=ORIENTED_EDGE('',*,*,#792,.T.);
#598=ORIENTED_EDGE('',*,*,#788,.T.);
#599=ORIENTED_EDGE('',*,*,#792,.F.);
#600=ORIENTED_EDGE('',*,*,#793,.T.);
#601=ORIENTED_EDGE('',*,*,#786,.T.);
#602=ORIENTED_EDGE('',*,*,#793,.F.);
#603=ORIENTED_EDGE('',*,*,#794,.T.);
#604=ORIENTED_EDGE('',*,*,#784,.T.);
#605=ORIENTED_EDGE('',*,*,#794,.F.);
#606=ORIENTED_EDGE('',*,*,#795,.T.);
#607=ORIENTED_EDGE('',*,*,#656,.T.);
#608=ORIENTED_EDGE('',*,*,#796,.F.);
#609=ORIENTED_EDGE('',*,*,#797,.T.);
#610=ORIENTED_EDGE('',*,*,#798,.F.);
#611=ORIENTED_EDGE('',*,*,#654,.T.);
#612=ORIENTED_EDGE('',*,*,#799,.T.);
#613=ORIENTED_EDGE('',*,*,#800,.F.);
#614=ORIENTED_EDGE('',*,*,#655,.F.);
#615=ORIENTED_EDGE('',*,*,#798,.T.);
#616=ORIENTED_EDGE('',*,*,#801,.T.);
#617=ORIENTED_EDGE('',*,*,#802,.T.);
#618=ORIENTED_EDGE('',*,*,#803,.T.);
#619=ORIENTED_EDGE('',*,*,#796,.T.);
#620=ORIENTED_EDGE('',*,*,#799,.F.);
#621=ORIENTED_EDGE('',*,*,#657,.T.);
#622=ORIENTED_EDGE('',*,*,#795,.F.);
#623=ORIENTED_EDGE('',*,*,#804,.F.);
#624=ORIENTED_EDGE('',*,*,#805,.F.);
#625=ORIENTED_EDGE('',*,*,#806,.F.);
#626=ORIENTED_EDGE('',*,*,#806,.T.);
#627=ORIENTED_EDGE('',*,*,#807,.F.);
#628=ORIENTED_EDGE('',*,*,#801,.F.);
#629=ORIENTED_EDGE('',*,*,#800,.T.);
#630=ORIENTED_EDGE('',*,*,#805,.T.);
#631=ORIENTED_EDGE('',*,*,#808,.F.);
#632=ORIENTED_EDGE('',*,*,#802,.F.);
#633=ORIENTED_EDGE('',*,*,#807,.T.);
#634=ORIENTED_EDGE('',*,*,#804,.T.);
#635=ORIENTED_EDGE('',*,*,#797,.F.);
#636=ORIENTED_EDGE('',*,*,#803,.F.);
#637=ORIENTED_EDGE('',*,*,#808,.T.);
#638=ORIENTED_EDGE('',*,*,#643,.T.);
#639=ORIENTED_EDGE('',*,*,#653,.F.);
#640=ORIENTED_EDGE('',*,*,#642,.T.);
#641=ORIENTED_EDGE('',*,*,#652,.F.);
#642=EDGE_CURVE('',#809,#809,#923,.T.);
#643=EDGE_CURVE('',#810,#810,#924,.T.);
#644=EDGE_CURVE('',#811,#812,#46,.F.);
#645=EDGE_CURVE('',#812,#813,#47,.T.);
#646=EDGE_CURVE('',#813,#814,#48,.T.);
#647=EDGE_CURVE('',#814,#811,#49,.F.);
#648=EDGE_CURVE('',#815,#816,#50,.T.);
#649=EDGE_CURVE('',#815,#817,#51,.T.);
#650=EDGE_CURVE('',#817,#818,#52,.T.);
#651=EDGE_CURVE('',#816,#818,#53,.T.);
#652=EDGE_CURVE('',#819,#819,#925,.T.);
#653=EDGE_CURVE('',#820,#820,#926,.T.);
#654=EDGE_CURVE('',#821,#822,#54,.T.);
#655=EDGE_CURVE('',#821,#823,#55,.T.);
#656=EDGE_CURVE('',#824,#823,#56,.T.);
#657=EDGE_CURVE('',#822,#824,#57,.T.);
#658=EDGE_CURVE('',#825,#826,#58,.T.);
#659=EDGE_CURVE('',#825,#827,#59,.T.);
#660=EDGE_CURVE('',#827,#828,#60,.T.);
#661=EDGE_CURVE('',#826,#828,#61,.T.);
#662=EDGE_CURVE('',#829,#830,#62,.T.);
#663=EDGE_CURVE('',#829,#831,#63,.T.);
#664=EDGE_CURVE('',#831,#832,#64,.T.);
#665=EDGE_CURVE('',#830,#832,#65,.T.);
#666=EDGE_CURVE('',#833,#834,#66,.T.);
#667=EDGE_CURVE('',#834,#835,#67,.T.);
#668=EDGE_CURVE('',#835,#836,#68,.T.);
#669=EDGE_CURVE('',#836,#833,#69,.T.);
#670=EDGE_CURVE('',#837,#838,#70,.T.);
#671=EDGE_CURVE('',#838,#839,#71,.F.);
#672=EDGE_CURVE('',#839,#840,#72,.F.);
#673=EDGE_CURVE('',#840,#837,#73,.T.);
#674=EDGE_CURVE('',#841,#842,#74,.T.);
#675=EDGE_CURVE('',#843,#842,#75,.T.);
#676=EDGE_CURVE('',#844,#843,#76,.T.);
#677=EDGE_CURVE('',#844,#841,#77,.T.);
#678=EDGE_CURVE('',#845,#846,#78,.T.);
#679=EDGE_CURVE('',#845,#847,#79,.T.);
#680=EDGE_CURVE('',#847,#848,#80,.T.);
#681=EDGE_CURVE('',#846,#848,#81,.T.);
#682=EDGE_CURVE('',#849,#850,#82,.T.);
#683=EDGE_CURVE('',#849,#838,#927,.T.);
#684=EDGE_CURVE('',#837,#851,#928,.T.);
#685=EDGE_CURVE('',#851,#852,#83,.T.);
#686=EDGE_CURVE('',#852,#853,#40,.T.);
#687=EDGE_CURVE('',#853,#854,#84,.T.);
#688=EDGE_CURVE('',#843,#854,#85,.T.);
#689=EDGE_CURVE('',#842,#855,#86,.T.);
#690=EDGE_CURVE('',#855,#856,#87,.T.);
#691=EDGE_CURVE('',#856,#850,#41,.T.);
#692=EDGE_CURVE('',#813,#857,#88,.T.);
#693=EDGE_CURVE('',#857,#858,#89,.T.);
#694=EDGE_CURVE('',#858,#814,#90,.F.);
#695=EDGE_CURVE('',#851,#859,#91,.F.);
#696=EDGE_CURVE('',#859,#860,#92,.F.);
#697=EDGE_CURVE('',#860,#852,#93,.F.);
#698=EDGE_CURVE('',#861,#862,#94,.T.);
#699=EDGE_CURVE('',#862,#849,#95,.T.);
#700=EDGE_CURVE('',#850,#861,#96,.T.);
#701=EDGE_CURVE('',#863,#864,#97,.T.);
#702=EDGE_CURVE('',#864,#865,#98,.T.);
#703=EDGE_CURVE('',#865,#866,#99,.T.);
#704=EDGE_CURVE('',#866,#863,#100,.T.);
#705=EDGE_CURVE('',#867,#868,#101,.T.);
#706=EDGE_CURVE('',#868,#869,#102,.T.);
#707=EDGE_CURVE('',#869,#870,#103,.T.);
#708=EDGE_CURVE('',#870,#867,#104,.T.);
#709=EDGE_CURVE('',#871,#872,#105,.T.);
#710=EDGE_CURVE('',#872,#873,#106,.T.);
#711=EDGE_CURVE('',#873,#874,#107,.T.);
#712=EDGE_CURVE('',#874,#871,#108,.T.);
#713=EDGE_CURVE('',#875,#876,#109,.T.);
#714=EDGE_CURVE('',#876,#877,#110,.T.);
#715=EDGE_CURVE('',#877,#878,#111,.T.);
#716=EDGE_CURVE('',#878,#875,#112,.T.);
#717=EDGE_CURVE('',#828,#841,#113,.T.);
#718=EDGE_CURVE('',#826,#844,#114,.T.);
#719=EDGE_CURVE('',#854,#825,#929,.F.);
#720=EDGE_CURVE('',#827,#855,#930,.T.);
#721=EDGE_CURVE('',#846,#879,#115,.T.);
#722=EDGE_CURVE('',#879,#880,#116,.T.);
#723=EDGE_CURVE('',#845,#880,#117,.T.);
#724=EDGE_CURVE('',#880,#881,#118,.T.);
#725=EDGE_CURVE('',#847,#881,#119,.T.);
#726=EDGE_CURVE('',#881,#882,#120,.T.);
#727=EDGE_CURVE('',#848,#882,#121,.T.);
#728=EDGE_CURVE('',#882,#879,#122,.T.);
#729=EDGE_CURVE('',#829,#815,#123,.T.);
#730=EDGE_CURVE('',#830,#817,#124,.T.);
#731=EDGE_CURVE('',#831,#816,#125,.T.);
#732=EDGE_CURVE('',#832,#818,#126,.T.);
#733=EDGE_CURVE('',#859,#840,#931,.T.);
#734=EDGE_CURVE('',#839,#862,#932,.T.);
#735=EDGE_CURVE('',#840,#857,#933,.T.);
#736=EDGE_CURVE('',#858,#839,#934,.T.);
#737=EDGE_CURVE('',#859,#857,#935,.F.);
#738=EDGE_CURVE('',#858,#862,#936,.F.);
#739=EDGE_CURVE('',#860,#813,#42,.F.);
#740=EDGE_CURVE('',#814,#861,#43,.T.);
#741=EDGE_CURVE('',#853,#812,#44,.F.);
#742=EDGE_CURVE('',#811,#856,#45,.T.);
#743=EDGE_CURVE('',#833,#879,#127,.T.);
#744=EDGE_CURVE('',#880,#836,#128,.T.);
#745=EDGE_CURVE('',#881,#835,#129,.F.);
#746=EDGE_CURVE('',#834,#882,#130,.T.);
#747=EDGE_CURVE('',#883,#876,#131,.T.);
#748=EDGE_CURVE('',#883,#884,#132,.T.);
#749=EDGE_CURVE('',#884,#877,#133,.T.);
#750=EDGE_CURVE('',#884,#885,#134,.T.);
#751=EDGE_CURVE('',#885,#878,#135,.T.);
#752=EDGE_CURVE('',#885,#886,#136,.T.);
#753=EDGE_CURVE('',#886,#875,#137,.T.);
#754=EDGE_CURVE('',#886,#883,#138,.T.);
#755=EDGE_CURVE('',#887,#887,#937,.T.);
#756=EDGE_CURVE('',#888,#872,#139,.T.);
#757=EDGE_CURVE('',#888,#889,#140,.T.);
#758=EDGE_CURVE('',#889,#873,#141,.T.);
#759=EDGE_CURVE('',#889,#890,#142,.T.);
#760=EDGE_CURVE('',#890,#874,#143,.T.);
#761=EDGE_CURVE('',#890,#891,#144,.T.);
#762=EDGE_CURVE('',#891,#871,#145,.T.);
#763=EDGE_CURVE('',#891,#888,#146,.T.);
#764=EDGE_CURVE('',#892,#892,#938,.T.);
#765=EDGE_CURVE('',#893,#868,#147,.T.);
#766=EDGE_CURVE('',#893,#894,#148,.T.);
#767=EDGE_CURVE('',#894,#869,#149,.T.);
#768=EDGE_CURVE('',#894,#895,#150,.T.);
#769=EDGE_CURVE('',#895,#870,#151,.T.);
#770=EDGE_CURVE('',#895,#896,#152,.T.);
#771=EDGE_CURVE('',#896,#867,#153,.T.);
#772=EDGE_CURVE('',#896,#893,#154,.T.);
#773=EDGE_CURVE('',#897,#897,#939,.T.);
#774=EDGE_CURVE('',#898,#864,#155,.T.);
#775=EDGE_CURVE('',#898,#899,#156,.T.);
#776=EDGE_CURVE('',#899,#865,#157,.T.);
#777=EDGE_CURVE('',#899,#900,#158,.T.);
#778=EDGE_CURVE('',#900,#866,#159,.T.);
#779=EDGE_CURVE('',#900,#901,#160,.T.);
#780=EDGE_CURVE('',#901,#863,#161,.T.);
#781=EDGE_CURVE('',#901,#898,#162,.T.);
#782=EDGE_CURVE('',#902,#902,#940,.T.);
#783=EDGE_CURVE('',#903,#903,#941,.T.);
#784=EDGE_CURVE('',#904,#904,#942,.F.);
#785=EDGE_CURVE('',#905,#905,#943,.T.);
#786=EDGE_CURVE('',#906,#906,#944,.F.);
#787=EDGE_CURVE('',#907,#907,#945,.T.);
#788=EDGE_CURVE('',#908,#908,#946,.F.);
#789=EDGE_CURVE('',#909,#909,#947,.T.);
#790=EDGE_CURVE('',#910,#910,#948,.F.);
#791=EDGE_CURVE('',#911,#911,#949,.T.);
#792=EDGE_CURVE('',#912,#912,#950,.T.);
#793=EDGE_CURVE('',#913,#913,#951,.T.);
#794=EDGE_CURVE('',#914,#914,#952,.T.);
#795=EDGE_CURVE('',#915,#824,#163,.T.);
#796=EDGE_CURVE('',#916,#823,#164,.T.);
#797=EDGE_CURVE('',#916,#915,#165,.T.);
#798=EDGE_CURVE('',#821,#917,#166,.T.);
#799=EDGE_CURVE('',#822,#918,#167,.T.);
#800=EDGE_CURVE('',#917,#918,#168,.T.);
#801=EDGE_CURVE('',#917,#919,#169,.T.);
#802=EDGE_CURVE('',#919,#920,#170,.T.);
#803=EDGE_CURVE('',#920,#916,#171,.T.);
#804=EDGE_CURVE('',#921,#915,#172,.T.);
#805=EDGE_CURVE('',#922,#921,#173,.T.);
#806=EDGE_CURVE('',#918,#922,#174,.T.);
#807=EDGE_CURVE('',#919,#922,#175,.T.);
#808=EDGE_CURVE('',#920,#921,#176,.T.);
#809=VERTEX_POINT('',#1798);
#810=VERTEX_POINT('',#1800);
#811=VERTEX_POINT('',#1802);
#812=VERTEX_POINT('',#1803);
#813=VERTEX_POINT('',#1805);
#814=VERTEX_POINT('',#1807);
#815=VERTEX_POINT('',#1810);
#816=VERTEX_POINT('',#1811);
#817=VERTEX_POINT('',#1813);
#818=VERTEX_POINT('',#1815);
#819=VERTEX_POINT('',#1819);
#820=VERTEX_POINT('',#1821);
#821=VERTEX_POINT('',#1823);
#822=VERTEX_POINT('',#1824);
#823=VERTEX_POINT('',#1826);
#824=VERTEX_POINT('',#1828);
#825=VERTEX_POINT('',#1831);
#826=VERTEX_POINT('',#1832);
#827=VERTEX_POINT('',#1834);
#828=VERTEX_POINT('',#1836);
#829=VERTEX_POINT('',#1839);
#830=VERTEX_POINT('',#1840);
#831=VERTEX_POINT('',#1842);
#832=VERTEX_POINT('',#1844);
#833=VERTEX_POINT('',#1848);
#834=VERTEX_POINT('',#1849);
#835=VERTEX_POINT('',#1851);
#836=VERTEX_POINT('',#1853);
#837=VERTEX_POINT('',#1856);
#838=VERTEX_POINT('',#1857);
#839=VERTEX_POINT('',#1859);
#840=VERTEX_POINT('',#1861);
#841=VERTEX_POINT('',#1865);
#842=VERTEX_POINT('',#1866);
#843=VERTEX_POINT('',#1868);
#844=VERTEX_POINT('',#1870);
#845=VERTEX_POINT('',#1873);
#846=VERTEX_POINT('',#1874);
#847=VERTEX_POINT('',#1876);
#848=VERTEX_POINT('',#1878);
#849=VERTEX_POINT('',#1882);
#850=VERTEX_POINT('',#1883);
#851=VERTEX_POINT('',#1886);
#852=VERTEX_POINT('',#1888);
#853=VERTEX_POINT('',#1890);
#854=VERTEX_POINT('',#1892);
#855=VERTEX_POINT('',#1895);
#856=VERTEX_POINT('',#1897);
#857=VERTEX_POINT('',#1901);
#858=VERTEX_POINT('',#1903);
#859=VERTEX_POINT('',#1907);
#860=VERTEX_POINT('',#1909);
#861=VERTEX_POINT('',#1913);
#862=VERTEX_POINT('',#1914);
#863=VERTEX_POINT('',#1919);
#864=VERTEX_POINT('',#1920);
#865=VERTEX_POINT('',#1922);
#866=VERTEX_POINT('',#1924);
#867=VERTEX_POINT('',#1927);
#868=VERTEX_POINT('',#1928);
#869=VERTEX_POINT('',#1930);
#870=VERTEX_POINT('',#1932);
#871=VERTEX_POINT('',#1935);
#872=VERTEX_POINT('',#1936);
#873=VERTEX_POINT('',#1938);
#874=VERTEX_POINT('',#1940);
#875=VERTEX_POINT('',#1943);
#876=VERTEX_POINT('',#1944);
#877=VERTEX_POINT('',#1946);
#878=VERTEX_POINT('',#1948);
#879=VERTEX_POINT('',#1958);
#880=VERTEX_POINT('',#1960);
#881=VERTEX_POINT('',#1964);
#882=VERTEX_POINT('',#1968);
#883=VERTEX_POINT('',#2010);
#884=VERTEX_POINT('',#2012);
#885=VERTEX_POINT('',#2016);
#886=VERTEX_POINT('',#2020);
#887=VERTEX_POINT('',#2026);
#888=VERTEX_POINT('',#2029);
#889=VERTEX_POINT('',#2031);
#890=VERTEX_POINT('',#2035);
#891=VERTEX_POINT('',#2039);
#892=VERTEX_POINT('',#2045);
#893=VERTEX_POINT('',#2048);
#894=VERTEX_POINT('',#2050);
#895=VERTEX_POINT('',#2054);
#896=VERTEX_POINT('',#2058);
#897=VERTEX_POINT('',#2064);
#898=VERTEX_POINT('',#2067);
#899=VERTEX_POINT('',#2069);
#900=VERTEX_POINT('',#2073);
#901=VERTEX_POINT('',#2077);
#902=VERTEX_POINT('',#2083);
#903=VERTEX_POINT('',#2086);
#904=VERTEX_POINT('',#2089);
#905=VERTEX_POINT('',#2092);
#906=VERTEX_POINT('',#2095);
#907=VERTEX_POINT('',#2098);
#908=VERTEX_POINT('',#2101);
#909=VERTEX_POINT('',#2104);
#910=VERTEX_POINT('',#2107);
#911=VERTEX_POINT('',#2110);
#912=VERTEX_POINT('',#2114);
#913=VERTEX_POINT('',#2118);
#914=VERTEX_POINT('',#2122);
#915=VERTEX_POINT('',#2126);
#916=VERTEX_POINT('',#2128);
#917=VERTEX_POINT('',#2132);
#918=VERTEX_POINT('',#2134);
#919=VERTEX_POINT('',#2138);
#920=VERTEX_POINT('',#2140);
#921=VERTEX_POINT('',#2144);
#922=VERTEX_POINT('',#2146);
#923=CIRCLE('',#1321,0.0016);
#924=CIRCLE('',#1322,0.0016);
#925=CIRCLE('',#1324,0.0016);
#926=CIRCLE('',#1325,0.0016);
#927=CIRCLE('',#1329,0.005);
#928=CIRCLE('',#1330,0.005);
#929=CIRCLE('',#1338,0.005);
#930=CIRCLE('',#1340,0.005);
#931=CIRCLE('',#1350,0.005);
#932=CIRCLE('',#1352,0.005);
#933=CIRCLE('',#1354,0.005);
#934=CIRCLE('',#1355,0.005);
#935=CIRCLE('',#1357,0.005);
#936=CIRCLE('',#1359,0.005);
#937=CIRCLE('',#1378,0.0023);
#938=CIRCLE('',#1384,0.0023);
#939=CIRCLE('',#1390,0.0023);
#940=CIRCLE('',#1396,0.0023);
#941=CIRCLE('',#1398,0.0023);
#942=CIRCLE('',#1400,0.0016);
#943=CIRCLE('',#1402,0.0023);
#944=CIRCLE('',#1404,0.0016);
#945=CIRCLE('',#1406,0.0023);
#946=CIRCLE('',#1408,0.0016);
#947=CIRCLE('',#1410,0.0023);
#948=CIRCLE('',#1412,0.0016);
#949=CIRCLE('',#1414,0.0016);
#950=CIRCLE('',#1417,0.0016);
#951=CIRCLE('',#1420,0.0016);
#952=CIRCLE('',#1423,0.0016);
#953=EDGE_LOOP('',(#308));
#954=EDGE_LOOP('',(#309));
#955=EDGE_LOOP('',(#310,#311,#312,#313));
#956=EDGE_LOOP('',(#314,#315,#316,#317));
#957=EDGE_LOOP('',(#318));
#958=EDGE_LOOP('',(#319));
#959=EDGE_LOOP('',(#320,#321,#322,#323));
#960=EDGE_LOOP('',(#324,#325,#326,#327));
#961=EDGE_LOOP('',(#328,#329,#330,#331));
#962=EDGE_LOOP('',(#332,#333,#334,#335));
#963=EDGE_LOOP('',(#336,#337,#338,#339));
#964=EDGE_LOOP('',(#340,#341,#342,#343));
#965=EDGE_LOOP('',(#344,#345,#346,#347));
#966=EDGE_LOOP('',(#348,#349,#350,#351,#352,#353,#354,#355,#356,#357,#358,
#359));
#967=EDGE_LOOP('',(#360,#361,#362,#363));
#968=EDGE_LOOP('',(#364,#365,#366,#367));
#969=EDGE_LOOP('',(#368,#369,#370,#371));
#970=EDGE_LOOP('',(#372,#373,#374,#375));
#971=EDGE_LOOP('',(#376,#377,#378,#379));
#972=EDGE_LOOP('',(#380,#381,#382,#383));
#973=EDGE_LOOP('',(#384,#385,#386,#387));
#974=EDGE_LOOP('',(#388,#389,#390,#391));
#975=EDGE_LOOP('',(#392,#393,#394,#395,#396));
#976=EDGE_LOOP('',(#397,#398,#399,#400,#401));
#977=EDGE_LOOP('',(#402,#403,#404,#405));
#978=EDGE_LOOP('',(#406,#407,#408,#409));
#979=EDGE_LOOP('',(#410,#411,#412,#413));
#980=EDGE_LOOP('',(#414,#415,#416,#417));
#981=EDGE_LOOP('',(#418,#419,#420,#421));
#982=EDGE_LOOP('',(#422,#423,#424,#425));
#983=EDGE_LOOP('',(#426,#427,#428,#429));
#984=EDGE_LOOP('',(#430,#431,#432,#433));
#985=EDGE_LOOP('',(#434,#435,#436,#437));
#986=EDGE_LOOP('',(#438,#439,#440,#441));
#987=EDGE_LOOP('',(#442,#443,#444,#445));
#988=EDGE_LOOP('',(#446,#447,#448));
#989=EDGE_LOOP('',(#449,#450,#451));
#990=EDGE_LOOP('',(#452,#453,#454,#455));
#991=EDGE_LOOP('',(#456,#457,#458,#459));
#992=EDGE_LOOP('',(#460,#461,#462,#463,#464));
#993=EDGE_LOOP('',(#465,#466,#467,#468,#469));
#994=EDGE_LOOP('',(#470,#471,#472,#473,#474,#475,#476,#477));
#995=EDGE_LOOP('',(#478,#479,#480,#481));
#996=EDGE_LOOP('',(#482,#483,#484,#485));
#997=EDGE_LOOP('',(#486,#487,#488,#489));
#998=EDGE_LOOP('',(#490,#491,#492,#493));
#999=EDGE_LOOP('',(#494,#495,#496,#497));
#1000=EDGE_LOOP('',(#498,#499,#500,#501));
#1001=EDGE_LOOP('',(#502,#503,#504,#505));
#1002=EDGE_LOOP('',(#506,#507,#508,#509));
#1003=EDGE_LOOP('',(#510));
#1004=EDGE_LOOP('',(#511,#512,#513,#514));
#1005=EDGE_LOOP('',(#515,#516,#517,#518));
#1006=EDGE_LOOP('',(#519,#520,#521,#522));
#1007=EDGE_LOOP('',(#523,#524,#525,#526));
#1008=EDGE_LOOP('',(#527,#528,#529,#530));
#1009=EDGE_LOOP('',(#531));
#1010=EDGE_LOOP('',(#532,#533,#534,#535));
#1011=EDGE_LOOP('',(#536,#537,#538,#539));
#1012=EDGE_LOOP('',(#540,#541,#542,#543));
#1013=EDGE_LOOP('',(#544,#545,#546,#547));
#1014=EDGE_LOOP('',(#548,#549,#550,#551));
#1015=EDGE_LOOP('',(#552));
#1016=EDGE_LOOP('',(#553,#554,#555,#556));
#1017=EDGE_LOOP('',(#557,#558,#559,#560));
#1018=EDGE_LOOP('',(#561,#562,#563,#564));
#1019=EDGE_LOOP('',(#565,#566,#567,#568));
#1020=EDGE_LOOP('',(#569,#570,#571,#572));
#1021=EDGE_LOOP('',(#573));
#1022=EDGE_LOOP('',(#574,#575,#576,#577));
#1023=EDGE_LOOP('',(#578));
#1024=EDGE_LOOP('',(#579));
#1025=EDGE_LOOP('',(#580));
#1026=EDGE_LOOP('',(#581));
#1027=EDGE_LOOP('',(#582));
#1028=EDGE_LOOP('',(#583));
#1029=EDGE_LOOP('',(#584));
#1030=EDGE_LOOP('',(#585));
#1031=EDGE_LOOP('',(#586));
#1032=EDGE_LOOP('',(#587));
#1033=EDGE_LOOP('',(#588));
#1034=EDGE_LOOP('',(#589));
#1035=EDGE_LOOP('',(#590));
#1036=EDGE_LOOP('',(#591));
#1037=EDGE_LOOP('',(#592));
#1038=EDGE_LOOP('',(#593));
#1039=EDGE_LOOP('',(#594));
#1040=EDGE_LOOP('',(#595));
#1041=EDGE_LOOP('',(#596));
#1042=EDGE_LOOP('',(#597));
#1043=EDGE_LOOP('',(#598));
#1044=EDGE_LOOP('',(#599));
#1045=EDGE_LOOP('',(#600));
#1046=EDGE_LOOP('',(#601));
#1047=EDGE_LOOP('',(#602));
#1048=EDGE_LOOP('',(#603));
#1049=EDGE_LOOP('',(#604));
#1050=EDGE_LOOP('',(#605));
#1051=EDGE_LOOP('',(#606,#607,#608,#609));
#1052=EDGE_LOOP('',(#610,#611,#612,#613));
#1053=EDGE_LOOP('',(#614,#615,#616,#617,#618,#619));
#1054=EDGE_LOOP('',(#620,#621,#622,#623,#624,#625));
#1055=EDGE_LOOP('',(#626,#627,#628,#629));
#1056=EDGE_LOOP('',(#630,#631,#632,#633));
#1057=EDGE_LOOP('',(#634,#635,#636,#637));
#1058=EDGE_LOOP('',(#638));
#1059=EDGE_LOOP('',(#639));
#1060=EDGE_LOOP('',(#640));
#1061=EDGE_LOOP('',(#641));
#1062=FACE_BOUND('',#953,.T.);
#1063=FACE_BOUND('',#954,.T.);
#1064=FACE_BOUND('',#955,.T.);
#1065=FACE_BOUND('',#956,.T.);
#1066=FACE_BOUND('',#957,.T.);
#1067=FACE_BOUND('',#958,.T.);
#1068=FACE_BOUND('',#959,.T.);
#1069=FACE_BOUND('',#960,.T.);
#1070=FACE_BOUND('',#961,.T.);
#1071=FACE_BOUND('',#962,.T.);
#1072=FACE_BOUND('',#963,.T.);
#1073=FACE_BOUND('',#964,.T.);
#1074=FACE_BOUND('',#965,.T.);
#1075=FACE_BOUND('',#966,.T.);
#1076=FACE_BOUND('',#967,.T.);
#1077=FACE_BOUND('',#968,.T.);
#1078=FACE_BOUND('',#969,.T.);
#1079=FACE_BOUND('',#970,.T.);
#1080=FACE_BOUND('',#971,.T.);
#1081=FACE_BOUND('',#972,.T.);
#1082=FACE_BOUND('',#973,.T.);
#1083=FACE_BOUND('',#974,.T.);
#1084=FACE_BOUND('',#975,.T.);
#1085=FACE_BOUND('',#976,.T.);
#1086=FACE_BOUND('',#977,.T.);
#1087=FACE_BOUND('',#978,.T.);
#1088=FACE_BOUND('',#979,.T.);
#1089=FACE_BOUND('',#980,.T.);
#1090=FACE_BOUND('',#981,.T.);
#1091=FACE_BOUND('',#982,.T.);
#1092=FACE_BOUND('',#983,.T.);
#1093=FACE_BOUND('',#984,.T.);
#1094=FACE_BOUND('',#985,.T.);
#1095=FACE_BOUND('',#986,.T.);
#1096=FACE_BOUND('',#987,.T.);
#1097=FACE_BOUND('',#988,.T.);
#1098=FACE_BOUND('',#989,.T.);
#1099=FACE_BOUND('',#990,.T.);
#1100=FACE_BOUND('',#991,.T.);
#1101=FACE_BOUND('',#992,.T.);
#1102=FACE_BOUND('',#993,.T.);
#1103=FACE_BOUND('',#994,.T.);
#1104=FACE_BOUND('',#995,.T.);
#1105=FACE_BOUND('',#996,.T.);
#1106=FACE_BOUND('',#997,.T.);
#1107=FACE_BOUND('',#998,.T.);
#1108=FACE_BOUND('',#999,.T.);
#1109=FACE_BOUND('',#1000,.T.);
#1110=FACE_BOUND('',#1001,.T.);
#1111=FACE_BOUND('',#1002,.T.);
#1112=FACE_BOUND('',#1003,.T.);
#1113=FACE_BOUND('',#1004,.T.);
#1114=FACE_BOUND('',#1005,.T.);
#1115=FACE_BOUND('',#1006,.T.);
#1116=FACE_BOUND('',#1007,.T.);
#1117=FACE_BOUND('',#1008,.T.);
#1118=FACE_BOUND('',#1009,.T.);
#1119=FACE_BOUND('',#1010,.T.);
#1120=FACE_BOUND('',#1011,.T.);
#1121=FACE_BOUND('',#1012,.T.);
#1122=FACE_BOUND('',#1013,.T.);
#1123=FACE_BOUND('',#1014,.T.);
#1124=FACE_BOUND('',#1015,.T.);
#1125=FACE_BOUND('',#1016,.T.);
#1126=FACE_BOUND('',#1017,.T.);
#1127=FACE_BOUND('',#1018,.T.);
#1128=FACE_BOUND('',#1019,.T.);
#1129=FACE_BOUND('',#1020,.T.);
#1130=FACE_BOUND('',#1021,.T.);
#1131=FACE_BOUND('',#1022,.T.);
#1132=FACE_BOUND('',#1023,.T.);
#1133=FACE_BOUND('',#1024,.T.);
#1134=FACE_BOUND('',#1025,.T.);
#1135=FACE_BOUND('',#1026,.T.);
#1136=FACE_BOUND('',#1027,.T.);
#1137=FACE_BOUND('',#1028,.T.);
#1138=FACE_BOUND('',#1029,.T.);
#1139=FACE_BOUND('',#1030,.T.);
#1140=FACE_BOUND('',#1031,.T.);
#1141=FACE_BOUND('',#1032,.T.);
#1142=FACE_BOUND('',#1033,.T.);
#1143=FACE_BOUND('',#1034,.T.);
#1144=FACE_BOUND('',#1035,.T.);
#1145=FACE_BOUND('',#1036,.T.);
#1146=FACE_BOUND('',#1037,.T.);
#1147=FACE_BOUND('',#1038,.T.);
#1148=FACE_BOUND('',#1039,.T.);
#1149=FACE_BOUND('',#1040,.T.);
#1150=FACE_BOUND('',#1041,.T.);
#1151=FACE_BOUND('',#1042,.T.);
#1152=FACE_BOUND('',#1043,.T.);
#1153=FACE_BOUND('',#1044,.T.);
#1154=FACE_BOUND('',#1045,.T.);
#1155=FACE_BOUND('',#1046,.T.);
#1156=FACE_BOUND('',#1047,.T.);
#1157=FACE_BOUND('',#1048,.T.);
#1158=FACE_BOUND('',#1049,.T.);
#1159=FACE_BOUND('',#1050,.T.);
#1160=FACE_BOUND('',#1051,.T.);
#1161=FACE_BOUND('',#1052,.T.);
#1162=FACE_BOUND('',#1053,.T.);
#1163=FACE_BOUND('',#1054,.T.);
#1164=FACE_BOUND('',#1055,.T.);
#1165=FACE_BOUND('',#1056,.T.);
#1166=FACE_BOUND('',#1057,.T.);
#1167=FACE_BOUND('',#1058,.T.);
#1168=FACE_BOUND('',#1059,.T.);
#1169=FACE_BOUND('',#1060,.T.);
#1170=FACE_BOUND('',#1061,.T.);
#1171=PLANE('',#1320);
#1172=PLANE('',#1323);
#1173=PLANE('',#1326);
#1174=PLANE('',#1327);
#1175=PLANE('',#1328);
#1176=PLANE('',#1333);
#1177=PLANE('',#1334);
#1178=PLANE('',#1335);
#1179=PLANE('',#1336);
#1180=PLANE('',#1337);
#1181=PLANE('',#1339);
#1182=PLANE('',#1341);
#1183=PLANE('',#1342);
#1184=PLANE('',#1343);
#1185=PLANE('',#1344);
#1186=PLANE('',#1345);
#1187=PLANE('',#1346);
#1188=PLANE('',#1347);
#1189=PLANE('',#1348);
#1190=PLANE('',#1369);
#1191=PLANE('',#1370);
#1192=PLANE('',#1371);
#1193=PLANE('',#1372);
#1194=PLANE('',#1373);
#1195=PLANE('',#1374);
#1196=PLANE('',#1375);
#1197=PLANE('',#1376);
#1198=PLANE('',#1377);
#1199=PLANE('',#1379);
#1200=PLANE('',#1380);
#1201=PLANE('',#1381);
#1202=PLANE('',#1382);
#1203=PLANE('',#1383);
#1204=PLANE('',#1385);
#1205=PLANE('',#1386);
#1206=PLANE('',#1387);
#1207=PLANE('',#1388);
#1208=PLANE('',#1389);
#1209=PLANE('',#1391);
#1210=PLANE('',#1392);
#1211=PLANE('',#1393);
#1212=PLANE('',#1394);
#1213=PLANE('',#1395);
#1214=PLANE('',#1399);
#1215=PLANE('',#1403);
#1216=PLANE('',#1407);
#1217=PLANE('',#1411);
#1218=PLANE('',#1415);
#1219=PLANE('',#1418);
#1220=PLANE('',#1421);
#1221=PLANE('',#1424);
#1222=PLANE('',#1425);
#1223=PLANE('',#1426);
#1224=PLANE('',#1427);
#1225=PLANE('',#1428);
#1226=PLANE('',#1429);
#1227=PLANE('',#1430);
#1228=PLANE('',#1431);
#1229=ADVANCED_FACE('',(#1062,#1063,#1064,#1065),#1171,.T.);
#1230=ADVANCED_FACE('',(#1066,#1067,#1068,#1069,#1070),#1172,.F.);
#1231=ADVANCED_FACE('',(#1071,#1072),#1173,.T.);
#1232=ADVANCED_FACE('',(#1073,#1074),#1174,.F.);
#1233=ADVANCED_FACE('',(#1075),#1175,.T.);
#1234=ADVANCED_FACE('',(#1076),#1176,.T.);
#1235=ADVANCED_FACE('',(#1077),#1177,.T.);
#1236=ADVANCED_FACE('',(#1078),#1178,.F.);
#1237=ADVANCED_FACE('',(#1079,#1080,#1081,#1082,#1083),#1179,.F.);
#1238=ADVANCED_FACE('',(#1084),#1180,.F.);
#1239=ADVANCED_FACE('',(#1085),#1181,.T.);
#1240=ADVANCED_FACE('',(#1086),#1182,.T.);
#1241=ADVANCED_FACE('',(#1087),#1183,.F.);
#1242=ADVANCED_FACE('',(#1088),#1184,.F.);
#1243=ADVANCED_FACE('',(#1089),#1185,.T.);
#1244=ADVANCED_FACE('',(#1090),#1186,.T.);
#1245=ADVANCED_FACE('',(#1091),#1187,.F.);
#1246=ADVANCED_FACE('',(#1092),#1188,.F.);
#1247=ADVANCED_FACE('',(#1093),#1189,.T.);
#1248=ADVANCED_FACE('',(#1094),#22,.T.);
#1249=ADVANCED_FACE('',(#1095),#23,.T.);
#1250=ADVANCED_FACE('',(#1096),#24,.T.);
#1251=ADVANCED_FACE('',(#1097),#20,.T.);
#1252=ADVANCED_FACE('',(#1098),#21,.T.);
#1253=ADVANCED_FACE('',(#1099),#25,.T.);
#1254=ADVANCED_FACE('',(#1100),#26,.T.);
#1255=ADVANCED_FACE('',(#1101),#27,.T.);
#1256=ADVANCED_FACE('',(#1102),#28,.T.);
#1257=ADVANCED_FACE('',(#1103),#29,.T.);
#1258=ADVANCED_FACE('',(#1104),#1190,.F.);
#1259=ADVANCED_FACE('',(#1105),#1191,.T.);
#1260=ADVANCED_FACE('',(#1106),#1192,.F.);
#1261=ADVANCED_FACE('',(#1107),#1193,.T.);
#1262=ADVANCED_FACE('',(#1108),#1194,.T.);
#1263=ADVANCED_FACE('',(#1109),#1195,.T.);
#1264=ADVANCED_FACE('',(#1110),#1196,.T.);
#1265=ADVANCED_FACE('',(#1111),#1197,.T.);
#1266=ADVANCED_FACE('',(#1112,#1113),#1198,.F.);
#1267=ADVANCED_FACE('',(#1114),#1199,.T.);
#1268=ADVANCED_FACE('',(#1115),#1200,.T.);
#1269=ADVANCED_FACE('',(#1116),#1201,.T.);
#1270=ADVANCED_FACE('',(#1117),#1202,.T.);
#1271=ADVANCED_FACE('',(#1118,#1119),#1203,.F.);
#1272=ADVANCED_FACE('',(#1120),#1204,.T.);
#1273=ADVANCED_FACE('',(#1121),#1205,.T.);
#1274=ADVANCED_FACE('',(#1122),#1206,.T.);
#1275=ADVANCED_FACE('',(#1123),#1207,.T.);
#1276=ADVANCED_FACE('',(#1124,#1125),#1208,.F.);
#1277=ADVANCED_FACE('',(#1126),#1209,.T.);
#1278=ADVANCED_FACE('',(#1127),#1210,.T.);
#1279=ADVANCED_FACE('',(#1128),#1211,.T.);
#1280=ADVANCED_FACE('',(#1129),#1212,.T.);
#1281=ADVANCED_FACE('',(#1130,#1131),#1213,.F.);
#1282=ADVANCED_FACE('',(#1132,#1133),#30,.F.);
#1283=ADVANCED_FACE('',(#1134,#1135),#1214,.F.);
#1284=ADVANCED_FACE('',(#1136,#1137),#31,.F.);
#1285=ADVANCED_FACE('',(#1138,#1139),#1215,.F.);
#1286=ADVANCED_FACE('',(#1140,#1141),#32,.F.);
#1287=ADVANCED_FACE('',(#1142,#1143),#1216,.F.);
#1288=ADVANCED_FACE('',(#1144,#1145),#33,.F.);
#1289=ADVANCED_FACE('',(#1146,#1147),#1217,.F.);
#1290=ADVANCED_FACE('',(#1148,#1149),#34,.F.);
#1291=ADVANCED_FACE('',(#1150),#1218,.F.);
#1292=ADVANCED_FACE('',(#1151,#1152),#35,.F.);
#1293=ADVANCED_FACE('',(#1153),#1219,.F.);
#1294=ADVANCED_FACE('',(#1154,#1155),#36,.F.);
#1295=ADVANCED_FACE('',(#1156),#1220,.F.);
#1296=ADVANCED_FACE('',(#1157,#1158),#37,.F.);
#1297=ADVANCED_FACE('',(#1159),#1221,.F.);
#1298=ADVANCED_FACE('',(#1160),#1222,.F.);
#1299=ADVANCED_FACE('',(#1161),#1223,.F.);
#1300=ADVANCED_FACE('',(#1162),#1224,.T.);
#1301=ADVANCED_FACE('',(#1163),#1225,.F.);
#1302=ADVANCED_FACE('',(#1164),#1226,.F.);
#1303=ADVANCED_FACE('',(#1165),#1227,.F.);
#1304=ADVANCED_FACE('',(#1166),#1228,.F.);
#1305=ADVANCED_FACE('',(#1167,#1168),#38,.F.);
#1306=ADVANCED_FACE('',(#1169,#1170),#39,.F.);
#1307=CLOSED_SHELL('',(#1229,#1230,#1231,#1232,#1233,#1234,#1235,#1236,
#1237,#1238,#1239,#1240,#1241,#1242,#1243,#1244,#1245,#1246,#1247,#1248,
#1249,#1250,#1251,#1252,#1253,#1254,#1255,#1256,#1257,#1258,#1259,#1260,
#1261,#1262,#1263,#1264,#1265,#1266,#1267,#1268,#1269,#1270,#1271,#1272,
#1273,#1274,#1275,#1276,#1277,#1278,#1279,#1280,#1281,#1282,#1283,#1284,
#1285,#1286,#1287,#1288,#1289,#1290,#1291,#1292,#1293,#1294,#1295,#1296,
#1297,#1298,#1299,#1300,#1301,#1302,#1303,#1304,#1305,#1306));
#1308=STYLED_ITEM('',(#1309),#1316);
#1309=PRESENTATION_STYLE_ASSIGNMENT((#1310));
#1310=SURFACE_STYLE_USAGE(.BOTH.,#1311);
#1311=SURFACE_SIDE_STYLE('',(#1312));
#1312=SURFACE_STYLE_FILL_AREA(#1313);
#1313=FILL_AREA_STYLE('',(#1314));
#1314=FILL_AREA_STYLE_COLOUR('',#1315);
#1315=COLOUR_RGB('',0.647058823529412,0.647058823529412,0.647058823529412);
#1316=MANIFOLD_SOLID_BREP('Part 1',#1307);
#1317=SHAPE_DEFINITION_REPRESENTATION(#2161,#1318);
#1318=SHAPE_REPRESENTATION('Part 1',(#1319),#2156);
#1319=AXIS2_PLACEMENT_3D('',#1795,#1434,#1435);
#1320=AXIS2_PLACEMENT_3D('',#1796,#1436,#1437);
#1321=AXIS2_PLACEMENT_3D('',#1797,#1438,#1439);
#1322=AXIS2_PLACEMENT_3D('',#1799,#1440,#1441);
#1323=AXIS2_PLACEMENT_3D('',#1817,#1450,#1451);
#1324=AXIS2_PLACEMENT_3D('',#1818,#1452,#1453);
#1325=AXIS2_PLACEMENT_3D('',#1820,#1454,#1455);
#1326=AXIS2_PLACEMENT_3D('',#1846,#1468,#1469);
#1327=AXIS2_PLACEMENT_3D('',#1863,#1478,#1479);
#1328=AXIS2_PLACEMENT_3D('',#1880,#1488,#1489);
#1329=AXIS2_PLACEMENT_3D('',#1884,#1491,#1492);
#1330=AXIS2_PLACEMENT_3D('',#1885,#1493,#1494);
#1331=AXIS2_PLACEMENT_3D('',#1889,#1496,#1497);
#1332=AXIS2_PLACEMENT_3D('',#1898,#1502,#1503);
#1333=AXIS2_PLACEMENT_3D('',#1899,#1504,#1505);
#1334=AXIS2_PLACEMENT_3D('',#1905,#1509,#1510);
#1335=AXIS2_PLACEMENT_3D('',#1911,#1514,#1515);
#1336=AXIS2_PLACEMENT_3D('',#1917,#1519,#1520);
#1337=AXIS2_PLACEMENT_3D('',#1952,#1539,#1540);
#1338=AXIS2_PLACEMENT_3D('',#1953,#1541,#1542);
#1339=AXIS2_PLACEMENT_3D('',#1954,#1543,#1544);
#1340=AXIS2_PLACEMENT_3D('',#1955,#1545,#1546);
#1341=AXIS2_PLACEMENT_3D('',#1956,#1547,#1548);
#1342=AXIS2_PLACEMENT_3D('',#1962,#1552,#1553);
#1343=AXIS2_PLACEMENT_3D('',#1966,#1556,#1557);
#1344=AXIS2_PLACEMENT_3D('',#1970,#1560,#1561);
#1345=AXIS2_PLACEMENT_3D('',#1972,#1563,#1564);
#1346=AXIS2_PLACEMENT_3D('',#1975,#1567,#1568);
#1347=AXIS2_PLACEMENT_3D('',#1977,#1570,#1571);
#1348=AXIS2_PLACEMENT_3D('',#1979,#1573,#1574);
#1349=AXIS2_PLACEMENT_3D('',#1980,#1575,#1576);
#1350=AXIS2_PLACEMENT_3D('',#1981,#1577,#1578);
#1351=AXIS2_PLACEMENT_3D('',#1982,#1579,#1580);
#1352=AXIS2_PLACEMENT_3D('',#1983,#1581,#1582);
#1353=AXIS2_PLACEMENT_3D('',#1984,#1583,#1584);
#1354=AXIS2_PLACEMENT_3D('',#1985,#1585,#1586);
#1355=AXIS2_PLACEMENT_3D('',#1986,#1587,#1588);
#1356=AXIS2_PLACEMENT_3D('',#1987,#1589,#1590);
#1357=AXIS2_PLACEMENT_3D('',#1988,#1591,#1592);
#1358=AXIS2_PLACEMENT_3D('',#1989,#1593,#1594);
#1359=AXIS2_PLACEMENT_3D('',#1990,#1595,#1596);
#1360=AXIS2_PLACEMENT_3D('',#1991,#1597,#1598);
#1361=AXIS2_PLACEMENT_3D('',#1992,#1599,#1600);
#1362=AXIS2_PLACEMENT_3D('',#1993,#1601,#1602);
#1363=AXIS2_PLACEMENT_3D('',#1994,#1603,#1604);
#1364=AXIS2_PLACEMENT_3D('',#1995,#1605,#1606);
#1365=AXIS2_PLACEMENT_3D('',#1996,#1607,#1608);
#1366=AXIS2_PLACEMENT_3D('',#1997,#1609,#1610);
#1367=AXIS2_PLACEMENT_3D('',#1998,#1611,#1612);
#1368=AXIS2_PLACEMENT_3D('',#1999,#1613,#1614);
#1369=AXIS2_PLACEMENT_3D('',#2000,#1615,#1616);
#1370=AXIS2_PLACEMENT_3D('',#2003,#1619,#1620);
#1371=AXIS2_PLACEMENT_3D('',#2005,#1622,#1623);
#1372=AXIS2_PLACEMENT_3D('',#2007,#1625,#1626);
#1373=AXIS2_PLACEMENT_3D('',#2008,#1627,#1628);
#1374=AXIS2_PLACEMENT_3D('',#2014,#1632,#1633);
#1375=AXIS2_PLACEMENT_3D('',#2018,#1636,#1637);
#1376=AXIS2_PLACEMENT_3D('',#2022,#1640,#1641);
#1377=AXIS2_PLACEMENT_3D('',#2024,#1643,#1644);
#1378=AXIS2_PLACEMENT_3D('',#2025,#1645,#1646);
#1379=AXIS2_PLACEMENT_3D('',#2027,#1647,#1648);
#1380=AXIS2_PLACEMENT_3D('',#2033,#1652,#1653);
#1381=AXIS2_PLACEMENT_3D('',#2037,#1656,#1657);
#1382=AXIS2_PLACEMENT_3D('',#2041,#1660,#1661);
#1383=AXIS2_PLACEMENT_3D('',#2043,#1663,#1664);
#1384=AXIS2_PLACEMENT_3D('',#2044,#1665,#1666);
#1385=AXIS2_PLACEMENT_3D('',#2046,#1667,#1668);
#1386=AXIS2_PLACEMENT_3D('',#2052,#1672,#1673);
#1387=AXIS2_PLACEMENT_3D('',#2056,#1676,#1677);
#1388=AXIS2_PLACEMENT_3D('',#2060,#1680,#1681);
#1389=AXIS2_PLACEMENT_3D('',#2062,#1683,#1684);
#1390=AXIS2_PLACEMENT_3D('',#2063,#1685,#1686);
#1391=AXIS2_PLACEMENT_3D('',#2065,#1687,#1688);
#1392=AXIS2_PLACEMENT_3D('',#2071,#1692,#1693);
#1393=AXIS2_PLACEMENT_3D('',#2075,#1696,#1697);
#1394=AXIS2_PLACEMENT_3D('',#2079,#1700,#1701);
#1395=AXIS2_PLACEMENT_3D('',#2081,#1703,#1704);
#1396=AXIS2_PLACEMENT_3D('',#2082,#1705,#1706);
#1397=AXIS2_PLACEMENT_3D('',#2084,#1707,#1708);
#1398=AXIS2_PLACEMENT_3D('',#2085,#1709,#1710);
#1399=AXIS2_PLACEMENT_3D('',#2087,#1711,#1712);
#1400=AXIS2_PLACEMENT_3D('',#2088,#1713,#1714);
#1401=AXIS2_PLACEMENT_3D('',#2090,#1715,#1716);
#1402=AXIS2_PLACEMENT_3D('',#2091,#1717,#1718);
#1403=AXIS2_PLACEMENT_3D('',#2093,#1719,#1720);
#1404=AXIS2_PLACEMENT_3D('',#2094,#1721,#1722);
#1405=AXIS2_PLACEMENT_3D('',#2096,#1723,#1724);
#1406=AXIS2_PLACEMENT_3D('',#2097,#1725,#1726);
#1407=AXIS2_PLACEMENT_3D('',#2099,#1727,#1728);
#1408=AXIS2_PLACEMENT_3D('',#2100,#1729,#1730);
#1409=AXIS2_PLACEMENT_3D('',#2102,#1731,#1732);
#1410=AXIS2_PLACEMENT_3D('',#2103,#1733,#1734);
#1411=AXIS2_PLACEMENT_3D('',#2105,#1735,#1736);
#1412=AXIS2_PLACEMENT_3D('',#2106,#1737,#1738);
#1413=AXIS2_PLACEMENT_3D('',#2108,#1739,#1740);
#1414=AXIS2_PLACEMENT_3D('',#2109,#1741,#1742);
#1415=AXIS2_PLACEMENT_3D('',#2111,#1743,#1744);
#1416=AXIS2_PLACEMENT_3D('',#2112,#1745,#1746);
#1417=AXIS2_PLACEMENT_3D('',#2113,#1747,#1748);
#1418=AXIS2_PLACEMENT_3D('',#2115,#1749,#1750);
#1419=AXIS2_PLACEMENT_3D('',#2116,#1751,#1752);
#1420=AXIS2_PLACEMENT_3D('',#2117,#1753,#1754);
#1421=AXIS2_PLACEMENT_3D('',#2119,#1755,#1756);
#1422=AXIS2_PLACEMENT_3D('',#2120,#1757,#1758);
#1423=AXIS2_PLACEMENT_3D('',#2121,#1759,#1760);
#1424=AXIS2_PLACEMENT_3D('',#2123,#1761,#1762);
#1425=AXIS2_PLACEMENT_3D('',#2124,#1763,#1764);
#1426=AXIS2_PLACEMENT_3D('',#2130,#1768,#1769);
#1427=AXIS2_PLACEMENT_3D('',#2136,#1773,#1774);
#1428=AXIS2_PLACEMENT_3D('',#2142,#1778,#1779);
#1429=AXIS2_PLACEMENT_3D('',#2148,#1783,#1784);
#1430=AXIS2_PLACEMENT_3D('',#2150,#1786,#1787);
#1431=AXIS2_PLACEMENT_3D('',#2152,#1789,#1790);
#1432=AXIS2_PLACEMENT_3D('',#2153,#1791,#1792);
#1433=AXIS2_PLACEMENT_3D('',#2154,#1793,#1794);
#1434=DIRECTION('',(0.,0.,1.));
#1435=DIRECTION('',(1.,0.,0.));
#1436=DIRECTION('',(0.898640971147466,0.438684858383714,0.));
#1437=DIRECTION('',(-0.438684858383714,0.898640971147466,0.));
#1438=DIRECTION('',(0.898640971147466,0.438684858383714,0.));
#1439=DIRECTION('',(-0.438684858383714,0.898640971147466,0.));
#1440=DIRECTION('',(0.898640971147466,0.438684858383714,0.));
#1441=DIRECTION('',(-0.438684858383714,0.898640971147466,0.));
#1442=DIRECTION('',(0.,0.,-1.));
#1443=DIRECTION('',(0.438684858383714,-0.898640971147466,0.));
#1444=DIRECTION('',(0.,0.,-1.));
#1445=DIRECTION('',(0.438684858383714,-0.898640971147466,0.));
#1446=DIRECTION('',(0.438684858383715,-0.898640971147466,0.));
#1447=DIRECTION('',(-1.29231852763295E-16,2.64729988854125E-16,-1.));
#1448=DIRECTION('',(0.438684858383715,-0.898640971147466,-1.88556899562696E-16));
#1449=DIRECTION('',(-1.08549684663522E-16,2.22362801404134E-16,-1.));
#1450=DIRECTION('',(0.898640971147466,0.438684858383714,0.));
#1451=DIRECTION('',(-0.438684858383714,0.898640971147466,0.));
#1452=DIRECTION('',(0.898640971147466,0.438684858383714,0.));
#1453=DIRECTION('',(-0.438684858383714,0.898640971147466,0.));
#1454=DIRECTION('',(0.898640971147466,0.438684858383714,0.));
#1455=DIRECTION('',(-0.438684858383714,0.898640971147466,0.));
#1456=DIRECTION('',(0.,0.,-1.));
#1457=DIRECTION('',(0.438684858383714,-0.898640971147466,0.));
#1458=DIRECTION('',(0.,0.,1.));
#1459=DIRECTION('',(0.438684858383714,-0.898640971147466,0.));
#1460=DIRECTION('',(0.438684858383714,-0.898640971147466,0.));
#1461=DIRECTION('',(0.,0.,-1.));
#1462=DIRECTION('',(0.438684858383714,-0.898640971147466,0.));
#1463=DIRECTION('',(0.,0.,-1.));
#1464=DIRECTION('',(-1.29231852763295E-16,2.64729988854125E-16,-1.));
#1465=DIRECTION('',(0.438684858383715,-0.898640971147466,0.));
#1466=DIRECTION('',(-1.08549684663522E-16,2.22362801404134E-16,-1.));
#1467=DIRECTION('',(0.438684858383715,-0.898640971147466,-1.88556899562696E-16));
#1468=DIRECTION('',(-1.,0.,0.));
#1469=DIRECTION('',(0.,0.,1.));
#1470=DIRECTION('',(0.,-1.,0.));
#1471=DIRECTION('',(0.,0.,-1.));
#1472=DIRECTION('',(0.,1.,0.));
#1473=DIRECTION('',(0.,0.,1.));
#1474=DIRECTION('',(0.,0.,-1.));
#1475=DIRECTION('',(0.,1.,0.));
#1476=DIRECTION('',(0.,0.,-1.));
#1477=DIRECTION('',(0.,1.,0.));
#1478=DIRECTION('',(-1.,0.,0.));
#1479=DIRECTION('',(0.,0.,1.));
#1480=DIRECTION('',(0.,1.,0.));
#1481=DIRECTION('',(0.,0.,-1.));
#1482=DIRECTION('',(0.,1.,0.));
#1483=DIRECTION('',(0.,0.,-1.));
#1484=DIRECTION('',(0.,0.,1.));
#1485=DIRECTION('',(0.,-1.,0.));
#1486=DIRECTION('',(0.,0.,1.));
#1487=DIRECTION('',(0.,-1.,0.));
#1488=DIRECTION('',(0.,1.,0.));
#1489=DIRECTION('',(0.,0.,1.));
#1490=DIRECTION('',(1.,0.,0.));
#1491=DIRECTION('',(0.,1.,0.));
#1492=DIRECTION('',(0.,0.,1.));
#1493=DIRECTION('',(0.,1.,0.));
#1494=DIRECTION('',(0.,0.,1.));
#1495=DIRECTION('',(1.,0.,0.));
#1496=DIRECTION('',(0.,1.,0.));
#1497=DIRECTION('',(1.,0.,0.));
#1498=DIRECTION('',(0.,0.,-1.));
#1499=DIRECTION('',(1.,0.,0.));
#1500=DIRECTION('',(1.,0.,0.));
#1501=DIRECTION('',(0.,0.,-1.));
#1502=DIRECTION('',(0.,1.,0.));
#1503=DIRECTION('',(-1.,0.,0.));
#1504=DIRECTION('',(4.8714500568025E-5,-0.999999998813449,0.));
#1505=DIRECTION('',(0.999999998813449,4.8714500568025E-5,0.));
#1506=DIRECTION('',(-0.999999998813449,-4.8714500568025E-5,0.));
#1507=DIRECTION('',(0.,0.,-1.));
#1508=DIRECTION('',(-0.999999998813449,-4.8714500568025E-5,0.));
#1509=DIRECTION('',(0.,0.,1.));
#1510=DIRECTION('',(1.,0.,0.));
#1511=DIRECTION('',(0.,1.,0.));
#1512=DIRECTION('',(-0.999999998813449,-4.8714500568025E-5,0.));
#1513=DIRECTION('',(0.438684858383714,-0.898640971147466,0.));
#1514=DIRECTION('',(0.,0.,1.));
#1515=DIRECTION('',(1.,0.,0.));
#1516=DIRECTION('',(-0.999999998813449,-4.8714500568025E-5,0.));
#1517=DIRECTION('',(0.,1.,0.));
#1518=DIRECTION('',(0.438684858383714,-0.898640971147466,0.));
#1519=DIRECTION('',(4.8714500568025E-5,-0.999999998813449,0.));
#1520=DIRECTION('',(0.999999998813449,4.8714500568025E-5,0.));
#1521=DIRECTION('',(-0.999999998813449,-4.8714500568025E-5,0.));
#1522=DIRECTION('',(0.,0.,-1.));
#1523=DIRECTION('',(0.999999998813449,4.8714500568025E-5,0.));
#1524=DIRECTION('',(0.,0.,1.));
#1525=DIRECTION('',(-0.999999998813449,-4.8714500568025E-5,0.));
#1526=DIRECTION('',(0.,0.,-1.));
#1527=DIRECTION('',(0.999999998813449,4.8714500568025E-5,0.));
#1528=DIRECTION('',(0.,0.,1.));
#1529=DIRECTION('',(-0.999999998813449,-4.8714500568025E-5,0.));
#1530=DIRECTION('',(0.,0.,-1.));
#1531=DIRECTION('',(0.999999998813449,4.8714500568025E-5,0.));
#1532=DIRECTION('',(0.,0.,1.));
#1533=DIRECTION('',(-0.999999998813449,-4.8714500568025E-5,0.));
#1534=DIRECTION('',(0.,0.,-1.));
#1535=DIRECTION('',(0.999999998813449,4.8714500568025E-5,0.));
#1536=DIRECTION('',(0.,0.,1.));
#1537=DIRECTION('',(-0.999999998813449,-4.8714500568025E-5,0.));
#1538=DIRECTION('',(-0.999999998813449,-4.8714500568025E-5,0.));
#1539=DIRECTION('',(0.,0.,1.));
#1540=DIRECTION('',(1.,0.,0.));
#1541=DIRECTION('',(0.,0.,1.));
#1542=DIRECTION('',(1.,0.,0.));
#1543=DIRECTION('',(0.,0.,1.));
#1544=DIRECTION('',(1.,0.,0.));
#1545=DIRECTION('',(0.,0.,1.));
#1546=DIRECTION('',(1.,0.,0.));
#1547=DIRECTION('',(0.,-1.,0.));
#1548=DIRECTION('',(0.,0.,-1.));
#1549=DIRECTION('',(-1.,0.,0.));
#1550=DIRECTION('',(0.,0.,-1.));
#1551=DIRECTION('',(-1.,0.,0.));
#1552=DIRECTION('',(0.,0.,-1.));
#1553=DIRECTION('',(-1.,0.,0.));
#1554=DIRECTION('',(0.,-1.,0.));
#1555=DIRECTION('',(-1.,0.,0.));
#1556=DIRECTION('',(0.,-1.,0.));
#1557=DIRECTION('',(0.,0.,-1.));
#1558=DIRECTION('',(0.,0.,1.));
#1559=DIRECTION('',(-1.,0.,0.));
#1560=DIRECTION('',(0.,0.,-1.));
#1561=DIRECTION('',(-1.,0.,0.));
#1562=DIRECTION('',(0.,1.,0.));
#1563=DIRECTION('',(0.438684858383714,-0.898640971147466,-2.9458927130386E-16));
#1564=DIRECTION('',(0.898640971147466,0.438684858383715,0.));
#1565=DIRECTION('',(0.898640971147466,0.438684858383714,0.));
#1566=DIRECTION('',(0.898640971147466,0.438684858383714,0.));
#1567=DIRECTION('',(0.,0.,1.));
#1568=DIRECTION('',(1.,0.,0.));
#1569=DIRECTION('',(0.898640971147466,0.438684858383714,0.));
#1570=DIRECTION('',(0.438684858383714,-0.898640971147466,-2.47443426845096E-16));
#1571=DIRECTION('',(0.898640971147466,0.438684858383715,0.));
#1572=DIRECTION('',(0.898640971147466,0.438684858383714,0.));
#1573=DIRECTION('',(8.27170567819337E-17,-1.69444955339576E-16,1.));
#1574=DIRECTION('',(0.,-1.,-1.69444955339576E-16));
#1575=DIRECTION('',(0.,1.,0.));
#1576=DIRECTION('',(0.,0.,1.));
#1577=DIRECTION('',(0.,-1.,0.));
#1578=DIRECTION('',(0.,0.,-1.));
#1579=DIRECTION('',(0.,-1.,0.));
#1580=DIRECTION('',(0.,0.,-1.));
#1581=DIRECTION('',(0.,-1.,1.7347234759768E-16));
#1582=DIRECTION('',(0.,-1.7347234759768E-16,-1.));
#1583=DIRECTION('',(0.,0.,-1.));
#1584=DIRECTION('',(-1.,0.,0.));
#1585=DIRECTION('',(0.,0.,1.));
#1586=DIRECTION('',(1.,0.,0.));
#1587=DIRECTION('',(0.,0.,-1.));
#1588=DIRECTION('',(-1.,0.,0.));
#1589=DIRECTION('',(0.,0.,1.));
#1590=DIRECTION('',(1.,0.,0.));
#1591=DIRECTION('',(-0.999999998813449,-4.87145005681477E-5,4.22530938780257E-21));
#1592=DIRECTION('',(4.87145005681477E-5,-0.999999998813449,0.));
#1593=DIRECTION('',(1.38777878078145E-15,-1.7347234759768E-16,-1.));
#1594=DIRECTION('',(-1.,0.,-1.38777878078145E-15));
#1595=DIRECTION('',(-0.999999998813449,-4.871450056676E-5,0.));
#1596=DIRECTION('',(4.871450056676E-5,-0.999999998813449,0.));
#1597=DIRECTION('',(-0.999999998813449,-4.8714500568025E-5,0.));
#1598=DIRECTION('',(4.8714500568025E-5,-0.999999998813449,0.));
#1599=DIRECTION('',(-0.529750585318558,-0.848153475117945,0.));
#1600=DIRECTION('',(0.848153475117945,-0.529750585318558,0.));
#1601=DIRECTION('',(0.999999998813449,4.8714500568025E-5,0.));
#1602=DIRECTION('',(-4.8714500568025E-5,0.999999998813449,0.));
#1603=DIRECTION('',(0.529750585318558,0.848153475117945,0.));
#1604=DIRECTION('',(-0.848153475117945,0.529750585318558,0.));
#1605=DIRECTION('',(0.438684858383714,-0.898640971147466,0.));
#1606=DIRECTION('',(0.898640971147466,0.438684858383714,0.));
#1607=DIRECTION('',(0.310197038166984,-0.635435124550438,0.707106781186548));
#1608=DIRECTION('',(0.310197038166984,-0.635435124550438,-0.707106781186548));
#1609=DIRECTION('',(-0.438684858383714,0.898640971147466,0.));
#1610=DIRECTION('',(-0.898640971147466,-0.438684858383714,0.));
#1611=DIRECTION('',(-0.310197038166984,0.635435124550438,0.707106781186548));
#1612=DIRECTION('',(-0.310197038166984,0.635435124550438,-0.707106781186548));
#1613=DIRECTION('',(0.,0.,-1.));
#1614=DIRECTION('',(-1.,0.,0.));
#1615=DIRECTION('',(0.707106781186548,0.707106781186548,0.));
#1616=DIRECTION('',(0.,0.,1.));
#1617=DIRECTION('',(0.577350269189626,-0.577350269189626,-0.577350269189626));
#1618=DIRECTION('',(-0.577350269189626,0.577350269189626,-0.577350269189626));
#1619=DIRECTION('',(-0.707106781186548,0.,0.707106781186548));
#1620=DIRECTION('',(0.,1.,0.));
#1621=DIRECTION('',(0.577350269189626,0.577350269189626,0.577350269189626));
#1622=DIRECTION('',(0.707106781186548,0.,0.707106781186548));
#1623=DIRECTION('',(0.,-1.,0.));
#1624=DIRECTION('',(0.577350269189626,0.577350269189626,-0.577350269189626));
#1625=DIRECTION('',(-0.707106781186547,0.707106781186548,0.));
#1626=DIRECTION('',(0.,0.,-1.));
#1627=DIRECTION('',(-1.,0.,0.));
#1628=DIRECTION('',(0.,0.,1.));
#1629=DIRECTION('',(0.,-1.,0.));
#1630=DIRECTION('',(0.,0.,-1.));
#1631=DIRECTION('',(0.,-1.,0.));
#1632=DIRECTION('',(0.,0.,-1.));
#1633=DIRECTION('',(-1.,0.,0.));
#1634=DIRECTION('',(1.,0.,0.));
#1635=DIRECTION('',(0.,-1.,0.));
#1636=DIRECTION('',(1.,0.,0.));
#1637=DIRECTION('',(0.,0.,-1.));
#1638=DIRECTION('',(0.,0.,1.));
#1639=DIRECTION('',(0.,-1.,0.));
#1640=DIRECTION('',(0.,0.,1.));
#1641=DIRECTION('',(1.,0.,0.));
#1642=DIRECTION('',(-1.,0.,0.));
#1643=DIRECTION('',(0.,-1.,0.));
#1644=DIRECTION('',(1.,0.,0.));
#1645=DIRECTION('',(0.,-1.,0.));
#1646=DIRECTION('',(0.,0.,-1.));
#1647=DIRECTION('',(-1.,0.,0.));
#1648=DIRECTION('',(0.,0.,1.));
#1649=DIRECTION('',(0.,-1.,0.));
#1650=DIRECTION('',(0.,0.,-1.));
#1651=DIRECTION('',(0.,-1.,0.));
#1652=DIRECTION('',(0.,0.,-1.));
#1653=DIRECTION('',(-1.,0.,0.));
#1654=DIRECTION('',(1.,0.,0.));
#1655=DIRECTION('',(0.,-1.,0.));
#1656=DIRECTION('',(1.,0.,0.));
#1657=DIRECTION('',(0.,0.,-1.));
#1658=DIRECTION('',(0.,0.,1.));
#1659=DIRECTION('',(0.,-1.,0.));
#1660=DIRECTION('',(0.,0.,1.));
#1661=DIRECTION('',(1.,0.,0.));
#1662=DIRECTION('',(-1.,0.,0.));
#1663=DIRECTION('',(0.,-1.,0.));
#1664=DIRECTION('',(1.,0.,0.));
#1665=DIRECTION('',(0.,-1.,0.));
#1666=DIRECTION('',(0.,0.,-1.));
#1667=DIRECTION('',(-1.,0.,0.));
#1668=DIRECTION('',(0.,0.,1.));
#1669=DIRECTION('',(0.,-1.,0.));
#1670=DIRECTION('',(0.,0.,-1.));
#1671=DIRECTION('',(0.,-1.,0.));
#1672=DIRECTION('',(0.,0.,-1.));
#1673=DIRECTION('',(-1.,0.,0.));
#1674=DIRECTION('',(1.,0.,0.));
#1675=DIRECTION('',(0.,-1.,0.));
#1676=DIRECTION('',(1.,0.,0.));
#1677=DIRECTION('',(0.,0.,-1.));
#1678=DIRECTION('',(0.,0.,1.));
#1679=DIRECTION('',(0.,-1.,0.));
#1680=DIRECTION('',(0.,0.,1.));
#1681=DIRECTION('',(1.,0.,0.));
#1682=DIRECTION('',(-1.,0.,0.));
#1683=DIRECTION('',(0.,-1.,0.));
#1684=DIRECTION('',(1.,0.,0.));
#1685=DIRECTION('',(0.,-1.,0.));
#1686=DIRECTION('',(0.,0.,-1.));
#1687=DIRECTION('',(-1.,0.,0.));
#1688=DIRECTION('',(0.,0.,1.));
#1689=DIRECTION('',(0.,-1.,0.));
#1690=DIRECTION('',(0.,0.,-1.));
#1691=DIRECTION('',(0.,-1.,0.));
#1692=DIRECTION('',(0.,0.,-1.));
#1693=DIRECTION('',(-1.,0.,0.));
#1694=DIRECTION('',(1.,0.,0.));
#1695=DIRECTION('',(0.,-1.,0.));
#1696=DIRECTION('',(1.,0.,0.));
#1697=DIRECTION('',(0.,0.,-1.));
#1698=DIRECTION('',(0.,0.,1.));
#1699=DIRECTION('',(0.,-1.,0.));
#1700=DIRECTION('',(0.,0.,1.));
#1701=DIRECTION('',(1.,0.,0.));
#1702=DIRECTION('',(-1.,0.,0.));
#1703=DIRECTION('',(0.,-1.,0.));
#1704=DIRECTION('',(1.,0.,0.));
#1705=DIRECTION('',(0.,-1.,0.));
#1706=DIRECTION('',(0.,0.,-1.));
#1707=DIRECTION('',(0.,1.,0.));
#1708=DIRECTION('',(0.,0.,1.));
#1709=DIRECTION('',(0.,-1.,0.));
#1710=DIRECTION('',(0.,0.,-1.));
#1711=DIRECTION('',(0.,-1.,0.));
#1712=DIRECTION('',(1.,0.,0.));
#1713=DIRECTION('',(0.,-1.,0.));
#1714=DIRECTION('',(0.,0.,-1.));
#1715=DIRECTION('',(0.,1.,0.));
#1716=DIRECTION('',(0.,0.,1.));
#1717=DIRECTION('',(0.,-1.,0.));
#1718=DIRECTION('',(0.,0.,-1.));
#1719=DIRECTION('',(0.,-1.,0.));
#1720=DIRECTION('',(1.,0.,0.));
#1721=DIRECTION('',(0.,-1.,0.));
#1722=DIRECTION('',(0.,0.,-1.));
#1723=DIRECTION('',(0.,1.,0.));
#1724=DIRECTION('',(0.,0.,1.));
#1725=DIRECTION('',(0.,-1.,0.));
#1726=DIRECTION('',(0.,0.,-1.));
#1727=DIRECTION('',(0.,-1.,0.));
#1728=DIRECTION('',(1.,0.,0.));
#1729=DIRECTION('',(0.,-1.,0.));
#1730=DIRECTION('',(0.,0.,-1.));
#1731=DIRECTION('',(0.,1.,0.));
#1732=DIRECTION('',(0.,0.,1.));
#1733=DIRECTION('',(0.,-1.,0.));
#1734=DIRECTION('',(0.,0.,-1.));
#1735=DIRECTION('',(0.,-1.,0.));
#1736=DIRECTION('',(1.,0.,0.));
#1737=DIRECTION('',(0.,-1.,0.));
#1738=DIRECTION('',(0.,0.,-1.));
#1739=DIRECTION('',(0.,1.,0.));
#1740=DIRECTION('',(0.,0.,1.));
#1741=DIRECTION('',(0.,-1.,0.));
#1742=DIRECTION('',(0.,0.,-1.));
#1743=DIRECTION('',(0.,-1.,0.));
#1744=DIRECTION('',(1.,0.,0.));
#1745=DIRECTION('',(0.,1.,0.));
#1746=DIRECTION('',(0.,0.,1.));
#1747=DIRECTION('',(0.,-1.,0.));
#1748=DIRECTION('',(0.,0.,-1.));
#1749=DIRECTION('',(0.,-1.,0.));
#1750=DIRECTION('',(1.,0.,0.));
#1751=DIRECTION('',(0.,1.,0.));
#1752=DIRECTION('',(0.,0.,1.));
#1753=DIRECTION('',(0.,-1.,0.));
#1754=DIRECTION('',(0.,0.,-1.));
#1755=DIRECTION('',(0.,-1.,0.));
#1756=DIRECTION('',(1.,0.,0.));
#1757=DIRECTION('',(0.,1.,0.));
#1758=DIRECTION('',(0.,0.,1.));
#1759=DIRECTION('',(0.,-1.,0.));
#1760=DIRECTION('',(0.,0.,-1.));
#1761=DIRECTION('',(0.,-1.,0.));
#1762=DIRECTION('',(1.,0.,0.));
#1763=DIRECTION('',(-0.438684858383714,0.898640971147466,0.));
#1764=DIRECTION('',(-0.898640971147466,-0.438684858383714,0.));
#1765=DIRECTION('',(0.898640971147466,0.438684858383714,0.));
#1766=DIRECTION('',(0.898640971147466,0.438684858383714,0.));
#1767=DIRECTION('',(0.,0.,-1.));
#1768=DIRECTION('',(0.438684858383714,-0.898640971147466,0.));
#1769=DIRECTION('',(0.898640971147466,0.438684858383714,0.));
#1770=DIRECTION('',(-0.898640971147466,-0.438684858383714,0.));
#1771=DIRECTION('',(-0.898640971147466,-0.438684858383714,0.));
#1772=DIRECTION('',(0.,0.,-1.));
#1773=DIRECTION('',(0.,0.,1.));
#1774=DIRECTION('',(1.,0.,0.));
#1775=DIRECTION('',(0.438684858383715,-0.898640971147466,0.));
#1776=DIRECTION('',(0.898640971147465,0.438684858383716,0.));
#1777=DIRECTION('',(-0.438684858383712,0.898640971147467,0.));
#1778=DIRECTION('',(0.,0.,1.));
#1779=DIRECTION('',(1.,0.,0.));
#1780=DIRECTION('',(-0.438684858383712,0.898640971147467,0.));
#1781=DIRECTION('',(0.898640971147465,0.438684858383716,0.));
#1782=DIRECTION('',(0.438684858383715,-0.898640971147466,0.));
#1783=DIRECTION('',(0.898640971147466,0.438684858383715,0.));
#1784=DIRECTION('',(-0.438684858383715,0.898640971147466,0.));
#1785=DIRECTION('',(0.,0.,-1.));
#1786=DIRECTION('',(-0.438684858383716,0.898640971147465,0.));
#1787=DIRECTION('',(-0.898640971147465,-0.438684858383716,0.));
#1788=DIRECTION('',(0.,0.,-1.));
#1789=DIRECTION('',(-0.898640971147467,-0.438684858383712,0.));
#1790=DIRECTION('',(0.438684858383712,-0.898640971147467,0.));
#1791=DIRECTION('',(0.898640971147466,0.438684858383714,0.));
#1792=DIRECTION('',(-0.438684858383714,0.898640971147466,0.));
#1793=DIRECTION('',(0.898640971147466,0.438684858383714,0.));
#1794=DIRECTION('',(-0.438684858383714,0.898640971147466,0.));
#1795=CARTESIAN_POINT('',(0.,0.,0.));
#1796=CARTESIAN_POINT('',(0.0632990544782704,0.0129802300979542,0.083));
#1797=CARTESIAN_POINT('',(0.068144868247497,0.00305363539481861,0.0195));
#1798=CARTESIAN_POINT('',(0.0674429724740831,0.00449146094865456,0.0195));
#1799=CARTESIAN_POINT('',(0.068144868247497,0.00305363539481861,0.0595));
#1800=CARTESIAN_POINT('',(0.0674429724740831,0.00449146094865456,0.0595));
#1801=CARTESIAN_POINT('',(0.054419125921753,0.0311706633195379,0.083));
#1802=CARTESIAN_POINT('',(0.054419125921753,0.0311706633195379,0.001));
#1803=CARTESIAN_POINT('',(0.054419125921753,0.0311706633195379,0.078));
#1804=CARTESIAN_POINT('',(0.0632990544782704,0.0129802300979542,0.078));
#1805=CARTESIAN_POINT('',(0.0735490544054162,-0.00801677883171089,0.078));
#1806=CARTESIAN_POINT('',(0.0735490544054162,-0.00801677883171089,0.083));
#1807=CARTESIAN_POINT('',(0.0735490544054162,-0.00801677883171089,0.001));
#1808=CARTESIAN_POINT('',(0.0530490545511246,0.0339772390276194,0.001));
#1809=CARTESIAN_POINT('',(0.0613540266397171,0.0169645976281814,0.072785));
#1810=CARTESIAN_POINT('',(0.0573181259425869,0.0252320945627381,0.072785));
#1811=CARTESIAN_POINT('',(0.0653899273368473,0.00869710069362469,0.072785));
#1812=CARTESIAN_POINT('',(0.0573181259425869,0.0252320945627381,0.041285));
#1813=CARTESIAN_POINT('',(0.0573181259425869,0.0252320945627381,0.009785));
#1814=CARTESIAN_POINT('',(0.0613540266397171,0.0169645976281814,0.009785));
#1815=CARTESIAN_POINT('',(0.0653899273368473,0.00869710069362473,0.009785));
#1816=CARTESIAN_POINT('',(0.0653899273368473,0.0086971006936247,0.041285));
#1817=CARTESIAN_POINT('',(0.0611423161475164,0.0119273864378333,0.083));
#1818=CARTESIAN_POINT('',(0.0659881299167431,0.0020007917346977,0.0195));
#1819=CARTESIAN_POINT('',(0.0652862341433292,0.00343861728853365,0.0195));
#1820=CARTESIAN_POINT('',(0.0659881299167431,0.0020007917346977,0.0595));
#1821=CARTESIAN_POINT('',(0.0652862341433292,0.00343861728853365,0.0595));
#1822=CARTESIAN_POINT('',(0.0535128154134067,0.0275563324067723,0.083));
#1823=CARTESIAN_POINT('',(0.0535128154134067,0.0275563324067723,0.0695));
#1824=CARTESIAN_POINT('',(0.0535128154134067,0.0275563324067723,0.0095));
#1825=CARTESIAN_POINT('',(0.0611423161475164,0.0119273864378333,0.0695));
#1826=CARTESIAN_POINT('',(0.0543901851301741,0.0257590504644774,0.0695));
#1827=CARTESIAN_POINT('',(0.0543901851301741,0.0257590504644774,0.083));
#1828=CARTESIAN_POINT('',(0.0543901851301741,0.0257590504644774,0.0095));
#1829=CARTESIAN_POINT('',(0.0611423161475164,0.0119273864378333,0.0095));
#1830=CARTESIAN_POINT('',(0.0611423161475164,0.0119273864378333,0.0806));
#1831=CARTESIAN_POINT('',(0.0503888385666214,0.0339557636471862,0.0806));
#1832=CARTESIAN_POINT('',(0.0697068508300937,-0.00561696599989164,0.0806));
#1833=CARTESIAN_POINT('',(0.0503888385666214,0.0339557636471862,0.0806));
#1834=CARTESIAN_POINT('',(0.0503888385666214,0.0339557636471862,-0.0016));
#1835=CARTESIAN_POINT('',(0.0611423161475164,0.0119273864378333,-0.0016));
#1836=CARTESIAN_POINT('',(0.0697068508300937,-0.00561696599989164,-0.0016));
#1837=CARTESIAN_POINT('',(0.0697068508300937,-0.00561696599989163,0.083));
#1838=CARTESIAN_POINT('',(0.055161387611833,0.0241792509026172,0.041285));
#1839=CARTESIAN_POINT('',(0.055161387611833,0.0241792509026172,0.072785));
#1840=CARTESIAN_POINT('',(0.055161387611833,0.0241792509026172,0.009785));
#1841=CARTESIAN_POINT('',(0.0591972883089632,0.0159117539680605,0.072785));
#1842=CARTESIAN_POINT('',(0.0632331890060933,0.00764425703350377,0.072785));
#1843=CARTESIAN_POINT('',(0.0632331890060933,0.00764425703350378,0.041285));
#1844=CARTESIAN_POINT('',(0.0632331890060933,0.00764425703350379,0.009785));
#1845=CARTESIAN_POINT('',(0.0591972883089632,0.0159117539680605,0.009785));
#1846=CARTESIAN_POINT('',(-0.0492509454488754,0.0129772390276194,0.083));
#1847=CARTESIAN_POINT('',(-0.0492509454488754,0.0129772390276194,0.04532));
#1848=CARTESIAN_POINT('',(-0.0492509454488754,0.01704,0.04532));
#1849=CARTESIAN_POINT('',(-0.0492509454488754,0.00704,0.04532));
#1850=CARTESIAN_POINT('',(-0.0492509454488754,0.00704,0.03032));
#1851=CARTESIAN_POINT('',(-0.0492509454488754,0.00704,0.02932));
#1852=CARTESIAN_POINT('',(-0.0492509454488754,0.01604,0.02932));
#1853=CARTESIAN_POINT('',(-0.0492509454488754,0.01704,0.02932));
#1854=CARTESIAN_POINT('',(-0.0492509454488754,0.01704,0.083));
#1855=CARTESIAN_POINT('',(-0.0492509454488754,0.0339772390276194,0.083));
#1856=CARTESIAN_POINT('',(-0.0492509454488754,0.0339772390276194,0.078));
#1857=CARTESIAN_POINT('',(-0.0492509454488754,0.0339772390276194,0.001));
#1858=CARTESIAN_POINT('',(-0.0492509454488754,-0.00802276097238064,0.001));
#1859=CARTESIAN_POINT('',(-0.0492509454488754,-0.00302251739394475,0.001));
#1860=CARTESIAN_POINT('',(-0.0492509454488754,-0.00302251739394475,0.083));
#1861=CARTESIAN_POINT('',(-0.0492509454488754,-0.00302251739394475,0.078));
#1862=CARTESIAN_POINT('',(-0.0492509454488754,0.0129772390276194,0.078));
#1863=CARTESIAN_POINT('',(-0.0468509454488754,0.0129772390276194,0.083));
#1864=CARTESIAN_POINT('',(-0.0468509454488754,0.0129772390276194,-0.0016));
#1865=CARTESIAN_POINT('',(-0.0468509454488754,-0.00562264405473141,-0.0016));
#1866=CARTESIAN_POINT('',(-0.0468509454488754,0.0339772390276194,-0.0016));
#1867=CARTESIAN_POINT('',(-0.0468509454488754,0.0339772390276194,0.083));
#1868=CARTESIAN_POINT('',(-0.0468509454488754,0.0339772390276194,0.0806));
#1869=CARTESIAN_POINT('',(-0.0468509454488754,0.0129772390276194,0.0806));
#1870=CARTESIAN_POINT('',(-0.0468509454488754,-0.00562264405473141,0.0806));
#1871=CARTESIAN_POINT('',(-0.0468509454488754,-0.00562264405473141,0.083));
#1872=CARTESIAN_POINT('',(-0.0468509454488754,0.01604,0.03732));
#1873=CARTESIAN_POINT('',(-0.0468509454488754,0.01604,0.03032));
#1874=CARTESIAN_POINT('',(-0.0468509454488754,0.01604,0.04432));
#1875=CARTESIAN_POINT('',(-0.0468509454488754,0.01204,0.03032));
#1876=CARTESIAN_POINT('',(-0.0468509454488754,0.00804,0.03032));
#1877=CARTESIAN_POINT('',(-0.0468509454488754,0.00804,0.03732));
#1878=CARTESIAN_POINT('',(-0.0468509454488754,0.00804,0.04432));
#1879=CARTESIAN_POINT('',(-0.0468509454488754,0.01204,0.04432));
#1880=CARTESIAN_POINT('',(0.00189905455112458,0.0339772390276194,0.083));
#1881=CARTESIAN_POINT('',(0.00189905455112458,0.0339772390276194,-0.004));
#1882=CARTESIAN_POINT('',(-0.0442509454488755,0.0339772390276194,-0.004));
#1883=CARTESIAN_POINT('',(0.0474850972416603,0.0339772390276194,-0.004));
#1884=CARTESIAN_POINT('',(-0.0442509454488755,0.0339772390276194,0.001));
#1885=CARTESIAN_POINT('',(-0.0442509454488755,0.0339772390276194,0.078));
#1886=CARTESIAN_POINT('',(-0.0442509454488755,0.0339772390276194,0.083));
#1887=CARTESIAN_POINT('',(0.00189905455112458,0.0339772390276194,0.083));
#1888=CARTESIAN_POINT('',(0.0474850972416603,0.0339772390276194,0.083));
#1889=CARTESIAN_POINT('',(0.0474850972416603,0.0339772390276194,0.078));
#1890=CARTESIAN_POINT('',(0.0499259210660157,0.0339772390276194,0.0824932048557373));
#1891=CARTESIAN_POINT('',(0.0499259210660157,0.0339772390276194,0.083));
#1892=CARTESIAN_POINT('',(0.0499259210660157,0.0339772390276194,0.0806));
#1893=CARTESIAN_POINT('',(0.00189905455112458,0.0339772390276194,0.0806));
#1894=CARTESIAN_POINT('',(0.00189905455112458,0.0339772390276194,-0.0016));
#1895=CARTESIAN_POINT('',(0.0499259210660157,0.0339772390276194,-0.0016));
#1896=CARTESIAN_POINT('',(0.0499259210660157,0.0339772390276194,0.083));
#1897=CARTESIAN_POINT('',(0.0499259210660157,0.0339772390276194,-0.00349320485573733));
#1898=CARTESIAN_POINT('',(0.0474850972416603,0.0339772390276194,0.001));
#1899=CARTESIAN_POINT('',(0.0121490544782703,-0.00801976990204576,0.083));
#1900=CARTESIAN_POINT('',(0.0121490544782703,-0.00801976990204576,0.078));
#1901=CARTESIAN_POINT('',(-0.0442507018763726,-0.008022517388012,0.078));
#1902=CARTESIAN_POINT('',(-0.0442507018763726,-0.008022517388012,0.083));
#1903=CARTESIAN_POINT('',(-0.0442507018763726,-0.008022517388012,0.001));
#1904=CARTESIAN_POINT('',(0.0735490544054162,-0.00801677883171089,0.001));
#1905=CARTESIAN_POINT('',(0.0121490544782703,0.0129772390276194,0.083));
#1906=CARTESIAN_POINT('',(-0.0442509454488755,0.0129772390276194,0.083));
#1907=CARTESIAN_POINT('',(-0.0442509454488755,-0.00302251739394475,0.083));
#1908=CARTESIAN_POINT('',(0.0121498337645697,-0.00301976985815047,0.083));
#1909=CARTESIAN_POINT('',(0.0655444636234943,-0.00301716876542079,0.083));
#1910=CARTESIAN_POINT('',(0.0489634974483619,0.0309487529239736,0.083));
#1911=CARTESIAN_POINT('',(0.0121490544782703,0.0129772390276194,-0.004));
#1912=CARTESIAN_POINT('',(-0.0492511890213784,-0.00302276097831339,-0.004));
#1913=CARTESIAN_POINT('',(0.0655444636234943,-0.00301716876542079,-0.004));
#1914=CARTESIAN_POINT('',(-0.0442509454488755,-0.00302251739394476,-0.004));
#1915=CARTESIAN_POINT('',(-0.0442509454488755,0.0339772390276194,-0.004));
#1916=CARTESIAN_POINT('',(0.0690558495496788,-0.0102102031236295,-0.004));
#1917=CARTESIAN_POINT('',(0.012148937563469,-0.00561976990489348,0.083));
#1918=CARTESIAN_POINT('',(0.012148937563469,-0.00561976990489348,0.013943));
#1919=CARTESIAN_POINT('',(-0.036449,-0.00562213732915333,0.013943));
#1920=CARTESIAN_POINT('',(-0.045449,-0.00562257575965897,0.013943));
#1921=CARTESIAN_POINT('',(-0.045449,-0.00562257575965897,0.083));
#1922=CARTESIAN_POINT('',(-0.045449,-0.00562257575965897,0.004943));
#1923=CARTESIAN_POINT('',(0.012148937563469,-0.00561976990489348,0.004943));
#1924=CARTESIAN_POINT('',(-0.036449,-0.00562213732915334,0.004943));
#1925=CARTESIAN_POINT('',(-0.036449,-0.00562213732915333,0.083));
#1926=CARTESIAN_POINT('',(0.012148937563469,-0.00561976990489348,0.071813));
#1927=CARTESIAN_POINT('',(0.049051,-0.00561797223934983,0.071813));
#1928=CARTESIAN_POINT('',(0.040051,-0.00561841066985546,0.071813));
#1929=CARTESIAN_POINT('',(0.040051,-0.00561841066985546,0.083));
#1930=CARTESIAN_POINT('',(0.040051,-0.00561841066985546,0.063943));
#1931=CARTESIAN_POINT('',(0.012148937563469,-0.00561976990489348,0.063943));
#1932=CARTESIAN_POINT('',(0.049051,-0.00561797223934982,0.063943));
#1933=CARTESIAN_POINT('',(0.049051,-0.00561797223934982,0.083));
#1934=CARTESIAN_POINT('',(0.012148937563469,-0.00561976990489348,0.011443));
#1935=CARTESIAN_POINT('',(0.049051,-0.00561797223934983,0.011443));
#1936=CARTESIAN_POINT('',(0.040051,-0.00561841066985546,0.011443));
#1937=CARTESIAN_POINT('',(0.040051,-0.00561841066985546,0.083));
#1938=CARTESIAN_POINT('',(0.040051,-0.00561841066985546,0.001643));
#1939=CARTESIAN_POINT('',(0.012148937563469,-0.00561976990489348,0.001643));
#1940=CARTESIAN_POINT('',(0.049051,-0.00561797223934982,0.001643));
#1941=CARTESIAN_POINT('',(0.049051,-0.00561797223934982,0.083));
#1942=CARTESIAN_POINT('',(0.012148937563469,-0.00561976990489348,0.070943));
#1943=CARTESIAN_POINT('',(-0.035949,-0.00562211297190302,0.070943));
#1944=CARTESIAN_POINT('',(-0.044949,-0.00562255140240865,0.070943));
#1945=CARTESIAN_POINT('',(-0.044949,-0.00562255140240865,0.083));
#1946=CARTESIAN_POINT('',(-0.044949,-0.00562255140240866,0.061943));
#1947=CARTESIAN_POINT('',(0.012148937563469,-0.00561976990489348,0.061943));
#1948=CARTESIAN_POINT('',(-0.035949,-0.00562211297190302,0.061943));
#1949=CARTESIAN_POINT('',(-0.035949,-0.00562211297190302,0.083));
#1950=CARTESIAN_POINT('',(0.012148937563469,-0.00561976990489348,-0.0016));
#1951=CARTESIAN_POINT('',(0.012148937563469,-0.00561976990489348,0.0806));
#1952=CARTESIAN_POINT('',(0.0121490544782703,0.0129772390276194,0.0806));
#1953=CARTESIAN_POINT('',(0.0499259210660157,0.0289772390276193,0.0806));
#1954=CARTESIAN_POINT('',(0.0121490544782703,0.0129772390276194,-0.0016));
#1955=CARTESIAN_POINT('',(0.0499259210660157,0.0289772390276193,-0.0016));
#1956=CARTESIAN_POINT('',(-0.0468509454488754,0.01604,0.03732));
#1957=CARTESIAN_POINT('',(-0.0468509454488754,0.01604,0.04432));
#1958=CARTESIAN_POINT('',(-0.0482509454488754,0.01604,0.04432));
#1959=CARTESIAN_POINT('',(-0.0482509454488754,0.01604,0.03732));
#1960=CARTESIAN_POINT('',(-0.0482509454488754,0.01604,0.03032));
#1961=CARTESIAN_POINT('',(-0.0468509454488754,0.01604,0.03032));
#1962=CARTESIAN_POINT('',(-0.0468509454488754,0.01204,0.03032));
#1963=CARTESIAN_POINT('',(-0.0482509454488754,0.00804,0.03032));
#1964=CARTESIAN_POINT('',(-0.0482509454488754,0.00804,0.03032));
#1965=CARTESIAN_POINT('',(-0.0468509454488754,0.00804,0.03032));
#1966=CARTESIAN_POINT('',(-0.0468509454488754,0.00804,0.03732));
#1967=CARTESIAN_POINT('',(-0.0482509454488754,0.00804,0.04432));
#1968=CARTESIAN_POINT('',(-0.0482509454488754,0.00804,0.04432));
#1969=CARTESIAN_POINT('',(-0.0468509454488754,0.00804,0.04432));
#1970=CARTESIAN_POINT('',(-0.0468509454488754,0.01204,0.04432));
#1971=CARTESIAN_POINT('',(-0.0482509454488754,0.01204,0.04432));
#1972=CARTESIAN_POINT('',(0.055161387611833,0.0241792509026172,0.041285));
#1973=CARTESIAN_POINT('',(0.055161387611833,0.0241792509026172,0.072785));
#1974=CARTESIAN_POINT('',(0.055161387611833,0.0241792509026172,0.009785));
#1975=CARTESIAN_POINT('',(0.0591972883089632,0.0159117539680605,0.072785));
#1976=CARTESIAN_POINT('',(0.0632331890060933,0.00764425703350377,0.072785));
#1977=CARTESIAN_POINT('',(0.0632331890060933,0.00764425703350378,0.041285));
#1978=CARTESIAN_POINT('',(0.0632331890060933,0.00764425703350379,0.009785));
#1979=CARTESIAN_POINT('',(0.0591972883089632,0.0159117539680605,0.009785));
#1980=CARTESIAN_POINT('',(-0.0442509454488755,0.0129772390276194,0.078));
#1981=CARTESIAN_POINT('',(-0.0442509454488755,-0.00302251739394475,0.078));
#1982=CARTESIAN_POINT('',(-0.0442509454488755,0.0129772390276194,0.001));
#1983=CARTESIAN_POINT('',(-0.0442509454488755,-0.00302251739394475,0.001));
#1984=CARTESIAN_POINT('',(-0.0442509454488755,-0.00302251739394475,0.083));
#1985=CARTESIAN_POINT('',(-0.0442509454488755,-0.00302251739394475,0.078));
#1986=CARTESIAN_POINT('',(-0.0442509454488755,-0.00302251739394476,0.001));
#1987=CARTESIAN_POINT('',(-0.0442509454488755,-0.00302251739394475,0.078));
#1988=CARTESIAN_POINT('',(-0.0442509454488755,-0.00302251739394476,0.078));
#1989=CARTESIAN_POINT('',(-0.0442509454488755,-0.00302251739394475,0.001));
#1990=CARTESIAN_POINT('',(-0.0442509454488755,-0.00302251739394476,0.001));
#1991=CARTESIAN_POINT('',(0.0121488109057675,-0.00301976990797852,0.078));
#1992=CARTESIAN_POINT('',(0.0655444636234943,-0.00301716876542078,0.078));
#1993=CARTESIAN_POINT('',(0.0121498337645697,-0.00301976985815047,0.001));
#1994=CARTESIAN_POINT('',(0.0655444636234943,-0.00301716876542079,0.001));
#1995=CARTESIAN_POINT('',(0.058805849622533,0.0107868058060357,0.078));
#1996=CARTESIAN_POINT('',(0.0499259210660157,0.0289772390276193,0.078));
#1997=CARTESIAN_POINT('',(0.0489634974483619,0.0309487529239736,0.001));
#1998=CARTESIAN_POINT('',(0.0499259210660157,0.0289772390276193,0.001));
#1999=CARTESIAN_POINT('',(0.0499259210660157,0.0289772390276193,0.083));
#2000=CARTESIAN_POINT('',(-0.0492509454488754,0.01704,0.083));
#2001=CARTESIAN_POINT('',(-0.0618109454488754,0.0296,0.05788));
#2002=CARTESIAN_POINT('',(-0.0469176121155421,0.0147066666666667,0.0316533333333334));
#2003=CARTESIAN_POINT('',(-0.0482509454488754,0.01204,0.03032));
#2004=CARTESIAN_POINT('',(-0.0459176121155421,0.0103733333333333,0.0326533333333333));
#2005=CARTESIAN_POINT('',(-0.0492509454488754,0.0129772390276194,0.04532));
#2006=CARTESIAN_POINT('',(-0.0459176121155421,0.0103733333333333,0.0419866666666667));
#2007=CARTESIAN_POINT('',(-0.0482509454488754,0.00804,0.03732));
#2008=CARTESIAN_POINT('',(-0.044949,0.02568,0.066443));
#2009=CARTESIAN_POINT('',(-0.044949,0.02568,0.070943));
#2010=CARTESIAN_POINT('',(-0.044949,0.02568,0.070943));
#2011=CARTESIAN_POINT('',(-0.044949,0.02568,0.066443));
#2012=CARTESIAN_POINT('',(-0.044949,0.02568,0.061943));
#2013=CARTESIAN_POINT('',(-0.044949,0.02568,0.061943));
#2014=CARTESIAN_POINT('',(-0.040449,0.02568,0.061943));
#2015=CARTESIAN_POINT('',(-0.040449,0.02568,0.061943));
#2016=CARTESIAN_POINT('',(-0.035949,0.02568,0.061943));
#2017=CARTESIAN_POINT('',(-0.035949,0.02568,0.061943));
#2018=CARTESIAN_POINT('',(-0.035949,0.02568,0.066443));
#2019=CARTESIAN_POINT('',(-0.035949,0.02568,0.066443));
#2020=CARTESIAN_POINT('',(-0.035949,0.02568,0.070943));
#2021=CARTESIAN_POINT('',(-0.035949,0.02568,0.070943));
#2022=CARTESIAN_POINT('',(-0.040449,0.02568,0.070943));
#2023=CARTESIAN_POINT('',(-0.040449,0.02568,0.070943));
#2024=CARTESIAN_POINT('',(0.001801,0.02568,0.036728));
#2025=CARTESIAN_POINT('',(-0.040449,0.02568,0.066443));
#2026=CARTESIAN_POINT('',(-0.040449,0.02568,0.064143));
#2027=CARTESIAN_POINT('',(0.040051,0.02568,0.006543));
#2028=CARTESIAN_POINT('',(0.040051,0.02568,0.011443));
#2029=CARTESIAN_POINT('',(0.040051,0.02568,0.011443));
#2030=CARTESIAN_POINT('',(0.040051,0.02568,0.006543));
#2031=CARTESIAN_POINT('',(0.040051,0.02568,0.001643));
#2032=CARTESIAN_POINT('',(0.040051,0.02568,0.001643));
#2033=CARTESIAN_POINT('',(0.044551,0.02568,0.001643));
#2034=CARTESIAN_POINT('',(0.044551,0.02568,0.001643));
#2035=CARTESIAN_POINT('',(0.049051,0.02568,0.001643));
#2036=CARTESIAN_POINT('',(0.049051,0.02568,0.001643));
#2037=CARTESIAN_POINT('',(0.049051,0.02568,0.006543));
#2038=CARTESIAN_POINT('',(0.049051,0.02568,0.006543));
#2039=CARTESIAN_POINT('',(0.049051,0.02568,0.011443));
#2040=CARTESIAN_POINT('',(0.049051,0.02568,0.011443));
#2041=CARTESIAN_POINT('',(0.044551,0.02568,0.011443));
#2042=CARTESIAN_POINT('',(0.044551,0.02568,0.011443));
#2043=CARTESIAN_POINT('',(0.001801,0.02568,0.036728));
#2044=CARTESIAN_POINT('',(0.044551,0.02568,0.006943));
#2045=CARTESIAN_POINT('',(0.044551,0.02568,0.004643));
#2046=CARTESIAN_POINT('',(0.040051,0.02568,0.067878));
#2047=CARTESIAN_POINT('',(0.040051,0.02568,0.071813));
#2048=CARTESIAN_POINT('',(0.040051,0.02568,0.071813));
#2049=CARTESIAN_POINT('',(0.040051,0.02568,0.067878));
#2050=CARTESIAN_POINT('',(0.040051,0.02568,0.063943));
#2051=CARTESIAN_POINT('',(0.040051,0.02568,0.063943));
#2052=CARTESIAN_POINT('',(0.044551,0.02568,0.063943));
#2053=CARTESIAN_POINT('',(0.044551,0.02568,0.063943));
#2054=CARTESIAN_POINT('',(0.049051,0.02568,0.063943));
#2055=CARTESIAN_POINT('',(0.049051,0.02568,0.063943));
#2056=CARTESIAN_POINT('',(0.049051,0.02568,0.067878));
#2057=CARTESIAN_POINT('',(0.049051,0.02568,0.067878));
#2058=CARTESIAN_POINT('',(0.049051,0.02568,0.071813));
#2059=CARTESIAN_POINT('',(0.049051,0.02568,0.071813));
#2060=CARTESIAN_POINT('',(0.044551,0.02568,0.071813));
#2061=CARTESIAN_POINT('',(0.044551,0.02568,0.071813));
#2062=CARTESIAN_POINT('',(0.001801,0.02568,0.036728));
#2063=CARTESIAN_POINT('',(0.044551,0.02568,0.068443));
#2064=CARTESIAN_POINT('',(0.044551,0.02568,0.066143));
#2065=CARTESIAN_POINT('',(-0.045449,0.02568,0.009443));
#2066=CARTESIAN_POINT('',(-0.045449,0.02568,0.013943));
#2067=CARTESIAN_POINT('',(-0.045449,0.02568,0.013943));
#2068=CARTESIAN_POINT('',(-0.045449,0.02568,0.009443));
#2069=CARTESIAN_POINT('',(-0.045449,0.02568,0.004943));
#2070=CARTESIAN_POINT('',(-0.045449,0.02568,0.004943));
#2071=CARTESIAN_POINT('',(-0.040949,0.02568,0.004943));
#2072=CARTESIAN_POINT('',(-0.040949,0.02568,0.004943));
#2073=CARTESIAN_POINT('',(-0.036449,0.02568,0.004943));
#2074=CARTESIAN_POINT('',(-0.036449,0.02568,0.004943));
#2075=CARTESIAN_POINT('',(-0.036449,0.02568,0.009443));
#2076=CARTESIAN_POINT('',(-0.036449,0.02568,0.009443));
#2077=CARTESIAN_POINT('',(-0.036449,0.02568,0.013943));
#2078=CARTESIAN_POINT('',(-0.036449,0.02568,0.013943));
#2079=CARTESIAN_POINT('',(-0.040949,0.02568,0.013943));
#2080=CARTESIAN_POINT('',(-0.040949,0.02568,0.013943));
#2081=CARTESIAN_POINT('',(0.001801,0.02568,0.036728));
#2082=CARTESIAN_POINT('',(-0.040949,0.02568,0.009443));
#2083=CARTESIAN_POINT('',(-0.040949,0.02568,0.007143));
#2084=CARTESIAN_POINT('',(-0.040949,0.02068,0.009443));
#2085=CARTESIAN_POINT('',(-0.040949,0.02068,0.009443));
#2086=CARTESIAN_POINT('',(-0.040949,0.02068,0.007143));
#2087=CARTESIAN_POINT('',(0.001801,0.02068,0.037693));
#2088=CARTESIAN_POINT('',(-0.040949,0.02068,0.009443));
#2089=CARTESIAN_POINT('',(-0.040949,0.02068,0.007843));
#2090=CARTESIAN_POINT('',(0.044551,0.02068,0.068443));
#2091=CARTESIAN_POINT('',(0.044551,0.02068,0.068443));
#2092=CARTESIAN_POINT('',(0.044551,0.02068,0.066143));
#2093=CARTESIAN_POINT('',(0.001801,0.02068,0.037693));
#2094=CARTESIAN_POINT('',(0.044551,0.02068,0.068443));
#2095=CARTESIAN_POINT('',(0.044551,0.02068,0.066843));
#2096=CARTESIAN_POINT('',(0.044551,0.02068,0.006943));
#2097=CARTESIAN_POINT('',(0.044551,0.02068,0.006943));
#2098=CARTESIAN_POINT('',(0.044551,0.02068,0.004643));
#2099=CARTESIAN_POINT('',(0.001801,0.02068,0.037693));
#2100=CARTESIAN_POINT('',(0.044551,0.02068,0.006943));
#2101=CARTESIAN_POINT('',(0.044551,0.02068,0.005343));
#2102=CARTESIAN_POINT('',(-0.040449,0.02068,0.066443));
#2103=CARTESIAN_POINT('',(-0.040449,0.02068,0.066443));
#2104=CARTESIAN_POINT('',(-0.040449,0.02068,0.064143));
#2105=CARTESIAN_POINT('',(0.001801,0.02068,0.037693));
#2106=CARTESIAN_POINT('',(-0.040449,0.02068,0.066443));
#2107=CARTESIAN_POINT('',(-0.040449,0.02068,0.064843));
#2108=CARTESIAN_POINT('',(-0.040449,0.00968,0.066443));
#2109=CARTESIAN_POINT('',(-0.040449,0.00968,0.066443));
#2110=CARTESIAN_POINT('',(-0.040449,0.00968,0.064843));
#2111=CARTESIAN_POINT('',(0.001801,0.00968,0.037693));
#2112=CARTESIAN_POINT('',(0.044551,0.00968,0.006943));
#2113=CARTESIAN_POINT('',(0.044551,0.00968,0.006943));
#2114=CARTESIAN_POINT('',(0.044551,0.00968,0.005343));
#2115=CARTESIAN_POINT('',(0.001801,0.00968,0.037693));
#2116=CARTESIAN_POINT('',(0.044551,0.00968,0.068443));
#2117=CARTESIAN_POINT('',(0.044551,0.00968,0.068443));
#2118=CARTESIAN_POINT('',(0.044551,0.00968,0.066843));
#2119=CARTESIAN_POINT('',(0.001801,0.00968,0.037693));
#2120=CARTESIAN_POINT('',(-0.040949,0.00968,0.009443));
#2121=CARTESIAN_POINT('',(-0.040949,0.00968,0.009443));
#2122=CARTESIAN_POINT('',(-0.040949,0.00968,0.007843));
#2123=CARTESIAN_POINT('',(0.001801,0.00968,0.037693));
#2124=CARTESIAN_POINT('',(0.0539404895396339,0.0255395249222578,0.0695));
#2125=CARTESIAN_POINT('',(0.0539404895396339,0.0255395249222578,0.0095));
#2126=CARTESIAN_POINT('',(0.0529519844713717,0.0250569715780357,0.0095));
#2127=CARTESIAN_POINT('',(0.0539404895396339,0.0255395249222578,0.0695));
#2128=CARTESIAN_POINT('',(0.0529519844713717,0.0250569715780357,0.0695));
#2129=CARTESIAN_POINT('',(0.0529519844713717,0.0250569715780357,0.0695));
#2130=CARTESIAN_POINT('',(0.0526587313858501,0.02713939867828,0.0695));
#2131=CARTESIAN_POINT('',(0.0526587313858501,0.02713939867828,0.0695));
#2132=CARTESIAN_POINT('',(0.0512658378805715,0.0264594371477853,0.0695));
#2133=CARTESIAN_POINT('',(0.0526587313858501,0.02713939867828,0.0095));
#2134=CARTESIAN_POINT('',(0.0512658378805715,0.0264594371477853,0.0095));
#2135=CARTESIAN_POINT('',(0.0512658378805715,0.0264594371477853,0.0695));
#2136=CARTESIAN_POINT('',(0.0530974162442338,0.0255218449302145,0.0695));
#2137=CARTESIAN_POINT('',(0.0520554706256622,0.0248418833997198,0.0695));
#2138=CARTESIAN_POINT('',(0.0528451033707529,0.0232243296516544,0.0695));
#2139=CARTESIAN_POINT('',(0.0532494918077693,0.023421737837927,0.0695));
#2140=CARTESIAN_POINT('',(0.0536538802447856,0.0236191460241997,0.0695));
#2141=CARTESIAN_POINT('',(0.0533029323580787,0.0243380588011177,0.0695));
#2142=CARTESIAN_POINT('',(0.0530974162442338,0.0255218449302145,0.0095));
#2143=CARTESIAN_POINT('',(0.0533029323580787,0.0243380588011177,0.0095));
#2144=CARTESIAN_POINT('',(0.0536538802447856,0.0236191460241997,0.0095));
#2145=CARTESIAN_POINT('',(0.0532494918077693,0.023421737837927,0.0095));
#2146=CARTESIAN_POINT('',(0.0528451033707529,0.0232243296516544,0.0095));
#2147=CARTESIAN_POINT('',(0.0520554706256622,0.0248418833997198,0.0095));
#2148=CARTESIAN_POINT('',(0.0520554706256622,0.0248418833997198,0.0695));
#2149=CARTESIAN_POINT('',(0.0528451033707529,0.0232243296516544,0.0695));
#2150=CARTESIAN_POINT('',(0.0532494918077693,0.023421737837927,0.0695));
#2151=CARTESIAN_POINT('',(0.0536538802447856,0.0236191460241997,0.0695));
#2152=CARTESIAN_POINT('',(0.0533029323580787,0.0243380588011177,0.0695));
#2153=CARTESIAN_POINT('',(0.0649996248484809,0.00151823839047562,0.0595));
#2154=CARTESIAN_POINT('',(0.0649996248484809,0.00151823839047562,0.0195));
#2155=MECHANICAL_DESIGN_GEOMETRIC_PRESENTATION_REPRESENTATION('',(#1308),
#2156);
#2156=(
GEOMETRIC_REPRESENTATION_CONTEXT(3)
GLOBAL_UNCERTAINTY_ASSIGNED_CONTEXT((#2157))
GLOBAL_UNIT_ASSIGNED_CONTEXT((#2160,#2159,#2158))
REPRESENTATION_CONTEXT('Part 1','TOP_LEVEL_ASSEMBLY_PART')
);
#2157=UNCERTAINTY_MEASURE_WITH_UNIT(LENGTH_MEASURE(1.E-8),#2160,
'DISTANCE_ACCURACY_VALUE','Maximum Tolerance applied to model');
#2158=(
NAMED_UNIT(*)
SI_UNIT($,.STERADIAN.)
SOLID_ANGLE_UNIT()
);
#2159=(
NAMED_UNIT(*)
PLANE_ANGLE_UNIT()
SI_UNIT($,.RADIAN.)
);
#2160=(
LENGTH_UNIT()
NAMED_UNIT(*)
SI_UNIT($,.METRE.)
);
#2161=PRODUCT_DEFINITION_SHAPE('','',#2162);
#2162=PRODUCT_DEFINITION('','',#2164,#2163);
#2163=PRODUCT_DEFINITION_CONTEXT('',#2170,'design');
#2164=PRODUCT_DEFINITION_FORMATION_WITH_SPECIFIED_SOURCE('','',#2166,
 .NOT_KNOWN.);
#2165=PRODUCT_RELATED_PRODUCT_CATEGORY('','',(#2166));
#2166=PRODUCT('Part 1','Part 1','Part 1',(#2168));
#2167=PRODUCT_CATEGORY('','');
#2168=PRODUCT_CONTEXT('',#2170,'mechanical');
#2169=APPLICATION_PROTOCOL_DEFINITION('international standard',
'automotive_design',2010,#2170);
#2170=APPLICATION_CONTEXT(
'core data for automotive mechanical design processes');
ENDSEC;
END-ISO-10303-21;
