ISO-10303-21;
HEADER;
/* Generated by software containing ST-Developer
 * from STEP Tools, Inc. (www.steptools.com) 
 */
/* OPTION: using custom renumber hook */

FILE_DESCRIPTION(
/* description */ ('STEP AP242 Edition 2',
'CAx-IF Rec.Pracs.---Representation and Presentation of Product Manufa
cturing Information (PMI)---4.0---2014-10-13',
'CAx-IF Rec.Pracs.---3D Tessellated Geometry---0.4---2014-09-14','2;1',
'CAx-IF Rec.Pracs.---User Defined Attributes---1.5---2016-08-15'),
/* implementation_level */ '2;1');

FILE_NAME(
/* name */ 'Display clamp bar',
/* time_stamp */ '2026-09-11T22:26:59Z',
/* author */ (''),
/* organization */ (''),
/* preprocessor_version */ 'ST-DEVELOPER v20',
/* originating_system */ 'ONSHAPE BY PTC INC, 1.220',
/* authorisation */ '  ');

FILE_SCHEMA (('AP242_MANAGED_MODEL_BASED_3D_ENGINEERING_MIM_LF { 1 0 10303 442 3 1 4 }'));
ENDSEC;

DATA;
#10=SHAPE_REPRESENTATION_RELATIONSHIP('','',#407,#11);
#11=ADVANCED_BREP_SHAPE_REPRESENTATION('',(#405),#641);
#12=CYLINDRICAL_SURFACE('',#430,0.0017);
#13=CYLINDRICAL_SURFACE('',#431,0.0017);
#14=CIRCLE('',#412,0.0017);
#15=CIRCLE('',#418,0.0017);
#16=CIRCLE('',#419,0.0017);
#17=CIRCLE('',#421,0.0017);
#18=ORIENTED_EDGE('',*,*,#122,.T.);
#19=ORIENTED_EDGE('',*,*,#123,.T.);
#20=ORIENTED_EDGE('',*,*,#124,.F.);
#21=ORIENTED_EDGE('',*,*,#125,.T.);
#22=ORIENTED_EDGE('',*,*,#126,.T.);
#23=ORIENTED_EDGE('',*,*,#127,.T.);
#24=ORIENTED_EDGE('',*,*,#128,.F.);
#25=ORIENTED_EDGE('',*,*,#129,.T.);
#26=ORIENTED_EDGE('',*,*,#130,.T.);
#27=ORIENTED_EDGE('',*,*,#131,.F.);
#28=ORIENTED_EDGE('',*,*,#132,.T.);
#29=ORIENTED_EDGE('',*,*,#133,.F.);
#30=ORIENTED_EDGE('',*,*,#134,.F.);
#31=ORIENTED_EDGE('',*,*,#134,.T.);
#32=ORIENTED_EDGE('',*,*,#135,.F.);
#33=ORIENTED_EDGE('',*,*,#136,.F.);
#34=ORIENTED_EDGE('',*,*,#137,.T.);
#35=ORIENTED_EDGE('',*,*,#133,.T.);
#36=ORIENTED_EDGE('',*,*,#138,.F.);
#37=ORIENTED_EDGE('',*,*,#139,.T.);
#38=ORIENTED_EDGE('',*,*,#140,.T.);
#39=ORIENTED_EDGE('',*,*,#141,.T.);
#40=ORIENTED_EDGE('',*,*,#128,.T.);
#41=ORIENTED_EDGE('',*,*,#142,.T.);
#42=ORIENTED_EDGE('',*,*,#122,.F.);
#43=ORIENTED_EDGE('',*,*,#143,.T.);
#44=ORIENTED_EDGE('',*,*,#144,.F.);
#45=ORIENTED_EDGE('',*,*,#145,.T.);
#46=ORIENTED_EDGE('',*,*,#146,.T.);
#47=ORIENTED_EDGE('',*,*,#147,.T.);
#48=ORIENTED_EDGE('',*,*,#148,.F.);
#49=ORIENTED_EDGE('',*,*,#149,.F.);
#50=ORIENTED_EDGE('',*,*,#135,.T.);
#51=ORIENTED_EDGE('',*,*,#150,.T.);
#52=ORIENTED_EDGE('',*,*,#151,.F.);
#53=ORIENTED_EDGE('',*,*,#152,.F.);
#54=ORIENTED_EDGE('',*,*,#148,.T.);
#55=ORIENTED_EDGE('',*,*,#153,.T.);
#56=ORIENTED_EDGE('',*,*,#131,.T.);
#57=ORIENTED_EDGE('',*,*,#137,.F.);
#58=ORIENTED_EDGE('',*,*,#154,.F.);
#59=ORIENTED_EDGE('',*,*,#151,.T.);
#60=ORIENTED_EDGE('',*,*,#155,.T.);
#61=ORIENTED_EDGE('',*,*,#156,.F.);
#62=ORIENTED_EDGE('',*,*,#157,.T.);
#63=ORIENTED_EDGE('',*,*,#158,.T.);
#64=ORIENTED_EDGE('',*,*,#159,.T.);
#65=ORIENTED_EDGE('',*,*,#124,.T.);
#66=ORIENTED_EDGE('',*,*,#160,.T.);
#67=ORIENTED_EDGE('',*,*,#126,.F.);
#68=ORIENTED_EDGE('',*,*,#161,.T.);
#69=ORIENTED_EDGE('',*,*,#162,.F.);
#70=ORIENTED_EDGE('',*,*,#163,.T.);
#71=ORIENTED_EDGE('',*,*,#164,.F.);
#72=ORIENTED_EDGE('',*,*,#165,.F.);
#73=ORIENTED_EDGE('',*,*,#136,.T.);
#74=ORIENTED_EDGE('',*,*,#149,.T.);
#75=ORIENTED_EDGE('',*,*,#152,.T.);
#76=ORIENTED_EDGE('',*,*,#154,.T.);
#77=ORIENTED_EDGE('',*,*,#166,.T.);
#78=ORIENTED_EDGE('',*,*,#147,.F.);
#79=ORIENTED_EDGE('',*,*,#167,.T.);
#80=ORIENTED_EDGE('',*,*,#155,.F.);
#81=ORIENTED_EDGE('',*,*,#150,.F.);
#82=ORIENTED_EDGE('',*,*,#125,.F.);
#83=ORIENTED_EDGE('',*,*,#159,.F.);
#84=ORIENTED_EDGE('',*,*,#168,.F.);
#85=ORIENTED_EDGE('',*,*,#143,.F.);
#86=ORIENTED_EDGE('',*,*,#169,.F.);
#87=ORIENTED_EDGE('',*,*,#161,.F.);
#88=ORIENTED_EDGE('',*,*,#129,.F.);
#89=ORIENTED_EDGE('',*,*,#141,.F.);
#90=ORIENTED_EDGE('',*,*,#132,.F.);
#91=ORIENTED_EDGE('',*,*,#153,.F.);
#92=ORIENTED_EDGE('',*,*,#170,.T.);
#93=ORIENTED_EDGE('',*,*,#138,.T.);
#94=ORIENTED_EDGE('',*,*,#162,.T.);
#95=ORIENTED_EDGE('',*,*,#169,.T.);
#96=ORIENTED_EDGE('',*,*,#140,.F.);
#97=ORIENTED_EDGE('',*,*,#171,.T.);
#98=ORIENTED_EDGE('',*,*,#170,.F.);
#99=ORIENTED_EDGE('',*,*,#163,.F.);
#100=ORIENTED_EDGE('',*,*,#171,.F.);
#101=ORIENTED_EDGE('',*,*,#139,.F.);
#102=ORIENTED_EDGE('',*,*,#144,.T.);
#103=ORIENTED_EDGE('',*,*,#168,.T.);
#104=ORIENTED_EDGE('',*,*,#158,.F.);
#105=ORIENTED_EDGE('',*,*,#172,.T.);
#106=ORIENTED_EDGE('',*,*,#167,.F.);
#107=ORIENTED_EDGE('',*,*,#146,.F.);
#108=ORIENTED_EDGE('',*,*,#173,.T.);
#109=ORIENTED_EDGE('',*,*,#156,.T.);
#110=ORIENTED_EDGE('',*,*,#172,.F.);
#111=ORIENTED_EDGE('',*,*,#157,.F.);
#112=ORIENTED_EDGE('',*,*,#173,.F.);
#113=ORIENTED_EDGE('',*,*,#145,.F.);
#114=ORIENTED_EDGE('',*,*,#165,.T.);
#115=ORIENTED_EDGE('',*,*,#166,.F.);
#116=ORIENTED_EDGE('',*,*,#164,.T.);
#117=ORIENTED_EDGE('',*,*,#130,.F.);
#118=ORIENTED_EDGE('',*,*,#127,.F.);
#119=ORIENTED_EDGE('',*,*,#160,.F.);
#120=ORIENTED_EDGE('',*,*,#123,.F.);
#121=ORIENTED_EDGE('',*,*,#142,.F.);
#122=EDGE_CURVE('',#174,#175,#210,.T.);
#123=EDGE_CURVE('',#175,#176,#211,.T.);
#124=EDGE_CURVE('',#177,#176,#212,.T.);
#125=EDGE_CURVE('',#177,#174,#213,.T.);
#126=EDGE_CURVE('',#178,#179,#214,.T.);
#127=EDGE_CURVE('',#179,#180,#215,.T.);
#128=EDGE_CURVE('',#181,#180,#216,.T.);
#129=EDGE_CURVE('',#181,#178,#217,.T.);
#130=EDGE_CURVE('',#182,#182,#14,.T.);
#131=EDGE_CURVE('',#183,#184,#218,.T.);
#132=EDGE_CURVE('',#183,#185,#219,.T.);
#133=EDGE_CURVE('',#186,#185,#220,.T.);
#134=EDGE_CURVE('',#184,#186,#221,.T.);
#135=EDGE_CURVE('',#187,#186,#222,.T.);
#136=EDGE_CURVE('',#188,#187,#223,.T.);
#137=EDGE_CURVE('',#188,#184,#224,.T.);
#138=EDGE_CURVE('',#189,#185,#225,.T.);
#139=EDGE_CURVE('',#189,#190,#226,.T.);
#140=EDGE_CURVE('',#190,#191,#227,.T.);
#141=EDGE_CURVE('',#191,#181,#228,.T.);
#142=EDGE_CURVE('',#180,#175,#229,.T.);
#143=EDGE_CURVE('',#174,#192,#230,.T.);
#144=EDGE_CURVE('',#193,#192,#231,.T.);
#145=EDGE_CURVE('',#193,#194,#232,.T.);
#146=EDGE_CURVE('',#194,#195,#233,.T.);
#147=EDGE_CURVE('',#195,#196,#234,.T.);
#148=EDGE_CURVE('',#197,#196,#235,.T.);
#149=EDGE_CURVE('',#187,#197,#236,.T.);
#150=EDGE_CURVE('',#196,#198,#237,.T.);
#151=EDGE_CURVE('',#199,#198,#238,.T.);
#152=EDGE_CURVE('',#197,#199,#239,.T.);
#153=EDGE_CURVE('',#200,#183,#240,.T.);
#154=EDGE_CURVE('',#199,#188,#241,.T.);
#155=EDGE_CURVE('',#198,#201,#242,.T.);
#156=EDGE_CURVE('',#202,#201,#243,.T.);
#157=EDGE_CURVE('',#202,#203,#244,.T.);
#158=EDGE_CURVE('',#203,#204,#245,.T.);
#159=EDGE_CURVE('',#204,#177,#246,.T.);
#160=EDGE_CURVE('',#176,#179,#247,.T.);
#161=EDGE_CURVE('',#178,#205,#248,.T.);
#162=EDGE_CURVE('',#206,#205,#249,.T.);
#163=EDGE_CURVE('',#206,#200,#250,.T.);
#164=EDGE_CURVE('',#207,#207,#15,.T.);
#165=EDGE_CURVE('',#208,#208,#16,.T.);
#166=EDGE_CURVE('',#209,#209,#17,.T.);
#167=EDGE_CURVE('',#195,#201,#251,.T.);
#168=EDGE_CURVE('',#192,#204,#252,.T.);
#169=EDGE_CURVE('',#205,#191,#253,.T.);
#170=EDGE_CURVE('',#200,#189,#254,.T.);
#171=EDGE_CURVE('',#190,#206,#255,.T.);
#172=EDGE_CURVE('',#203,#193,#256,.T.);
#173=EDGE_CURVE('',#194,#202,#257,.T.);
#174=VERTEX_POINT('',#534);
#175=VERTEX_POINT('',#535);
#176=VERTEX_POINT('',#537);
#177=VERTEX_POINT('',#539);
#178=VERTEX_POINT('',#543);
#179=VERTEX_POINT('',#544);
#180=VERTEX_POINT('',#546);
#181=VERTEX_POINT('',#548);
#182=VERTEX_POINT('',#552);
#183=VERTEX_POINT('',#554);
#184=VERTEX_POINT('',#555);
#185=VERTEX_POINT('',#557);
#186=VERTEX_POINT('',#559);
#187=VERTEX_POINT('',#563);
#188=VERTEX_POINT('',#565);
#189=VERTEX_POINT('',#569);
#190=VERTEX_POINT('',#571);
#191=VERTEX_POINT('',#573);
#192=VERTEX_POINT('',#577);
#193=VERTEX_POINT('',#579);
#194=VERTEX_POINT('',#581);
#195=VERTEX_POINT('',#583);
#196=VERTEX_POINT('',#585);
#197=VERTEX_POINT('',#587);
#198=VERTEX_POINT('',#591);
#199=VERTEX_POINT('',#593);
#200=VERTEX_POINT('',#597);
#201=VERTEX_POINT('',#600);
#202=VERTEX_POINT('',#602);
#203=VERTEX_POINT('',#604);
#204=VERTEX_POINT('',#606);
#205=VERTEX_POINT('',#610);
#206=VERTEX_POINT('',#612);
#207=VERTEX_POINT('',#616);
#208=VERTEX_POINT('',#618);
#209=VERTEX_POINT('',#621);
#210=LINE('',#533,#258);
#211=LINE('',#536,#259);
#212=LINE('',#538,#260);
#213=LINE('',#540,#261);
#214=LINE('',#542,#262);
#215=LINE('',#545,#263);
#216=LINE('',#547,#264);
#217=LINE('',#549,#265);
#218=LINE('',#553,#266);
#219=LINE('',#556,#267);
#220=LINE('',#558,#268);
#221=LINE('',#560,#269);
#222=LINE('',#562,#270);
#223=LINE('',#564,#271);
#224=LINE('',#566,#272);
#225=LINE('',#568,#273);
#226=LINE('',#570,#274);
#227=LINE('',#572,#275);
#228=LINE('',#574,#276);
#229=LINE('',#575,#277);
#230=LINE('',#576,#278);
#231=LINE('',#578,#279);
#232=LINE('',#580,#280);
#233=LINE('',#582,#281);
#234=LINE('',#584,#282);
#235=LINE('',#586,#283);
#236=LINE('',#588,#284);
#237=LINE('',#590,#285);
#238=LINE('',#592,#286);
#239=LINE('',#594,#287);
#240=LINE('',#596,#288);
#241=LINE('',#598,#289);
#242=LINE('',#599,#290);
#243=LINE('',#601,#291);
#244=LINE('',#603,#292);
#245=LINE('',#605,#293);
#246=LINE('',#607,#294);
#247=LINE('',#608,#295);
#248=LINE('',#609,#296);
#249=LINE('',#611,#297);
#250=LINE('',#613,#298);
#251=LINE('',#622,#299);
#252=LINE('',#624,#300);
#253=LINE('',#626,#301);
#254=LINE('',#628,#302);
#255=LINE('',#630,#303);
#256=LINE('',#633,#304);
#257=LINE('',#635,#305);
#258=VECTOR('',#437,1.);
#259=VECTOR('',#438,1.);
#260=VECTOR('',#439,1.);
#261=VECTOR('',#440,1.);
#262=VECTOR('',#443,1.);
#263=VECTOR('',#444,1.);
#264=VECTOR('',#445,1.);
#265=VECTOR('',#446,1.);
#266=VECTOR('',#451,1.);
#267=VECTOR('',#452,1.);
#268=VECTOR('',#453,1.);
#269=VECTOR('',#454,1.);
#270=VECTOR('',#457,1.);
#271=VECTOR('',#458,1.);
#272=VECTOR('',#459,1.);
#273=VECTOR('',#462,1.);
#274=VECTOR('',#463,1.);
#275=VECTOR('',#464,1.);
#276=VECTOR('',#465,1.);
#277=VECTOR('',#466,1.);
#278=VECTOR('',#467,1.);
#279=VECTOR('',#468,1.);
#280=VECTOR('',#469,1.);
#281=VECTOR('',#470,1.);
#282=VECTOR('',#471,1.);
#283=VECTOR('',#472,1.);
#284=VECTOR('',#473,1.);
#285=VECTOR('',#476,1.);
#286=VECTOR('',#477,1.);
#287=VECTOR('',#478,1.);
#288=VECTOR('',#481,1.);
#289=VECTOR('',#482,1.);
#290=VECTOR('',#483,1.);
#291=VECTOR('',#484,1.);
#292=VECTOR('',#485,1.);
#293=VECTOR('',#486,1.);
#294=VECTOR('',#487,1.);
#295=VECTOR('',#488,1.);
#296=VECTOR('',#489,1.);
#297=VECTOR('',#490,1.);
#298=VECTOR('',#491,1.);
#299=VECTOR('',#502,1.);
#300=VECTOR('',#505,1.);
#301=VECTOR('',#508,1.);
#302=VECTOR('',#511,1.);
#303=VECTOR('',#514,1.);
#304=VECTOR('',#519,1.);
#305=VECTOR('',#522,1.);
#306=EDGE_LOOP('',(#18,#19,#20,#21));
#307=EDGE_LOOP('',(#22,#23,#24,#25));
#308=EDGE_LOOP('',(#26));
#309=EDGE_LOOP('',(#27,#28,#29,#30));
#310=EDGE_LOOP('',(#31,#32,#33,#34));
#311=EDGE_LOOP('',(#35,#36,#37,#38,#39,#40,#41,#42,#43,#44,#45,#46,#47,
#48,#49,#50));
#312=EDGE_LOOP('',(#51,#52,#53,#54));
#313=EDGE_LOOP('',(#55,#56,#57,#58,#59,#60,#61,#62,#63,#64,#65,#66,#67,
#68,#69,#70));
#314=EDGE_LOOP('',(#71));
#315=EDGE_LOOP('',(#72));
#316=EDGE_LOOP('',(#73,#74,#75,#76));
#317=EDGE_LOOP('',(#77));
#318=EDGE_LOOP('',(#78,#79,#80,#81));
#319=EDGE_LOOP('',(#82,#83,#84,#85));
#320=EDGE_LOOP('',(#86,#87,#88,#89));
#321=EDGE_LOOP('',(#90,#91,#92,#93));
#322=EDGE_LOOP('',(#94,#95,#96,#97));
#323=EDGE_LOOP('',(#98,#99,#100,#101));
#324=EDGE_LOOP('',(#102,#103,#104,#105));
#325=EDGE_LOOP('',(#106,#107,#108,#109));
#326=EDGE_LOOP('',(#110,#111,#112,#113));
#327=EDGE_LOOP('',(#114));
#328=EDGE_LOOP('',(#115));
#329=EDGE_LOOP('',(#116));
#330=EDGE_LOOP('',(#117));
#331=EDGE_LOOP('',(#118,#119,#120,#121));
#332=FACE_BOUND('',#306,.T.);
#333=FACE_BOUND('',#307,.T.);
#334=FACE_BOUND('',#308,.T.);
#335=FACE_BOUND('',#309,.T.);
#336=FACE_BOUND('',#310,.T.);
#337=FACE_BOUND('',#311,.T.);
#338=FACE_BOUND('',#312,.T.);
#339=FACE_BOUND('',#313,.T.);
#340=FACE_BOUND('',#314,.T.);
#341=FACE_BOUND('',#315,.T.);
#342=FACE_BOUND('',#316,.T.);
#343=FACE_BOUND('',#317,.T.);
#344=FACE_BOUND('',#318,.T.);
#345=FACE_BOUND('',#319,.T.);
#346=FACE_BOUND('',#320,.T.);
#347=FACE_BOUND('',#321,.T.);
#348=FACE_BOUND('',#322,.T.);
#349=FACE_BOUND('',#323,.T.);
#350=FACE_BOUND('',#324,.T.);
#351=FACE_BOUND('',#325,.T.);
#352=FACE_BOUND('',#326,.T.);
#353=FACE_BOUND('',#327,.T.);
#354=FACE_BOUND('',#328,.T.);
#355=FACE_BOUND('',#329,.T.);
#356=FACE_BOUND('',#330,.T.);
#357=FACE_BOUND('',#331,.T.);
#358=PLANE('',#409);
#359=PLANE('',#410);
#360=PLANE('',#411);
#361=PLANE('',#413);
#362=PLANE('',#414);
#363=PLANE('',#415);
#364=PLANE('',#416);
#365=PLANE('',#417);
#366=PLANE('',#420);
#367=PLANE('',#422);
#368=PLANE('',#423);
#369=PLANE('',#424);
#370=PLANE('',#425);
#371=PLANE('',#426);
#372=PLANE('',#427);
#373=PLANE('',#428);
#374=PLANE('',#429);
#375=PLANE('',#432);
#376=ADVANCED_FACE('',(#332),#358,.T.);
#377=ADVANCED_FACE('',(#333),#359,.T.);
#378=ADVANCED_FACE('',(#334,#335),#360,.F.);
#379=ADVANCED_FACE('',(#336),#361,.F.);
#380=ADVANCED_FACE('',(#337),#362,.F.);
#381=ADVANCED_FACE('',(#338),#363,.F.);
#382=ADVANCED_FACE('',(#339),#364,.F.);
#383=ADVANCED_FACE('',(#340,#341,#342),#365,.T.);
#384=ADVANCED_FACE('',(#343,#344),#366,.F.);
#385=ADVANCED_FACE('',(#345),#367,.F.);
#386=ADVANCED_FACE('',(#346),#368,.F.);
#387=ADVANCED_FACE('',(#347),#369,.T.);
#388=ADVANCED_FACE('',(#348),#370,.T.);
#389=ADVANCED_FACE('',(#349),#371,.F.);
#390=ADVANCED_FACE('',(#350),#372,.T.);
#391=ADVANCED_FACE('',(#351),#373,.T.);
#392=ADVANCED_FACE('',(#352),#374,.F.);
#393=ADVANCED_FACE('',(#353,#354),#12,.F.);
#394=ADVANCED_FACE('',(#355,#356),#13,.F.);
#395=ADVANCED_FACE('',(#357),#375,.F.);
#396=CLOSED_SHELL('',(#376,#377,#378,#379,#380,#381,#382,#383,#384,#385,
#386,#387,#388,#389,#390,#391,#392,#393,#394,#395));
#397=STYLED_ITEM('',(#398),#405);
#398=PRESENTATION_STYLE_ASSIGNMENT((#399));
#399=SURFACE_STYLE_USAGE(.BOTH.,#400);
#400=SURFACE_SIDE_STYLE('',(#401));
#401=SURFACE_STYLE_FILL_AREA(#402);
#402=FILL_AREA_STYLE('',(#403));
#403=FILL_AREA_STYLE_COLOUR('',#404);
#404=COLOUR_RGB('',0.615686274509804,0.811764705882353,0.929411764705882);
#405=MANIFOLD_SOLID_BREP('Display clamp bar',#396);
#406=SHAPE_DEFINITION_REPRESENTATION(#646,#407);
#407=SHAPE_REPRESENTATION('Display clamp bar',(#408),#641);
#408=AXIS2_PLACEMENT_3D('',#531,#433,#434);
#409=AXIS2_PLACEMENT_3D('',#532,#435,#436);
#410=AXIS2_PLACEMENT_3D('',#541,#441,#442);
#411=AXIS2_PLACEMENT_3D('',#550,#447,#448);
#412=AXIS2_PLACEMENT_3D('',#551,#449,#450);
#413=AXIS2_PLACEMENT_3D('',#561,#455,#456);
#414=AXIS2_PLACEMENT_3D('',#567,#460,#461);
#415=AXIS2_PLACEMENT_3D('',#589,#474,#475);
#416=AXIS2_PLACEMENT_3D('',#595,#479,#480);
#417=AXIS2_PLACEMENT_3D('',#614,#492,#493);
#418=AXIS2_PLACEMENT_3D('',#615,#494,#495);
#419=AXIS2_PLACEMENT_3D('',#617,#496,#497);
#420=AXIS2_PLACEMENT_3D('',#619,#498,#499);
#421=AXIS2_PLACEMENT_3D('',#620,#500,#501);
#422=AXIS2_PLACEMENT_3D('',#623,#503,#504);
#423=AXIS2_PLACEMENT_3D('',#625,#506,#507);
#424=AXIS2_PLACEMENT_3D('',#627,#509,#510);
#425=AXIS2_PLACEMENT_3D('',#629,#512,#513);
#426=AXIS2_PLACEMENT_3D('',#631,#515,#516);
#427=AXIS2_PLACEMENT_3D('',#632,#517,#518);
#428=AXIS2_PLACEMENT_3D('',#634,#520,#521);
#429=AXIS2_PLACEMENT_3D('',#636,#523,#524);
#430=AXIS2_PLACEMENT_3D('',#637,#525,#526);
#431=AXIS2_PLACEMENT_3D('',#638,#527,#528);
#432=AXIS2_PLACEMENT_3D('',#639,#529,#530);
#433=DIRECTION('',(0.,0.,1.));
#434=DIRECTION('',(1.,0.,0.));
#435=DIRECTION('',(-1.,0.,0.));
#436=DIRECTION('',(0.,0.,1.));
#437=DIRECTION('',(0.,0.,1.));
#438=DIRECTION('',(0.,1.,0.));
#439=DIRECTION('',(0.,0.,1.));
#440=DIRECTION('',(0.,-1.,0.));
#441=DIRECTION('',(1.,0.,0.));
#442=DIRECTION('',(0.,0.,-1.));
#443=DIRECTION('',(0.,0.,1.));
#444=DIRECTION('',(0.,-1.,0.));
#445=DIRECTION('',(0.,0.,1.));
#446=DIRECTION('',(0.,1.,0.));
#447=DIRECTION('',(0.,0.,1.));
#448=DIRECTION('',(1.,0.,0.));
#449=DIRECTION('',(0.,0.,1.));
#450=DIRECTION('',(1.,0.,0.));
#451=DIRECTION('',(-1.,0.,0.));
#452=DIRECTION('',(0.,-1.,0.));
#453=DIRECTION('',(1.,0.,0.));
#454=DIRECTION('',(0.,-1.,0.));
#455=DIRECTION('',(1.,0.,0.));
#456=DIRECTION('',(0.,0.,-1.));
#457=DIRECTION('',(0.,0.,-1.));
#458=DIRECTION('',(0.,-1.,0.));
#459=DIRECTION('',(0.,0.,-1.));
#460=DIRECTION('',(0.,1.,0.));
#461=DIRECTION('',(0.,0.,1.));
#462=DIRECTION('',(0.,0.,1.));
#463=DIRECTION('',(1.,0.,0.));
#464=DIRECTION('',(0.,0.,1.));
#465=DIRECTION('',(1.,0.,0.));
#466=DIRECTION('',(1.,0.,0.));
#467=DIRECTION('',(1.,0.,0.));
#468=DIRECTION('',(0.,0.,1.));
#469=DIRECTION('',(1.,0.,0.));
#470=DIRECTION('',(0.,0.,1.));
#471=DIRECTION('',(1.,0.,0.));
#472=DIRECTION('',(0.,0.,-1.));
#473=DIRECTION('',(1.,0.,0.));
#474=DIRECTION('',(-1.,0.,0.));
#475=DIRECTION('',(0.,0.,1.));
#476=DIRECTION('',(0.,1.,0.));
#477=DIRECTION('',(0.,0.,-1.));
#478=DIRECTION('',(0.,1.,0.));
#479=DIRECTION('',(0.,-1.,0.));
#480=DIRECTION('',(0.,0.,-1.));
#481=DIRECTION('',(0.,0.,1.));
#482=DIRECTION('',(-1.,0.,0.));
#483=DIRECTION('',(-1.,0.,0.));
#484=DIRECTION('',(0.,0.,1.));
#485=DIRECTION('',(-1.,0.,0.));
#486=DIRECTION('',(0.,0.,1.));
#487=DIRECTION('',(-1.,0.,0.));
#488=DIRECTION('',(-1.,0.,0.));
#489=DIRECTION('',(-1.,0.,0.));
#490=DIRECTION('',(0.,0.,1.));
#491=DIRECTION('',(-1.,0.,0.));
#492=DIRECTION('',(0.,0.,1.));
#493=DIRECTION('',(1.,0.,0.));
#494=DIRECTION('',(0.,0.,1.));
#495=DIRECTION('',(1.,0.,0.));
#496=DIRECTION('',(0.,0.,1.));
#497=DIRECTION('',(1.,0.,0.));
#498=DIRECTION('',(0.,0.,1.));
#499=DIRECTION('',(1.,0.,0.));
#500=DIRECTION('',(0.,0.,1.));
#501=DIRECTION('',(1.,0.,0.));
#502=DIRECTION('',(0.,1.,0.));
#503=DIRECTION('',(0.,0.,1.));
#504=DIRECTION('',(1.,0.,0.));
#505=DIRECTION('',(0.,1.,0.));
#506=DIRECTION('',(0.,0.,1.));
#507=DIRECTION('',(1.,0.,0.));
#508=DIRECTION('',(0.,-1.,0.));
#509=DIRECTION('',(-1.,0.,0.));
#510=DIRECTION('',(0.,0.,1.));
#511=DIRECTION('',(0.,-1.,0.));
#512=DIRECTION('',(1.,0.,0.));
#513=DIRECTION('',(0.,0.,-1.));
#514=DIRECTION('',(0.,1.,0.));
#515=DIRECTION('',(0.,0.,1.));
#516=DIRECTION('',(1.,0.,0.));
#517=DIRECTION('',(-1.,0.,0.));
#518=DIRECTION('',(0.,0.,1.));
#519=DIRECTION('',(0.,-1.,0.));
#520=DIRECTION('',(1.,0.,0.));
#521=DIRECTION('',(0.,0.,-1.));
#522=DIRECTION('',(0.,1.,0.));
#523=DIRECTION('',(0.,0.,1.));
#524=DIRECTION('',(1.,0.,0.));
#525=DIRECTION('',(0.,0.,-1.));
#526=DIRECTION('',(-1.,0.,0.));
#527=DIRECTION('',(0.,0.,-1.));
#528=DIRECTION('',(-1.,0.,0.));
#529=DIRECTION('',(0.,0.,1.));
#530=DIRECTION('',(1.,0.,0.));
#531=CARTESIAN_POINT('',(0.,0.,0.));
#532=CARTESIAN_POINT('',(0.0088,0.,-0.0048));
#533=CARTESIAN_POINT('',(0.0088,-0.004,-0.0048));
#534=CARTESIAN_POINT('',(0.0088,-0.004,-0.0048));
#535=CARTESIAN_POINT('',(0.0088,-0.004,-0.0033));
#536=CARTESIAN_POINT('',(0.0088,0.,-0.0033));
#537=CARTESIAN_POINT('',(0.0088,0.004,-0.0033));
#538=CARTESIAN_POINT('',(0.0088,0.004,-0.0048));
#539=CARTESIAN_POINT('',(0.0088,0.004,-0.0048));
#540=CARTESIAN_POINT('',(0.0088,0.,-0.0048));
#541=CARTESIAN_POINT('',(-0.0088,0.,-0.0048));
#542=CARTESIAN_POINT('',(-0.0088,0.004,-0.0048));
#543=CARTESIAN_POINT('',(-0.0088,0.004,-0.0048));
#544=CARTESIAN_POINT('',(-0.0088,0.004,-0.0033));
#545=CARTESIAN_POINT('',(-0.0088,0.,-0.0033));
#546=CARTESIAN_POINT('',(-0.0088,-0.004,-0.0033));
#547=CARTESIAN_POINT('',(-0.0088,-0.004,-0.0048));
#548=CARTESIAN_POINT('',(-0.0088,-0.004,-0.0048));
#549=CARTESIAN_POINT('',(-0.0088,0.,-0.0048));
#550=CARTESIAN_POINT('',(0.,0.,0.));
#551=CARTESIAN_POINT('',(-0.01554,1.04094977927525E-19,0.));
#552=CARTESIAN_POINT('',(-0.01384,1.04094977927525E-19,0.));
#553=CARTESIAN_POINT('',(0.,0.004,0.));
#554=CARTESIAN_POINT('',(-0.0118,0.004,0.));
#555=CARTESIAN_POINT('',(-0.019,0.004,0.));
#556=CARTESIAN_POINT('',(-0.0118,0.,0.));
#557=CARTESIAN_POINT('',(-0.0118,-0.004,0.));
#558=CARTESIAN_POINT('',(0.,-0.004,0.));
#559=CARTESIAN_POINT('',(-0.019,-0.004,0.));
#560=CARTESIAN_POINT('',(-0.019,0.,0.));
#561=CARTESIAN_POINT('',(-0.019,0.,0.002));
#562=CARTESIAN_POINT('',(-0.019,-0.004,0.002));
#563=CARTESIAN_POINT('',(-0.019,-0.004,0.002));
#564=CARTESIAN_POINT('',(-0.019,0.,0.002));
#565=CARTESIAN_POINT('',(-0.019,0.004,0.002));
#566=CARTESIAN_POINT('',(-0.019,0.004,0.002));
#567=CARTESIAN_POINT('',(0.,-0.004,0.002));
#568=CARTESIAN_POINT('',(-0.0118,-0.004,-0.006));
#569=CARTESIAN_POINT('',(-0.0118,-0.004,-0.006));
#570=CARTESIAN_POINT('',(-0.0113,-0.004,-0.006));
#571=CARTESIAN_POINT('',(-0.0108,-0.004,-0.006));
#572=CARTESIAN_POINT('',(-0.0108,-0.004,-0.006));
#573=CARTESIAN_POINT('',(-0.0108,-0.004,-0.0048));
#574=CARTESIAN_POINT('',(-0.0098,-0.004,-0.0048));
#575=CARTESIAN_POINT('',(0.,-0.004,-0.0033));
#576=CARTESIAN_POINT('',(0.0098,-0.004,-0.0048));
#577=CARTESIAN_POINT('',(0.0108,-0.004,-0.0048));
#578=CARTESIAN_POINT('',(0.0108,-0.004,-0.006));
#579=CARTESIAN_POINT('',(0.0108,-0.004,-0.006));
#580=CARTESIAN_POINT('',(0.0113,-0.004,-0.006));
#581=CARTESIAN_POINT('',(0.0118,-0.004,-0.006));
#582=CARTESIAN_POINT('',(0.0118,-0.004,-0.006));
#583=CARTESIAN_POINT('',(0.0118,-0.004,0.));
#584=CARTESIAN_POINT('',(0.,-0.004,0.));
#585=CARTESIAN_POINT('',(0.019,-0.004,0.));
#586=CARTESIAN_POINT('',(0.019,-0.004,0.002));
#587=CARTESIAN_POINT('',(0.019,-0.004,0.002));
#588=CARTESIAN_POINT('',(0.,-0.004,0.002));
#589=CARTESIAN_POINT('',(0.019,0.,0.002));
#590=CARTESIAN_POINT('',(0.019,0.,0.));
#591=CARTESIAN_POINT('',(0.019,0.004,0.));
#592=CARTESIAN_POINT('',(0.019,0.004,0.002));
#593=CARTESIAN_POINT('',(0.019,0.004,0.002));
#594=CARTESIAN_POINT('',(0.019,0.,0.002));
#595=CARTESIAN_POINT('',(0.,0.004,0.002));
#596=CARTESIAN_POINT('',(-0.0118,0.004,-0.006));
#597=CARTESIAN_POINT('',(-0.0118,0.004,-0.006));
#598=CARTESIAN_POINT('',(0.,0.004,0.002));
#599=CARTESIAN_POINT('',(0.,0.004,0.));
#600=CARTESIAN_POINT('',(0.0118,0.004,0.));
#601=CARTESIAN_POINT('',(0.0118,0.004,-0.006));
#602=CARTESIAN_POINT('',(0.0118,0.004,-0.006));
#603=CARTESIAN_POINT('',(0.0113,0.004,-0.006));
#604=CARTESIAN_POINT('',(0.0108,0.004,-0.006));
#605=CARTESIAN_POINT('',(0.0108,0.004,-0.006));
#606=CARTESIAN_POINT('',(0.0108,0.004,-0.0048));
#607=CARTESIAN_POINT('',(0.0098,0.004,-0.0048));
#608=CARTESIAN_POINT('',(0.,0.004,-0.0033));
#609=CARTESIAN_POINT('',(-0.0098,0.004,-0.0048));
#610=CARTESIAN_POINT('',(-0.0108,0.004,-0.0048));
#611=CARTESIAN_POINT('',(-0.0108,0.004,-0.006));
#612=CARTESIAN_POINT('',(-0.0108,0.004,-0.006));
#613=CARTESIAN_POINT('',(-0.0113,0.004,-0.006));
#614=CARTESIAN_POINT('',(0.,0.,0.002));
#615=CARTESIAN_POINT('',(-0.01554,1.04094977927525E-19,0.002));
#616=CARTESIAN_POINT('',(-0.01384,1.04094977927525E-19,0.002));
#617=CARTESIAN_POINT('',(0.01554,1.04094977927525E-19,0.002));
#618=CARTESIAN_POINT('',(0.01724,1.04094977927525E-19,0.002));
#619=CARTESIAN_POINT('',(0.,0.,0.));
#620=CARTESIAN_POINT('',(0.01554,1.04094977927525E-19,0.));
#621=CARTESIAN_POINT('',(0.01724,1.04094977927525E-19,0.));
#622=CARTESIAN_POINT('',(0.0118,0.,0.));
#623=CARTESIAN_POINT('',(0.,0.,-0.0048));
#624=CARTESIAN_POINT('',(0.0108,0.,-0.0048));
#625=CARTESIAN_POINT('',(0.,0.,-0.0048));
#626=CARTESIAN_POINT('',(-0.0108,0.,-0.0048));
#627=CARTESIAN_POINT('',(-0.0118,0.,-0.006));
#628=CARTESIAN_POINT('',(-0.0118,0.,-0.006));
#629=CARTESIAN_POINT('',(-0.0108,0.,-0.006));
#630=CARTESIAN_POINT('',(-0.0108,0.,-0.006));
#631=CARTESIAN_POINT('',(0.,0.,-0.006));
#632=CARTESIAN_POINT('',(0.0108,0.,-0.006));
#633=CARTESIAN_POINT('',(0.0108,0.,-0.006));
#634=CARTESIAN_POINT('',(0.0118,0.,-0.006));
#635=CARTESIAN_POINT('',(0.0118,0.,-0.006));
#636=CARTESIAN_POINT('',(0.,0.,-0.006));
#637=CARTESIAN_POINT('',(0.01554,1.04094977927525E-19,0.002));
#638=CARTESIAN_POINT('',(-0.01554,1.04094977927525E-19,0.002));
#639=CARTESIAN_POINT('',(0.,0.,-0.0033));
#640=MECHANICAL_DESIGN_GEOMETRIC_PRESENTATION_REPRESENTATION('',(#397),
#641);
#641=(
GEOMETRIC_REPRESENTATION_CONTEXT(3)
GLOBAL_UNCERTAINTY_ASSIGNED_CONTEXT((#642))
GLOBAL_UNIT_ASSIGNED_CONTEXT((#645,#644,#643))
REPRESENTATION_CONTEXT('Display clamp bar','TOP_LEVEL_ASSEMBLY_PART')
);
#642=UNCERTAINTY_MEASURE_WITH_UNIT(LENGTH_MEASURE(1.E-8),#645,
'DISTANCE_ACCURACY_VALUE','Maximum Tolerance applied to model');
#643=(
NAMED_UNIT(*)
SI_UNIT($,.STERADIAN.)
SOLID_ANGLE_UNIT()
);
#644=(
NAMED_UNIT(*)
PLANE_ANGLE_UNIT()
SI_UNIT($,.RADIAN.)
);
#645=(
LENGTH_UNIT()
NAMED_UNIT(*)
SI_UNIT($,.METRE.)
);
#646=PRODUCT_DEFINITION_SHAPE('','',#647);
#647=PRODUCT_DEFINITION('','',#649,#648);
#648=PRODUCT_DEFINITION_CONTEXT('',#655,'design');
#649=PRODUCT_DEFINITION_FORMATION_WITH_SPECIFIED_SOURCE('','',#651,
 .NOT_KNOWN.);
#650=PRODUCT_RELATED_PRODUCT_CATEGORY('','',(#651));
#651=PRODUCT('Display clamp bar','Display clamp bar',
'Display clamp bar',(#653));
#652=PRODUCT_CATEGORY('','');
#653=PRODUCT_CONTEXT('',#655,'mechanical');
#654=APPLICATION_PROTOCOL_DEFINITION('international standard',
'ap242_managed_model_based_3d_engineering',2020,#655);
#655=APPLICATION_CONTEXT('managed model based 3d engineering');
ENDSEC;
END-ISO-10303-21;
