ISO-10303-21;
HEADER;
/* Generated by software containing ST-Developer
 * from STEP Tools, Inc. (www.steptools.com) 
 */
/* OPTION: using custom renumber hook */

FILE_DESCRIPTION(
/* description */ ('STEP AP214',
'CAx-IF Rec.Pracs.---User Defined Attributes---1.5---2016-08-15'),
/* implementation_level */ '2;1');

FILE_NAME(
/* name */ '6ab80d66420e24b7ead9bec0',
/* time_stamp */ '2026-09-26T18:22:30Z',
/* author */ (''),
/* organization */ (''),
/* preprocessor_version */ 'ST-DEVELOPER v20',
/* originating_system */ 'ONSHAPE BY PTC INC, 1.221',
/* authorisation */ '  ');

FILE_SCHEMA (('AUTOMOTIVE_DESIGN {1 0 10303 214 3 1 1}'));
ENDSEC;

DATA;
#10=PROPERTY_DEFINITION_REPRESENTATION(#14,#12);
#11=PROPERTY_DEFINITION_REPRESENTATION(#15,#13);
#12=REPRESENTATION('',(#16),#465);
#13=REPRESENTATION('',(#17),#465);
#14=PROPERTY_DEFINITION('pmi validation property','',#470);
#15=PROPERTY_DEFINITION('pmi validation property','',#470);
#16=VALUE_REPRESENTATION_ITEM('number of annotations',COUNT_MEASURE(0.));
#17=VALUE_REPRESENTATION_ITEM('number of views',COUNT_MEASURE(0.));
#18=SHAPE_REPRESENTATION_RELATIONSHIP('','',#291,#19);
#19=ADVANCED_BREP_SHAPE_REPRESENTATION('',(#289),#465);
#20=CYLINDRICAL_SURFACE('',#306,0.0017);
#21=CYLINDRICAL_SURFACE('',#308,0.0017);
#22=CYLINDRICAL_SURFACE('',#311,0.0023);
#23=CYLINDRICAL_SURFACE('',#314,0.0023);
#24=CIRCLE('',#299,0.0017);
#25=CIRCLE('',#300,0.0017);
#26=CIRCLE('',#304,0.0023);
#27=CIRCLE('',#305,0.0023);
#28=CIRCLE('',#307,0.0017);
#29=CIRCLE('',#309,0.0017);
#30=CIRCLE('',#312,0.0023);
#31=CIRCLE('',#315,0.0023);
#32=ORIENTED_EDGE('',*,*,#96,.T.);
#33=ORIENTED_EDGE('',*,*,#97,.T.);
#34=ORIENTED_EDGE('',*,*,#98,.F.);
#35=ORIENTED_EDGE('',*,*,#99,.T.);
#36=ORIENTED_EDGE('',*,*,#100,.T.);
#37=ORIENTED_EDGE('',*,*,#101,.T.);
#38=ORIENTED_EDGE('',*,*,#102,.F.);
#39=ORIENTED_EDGE('',*,*,#103,.F.);
#40=ORIENTED_EDGE('',*,*,#102,.T.);
#41=ORIENTED_EDGE('',*,*,#104,.T.);
#42=ORIENTED_EDGE('',*,*,#105,.T.);
#43=ORIENTED_EDGE('',*,*,#106,.T.);
#44=ORIENTED_EDGE('',*,*,#98,.T.);
#45=ORIENTED_EDGE('',*,*,#107,.T.);
#46=ORIENTED_EDGE('',*,*,#108,.F.);
#47=ORIENTED_EDGE('',*,*,#109,.F.);
#48=ORIENTED_EDGE('',*,*,#108,.T.);
#49=ORIENTED_EDGE('',*,*,#110,.T.);
#50=ORIENTED_EDGE('',*,*,#111,.F.);
#51=ORIENTED_EDGE('',*,*,#112,.F.);
#52=ORIENTED_EDGE('',*,*,#113,.T.);
#53=ORIENTED_EDGE('',*,*,#100,.F.);
#54=ORIENTED_EDGE('',*,*,#114,.F.);
#55=ORIENTED_EDGE('',*,*,#111,.T.);
#56=ORIENTED_EDGE('',*,*,#115,.T.);
#57=ORIENTED_EDGE('',*,*,#96,.F.);
#58=ORIENTED_EDGE('',*,*,#116,.T.);
#59=ORIENTED_EDGE('',*,*,#117,.F.);
#60=ORIENTED_EDGE('',*,*,#118,.F.);
#61=ORIENTED_EDGE('',*,*,#119,.F.);
#62=ORIENTED_EDGE('',*,*,#103,.T.);
#63=ORIENTED_EDGE('',*,*,#109,.T.);
#64=ORIENTED_EDGE('',*,*,#112,.T.);
#65=ORIENTED_EDGE('',*,*,#114,.T.);
#66=ORIENTED_EDGE('',*,*,#120,.F.);
#67=ORIENTED_EDGE('',*,*,#116,.F.);
#68=ORIENTED_EDGE('',*,*,#99,.F.);
#69=ORIENTED_EDGE('',*,*,#106,.F.);
#70=ORIENTED_EDGE('',*,*,#117,.T.);
#71=ORIENTED_EDGE('',*,*,#120,.T.);
#72=ORIENTED_EDGE('',*,*,#105,.F.);
#73=ORIENTED_EDGE('',*,*,#121,.T.);
#74=ORIENTED_EDGE('',*,*,#122,.T.);
#75=ORIENTED_EDGE('',*,*,#123,.T.);
#76=ORIENTED_EDGE('',*,*,#104,.F.);
#77=ORIENTED_EDGE('',*,*,#101,.F.);
#78=ORIENTED_EDGE('',*,*,#113,.F.);
#79=ORIENTED_EDGE('',*,*,#121,.F.);
#80=ORIENTED_EDGE('',*,*,#119,.T.);
#81=ORIENTED_EDGE('',*,*,#124,.T.);
#82=ORIENTED_EDGE('',*,*,#118,.T.);
#83=ORIENTED_EDGE('',*,*,#125,.T.);
#84=ORIENTED_EDGE('',*,*,#97,.F.);
#85=ORIENTED_EDGE('',*,*,#115,.F.);
#86=ORIENTED_EDGE('',*,*,#110,.F.);
#87=ORIENTED_EDGE('',*,*,#107,.F.);
#88=ORIENTED_EDGE('',*,*,#123,.F.);
#89=ORIENTED_EDGE('',*,*,#126,.T.);
#90=ORIENTED_EDGE('',*,*,#124,.F.);
#91=ORIENTED_EDGE('',*,*,#126,.F.);
#92=ORIENTED_EDGE('',*,*,#122,.F.);
#93=ORIENTED_EDGE('',*,*,#127,.T.);
#94=ORIENTED_EDGE('',*,*,#125,.F.);
#95=ORIENTED_EDGE('',*,*,#127,.F.);
#96=EDGE_CURVE('',#128,#129,#152,.T.);
#97=EDGE_CURVE('',#129,#130,#153,.T.);
#98=EDGE_CURVE('',#131,#130,#154,.T.);
#99=EDGE_CURVE('',#131,#128,#155,.T.);
#100=EDGE_CURVE('',#132,#133,#156,.T.);
#101=EDGE_CURVE('',#133,#134,#157,.T.);
#102=EDGE_CURVE('',#135,#134,#158,.T.);
#103=EDGE_CURVE('',#132,#135,#159,.T.);
#104=EDGE_CURVE('',#134,#136,#160,.T.);
#105=EDGE_CURVE('',#136,#137,#161,.T.);
#106=EDGE_CURVE('',#137,#131,#162,.T.);
#107=EDGE_CURVE('',#130,#138,#163,.T.);
#108=EDGE_CURVE('',#139,#138,#164,.T.);
#109=EDGE_CURVE('',#135,#139,#165,.T.);
#110=EDGE_CURVE('',#138,#140,#166,.T.);
#111=EDGE_CURVE('',#141,#140,#167,.T.);
#112=EDGE_CURVE('',#139,#141,#168,.T.);
#113=EDGE_CURVE('',#142,#133,#169,.T.);
#114=EDGE_CURVE('',#141,#132,#170,.T.);
#115=EDGE_CURVE('',#140,#129,#171,.T.);
#116=EDGE_CURVE('',#128,#143,#172,.T.);
#117=EDGE_CURVE('',#142,#143,#173,.T.);
#118=EDGE_CURVE('',#144,#144,#24,.T.);
#119=EDGE_CURVE('',#145,#145,#25,.T.);
#120=EDGE_CURVE('',#143,#137,#174,.T.);
#121=EDGE_CURVE('',#136,#142,#175,.T.);
#122=EDGE_CURVE('',#146,#146,#26,.T.);
#123=EDGE_CURVE('',#147,#147,#27,.T.);
#124=EDGE_CURVE('',#148,#148,#28,.F.);
#125=EDGE_CURVE('',#149,#149,#29,.F.);
#126=EDGE_CURVE('',#150,#150,#30,.T.);
#127=EDGE_CURVE('',#151,#151,#31,.T.);
#128=VERTEX_POINT('',#394);
#129=VERTEX_POINT('',#395);
#130=VERTEX_POINT('',#397);
#131=VERTEX_POINT('',#399);
#132=VERTEX_POINT('',#403);
#133=VERTEX_POINT('',#404);
#134=VERTEX_POINT('',#406);
#135=VERTEX_POINT('',#408);
#136=VERTEX_POINT('',#412);
#137=VERTEX_POINT('',#414);
#138=VERTEX_POINT('',#417);
#139=VERTEX_POINT('',#419);
#140=VERTEX_POINT('',#423);
#141=VERTEX_POINT('',#425);
#142=VERTEX_POINT('',#429);
#143=VERTEX_POINT('',#433);
#144=VERTEX_POINT('',#437);
#145=VERTEX_POINT('',#439);
#146=VERTEX_POINT('',#446);
#147=VERTEX_POINT('',#448);
#148=VERTEX_POINT('',#451);
#149=VERTEX_POINT('',#454);
#150=VERTEX_POINT('',#458);
#151=VERTEX_POINT('',#462);
#152=LINE('',#393,#176);
#153=LINE('',#396,#177);
#154=LINE('',#398,#178);
#155=LINE('',#400,#179);
#156=LINE('',#402,#180);
#157=LINE('',#405,#181);
#158=LINE('',#407,#182);
#159=LINE('',#409,#183);
#160=LINE('',#411,#184);
#161=LINE('',#413,#185);
#162=LINE('',#415,#186);
#163=LINE('',#416,#187);
#164=LINE('',#418,#188);
#165=LINE('',#420,#189);
#166=LINE('',#422,#190);
#167=LINE('',#424,#191);
#168=LINE('',#426,#192);
#169=LINE('',#428,#193);
#170=LINE('',#430,#194);
#171=LINE('',#431,#195);
#172=LINE('',#432,#196);
#173=LINE('',#434,#197);
#174=LINE('',#441,#198);
#175=LINE('',#443,#199);
#176=VECTOR('',#321,1.);
#177=VECTOR('',#322,1.);
#178=VECTOR('',#323,1.);
#179=VECTOR('',#324,1.);
#180=VECTOR('',#327,1.);
#181=VECTOR('',#328,1.);
#182=VECTOR('',#329,1.);
#183=VECTOR('',#330,1.);
#184=VECTOR('',#333,1.);
#185=VECTOR('',#334,1.);
#186=VECTOR('',#335,1.);
#187=VECTOR('',#336,1.);
#188=VECTOR('',#337,1.);
#189=VECTOR('',#338,1.);
#190=VECTOR('',#341,1.);
#191=VECTOR('',#342,1.);
#192=VECTOR('',#343,1.);
#193=VECTOR('',#346,1.);
#194=VECTOR('',#347,1.);
#195=VECTOR('',#348,1.);
#196=VECTOR('',#349,1.);
#197=VECTOR('',#350,1.);
#198=VECTOR('',#359,1.);
#199=VECTOR('',#362,1.);
#200=EDGE_LOOP('',(#32,#33,#34,#35));
#201=EDGE_LOOP('',(#36,#37,#38,#39));
#202=EDGE_LOOP('',(#40,#41,#42,#43,#44,#45,#46,#47));
#203=EDGE_LOOP('',(#48,#49,#50,#51));
#204=EDGE_LOOP('',(#52,#53,#54,#55,#56,#57,#58,#59));
#205=EDGE_LOOP('',(#60));
#206=EDGE_LOOP('',(#61));
#207=EDGE_LOOP('',(#62,#63,#64,#65));
#208=EDGE_LOOP('',(#66,#67,#68,#69));
#209=EDGE_LOOP('',(#70,#71,#72,#73));
#210=EDGE_LOOP('',(#74));
#211=EDGE_LOOP('',(#75));
#212=EDGE_LOOP('',(#76,#77,#78,#79));
#213=EDGE_LOOP('',(#80));
#214=EDGE_LOOP('',(#81));
#215=EDGE_LOOP('',(#82));
#216=EDGE_LOOP('',(#83));
#217=EDGE_LOOP('',(#84,#85,#86,#87));
#218=EDGE_LOOP('',(#88));
#219=EDGE_LOOP('',(#89));
#220=EDGE_LOOP('',(#90));
#221=EDGE_LOOP('',(#91));
#222=EDGE_LOOP('',(#92));
#223=EDGE_LOOP('',(#93));
#224=EDGE_LOOP('',(#94));
#225=EDGE_LOOP('',(#95));
#226=FACE_BOUND('',#200,.T.);
#227=FACE_BOUND('',#201,.T.);
#228=FACE_BOUND('',#202,.T.);
#229=FACE_BOUND('',#203,.T.);
#230=FACE_BOUND('',#204,.T.);
#231=FACE_BOUND('',#205,.T.);
#232=FACE_BOUND('',#206,.T.);
#233=FACE_BOUND('',#207,.T.);
#234=FACE_BOUND('',#208,.T.);
#235=FACE_BOUND('',#209,.T.);
#236=FACE_BOUND('',#210,.T.);
#237=FACE_BOUND('',#211,.T.);
#238=FACE_BOUND('',#212,.T.);
#239=FACE_BOUND('',#213,.T.);
#240=FACE_BOUND('',#214,.T.);
#241=FACE_BOUND('',#215,.T.);
#242=FACE_BOUND('',#216,.T.);
#243=FACE_BOUND('',#217,.T.);
#244=FACE_BOUND('',#218,.T.);
#245=FACE_BOUND('',#219,.T.);
#246=FACE_BOUND('',#220,.T.);
#247=FACE_BOUND('',#221,.T.);
#248=FACE_BOUND('',#222,.T.);
#249=FACE_BOUND('',#223,.T.);
#250=FACE_BOUND('',#224,.T.);
#251=FACE_BOUND('',#225,.T.);
#252=PLANE('',#293);
#253=PLANE('',#294);
#254=PLANE('',#295);
#255=PLANE('',#296);
#256=PLANE('',#297);
#257=PLANE('',#298);
#258=PLANE('',#301);
#259=PLANE('',#302);
#260=PLANE('',#303);
#261=PLANE('',#310);
#262=PLANE('',#313);
#263=PLANE('',#316);
#264=ADVANCED_FACE('',(#226),#252,.T.);
#265=ADVANCED_FACE('',(#227),#253,.F.);
#266=ADVANCED_FACE('',(#228),#254,.F.);
#267=ADVANCED_FACE('',(#229),#255,.F.);
#268=ADVANCED_FACE('',(#230),#256,.F.);
#269=ADVANCED_FACE('',(#231,#232,#233),#257,.T.);
#270=ADVANCED_FACE('',(#234),#258,.F.);
#271=ADVANCED_FACE('',(#235),#259,.T.);
#272=ADVANCED_FACE('',(#236,#237,#238),#260,.F.);
#273=ADVANCED_FACE('',(#239,#240),#20,.F.);
#274=ADVANCED_FACE('',(#241,#242),#21,.F.);
#275=ADVANCED_FACE('',(#243),#261,.F.);
#276=ADVANCED_FACE('',(#244,#245),#22,.F.);
#277=ADVANCED_FACE('',(#246,#247),#262,.F.);
#278=ADVANCED_FACE('',(#248,#249),#23,.F.);
#279=ADVANCED_FACE('',(#250,#251),#263,.F.);
#280=CLOSED_SHELL('',(#264,#265,#266,#267,#268,#269,#270,#271,#272,#273,
#274,#275,#276,#277,#278,#279));
#281=STYLED_ITEM('',(#282),#289);
#282=PRESENTATION_STYLE_ASSIGNMENT((#283));
#283=SURFACE_STYLE_USAGE(.BOTH.,#284);
#284=SURFACE_SIDE_STYLE('',(#285));
#285=SURFACE_STYLE_FILL_AREA(#286);
#286=FILL_AREA_STYLE('',(#287));
#287=FILL_AREA_STYLE_COLOUR('',#288);
#288=COLOUR_RGB('',0.615686274509804,0.811764705882353,0.929411764705882);
#289=MANIFOLD_SOLID_BREP('Display clamp rail',#280);
#290=SHAPE_DEFINITION_REPRESENTATION(#470,#291);
#291=SHAPE_REPRESENTATION('Display clamp rail',(#292),#465);
#292=AXIS2_PLACEMENT_3D('',#391,#317,#318);
#293=AXIS2_PLACEMENT_3D('',#392,#319,#320);
#294=AXIS2_PLACEMENT_3D('',#401,#325,#326);
#295=AXIS2_PLACEMENT_3D('',#410,#331,#332);
#296=AXIS2_PLACEMENT_3D('',#421,#339,#340);
#297=AXIS2_PLACEMENT_3D('',#427,#344,#345);
#298=AXIS2_PLACEMENT_3D('',#435,#351,#352);
#299=AXIS2_PLACEMENT_3D('',#436,#353,#354);
#300=AXIS2_PLACEMENT_3D('',#438,#355,#356);
#301=AXIS2_PLACEMENT_3D('',#440,#357,#358);
#302=AXIS2_PLACEMENT_3D('',#442,#360,#361);
#303=AXIS2_PLACEMENT_3D('',#444,#363,#364);
#304=AXIS2_PLACEMENT_3D('',#445,#365,#366);
#305=AXIS2_PLACEMENT_3D('',#447,#367,#368);
#306=AXIS2_PLACEMENT_3D('',#449,#369,#370);
#307=AXIS2_PLACEMENT_3D('',#450,#371,#372);
#308=AXIS2_PLACEMENT_3D('',#452,#373,#374);
#309=AXIS2_PLACEMENT_3D('',#453,#375,#376);
#310=AXIS2_PLACEMENT_3D('',#455,#377,#378);
#311=AXIS2_PLACEMENT_3D('',#456,#379,#380);
#312=AXIS2_PLACEMENT_3D('',#457,#381,#382);
#313=AXIS2_PLACEMENT_3D('',#459,#383,#384);
#314=AXIS2_PLACEMENT_3D('',#460,#385,#386);
#315=AXIS2_PLACEMENT_3D('',#461,#387,#388);
#316=AXIS2_PLACEMENT_3D('',#463,#389,#390);
#317=DIRECTION('',(0.,0.,1.));
#318=DIRECTION('',(1.,0.,0.));
#319=DIRECTION('',(1.,0.,0.));
#320=DIRECTION('',(0.,0.,-1.));
#321=DIRECTION('',(0.,0.,1.));
#322=DIRECTION('',(0.,-1.,0.));
#323=DIRECTION('',(0.,0.,1.));
#324=DIRECTION('',(0.,1.,0.));
#325=DIRECTION('',(1.,0.,0.));
#326=DIRECTION('',(0.,0.,-1.));
#327=DIRECTION('',(0.,0.,-1.));
#328=DIRECTION('',(0.,-1.,0.));
#329=DIRECTION('',(0.,0.,-1.));
#330=DIRECTION('',(0.,-1.,0.));
#331=DIRECTION('',(0.,1.,0.));
#332=DIRECTION('',(0.,0.,1.));
#333=DIRECTION('',(1.,0.,0.));
#334=DIRECTION('',(0.,0.,1.));
#335=DIRECTION('',(1.,0.,0.));
#336=DIRECTION('',(1.,0.,0.));
#337=DIRECTION('',(0.,0.,-1.));
#338=DIRECTION('',(1.,0.,0.));
#339=DIRECTION('',(-1.,0.,0.));
#340=DIRECTION('',(0.,0.,1.));
#341=DIRECTION('',(0.,1.,0.));
#342=DIRECTION('',(0.,0.,-1.));
#343=DIRECTION('',(0.,1.,0.));
#344=DIRECTION('',(0.,-1.,0.));
#345=DIRECTION('',(0.,0.,-1.));
#346=DIRECTION('',(-1.,0.,0.));
#347=DIRECTION('',(-1.,0.,0.));
#348=DIRECTION('',(-1.,0.,0.));
#349=DIRECTION('',(-1.,0.,0.));
#350=DIRECTION('',(0.,0.,1.));
#351=DIRECTION('',(0.,0.,1.));
#352=DIRECTION('',(1.,0.,0.));
#353=DIRECTION('',(0.,0.,1.));
#354=DIRECTION('',(1.,0.,0.));
#355=DIRECTION('',(0.,0.,1.));
#356=DIRECTION('',(1.,0.,0.));
#357=DIRECTION('',(0.,0.,1.));
#358=DIRECTION('',(1.,0.,0.));
#359=DIRECTION('',(0.,-1.,0.));
#360=DIRECTION('',(1.,0.,0.));
#361=DIRECTION('',(0.,0.,-1.));
#362=DIRECTION('',(0.,1.,0.));
#363=DIRECTION('',(0.,0.,1.));
#364=DIRECTION('',(1.,0.,0.));
#365=DIRECTION('',(0.,0.,1.));
#366=DIRECTION('',(1.,0.,0.));
#367=DIRECTION('',(0.,0.,1.));
#368=DIRECTION('',(1.,0.,0.));
#369=DIRECTION('',(0.,0.,-1.));
#370=DIRECTION('',(-1.,0.,0.));
#371=DIRECTION('',(0.,0.,1.));
#372=DIRECTION('',(1.,0.,0.));
#373=DIRECTION('',(0.,0.,-1.));
#374=DIRECTION('',(-1.,0.,0.));
#375=DIRECTION('',(0.,0.,1.));
#376=DIRECTION('',(1.,0.,0.));
#377=DIRECTION('',(0.,0.,1.));
#378=DIRECTION('',(1.,0.,0.));
#379=DIRECTION('',(0.,0.,1.));
#380=DIRECTION('',(1.,0.,0.));
#381=DIRECTION('',(0.,0.,1.));
#382=DIRECTION('',(1.,0.,0.));
#383=DIRECTION('',(0.,0.,1.));
#384=DIRECTION('',(1.,0.,0.));
#385=DIRECTION('',(0.,0.,1.));
#386=DIRECTION('',(1.,0.,0.));
#387=DIRECTION('',(0.,0.,1.));
#388=DIRECTION('',(1.,0.,0.));
#389=DIRECTION('',(0.,0.,1.));
#390=DIRECTION('',(1.,0.,0.));
#391=CARTESIAN_POINT('',(0.,0.,0.));
#392=CARTESIAN_POINT('',(-0.0088,0.,-0.0048));
#393=CARTESIAN_POINT('',(-0.0088,0.03,-0.0048));
#394=CARTESIAN_POINT('',(-0.0088,0.03,-0.0048));
#395=CARTESIAN_POINT('',(-0.0088,0.03,-0.0033));
#396=CARTESIAN_POINT('',(-0.0088,0.,-0.0033));
#397=CARTESIAN_POINT('',(-0.0088,-0.03,-0.0033));
#398=CARTESIAN_POINT('',(-0.0088,-0.03,-0.0048));
#399=CARTESIAN_POINT('',(-0.0088,-0.03,-0.0048));
#400=CARTESIAN_POINT('',(-0.0088,0.,-0.0048));
#401=CARTESIAN_POINT('',(-0.019,0.,0.002));
#402=CARTESIAN_POINT('',(-0.019,0.03,0.002));
#403=CARTESIAN_POINT('',(-0.019,0.03,0.002));
#404=CARTESIAN_POINT('',(-0.019,0.03,-0.006));
#405=CARTESIAN_POINT('',(-0.019,0.,-0.006));
#406=CARTESIAN_POINT('',(-0.019,-0.03,-0.006));
#407=CARTESIAN_POINT('',(-0.019,-0.03,0.002));
#408=CARTESIAN_POINT('',(-0.019,-0.03,0.002));
#409=CARTESIAN_POINT('',(-0.019,0.,0.002));
#410=CARTESIAN_POINT('',(-0.0129,-0.03,0.002));
#411=CARTESIAN_POINT('',(-0.0113,-0.03,-0.006));
#412=CARTESIAN_POINT('',(-0.0108,-0.03,-0.006));
#413=CARTESIAN_POINT('',(-0.0108,-0.03,-0.006));
#414=CARTESIAN_POINT('',(-0.0108,-0.03,-0.0048));
#415=CARTESIAN_POINT('',(-0.0098,-0.03,-0.0048));
#416=CARTESIAN_POINT('',(-0.0078,-0.03,-0.0033));
#417=CARTESIAN_POINT('',(-0.0068,-0.03,-0.0033));
#418=CARTESIAN_POINT('',(-0.0068,-0.03,0.002));
#419=CARTESIAN_POINT('',(-0.0068,-0.03,0.002));
#420=CARTESIAN_POINT('',(-0.0129,-0.03,0.002));
#421=CARTESIAN_POINT('',(-0.0068,0.,0.002));
#422=CARTESIAN_POINT('',(-0.0068,0.,-0.0033));
#423=CARTESIAN_POINT('',(-0.0068,0.03,-0.0033));
#424=CARTESIAN_POINT('',(-0.0068,0.03,0.002));
#425=CARTESIAN_POINT('',(-0.0068,0.03,0.002));
#426=CARTESIAN_POINT('',(-0.0068,0.,0.002));
#427=CARTESIAN_POINT('',(-0.0129,0.03,0.002));
#428=CARTESIAN_POINT('',(-0.0113,0.03,-0.006));
#429=CARTESIAN_POINT('',(-0.0108,0.03,-0.006));
#430=CARTESIAN_POINT('',(-0.0129,0.03,0.002));
#431=CARTESIAN_POINT('',(-0.0078,0.03,-0.0033));
#432=CARTESIAN_POINT('',(-0.0098,0.03,-0.0048));
#433=CARTESIAN_POINT('',(-0.0108,0.03,-0.0048));
#434=CARTESIAN_POINT('',(-0.0108,0.03,-0.006));
#435=CARTESIAN_POINT('',(-0.0129,0.,0.002));
#436=CARTESIAN_POINT('',(-0.01554,-0.02,0.002));
#437=CARTESIAN_POINT('',(-0.01384,-0.02,0.002));
#438=CARTESIAN_POINT('',(-0.01554,0.02,0.002));
#439=CARTESIAN_POINT('',(-0.01384,0.02,0.002));
#440=CARTESIAN_POINT('',(-0.0098,0.,-0.0048));
#441=CARTESIAN_POINT('',(-0.0108,0.,-0.0048));
#442=CARTESIAN_POINT('',(-0.0108,0.,-0.006));
#443=CARTESIAN_POINT('',(-0.0108,0.,-0.006));
#444=CARTESIAN_POINT('',(-0.0113,0.,-0.006));
#445=CARTESIAN_POINT('',(-0.01554,-0.02,-0.006));
#446=CARTESIAN_POINT('',(-0.01324,-0.02,-0.006));
#447=CARTESIAN_POINT('',(-0.01554,0.02,-0.006));
#448=CARTESIAN_POINT('',(-0.01324,0.02,-0.006));
#449=CARTESIAN_POINT('',(-0.01554,0.02,0.002));
#450=CARTESIAN_POINT('',(-0.01554,0.02,-0.0015));
#451=CARTESIAN_POINT('',(-0.01384,0.02,-0.0015));
#452=CARTESIAN_POINT('',(-0.01554,-0.02,0.002));
#453=CARTESIAN_POINT('',(-0.01554,-0.02,-0.0015));
#454=CARTESIAN_POINT('',(-0.01384,-0.02,-0.0015));
#455=CARTESIAN_POINT('',(-0.0078,0.,-0.0033));
#456=CARTESIAN_POINT('',(-0.01554,0.02,-0.006));
#457=CARTESIAN_POINT('',(-0.01554,0.02,-0.0015));
#458=CARTESIAN_POINT('',(-0.01324,0.02,-0.0015));
#459=CARTESIAN_POINT('',(-0.01554,0.,-0.0015));
#460=CARTESIAN_POINT('',(-0.01554,-0.02,-0.006));
#461=CARTESIAN_POINT('',(-0.01554,-0.02,-0.0015));
#462=CARTESIAN_POINT('',(-0.01324,-0.02,-0.0015));
#463=CARTESIAN_POINT('',(-0.01554,0.,-0.0015));
#464=MECHANICAL_DESIGN_GEOMETRIC_PRESENTATION_REPRESENTATION('',(#281),
#465);
#465=(
GEOMETRIC_REPRESENTATION_CONTEXT(3)
GLOBAL_UNCERTAINTY_ASSIGNED_CONTEXT((#466))
GLOBAL_UNIT_ASSIGNED_CONTEXT((#469,#468,#467))
REPRESENTATION_CONTEXT('Display clamp rail','TOP_LEVEL_ASSEMBLY_PART')
);
#466=UNCERTAINTY_MEASURE_WITH_UNIT(LENGTH_MEASURE(1.E-8),#469,
'DISTANCE_ACCURACY_VALUE','Maximum Tolerance applied to model');
#467=(
NAMED_UNIT(*)
SI_UNIT($,.STERADIAN.)
SOLID_ANGLE_UNIT()
);
#468=(
NAMED_UNIT(*)
PLANE_ANGLE_UNIT()
SI_UNIT($,.RADIAN.)
);
#469=(
LENGTH_UNIT()
NAMED_UNIT(*)
SI_UNIT($,.METRE.)
);
#470=PRODUCT_DEFINITION_SHAPE('','',#471);
#471=PRODUCT_DEFINITION('','',#473,#472);
#472=PRODUCT_DEFINITION_CONTEXT('',#479,'design');
#473=PRODUCT_DEFINITION_FORMATION_WITH_SPECIFIED_SOURCE('','',#475,
 .NOT_KNOWN.);
#474=PRODUCT_RELATED_PRODUCT_CATEGORY('','',(#475));
#475=PRODUCT('Display clamp rail','Display clamp rail',
'Display clamp rail',(#477));
#476=PRODUCT_CATEGORY('','');
#477=PRODUCT_CONTEXT('',#479,'mechanical');
#478=APPLICATION_PROTOCOL_DEFINITION('international standard',
'automotive_design',2010,#479);
#479=APPLICATION_CONTEXT(
'core data for automotive mechanical design processes');
ENDSEC;
END-ISO-10303-21;
