ISO-10303-21;
HEADER;
/* Generated by software containing ST-Developer
 * from STEP Tools, Inc. (www.steptools.com) 
 */
/* OPTION: using custom renumber hook */

FILE_DESCRIPTION(
/* description */ ('STEP AP214',
'CAx-IF Rec.Pracs.---User Defined Attributes---1.5---2016-08-15'),
/* implementation_level */ '2;1');

FILE_NAME(
/* name */ '6ab80d70420e24b7ead9bed5',
/* time_stamp */ '2026-09-26T18:22:41Z',
/* author */ (''),
/* organization */ (''),
/* preprocessor_version */ 'ST-DEVELOPER v20',
/* originating_system */ 'ONSHAPE BY PTC INC, 1.221',
/* authorisation */ '  ');

FILE_SCHEMA (('AUTOMOTIVE_DESIGN {1 0 10303 214 3 1 1}'));
ENDSEC;

DATA;
#10=PROPERTY_DEFINITION_REPRESENTATION(#14,#12);
#11=PROPERTY_DEFINITION_REPRESENTATION(#15,#13);
#12=REPRESENTATION('',(#16),#1044);
#13=REPRESENTATION('',(#17),#1044);
#14=PROPERTY_DEFINITION('pmi validation property','',#1054);
#15=PROPERTY_DEFINITION('pmi validation property','',#1054);
#16=VALUE_REPRESENTATION_ITEM('number of annotations',COUNT_MEASURE(0.));
#17=VALUE_REPRESENTATION_ITEM('number of views',COUNT_MEASURE(0.));
#18=CIRCLE('',#578,0.045);
#19=CIRCLE('',#586,0.0008);
#20=SPHERICAL_SURFACE('',#574,0.0008);
#21=SPHERICAL_SURFACE('',#576,0.0008);
#22=SPHERICAL_SURFACE('',#577,0.045);
#23=SPHERICAL_SURFACE('',#585,0.0008);
#24=SPHERICAL_SURFACE('',#588,0.0008);
#25=SHAPE_REPRESENTATION_RELATIONSHIP('','',#552,#27);
#26=SHAPE_REPRESENTATION_RELATIONSHIP('','',#553,#28);
#27=ADVANCED_BREP_SHAPE_REPRESENTATION('',(#548),#1043);
#28=ADVANCED_BREP_SHAPE_REPRESENTATION('',(#549),#1044);
#29=CYLINDRICAL_SURFACE('',#556,0.000799999999998819);
#30=CYLINDRICAL_SURFACE('',#558,0.000799999999998819);
#31=CYLINDRICAL_SURFACE('',#564,0.000799999999998819);
#32=CYLINDRICAL_SURFACE('',#565,0.000799999999998819);
#33=CYLINDRICAL_SURFACE('',#570,0.00079999999999882);
#34=CYLINDRICAL_SURFACE('',#571,0.000799999999998945);
#35=CYLINDRICAL_SURFACE('',#572,0.000799999999998821);
#36=CYLINDRICAL_SURFACE('',#580,0.000799999999998823);
#37=CYLINDRICAL_SURFACE('',#582,0.000799999999998821);
#38=CYLINDRICAL_SURFACE('',#583,0.000799999999998945);
#39=CYLINDRICAL_SURFACE('',#584,0.000799999999998942);
#40=CYLINDRICAL_SURFACE('',#587,0.000799999999998942);
#41=LINE('',#687,#61);
#42=LINE('',#694,#62);
#43=LINE('',#717,#63);
#44=LINE('',#720,#64);
#45=LINE('',#722,#65);
#46=LINE('',#744,#66);
#47=LINE('',#752,#67);
#48=LINE('',#760,#68);
#49=LINE('',#761,#69);
#50=LINE('',#764,#70);
#51=LINE('',#765,#71);
#52=LINE('',#767,#72);
#53=LINE('',#774,#73);
#54=LINE('',#781,#74);
#55=LINE('',#788,#75);
#56=LINE('',#815,#76);
#57=LINE('',#825,#77);
#58=LINE('',#891,#78);
#59=LINE('',#899,#79);
#60=LINE('',#907,#80);
#61=VECTOR('',#593,1.);
#62=VECTOR('',#594,1.);
#63=VECTOR('',#599,1.);
#64=VECTOR('',#600,1.);
#65=VECTOR('',#601,1.);
#66=VECTOR('',#606,1.);
#67=VECTOR('',#607,1.);
#68=VECTOR('',#608,1.);
#69=VECTOR('',#609,1.);
#70=VECTOR('',#610,1.);
#71=VECTOR('',#611,1.);
#72=VECTOR('',#614,1.);
#73=VECTOR('',#615,1.);
#74=VECTOR('',#620,1.);
#75=VECTOR('',#621,1.);
#76=VECTOR('',#630,1.);
#77=VECTOR('',#637,1.);
#78=VECTOR('',#646,1.);
#79=VECTOR('',#647,1.);
#80=VECTOR('',#648,1.);
#81=ORIENTED_EDGE('',*,*,#237,.F.);
#82=ORIENTED_EDGE('',*,*,#238,.T.);
#83=ORIENTED_EDGE('',*,*,#239,.T.);
#84=ORIENTED_EDGE('',*,*,#240,.T.);
#85=ORIENTED_EDGE('',*,*,#241,.F.);
#86=ORIENTED_EDGE('',*,*,#242,.F.);
#87=ORIENTED_EDGE('',*,*,#243,.F.);
#88=ORIENTED_EDGE('',*,*,#244,.F.);
#89=ORIENTED_EDGE('',*,*,#237,.T.);
#90=ORIENTED_EDGE('',*,*,#245,.F.);
#91=ORIENTED_EDGE('',*,*,#246,.F.);
#92=ORIENTED_EDGE('',*,*,#247,.T.);
#93=ORIENTED_EDGE('',*,*,#241,.T.);
#94=ORIENTED_EDGE('',*,*,#240,.F.);
#95=ORIENTED_EDGE('',*,*,#248,.F.);
#96=ORIENTED_EDGE('',*,*,#239,.F.);
#97=ORIENTED_EDGE('',*,*,#249,.T.);
#98=ORIENTED_EDGE('',*,*,#250,.T.);
#99=ORIENTED_EDGE('',*,*,#251,.T.);
#100=ORIENTED_EDGE('',*,*,#248,.T.);
#101=ORIENTED_EDGE('',*,*,#238,.F.);
#102=ORIENTED_EDGE('',*,*,#244,.T.);
#103=ORIENTED_EDGE('',*,*,#252,.F.);
#104=ORIENTED_EDGE('',*,*,#253,.F.);
#105=ORIENTED_EDGE('',*,*,#254,.F.);
#106=ORIENTED_EDGE('',*,*,#255,.F.);
#107=ORIENTED_EDGE('',*,*,#256,.F.);
#108=ORIENTED_EDGE('',*,*,#249,.F.);
#109=ORIENTED_EDGE('',*,*,#257,.F.);
#110=ORIENTED_EDGE('',*,*,#258,.F.);
#111=ORIENTED_EDGE('',*,*,#246,.T.);
#112=ORIENTED_EDGE('',*,*,#259,.T.);
#113=ORIENTED_EDGE('',*,*,#247,.F.);
#114=ORIENTED_EDGE('',*,*,#258,.T.);
#115=ORIENTED_EDGE('',*,*,#260,.T.);
#116=ORIENTED_EDGE('',*,*,#261,.F.);
#117=ORIENTED_EDGE('',*,*,#262,.F.);
#118=ORIENTED_EDGE('',*,*,#242,.T.);
#119=ORIENTED_EDGE('',*,*,#263,.F.);
#120=ORIENTED_EDGE('',*,*,#252,.T.);
#121=ORIENTED_EDGE('',*,*,#243,.T.);
#122=ORIENTED_EDGE('',*,*,#262,.T.);
#123=ORIENTED_EDGE('',*,*,#251,.F.);
#124=ORIENTED_EDGE('',*,*,#264,.F.);
#125=ORIENTED_EDGE('',*,*,#265,.F.);
#126=ORIENTED_EDGE('',*,*,#266,.F.);
#127=ORIENTED_EDGE('',*,*,#259,.F.);
#128=ORIENTED_EDGE('',*,*,#245,.T.);
#129=ORIENTED_EDGE('',*,*,#250,.F.);
#130=ORIENTED_EDGE('',*,*,#256,.T.);
#131=ORIENTED_EDGE('',*,*,#267,.T.);
#132=ORIENTED_EDGE('',*,*,#264,.T.);
#133=ORIENTED_EDGE('',*,*,#268,.F.);
#134=ORIENTED_EDGE('',*,*,#253,.T.);
#135=ORIENTED_EDGE('',*,*,#263,.T.);
#136=ORIENTED_EDGE('',*,*,#261,.T.);
#137=ORIENTED_EDGE('',*,*,#269,.T.);
#138=ORIENTED_EDGE('',*,*,#267,.F.);
#139=ORIENTED_EDGE('',*,*,#255,.T.);
#140=ORIENTED_EDGE('',*,*,#270,.T.);
#141=ORIENTED_EDGE('',*,*,#271,.T.);
#142=ORIENTED_EDGE('',*,*,#265,.T.);
#143=ORIENTED_EDGE('',*,*,#270,.F.);
#144=ORIENTED_EDGE('',*,*,#254,.T.);
#145=ORIENTED_EDGE('',*,*,#268,.T.);
#146=ORIENTED_EDGE('',*,*,#272,.T.);
#147=ORIENTED_EDGE('',*,*,#271,.F.);
#148=ORIENTED_EDGE('',*,*,#272,.F.);
#149=ORIENTED_EDGE('',*,*,#269,.F.);
#150=ORIENTED_EDGE('',*,*,#260,.F.);
#151=ORIENTED_EDGE('',*,*,#257,.T.);
#152=ORIENTED_EDGE('',*,*,#266,.T.);
#153=ORIENTED_EDGE('',*,*,#273,.F.);
#154=ORIENTED_EDGE('',*,*,#274,.F.);
#155=ORIENTED_EDGE('',*,*,#275,.T.);
#156=ORIENTED_EDGE('',*,*,#276,.F.);
#157=ORIENTED_EDGE('',*,*,#277,.F.);
#158=ORIENTED_EDGE('',*,*,#278,.F.);
#159=ORIENTED_EDGE('',*,*,#279,.T.);
#160=ORIENTED_EDGE('',*,*,#273,.T.);
#161=ORIENTED_EDGE('',*,*,#276,.T.);
#162=ORIENTED_EDGE('',*,*,#280,.F.);
#163=ORIENTED_EDGE('',*,*,#281,.F.);
#164=ORIENTED_EDGE('',*,*,#282,.T.);
#165=ORIENTED_EDGE('',*,*,#275,.F.);
#166=ORIENTED_EDGE('',*,*,#283,.F.);
#167=ORIENTED_EDGE('',*,*,#284,.T.);
#168=ORIENTED_EDGE('',*,*,#285,.T.);
#169=ORIENTED_EDGE('',*,*,#279,.F.);
#170=ORIENTED_EDGE('',*,*,#286,.T.);
#171=ORIENTED_EDGE('',*,*,#287,.T.);
#172=ORIENTED_EDGE('',*,*,#288,.T.);
#173=ORIENTED_EDGE('',*,*,#289,.T.);
#174=ORIENTED_EDGE('',*,*,#290,.T.);
#175=ORIENTED_EDGE('',*,*,#283,.T.);
#176=ORIENTED_EDGE('',*,*,#274,.T.);
#177=ORIENTED_EDGE('',*,*,#277,.T.);
#178=ORIENTED_EDGE('',*,*,#282,.F.);
#179=ORIENTED_EDGE('',*,*,#291,.F.);
#180=ORIENTED_EDGE('',*,*,#292,.T.);
#181=ORIENTED_EDGE('',*,*,#293,.F.);
#182=ORIENTED_EDGE('',*,*,#286,.F.);
#183=ORIENTED_EDGE('',*,*,#278,.T.);
#184=ORIENTED_EDGE('',*,*,#294,.F.);
#185=ORIENTED_EDGE('',*,*,#295,.F.);
#186=ORIENTED_EDGE('',*,*,#296,.F.);
#187=ORIENTED_EDGE('',*,*,#280,.T.);
#188=ORIENTED_EDGE('',*,*,#285,.F.);
#189=ORIENTED_EDGE('',*,*,#297,.T.);
#190=ORIENTED_EDGE('',*,*,#298,.T.);
#191=ORIENTED_EDGE('',*,*,#299,.T.);
#192=ORIENTED_EDGE('',*,*,#300,.T.);
#193=ORIENTED_EDGE('',*,*,#291,.T.);
#194=ORIENTED_EDGE('',*,*,#281,.T.);
#195=ORIENTED_EDGE('',*,*,#296,.T.);
#196=ORIENTED_EDGE('',*,*,#301,.T.);
#197=ORIENTED_EDGE('',*,*,#302,.F.);
#198=ORIENTED_EDGE('',*,*,#302,.T.);
#199=ORIENTED_EDGE('',*,*,#303,.T.);
#200=ORIENTED_EDGE('',*,*,#284,.F.);
#201=ORIENTED_EDGE('',*,*,#290,.F.);
#202=ORIENTED_EDGE('',*,*,#304,.T.);
#203=ORIENTED_EDGE('',*,*,#305,.F.);
#204=ORIENTED_EDGE('',*,*,#306,.F.);
#205=ORIENTED_EDGE('',*,*,#287,.F.);
#206=ORIENTED_EDGE('',*,*,#293,.T.);
#207=ORIENTED_EDGE('',*,*,#307,.T.);
#208=ORIENTED_EDGE('',*,*,#308,.F.);
#209=ORIENTED_EDGE('',*,*,#288,.F.);
#210=ORIENTED_EDGE('',*,*,#306,.T.);
#211=ORIENTED_EDGE('',*,*,#309,.F.);
#212=ORIENTED_EDGE('',*,*,#304,.F.);
#213=ORIENTED_EDGE('',*,*,#289,.F.);
#214=ORIENTED_EDGE('',*,*,#308,.T.);
#215=ORIENTED_EDGE('',*,*,#310,.T.);
#216=ORIENTED_EDGE('',*,*,#292,.F.);
#217=ORIENTED_EDGE('',*,*,#300,.F.);
#218=ORIENTED_EDGE('',*,*,#311,.F.);
#219=ORIENTED_EDGE('',*,*,#294,.T.);
#220=ORIENTED_EDGE('',*,*,#305,.T.);
#221=ORIENTED_EDGE('',*,*,#312,.T.);
#222=ORIENTED_EDGE('',*,*,#303,.F.);
#223=ORIENTED_EDGE('',*,*,#301,.F.);
#224=ORIENTED_EDGE('',*,*,#295,.T.);
#225=ORIENTED_EDGE('',*,*,#310,.F.);
#226=ORIENTED_EDGE('',*,*,#313,.T.);
#227=ORIENTED_EDGE('',*,*,#297,.F.);
#228=ORIENTED_EDGE('',*,*,#312,.F.);
#229=ORIENTED_EDGE('',*,*,#314,.F.);
#230=ORIENTED_EDGE('',*,*,#298,.F.);
#231=ORIENTED_EDGE('',*,*,#313,.F.);
#232=ORIENTED_EDGE('',*,*,#309,.T.);
#233=ORIENTED_EDGE('',*,*,#299,.F.);
#234=ORIENTED_EDGE('',*,*,#314,.T.);
#235=ORIENTED_EDGE('',*,*,#307,.F.);
#236=ORIENTED_EDGE('',*,*,#311,.T.);
#237=EDGE_CURVE('',#315,#316,#365,.F.);
#238=EDGE_CURVE('',#315,#317,#41,.T.);
#239=EDGE_CURVE('',#317,#318,#366,.T.);
#240=EDGE_CURVE('',#318,#316,#42,.T.);
#241=EDGE_CURVE('',#319,#316,#367,.T.);
#242=EDGE_CURVE('',#320,#319,#368,.T.);
#243=EDGE_CURVE('',#321,#320,#369,.T.);
#244=EDGE_CURVE('',#315,#321,#370,.T.);
#245=EDGE_CURVE('',#322,#323,#43,.T.);
#246=EDGE_CURVE('',#324,#322,#44,.T.);
#247=EDGE_CURVE('',#324,#319,#45,.T.);
#248=EDGE_CURVE('',#323,#318,#371,.F.);
#249=EDGE_CURVE('',#317,#325,#372,.F.);
#250=EDGE_CURVE('',#325,#326,#373,.F.);
#251=EDGE_CURVE('',#326,#323,#374,.F.);
#252=EDGE_CURVE('',#327,#321,#46,.T.);
#253=EDGE_CURVE('',#328,#327,#375,.F.);
#254=EDGE_CURVE('',#329,#328,#47,.T.);
#255=EDGE_CURVE('',#330,#329,#376,.F.);
#256=EDGE_CURVE('',#325,#330,#48,.T.);
#257=EDGE_CURVE('',#331,#332,#49,.T.);
#258=EDGE_CURVE('',#324,#331,#50,.F.);
#259=EDGE_CURVE('',#322,#332,#51,.T.);
#260=EDGE_CURVE('',#331,#333,#52,.T.);
#261=EDGE_CURVE('',#334,#333,#377,.F.);
#262=EDGE_CURVE('',#320,#334,#53,.T.);
#263=EDGE_CURVE('',#327,#334,#378,.F.);
#264=EDGE_CURVE('',#335,#326,#54,.T.);
#265=EDGE_CURVE('',#336,#335,#379,.F.);
#266=EDGE_CURVE('',#332,#336,#55,.T.);
#267=EDGE_CURVE('',#330,#335,#380,.T.);
#268=EDGE_CURVE('',#328,#337,#381,.T.);
#269=EDGE_CURVE('',#333,#337,#382,.F.);
#270=EDGE_CURVE('',#329,#338,#383,.F.);
#271=EDGE_CURVE('',#338,#336,#384,.F.);
#272=EDGE_CURVE('',#337,#338,#56,.T.);
#273=EDGE_CURVE('',#339,#340,#385,.F.);
#274=EDGE_CURVE('',#341,#339,#57,.F.);
#275=EDGE_CURVE('',#341,#342,#386,.T.);
#276=EDGE_CURVE('',#340,#342,#387,.F.);
#277=EDGE_CURVE('',#343,#340,#388,.T.);
#278=EDGE_CURVE('',#344,#343,#389,.T.);
#279=EDGE_CURVE('',#344,#339,#390,.F.);
#280=EDGE_CURVE('',#345,#342,#391,.T.);
#281=EDGE_CURVE('',#346,#345,#392,.T.);
#282=EDGE_CURVE('',#346,#340,#393,.F.);
#283=EDGE_CURVE('',#347,#341,#394,.T.);
#284=EDGE_CURVE('',#347,#348,#395,.F.);
#285=EDGE_CURVE('',#348,#342,#396,.F.);
#286=EDGE_CURVE('',#344,#349,#58,.T.);
#287=EDGE_CURVE('',#349,#350,#397,.T.);
#288=EDGE_CURVE('',#350,#351,#59,.T.);
#289=EDGE_CURVE('',#351,#352,#398,.T.);
#290=EDGE_CURVE('',#352,#347,#60,.F.);
#291=EDGE_CURVE('',#353,#346,#399,.T.);
#292=EDGE_CURVE('',#353,#343,#400,.T.);
#293=EDGE_CURVE('',#349,#354,#401,.F.);
#294=EDGE_CURVE('',#354,#343,#402,.F.);
#295=EDGE_CURVE('',#355,#348,#403,.F.);
#296=EDGE_CURVE('',#345,#355,#404,.T.);
#297=EDGE_CURVE('',#356,#357,#405,.T.);
#298=EDGE_CURVE('',#357,#358,#406,.T.);
#299=EDGE_CURVE('',#358,#359,#407,.T.);
#300=EDGE_CURVE('',#359,#353,#408,.T.);
#301=EDGE_CURVE('',#355,#360,#409,.T.);
#302=EDGE_CURVE('',#361,#360,#18,.T.);
#303=EDGE_CURVE('',#360,#356,#410,.T.);
#304=EDGE_CURVE('',#352,#362,#411,.T.);
#305=EDGE_CURVE('',#348,#362,#412,.F.);
#306=EDGE_CURVE('',#350,#363,#413,.T.);
#307=EDGE_CURVE('',#354,#363,#414,.F.);
#308=EDGE_CURVE('',#351,#364,#415,.F.);
#309=EDGE_CURVE('',#364,#363,#416,.F.);
#310=EDGE_CURVE('',#364,#362,#417,.F.);
#311=EDGE_CURVE('',#354,#359,#418,.T.);
#312=EDGE_CURVE('',#362,#356,#419,.F.);
#313=EDGE_CURVE('',#364,#357,#19,.T.);
#314=EDGE_CURVE('',#358,#363,#420,.T.);
#315=VERTEX_POINT('',#685);
#316=VERTEX_POINT('',#686);
#317=VERTEX_POINT('',#688);
#318=VERTEX_POINT('',#693);
#319=VERTEX_POINT('',#700);
#320=VERTEX_POINT('',#705);
#321=VERTEX_POINT('',#710);
#322=VERTEX_POINT('',#718);
#323=VERTEX_POINT('',#719);
#324=VERTEX_POINT('',#721);
#325=VERTEX_POINT('',#733);
#326=VERTEX_POINT('',#738);
#327=VERTEX_POINT('',#745);
#328=VERTEX_POINT('',#751);
#329=VERTEX_POINT('',#753);
#330=VERTEX_POINT('',#759);
#331=VERTEX_POINT('',#762);
#332=VERTEX_POINT('',#763);
#333=VERTEX_POINT('',#768);
#334=VERTEX_POINT('',#773);
#335=VERTEX_POINT('',#782);
#336=VERTEX_POINT('',#787);
#337=VERTEX_POINT('',#799);
#338=VERTEX_POINT('',#809);
#339=VERTEX_POINT('',#823);
#340=VERTEX_POINT('',#824);
#341=VERTEX_POINT('',#826);
#342=VERTEX_POINT('',#831);
#343=VERTEX_POINT('',#841);
#344=VERTEX_POINT('',#846);
#345=VERTEX_POINT('',#857);
#346=VERTEX_POINT('',#869);
#347=VERTEX_POINT('',#880);
#348=VERTEX_POINT('',#885);
#349=VERTEX_POINT('',#892);
#350=VERTEX_POINT('',#898);
#351=VERTEX_POINT('',#900);
#352=VERTEX_POINT('',#906);
#353=VERTEX_POINT('',#913);
#354=VERTEX_POINT('',#923);
#355=VERTEX_POINT('',#933);
#356=VERTEX_POINT('',#943);
#357=VERTEX_POINT('',#944);
#358=VERTEX_POINT('',#956);
#359=VERTEX_POINT('',#961);
#360=VERTEX_POINT('',#979);
#361=VERTEX_POINT('',#981);
#362=VERTEX_POINT('',#993);
#363=VERTEX_POINT('',#1003);
#364=VERTEX_POINT('',#1013);
#365=B_SPLINE_CURVE_WITH_KNOTS('',3,(#681,#682,#683,#684),.UNSPECIFIED.,
 .F.,.F.,(4,4),(0.,0.999999823151021),.UNSPECIFIED.);
#366=B_SPLINE_CURVE_WITH_KNOTS('',3,(#689,#690,#691,#692),.UNSPECIFIED.,
 .F.,.F.,(4,4),(0.,1.),.UNSPECIFIED.);
#367=B_SPLINE_CURVE_WITH_KNOTS('',3,(#696,#697,#698,#699),.UNSPECIFIED.,
 .F.,.F.,(4,4),(0.,1.),.UNSPECIFIED.);
#368=B_SPLINE_CURVE_WITH_KNOTS('',3,(#701,#702,#703,#704),.UNSPECIFIED.,
 .F.,.F.,(4,4),(0.,1.),.UNSPECIFIED.);
#369=B_SPLINE_CURVE_WITH_KNOTS('',3,(#706,#707,#708,#709),.UNSPECIFIED.,
 .F.,.F.,(4,4),(0.,1.),.UNSPECIFIED.);
#370=B_SPLINE_CURVE_WITH_KNOTS('',3,(#711,#712,#713,#714,#715),
 .UNSPECIFIED.,.F.,.F.,(4,1,4),(0.,0.5,1.),.UNSPECIFIED.);
#371=B_SPLINE_CURVE_WITH_KNOTS('',3,(#723,#724,#725,#726),.UNSPECIFIED.,
 .F.,.F.,(4,4),(0.,1.),.UNSPECIFIED.);
#372=B_SPLINE_CURVE_WITH_KNOTS('',3,(#728,#729,#730,#731,#732),
 .UNSPECIFIED.,.F.,.F.,(4,1,4),(0.,0.5,1.),.UNSPECIFIED.);
#373=B_SPLINE_CURVE_WITH_KNOTS('',3,(#734,#735,#736,#737),.UNSPECIFIED.,
 .F.,.F.,(4,4),(0.,0.999999690057071),.UNSPECIFIED.);
#374=B_SPLINE_CURVE_WITH_KNOTS('',3,(#739,#740,#741,#742),.UNSPECIFIED.,
 .F.,.F.,(4,4),(0.,1.),.UNSPECIFIED.);
#375=B_SPLINE_CURVE_WITH_KNOTS('',3,(#746,#747,#748,#749,#750),
 .UNSPECIFIED.,.F.,.F.,(4,1,4),(0.,0.5,1.),.UNSPECIFIED.);
#376=B_SPLINE_CURVE_WITH_KNOTS('',3,(#754,#755,#756,#757,#758),
 .UNSPECIFIED.,.F.,.F.,(4,1,4),(0.,0.5,1.),.UNSPECIFIED.);
#377=B_SPLINE_CURVE_WITH_KNOTS('',3,(#769,#770,#771,#772),.UNSPECIFIED.,
 .F.,.F.,(4,4),(0.,1.),.UNSPECIFIED.);
#378=B_SPLINE_CURVE_WITH_KNOTS('',3,(#776,#777,#778,#779),.UNSPECIFIED.,
 .F.,.F.,(4,4),(0.,0.999999778612197),.UNSPECIFIED.);
#379=B_SPLINE_CURVE_WITH_KNOTS('',3,(#783,#784,#785,#786),.UNSPECIFIED.,
 .F.,.F.,(4,4),(0.,1.),.UNSPECIFIED.);
#380=B_SPLINE_CURVE_WITH_KNOTS('',3,(#790,#791,#792,#793),.UNSPECIFIED.,
 .F.,.F.,(4,4),(0.,1.),.UNSPECIFIED.);
#381=B_SPLINE_CURVE_WITH_KNOTS('',3,(#795,#796,#797,#798),.UNSPECIFIED.,
 .F.,.F.,(4,4),(0.,1.),.UNSPECIFIED.);
#382=B_SPLINE_CURVE_WITH_KNOTS('',3,(#800,#801,#802,#803),.UNSPECIFIED.,
 .F.,.F.,(4,4),(0.,1.),.UNSPECIFIED.);
#383=B_SPLINE_CURVE_WITH_KNOTS('',3,(#805,#806,#807,#808),.UNSPECIFIED.,
 .F.,.F.,(4,4),(0.,0.999999778612197),.UNSPECIFIED.);
#384=B_SPLINE_CURVE_WITH_KNOTS('',3,(#810,#811,#812,#813),.UNSPECIFIED.,
 .F.,.F.,(4,4),(0.,1.),.UNSPECIFIED.);
#385=B_SPLINE_CURVE_WITH_KNOTS('',3,(#819,#820,#821,#822),.UNSPECIFIED.,
 .F.,.F.,(4,4),(0.,0.999998898665424),.UNSPECIFIED.);
#386=B_SPLINE_CURVE_WITH_KNOTS('',3,(#827,#828,#829,#830),.UNSPECIFIED.,
 .F.,.F.,(4,4),(0.,1.),.UNSPECIFIED.);
#387=B_SPLINE_CURVE_WITH_KNOTS('',3,(#832,#833,#834,#835),.UNSPECIFIED.,
 .F.,.F.,(4,4),(0.,1.),.UNSPECIFIED.);
#388=B_SPLINE_CURVE_WITH_KNOTS('',3,(#837,#838,#839,#840),.UNSPECIFIED.,
 .F.,.F.,(4,4),(0.,1.453038460574),.UNSPECIFIED.);
#389=B_SPLINE_CURVE_WITH_KNOTS('',3,(#842,#843,#844,#845),.UNSPECIFIED.,
 .F.,.F.,(4,4),(0.,1.),.UNSPECIFIED.);
#390=B_SPLINE_CURVE_WITH_KNOTS('',3,(#847,#848,#849,#850,#851),
 .UNSPECIFIED.,.F.,.F.,(4,1,4),(0.,0.5,1.),.UNSPECIFIED.);
#391=B_SPLINE_CURVE_WITH_KNOTS('',3,(#853,#854,#855,#856),.UNSPECIFIED.,
 .F.,.F.,(4,4),(273.788911304419,339.954244482395),.UNSPECIFIED.);
#392=B_SPLINE_CURVE_WITH_KNOTS('',3,(#858,#859,#860,#861,#862,#863,#864,
#865,#866,#867,#868),.UNSPECIFIED.,.F.,.F.,(4,1,1,1,1,1,1,1,4),(6.82496599739134E-7,
0.125000540308605,0.25000039812061,0.375000255932614,0.500000113744619,
0.624999971556624,0.749999829368629,0.874999687180634,0.999999544992639),
 .UNSPECIFIED.);
#393=B_SPLINE_CURVE_WITH_KNOTS('',3,(#870,#871,#872,#873),.UNSPECIFIED.,
 .F.,.F.,(4,4),(273.788911304419,339.954244482396),.UNSPECIFIED.);
#394=B_SPLINE_CURVE_WITH_KNOTS('',3,(#875,#876,#877,#878,#879),
 .UNSPECIFIED.,.F.,.F.,(4,1,4),(0.,0.5,1.),.UNSPECIFIED.);
#395=B_SPLINE_CURVE_WITH_KNOTS('',3,(#881,#882,#883,#884),.UNSPECIFIED.,
 .F.,.F.,(4,4),(0.,0.999998069817144),.UNSPECIFIED.);
#396=B_SPLINE_CURVE_WITH_KNOTS('',3,(#886,#887,#888,#889),.UNSPECIFIED.,
 .F.,.F.,(4,4),(0.,1.453038460574),.UNSPECIFIED.);
#397=B_SPLINE_CURVE_WITH_KNOTS('',3,(#893,#894,#895,#896,#897),
 .UNSPECIFIED.,.F.,.F.,(4,1,4),(0.,0.5,1.),.UNSPECIFIED.);
#398=B_SPLINE_CURVE_WITH_KNOTS('',3,(#901,#902,#903,#904,#905),
 .UNSPECIFIED.,.F.,.F.,(4,1,4),(0.,0.5,1.),.UNSPECIFIED.);
#399=B_SPLINE_CURVE_WITH_KNOTS('',3,(#909,#910,#911,#912),.UNSPECIFIED.,
 .F.,.F.,(4,4),(78.4710493207472,101.531484985286),.UNSPECIFIED.);
#400=B_SPLINE_CURVE_WITH_KNOTS('',3,(#914,#915,#916,#917),.UNSPECIFIED.,
 .F.,.F.,(4,4),(273.789088523468,339.954750576904),.UNSPECIFIED.);
#401=B_SPLINE_CURVE_WITH_KNOTS('',3,(#919,#920,#921,#922),.UNSPECIFIED.,
 .F.,.F.,(4,4),(0.,0.999998621297944),.UNSPECIFIED.);
#402=B_SPLINE_CURVE_WITH_KNOTS('',3,(#924,#925,#926,#927),.UNSPECIFIED.,
 .F.,.F.,(4,4),(0.,1.),.UNSPECIFIED.);
#403=B_SPLINE_CURVE_WITH_KNOTS('',3,(#929,#930,#931,#932),.UNSPECIFIED.,
 .F.,.F.,(4,4),(273.789088523468,339.954750576904),.UNSPECIFIED.);
#404=B_SPLINE_CURVE_WITH_KNOTS('',3,(#934,#935,#936,#937),.UNSPECIFIED.,
 .F.,.F.,(4,4),(123.959200867319,147.019636531858),.UNSPECIFIED.);
#405=B_SPLINE_CURVE_WITH_KNOTS('',3,(#939,#940,#941,#942),.UNSPECIFIED.,
 .F.,.F.,(4,4),(78.4686981374546,101.531301862715),.UNSPECIFIED.);
#406=B_SPLINE_CURVE_WITH_KNOTS('',3,(#945,#946,#947,#948,#949,#950,#951,
#952,#953,#954,#955),.UNSPECIFIED.,.F.,.F.,(4,1,1,1,1,1,1,1,4),(8.50967803817471E-7,
0.125000664818095,0.250000478668385,0.375000292518676,0.500000106368967,
0.624999920219258,0.749999734069549,0.87499954791984,0.99999936177013),
 .UNSPECIFIED.);
#407=B_SPLINE_CURVE_WITH_KNOTS('',3,(#957,#958,#959,#960),.UNSPECIFIED.,
 .F.,.F.,(4,4),(212.978012293382,236.040799116773),.UNSPECIFIED.);
#408=B_SPLINE_CURVE_WITH_KNOTS('',3,(#962,#963,#964,#965,#966,#967,#968,
#969,#970,#971,#972),.UNSPECIFIED.,.F.,.F.,(4,1,1,1,1,1,1,1,4),(9.0998195439737E-7,
0.125000782446499,0.250000654911043,0.375000527375587,0.500000399840132,
0.625000272304676,0.75000014476922,0.875000017233764,0.999999889698309),
 .UNSPECIFIED.);
#409=B_SPLINE_CURVE_WITH_KNOTS('',3,(#973,#974,#975,#976,#977,#978),
 .UNSPECIFIED.,.F.,.F.,(4,1,1,4),(9.33121020545806E-8,0.500000046656051,
0.750000023328026,1.),.UNSPECIFIED.);
#410=B_SPLINE_CURVE_WITH_KNOTS('',3,(#982,#983,#984,#985,#986,#987),
 .UNSPECIFIED.,.F.,.F.,(4,1,1,4),(0.,0.249999680793034,0.499999361586069,
0.999998723172137),.UNSPECIFIED.);
#411=B_SPLINE_CURVE_WITH_KNOTS('',3,(#989,#990,#991,#992),.UNSPECIFIED.,
 .F.,.F.,(4,4),(0.,1.),.UNSPECIFIED.);
#412=B_SPLINE_CURVE_WITH_KNOTS('',3,(#994,#995,#996,#997),.UNSPECIFIED.,
 .F.,.F.,(4,4),(0.,1.),.UNSPECIFIED.);
#413=B_SPLINE_CURVE_WITH_KNOTS('',3,(#999,#1000,#1001,#1002),
 .UNSPECIFIED.,.F.,.F.,(4,4),(0.,1.),.UNSPECIFIED.);
#414=B_SPLINE_CURVE_WITH_KNOTS('',3,(#1004,#1005,#1006,#1007),
 .UNSPECIFIED.,.F.,.F.,(4,4),(4.712388980385,6.165419085209),
 .UNSPECIFIED.);
#415=B_SPLINE_CURVE_WITH_KNOTS('',3,(#1009,#1010,#1011,#1012),
 .UNSPECIFIED.,.F.,.F.,(4,4),(0.,0.999998621307832),.UNSPECIFIED.);
#416=B_SPLINE_CURVE_WITH_KNOTS('',3,(#1014,#1015,#1016,#1017),
 .UNSPECIFIED.,.F.,.F.,(4,4),(0.,1.),.UNSPECIFIED.);
#417=B_SPLINE_CURVE_WITH_KNOTS('',3,(#1019,#1020,#1021,#1022),
 .UNSPECIFIED.,.F.,.F.,(4,4),(4.712388980385,6.16541072945),
 .UNSPECIFIED.);
#418=B_SPLINE_CURVE_WITH_KNOTS('',3,(#1024,#1025,#1026,#1027),
 .UNSPECIFIED.,.F.,.F.,(4,4),(270.000000000013,336.165333187187),
 .UNSPECIFIED.);
#419=B_SPLINE_CURVE_WITH_KNOTS('',3,(#1029,#1030,#1031,#1032),
 .UNSPECIFIED.,.F.,.F.,(4,4),(0.,66.1653569490483),.UNSPECIFIED.);
#420=B_SPLINE_CURVE_WITH_KNOTS('',3,(#1036,#1037,#1038,#1039),
 .UNSPECIFIED.,.F.,.F.,(4,4),(3.7893936279744,69.9547505769328),
 .UNSPECIFIED.);
#421=EDGE_LOOP('',(#81,#82,#83,#84));
#422=EDGE_LOOP('',(#85,#86,#87,#88,#89));
#423=EDGE_LOOP('',(#90,#91,#92,#93,#94,#95));
#424=EDGE_LOOP('',(#96,#97,#98,#99,#100));
#425=EDGE_LOOP('',(#101,#102,#103,#104,#105,#106,#107,#108));
#426=EDGE_LOOP('',(#109,#110,#111,#112));
#427=EDGE_LOOP('',(#113,#114,#115,#116,#117,#118));
#428=EDGE_LOOP('',(#119,#120,#121,#122));
#429=EDGE_LOOP('',(#123,#124,#125,#126,#127,#128));
#430=EDGE_LOOP('',(#129,#130,#131,#132));
#431=EDGE_LOOP('',(#133,#134,#135,#136,#137));
#432=EDGE_LOOP('',(#138,#139,#140,#141,#142));
#433=EDGE_LOOP('',(#143,#144,#145,#146));
#434=EDGE_LOOP('',(#147,#148,#149,#150,#151,#152));
#435=EDGE_LOOP('',(#153,#154,#155,#156));
#436=EDGE_LOOP('',(#157,#158,#159,#160));
#437=EDGE_LOOP('',(#161,#162,#163,#164));
#438=EDGE_LOOP('',(#165,#166,#167,#168));
#439=EDGE_LOOP('',(#169,#170,#171,#172,#173,#174,#175,#176));
#440=EDGE_LOOP('',(#177,#178,#179,#180));
#441=EDGE_LOOP('',(#181,#182,#183,#184));
#442=EDGE_LOOP('',(#185,#186,#187,#188));
#443=EDGE_LOOP('',(#189,#190,#191,#192,#193,#194,#195,#196,#197,#198,#199));
#444=EDGE_LOOP('',(#200,#201,#202,#203));
#445=EDGE_LOOP('',(#204,#205,#206,#207));
#446=EDGE_LOOP('',(#208,#209,#210,#211));
#447=EDGE_LOOP('',(#212,#213,#214,#215));
#448=EDGE_LOOP('',(#216,#217,#218,#219));
#449=EDGE_LOOP('',(#220,#221,#222,#223,#224));
#450=EDGE_LOOP('',(#225,#226,#227,#228));
#451=EDGE_LOOP('',(#229,#230,#231,#232));
#452=EDGE_LOOP('',(#233,#234,#235,#236));
#453=FACE_BOUND('',#421,.T.);
#454=FACE_BOUND('',#422,.T.);
#455=FACE_BOUND('',#423,.T.);
#456=FACE_BOUND('',#424,.T.);
#457=FACE_BOUND('',#425,.T.);
#458=FACE_BOUND('',#426,.T.);
#459=FACE_BOUND('',#427,.T.);
#460=FACE_BOUND('',#428,.T.);
#461=FACE_BOUND('',#429,.T.);
#462=FACE_BOUND('',#430,.T.);
#463=FACE_BOUND('',#431,.T.);
#464=FACE_BOUND('',#432,.T.);
#465=FACE_BOUND('',#433,.T.);
#466=FACE_BOUND('',#434,.T.);
#467=FACE_BOUND('',#435,.T.);
#468=FACE_BOUND('',#436,.T.);
#469=FACE_BOUND('',#437,.T.);
#470=FACE_BOUND('',#438,.T.);
#471=FACE_BOUND('',#439,.T.);
#472=FACE_BOUND('',#440,.T.);
#473=FACE_BOUND('',#441,.T.);
#474=FACE_BOUND('',#442,.T.);
#475=FACE_BOUND('',#443,.T.);
#476=FACE_BOUND('',#444,.T.);
#477=FACE_BOUND('',#445,.T.);
#478=FACE_BOUND('',#446,.T.);
#479=FACE_BOUND('',#447,.T.);
#480=FACE_BOUND('',#448,.T.);
#481=FACE_BOUND('',#449,.T.);
#482=FACE_BOUND('',#450,.T.);
#483=FACE_BOUND('',#451,.T.);
#484=FACE_BOUND('',#452,.T.);
#485=PLANE('',#555);
#486=PLANE('',#557);
#487=PLANE('',#559);
#488=PLANE('',#560);
#489=PLANE('',#561);
#490=PLANE('',#562);
#491=PLANE('',#563);
#492=PLANE('',#566);
#493=PLANE('',#567);
#494=PLANE('',#569);
#495=PLANE('',#573);
#496=PLANE('',#575);
#497=PLANE('',#579);
#498=PLANE('',#581);
#499=ADVANCED_FACE('',(#453),#485,.T.);
#500=ADVANCED_FACE('',(#454),#29,.T.);
#501=ADVANCED_FACE('',(#455),#486,.T.);
#502=ADVANCED_FACE('',(#456),#30,.T.);
#503=ADVANCED_FACE('',(#457,#458),#487,.T.);
#504=ADVANCED_FACE('',(#459),#488,.T.);
#505=ADVANCED_FACE('',(#460),#489,.T.);
#506=ADVANCED_FACE('',(#461),#490,.F.);
#507=ADVANCED_FACE('',(#462),#491,.T.);
#508=ADVANCED_FACE('',(#463),#31,.T.);
#509=ADVANCED_FACE('',(#464),#32,.T.);
#510=ADVANCED_FACE('',(#465),#492,.T.);
#511=ADVANCED_FACE('',(#466),#493,.F.);
#512=ADVANCED_FACE('',(#467),#494,.T.);
#513=ADVANCED_FACE('',(#468),#33,.T.);
#514=ADVANCED_FACE('',(#469),#34,.T.);
#515=ADVANCED_FACE('',(#470),#35,.T.);
#516=ADVANCED_FACE('',(#471),#495,.F.);
#517=ADVANCED_FACE('',(#472),#20,.T.);
#518=ADVANCED_FACE('',(#473),#496,.T.);
#519=ADVANCED_FACE('',(#474),#21,.T.);
#520=ADVANCED_FACE('',(#475),#22,.F.);
#521=ADVANCED_FACE('',(#476),#497,.T.);
#522=ADVANCED_FACE('',(#477),#36,.T.);
#523=ADVANCED_FACE('',(#478),#498,.T.);
#524=ADVANCED_FACE('',(#479),#37,.T.);
#525=ADVANCED_FACE('',(#480),#38,.T.);
#526=ADVANCED_FACE('',(#481),#39,.T.);
#527=ADVANCED_FACE('',(#482),#23,.T.);
#528=ADVANCED_FACE('',(#483),#40,.T.);
#529=ADVANCED_FACE('',(#484),#24,.T.);
#530=CLOSED_SHELL('',(#499,#500,#501,#502,#503,#504,#505,#506,#507,#508,
#509,#510,#511));
#531=CLOSED_SHELL('',(#512,#513,#514,#515,#516,#517,#518,#519,#520,#521,
#522,#523,#524,#525,#526,#527,#528,#529));
#532=STYLED_ITEM('',(#534),#548);
#533=STYLED_ITEM('',(#535),#549);
#534=PRESENTATION_STYLE_ASSIGNMENT((#536));
#535=PRESENTATION_STYLE_ASSIGNMENT((#537));
#536=SURFACE_STYLE_USAGE(.BOTH.,#538);
#537=SURFACE_STYLE_USAGE(.BOTH.,#539);
#538=SURFACE_SIDE_STYLE('',(#540));
#539=SURFACE_SIDE_STYLE('',(#541));
#540=SURFACE_STYLE_FILL_AREA(#542);
#541=SURFACE_STYLE_FILL_AREA(#543);
#542=FILL_AREA_STYLE('',(#544));
#543=FILL_AREA_STYLE('',(#545));
#544=FILL_AREA_STYLE_COLOUR('',#546);
#545=FILL_AREA_STYLE_COLOUR('',#547);
#546=COLOUR_RGB('',0.980392156862745,0.713725490196078,0.00392156862745098);
#547=COLOUR_RGB('',0.615686274509804,0.811764705882353,0.929411764705882);
#548=MANIFOLD_SOLID_BREP('Open CASCADE STEP translator 7.9 1.1',#530);
#549=MANIFOLD_SOLID_BREP('Open CASCADE STEP translator 7.9 1.2',#531);
#550=SHAPE_DEFINITION_REPRESENTATION(#1053,#552);
#551=SHAPE_DEFINITION_REPRESENTATION(#1054,#553);
#552=SHAPE_REPRESENTATION('Open CASCADE STEP translator 7.9 1.1',(#554),
#1043);
#553=SHAPE_REPRESENTATION('Open CASCADE STEP translator 7.9 1.2',(#568),
#1044);
#554=AXIS2_PLACEMENT_3D('',#679,#589,#590);
#555=AXIS2_PLACEMENT_3D('',#680,#591,#592);
#556=AXIS2_PLACEMENT_3D('',#695,#595,#596);
#557=AXIS2_PLACEMENT_3D('',#716,#597,#598);
#558=AXIS2_PLACEMENT_3D('',#727,#602,#603);
#559=AXIS2_PLACEMENT_3D('',#743,#604,#605);
#560=AXIS2_PLACEMENT_3D('',#766,#612,#613);
#561=AXIS2_PLACEMENT_3D('',#775,#616,#617);
#562=AXIS2_PLACEMENT_3D('',#780,#618,#619);
#563=AXIS2_PLACEMENT_3D('',#789,#622,#623);
#564=AXIS2_PLACEMENT_3D('',#794,#624,#625);
#565=AXIS2_PLACEMENT_3D('',#804,#626,#627);
#566=AXIS2_PLACEMENT_3D('',#814,#628,#629);
#567=AXIS2_PLACEMENT_3D('',#816,#631,#632);
#568=AXIS2_PLACEMENT_3D('',#817,#633,#634);
#569=AXIS2_PLACEMENT_3D('',#818,#635,#636);
#570=AXIS2_PLACEMENT_3D('',#836,#638,#639);
#571=AXIS2_PLACEMENT_3D('',#852,#640,#641);
#572=AXIS2_PLACEMENT_3D('',#874,#642,#643);
#573=AXIS2_PLACEMENT_3D('',#890,#644,#645);
#574=AXIS2_PLACEMENT_3D('',#908,#649,#650);
#575=AXIS2_PLACEMENT_3D('',#918,#651,#652);
#576=AXIS2_PLACEMENT_3D('',#928,#653,#654);
#577=AXIS2_PLACEMENT_3D('',#938,#655,#656);
#578=AXIS2_PLACEMENT_3D('',#980,#657,#658);
#579=AXIS2_PLACEMENT_3D('',#988,#659,#660);
#580=AXIS2_PLACEMENT_3D('',#998,#661,#662);
#581=AXIS2_PLACEMENT_3D('',#1008,#663,#664);
#582=AXIS2_PLACEMENT_3D('',#1018,#665,#666);
#583=AXIS2_PLACEMENT_3D('',#1023,#667,#668);
#584=AXIS2_PLACEMENT_3D('',#1028,#669,#670);
#585=AXIS2_PLACEMENT_3D('',#1033,#671,#672);
#586=AXIS2_PLACEMENT_3D('',#1034,#673,#674);
#587=AXIS2_PLACEMENT_3D('',#1035,#675,#676);
#588=AXIS2_PLACEMENT_3D('',#1040,#677,#678);
#589=DIRECTION('',(0.,0.,1.));
#590=DIRECTION('',(1.,0.,0.));
#591=DIRECTION('',(2.77555756156289E-17,-0.939422216860461,0.342762160205844));
#592=DIRECTION('',(0.893807335933961,0.153712089619216,0.421284986363778));
#593=DIRECTION('',(1.,0.,1.90892914146555E-16));
#594=DIRECTION('',(-1.,-6.83127430739211E-17,-2.73250972295685E-16));
#595=DIRECTION('',(0.324243923179858,0.324243923179858,0.888668530196647));
#596=DIRECTION('',(0.,-0.939422216860461,0.342762160205844));
#597=DIRECTION('',(0.,1.,0.));
#598=DIRECTION('',(0.,0.,1.));
#599=DIRECTION('',(0.,0.,1.));
#600=DIRECTION('',(1.,4.88654500275157E-16,0.));
#601=DIRECTION('',(0.,0.,1.));
#602=DIRECTION('',(-0.324243923179858,0.324243923179858,0.888668530196648));
#603=DIRECTION('',(0.,-0.939422216860461,0.342762160205843));
#604=DIRECTION('',(0.,0.,-1.));
#605=DIRECTION('',(0.707106781186548,0.707106781186548,0.));
#606=DIRECTION('',(0.,-1.,2.02121909252414E-16));
#607=DIRECTION('',(-1.,0.,1.74851492924707E-16));
#608=DIRECTION('',(0.,1.,2.02121909252414E-16));
#609=DIRECTION('',(1.,0.,0.));
#610=DIRECTION('',(0.,-1.,0.));
#611=DIRECTION('',(0.,1.,0.));
#612=DIRECTION('',(1.,0.,0.));
#613=DIRECTION('',(0.,0.,1.));
#614=DIRECTION('',(0.,0.,1.));
#615=DIRECTION('',(-6.83127430739211E-17,1.,-2.73250972295685E-16));
#616=DIRECTION('',(-0.939422216860461,-2.77555756156289E-17,0.342762160205844));
#617=DIRECTION('',(0.153712089619216,-0.893807335933961,0.421284986363778));
#618=DIRECTION('',(1.,0.,0.));
#619=DIRECTION('',(0.,0.,1.));
#620=DIRECTION('',(6.83127430739211E-17,-1.,-2.73250972295685E-16));
#621=DIRECTION('',(0.,0.,1.));
#622=DIRECTION('',(0.939422216860461,2.77555756156289E-17,0.342762160205844));
#623=DIRECTION('',(-0.153712089619216,0.893807335933961,0.421284986363778));
#624=DIRECTION('',(0.324243923179858,-0.324243923179858,0.888668530196647));
#625=DIRECTION('',(0.,-0.939422216860461,-0.342762160205843));
#626=DIRECTION('',(-0.324243923179858,-0.324243923179858,0.888668530196647));
#627=DIRECTION('',(0.939422216860461,0.,0.342762160205843));
#628=DIRECTION('',(-2.77555756156289E-17,0.939422216860461,0.342762160205844));
#629=DIRECTION('',(-0.893807335933961,-0.153712089619216,0.421284986363778));
#630=DIRECTION('',(1.,6.83127430739211E-17,-2.73250972295685E-16));
#631=DIRECTION('',(0.,1.,0.));
#632=DIRECTION('',(0.,0.,1.));
#633=DIRECTION('',(0.,0.,1.));
#634=DIRECTION('',(1.,0.,0.));
#635=DIRECTION('',(2.77555756156289E-17,-0.939422216860461,0.342762160205844));
#636=DIRECTION('',(0.893807335933961,0.153712089619216,0.421284986363778));
#637=DIRECTION('',(1.,0.,0.));
#638=DIRECTION('',(0.324243923179859,0.32424392317986,0.888668530196646));
#639=DIRECTION('',(0.,-0.93942221686046,0.342762160205846));
#640=DIRECTION('',(1.,-8.12069558432937E-17,-1.69334664141647E-17));
#641=DIRECTION('',(8.12069558432937E-17,1.,0.));
#642=DIRECTION('',(-0.324243923179858,0.324243923179858,0.888668530196647));
#643=DIRECTION('',(0.,-0.939422216860461,0.342762160205844));
#644=DIRECTION('',(0.,0.,1.));
#645=DIRECTION('',(1.,0.,0.));
#646=DIRECTION('',(0.,1.,0.));
#647=DIRECTION('',(1.,0.,0.));
#648=DIRECTION('',(0.,1.,0.));
#649=DIRECTION('',(1.42341693987198E-11,8.83301549126091E-6,-0.999999999960989));
#650=DIRECTION('',(-0.999999999994807,3.22284185346837E-6,1.42332426194795E-11));
#651=DIRECTION('',(-0.939422216860461,-2.77555756156289E-17,0.342762160205844));
#652=DIRECTION('',(0.153712089619216,-0.893807335933961,0.421284986363778));
#653=DIRECTION('',(-1.42286182835998E-11,8.8330154923709E-6,-0.999999999960989));
#654=DIRECTION('',(0.999999999994807,3.22284185387337E-6,1.42387937417544E-11));
#655=DIRECTION('',(0.,0.,1.));
#656=DIRECTION('',(1.,0.,0.));
#657=DIRECTION('',(0.,-1.,0.));
#658=DIRECTION('',(0.,0.,-1.));
#659=DIRECTION('',(0.939422216860461,2.77555756156289E-17,0.342762160205844));
#660=DIRECTION('',(-0.153712089619216,0.893807335933961,0.421284986363778));
#661=DIRECTION('',(0.324243923179859,-0.324243923179858,0.888668530196647));
#662=DIRECTION('',(0.939422216860461,0.,-0.342762160205844));
#663=DIRECTION('',(-2.77555756156289E-17,0.939422216860461,0.342762160205844));
#664=DIRECTION('',(-0.893807335933961,-0.153712089619216,0.421284986363778));
#665=DIRECTION('',(-0.324243923179859,-0.324243923179858,0.888668530196647));
#666=DIRECTION('',(0.939422216860461,0.,0.342762160205844));
#667=DIRECTION('',(8.12069558432937E-17,1.,1.69334664141647E-17));
#668=DIRECTION('',(-1.,8.12069558432937E-17,0.));
#669=DIRECTION('',(1.20675632170653E-16,1.,-2.45955132373424E-17));
#670=DIRECTION('',(-1.,1.20675632170653E-16,0.));
#671=DIRECTION('',(-8.83295973364007E-6,-0.939422216818892,-0.342762160205961));
#672=DIRECTION('',(0.945974333438413,-0.111145571882778,0.304596819298232));
#673=DIRECTION('',(0.999999999955796,-9.4025602140506E-6,4.15063521437861E-11));
#674=DIRECTION('',(9.4025602140506E-6,0.999999999955796,0.));
#675=DIRECTION('',(1.,-1.3273771003944E-16,3.21766927698104E-17));
#676=DIRECTION('',(1.3273771003944E-16,1.,0.));
#677=DIRECTION('',(0.939422216860357,4.15278922361158E-11,-0.34276216020613));
#678=DIRECTION('',(0.34276216020613,-2.9052529812061E-11,0.939422216860357));
#679=CARTESIAN_POINT('',(0.,0.,0.));
#680=CARTESIAN_POINT('',(0.,-0.00785,0.0037));
#681=CARTESIAN_POINT('',(-0.00634846222651192,-0.00709999999999985,0.00575555555555596));
#682=CARTESIAN_POINT('',(-0.00704846210271765,-0.00779999987620561,0.00383703737632537));
#683=CARTESIAN_POINT('',(-0.00774846197892338,-0.00849999975241136,0.00191851919709478));
#684=CARTESIAN_POINT('',(-0.00844846185512912,-0.00919999962861712,1.01786419684545E-9));
#685=CARTESIAN_POINT('',(-0.00844845869404444,-0.0092,2.8200098506348E-17));
#686=CARTESIAN_POINT('',(-0.00634846223617707,-0.00710000000966504,0.00575555552906642));
#687=CARTESIAN_POINT('',(-0.0084484533953431,-0.0092,7.05002462658699E-17));
#688=CARTESIAN_POINT('',(0.00844846220758653,-0.00919999998107452,5.18698183363253E-11));
#689=CARTESIAN_POINT('',(0.00844846222651197,-0.00919999999999997,7.11236625150491E-17));
#690=CARTESIAN_POINT('',(0.00774846222651195,-0.00849999999999993,0.0019185185185187));
#691=CARTESIAN_POINT('',(0.00704846222651193,-0.00779999999999989,0.00383703703703733));
#692=CARTESIAN_POINT('',(0.00634846222651192,-0.00709999999999985,0.00575555555555596));
#693=CARTESIAN_POINT('',(0.0063484591015989,-0.0071,0.00575555555555598));
#694=CARTESIAN_POINT('',(0.00634846222651192,-0.00709999999999985,0.00575555555555596));
#695=CARTESIAN_POINT('',(-0.00741536101782323,-0.00741536101782323,0.00255725284379954));
#696=CARTESIAN_POINT('',(-0.0071,-0.0071,0.005166204860054));
#697=CARTESIAN_POINT('',(-0.00682828989758299,-0.0071,0.00553854833373963));
#698=CARTESIAN_POINT('',(-0.00654290169146212,-0.0071,0.005755555555556));
#699=CARTESIAN_POINT('',(-0.006348462226512,-0.0071,0.005755555555556));
#700=CARTESIAN_POINT('',(-0.0071,-0.00709999999252655,0.00516620485669397));
#701=CARTESIAN_POINT('',(-0.0071,-0.006348462226512,0.005755555555556));
#702=CARTESIAN_POINT('',(-0.0071,-0.00654290210602426,0.005755555555556));
#703=CARTESIAN_POINT('',(-0.0071,-0.00682827383601683,0.00553857034402823));
#704=CARTESIAN_POINT('',(-0.0071,-0.0071,0.005166204860054));
#705=CARTESIAN_POINT('',(-0.00709999999999985,-0.00634845910211905,0.00575555555555596));
#706=CARTESIAN_POINT('',(-0.00919999999999997,-0.00844846222651197,7.11236625150491E-17));
#707=CARTESIAN_POINT('',(-0.00849999999999993,-0.00774846222651195,0.0019185185185187));
#708=CARTESIAN_POINT('',(-0.00779999999999989,-0.00704846222651193,0.00383703703703733));
#709=CARTESIAN_POINT('',(-0.00709999999999985,-0.00634846222651192,0.00575555555555596));
#710=CARTESIAN_POINT('',(-0.0092,-0.008448462168176,3.68628738645072E-17));
#711=CARTESIAN_POINT('',(-0.008448462226512,-0.0092,0.));
#712=CARTESIAN_POINT('',(-0.0086358083220031,-0.0092,0.));
#713=CARTESIAN_POINT('',(-0.00905202911305312,-0.00905202911710736,0.));
#714=CARTESIAN_POINT('',(-0.0092,-0.00863580832269622,0.));
#715=CARTESIAN_POINT('',(-0.0092,-0.008448462226512,0.));
#716=CARTESIAN_POINT('',(-0.0071,-0.0071,0.));
#717=CARTESIAN_POINT('',(0.0071,-0.0071,0.));
#718=CARTESIAN_POINT('',(0.0071,-0.0071,0.));
#719=CARTESIAN_POINT('',(0.0071,-0.00709999999252655,0.00516620485669397));
#720=CARTESIAN_POINT('',(-0.0071,-0.0071,0.));
#721=CARTESIAN_POINT('',(-0.0071,-0.0071,0.));
#722=CARTESIAN_POINT('',(-0.0071,-0.0071,0.));
#723=CARTESIAN_POINT('',(0.006348462226512,-0.0071,0.005755555555556));
#724=CARTESIAN_POINT('',(0.00654290169146211,-0.0071,0.005755555555556));
#725=CARTESIAN_POINT('',(0.00682828989758299,-0.0071,0.00553854833373963));
#726=CARTESIAN_POINT('',(0.0071,-0.0071,0.005166204860054));
#727=CARTESIAN_POINT('',(0.00741536101782323,-0.00741536101782323,0.00255725284379954));
#728=CARTESIAN_POINT('',(0.00920000000000001,-0.00844846222651199,0.));
#729=CARTESIAN_POINT('',(0.0092,-0.00863580832269629,0.));
#730=CARTESIAN_POINT('',(0.00905202911305332,-0.00905202911710746,0.));
#731=CARTESIAN_POINT('',(0.00863580832200243,-0.0092,0.));
#732=CARTESIAN_POINT('',(0.008448462226512,-0.0092,0.));
#733=CARTESIAN_POINT('',(0.0091999996745599,-0.00844845880559658,8.91946933747766E-10));
#734=CARTESIAN_POINT('',(0.00709999999999985,-0.00634846222651192,0.00575555555555596));
#735=CARTESIAN_POINT('',(0.00779999978303984,-0.00704846200955189,0.00383703763166858));
#736=CARTESIAN_POINT('',(0.00849999956607983,-0.00774846179259185,0.0019185197077812));
#737=CARTESIAN_POINT('',(0.00919999934911982,-0.00844846157563182,1.7838938183622E-9));
#738=CARTESIAN_POINT('',(0.0071,-0.00634846219676658,0.00575555555555598));
#739=CARTESIAN_POINT('',(0.0071,-0.0071,0.005166204860054));
#740=CARTESIAN_POINT('',(0.0071,-0.00682827383601683,0.00553857034402823));
#741=CARTESIAN_POINT('',(0.0071,-0.00654290210602426,0.005755555555556));
#742=CARTESIAN_POINT('',(0.0071,-0.006348462226512,0.005755555555556));
#743=CARTESIAN_POINT('',(-0.0092,-0.0092,0.));
#744=CARTESIAN_POINT('',(-0.0092,0.00844845338229676,7.0310510885685E-17));
#745=CARTESIAN_POINT('',(-0.00919999953508559,0.00844846176159759,1.27420987086277E-9));
#746=CARTESIAN_POINT('',(-0.0092,0.008448462226512,0.));
#747=CARTESIAN_POINT('',(-0.0092,0.00863580832269704,0.));
#748=CARTESIAN_POINT('',(-0.00905202911305416,0.00905202911710724,0.));
#749=CARTESIAN_POINT('',(-0.00863580832200242,0.00920000000000001,0.));
#750=CARTESIAN_POINT('',(-0.00844846222651199,0.00920000000000001,0.));
#751=CARTESIAN_POINT('',(-0.00844846214925052,0.00919999998107451,5.18698551991992E-11));
#752=CARTESIAN_POINT('',(0.00844845338229676,0.0092,7.07712968089913E-17));
#753=CARTESIAN_POINT('',(0.00844846176159759,0.00919999953508559,1.27420986976501E-9));
#754=CARTESIAN_POINT('',(0.00844846222651202,0.00920000000000002,0.));
#755=CARTESIAN_POINT('',(0.00863580832269629,0.00920000000000008,0.));
#756=CARTESIAN_POINT('',(0.00905202911710595,0.00905202911305557,0.));
#757=CARTESIAN_POINT('',(0.00919999999999997,0.00863580832200307,0.));
#758=CARTESIAN_POINT('',(0.00920000000000002,0.00844846222651202,0.));
#759=CARTESIAN_POINT('',(0.00919999998107451,0.00844846214925052,5.18698551991992E-11));
#760=CARTESIAN_POINT('',(0.0092,-0.00844845338229676,7.0310510885685E-17));
#761=CARTESIAN_POINT('',(-0.0071,0.0071,0.));
#762=CARTESIAN_POINT('',(-0.0071,0.0071,0.));
#763=CARTESIAN_POINT('',(0.0071,0.0071,0.));
#764=CARTESIAN_POINT('',(-0.0071,-0.0071,0.));
#765=CARTESIAN_POINT('',(0.0071,-0.0071,0.));
#766=CARTESIAN_POINT('',(-0.0071,-0.0071,0.));
#767=CARTESIAN_POINT('',(-0.0071,0.0071,0.));
#768=CARTESIAN_POINT('',(-0.00709999999252615,0.00709999999252655,0.00516620488053733));
#769=CARTESIAN_POINT('',(-0.0071,0.0071,0.005166204860054));
#770=CARTESIAN_POINT('',(-0.0071,0.00682827383601676,0.00553857034402823));
#771=CARTESIAN_POINT('',(-0.0071,0.00654290210602426,0.005755555555556));
#772=CARTESIAN_POINT('',(-0.0071,0.006348462226512,0.005755555555556));
#773=CARTESIAN_POINT('',(-0.00710000000966496,0.00634846220643165,0.0057555555290664));
#774=CARTESIAN_POINT('',(-0.00709999999999985,-0.00634846222651192,0.00575555555555596));
#775=CARTESIAN_POINT('',(-0.00785,0.,0.0037));
#776=CARTESIAN_POINT('',(-0.00709999999999985,0.00634846222651192,0.00575555555555596));
#777=CARTESIAN_POINT('',(-0.00779999984502843,0.00704846207154048,0.00383703746177393));
#778=CARTESIAN_POINT('',(-0.00849999969005701,0.00774846191656903,0.0019185193679919));
#779=CARTESIAN_POINT('',(-0.00919999953508559,0.00844846176159759,1.27420986747464E-9));
#780=CARTESIAN_POINT('',(0.0071,-0.0071,0.));
#781=CARTESIAN_POINT('',(0.00709999999999985,0.00634846222651192,0.00575555555555596));
#782=CARTESIAN_POINT('',(0.0071,0.00634846222651196,0.00575555555555598));
#783=CARTESIAN_POINT('',(0.0071,0.006348462226512,0.005755555555556));
#784=CARTESIAN_POINT('',(0.0071,0.00654290169146211,0.005755555555556));
#785=CARTESIAN_POINT('',(0.0071,0.00682828989758299,0.00553854833373963));
#786=CARTESIAN_POINT('',(0.0071,0.0071,0.005166204860054));
#787=CARTESIAN_POINT('',(0.00709999999252656,0.0071,0.00516620485669397));
#788=CARTESIAN_POINT('',(0.0071,0.0071,0.));
#789=CARTESIAN_POINT('',(0.00785,0.,0.0037));
#790=CARTESIAN_POINT('',(0.00919999999999997,0.00844846222651197,7.11236625150491E-17));
#791=CARTESIAN_POINT('',(0.00849999999999993,0.00774846222651195,0.0019185185185187));
#792=CARTESIAN_POINT('',(0.00779999999999989,0.00704846222651193,0.00383703703703733));
#793=CARTESIAN_POINT('',(0.00709999999999985,0.00634846222651192,0.00575555555555596));
#794=CARTESIAN_POINT('',(-0.00741536101782323,0.00741536101782323,0.00255725284379954));
#795=CARTESIAN_POINT('',(-0.00844846222651197,0.00919999999999997,7.11236625150491E-17));
#796=CARTESIAN_POINT('',(-0.00774846222651195,0.00849999999999993,0.0019185185185187));
#797=CARTESIAN_POINT('',(-0.00704846222651193,0.00779999999999989,0.00383703703703733));
#798=CARTESIAN_POINT('',(-0.00634846222651192,0.00709999999999985,0.00575555555555596));
#799=CARTESIAN_POINT('',(-0.00634845910159887,0.00709999999999985,0.00575555555555596));
#800=CARTESIAN_POINT('',(-0.006348462226512,0.0071,0.005755555555556));
#801=CARTESIAN_POINT('',(-0.00654290169146212,0.0071,0.005755555555556));
#802=CARTESIAN_POINT('',(-0.00682828989758299,0.0071,0.00553854833373963));
#803=CARTESIAN_POINT('',(-0.0071,0.0071,0.005166204860054));
#804=CARTESIAN_POINT('',(0.00741536101782323,0.00741536101782323,0.00255725284379954));
#805=CARTESIAN_POINT('',(0.00634846222651192,0.00709999999999985,0.00575555555555596));
#806=CARTESIAN_POINT('',(0.00704846207154048,0.00779999984502843,0.00383703746177393));
#807=CARTESIAN_POINT('',(0.00774846191656903,0.00849999969005701,0.0019185193679919));
#808=CARTESIAN_POINT('',(0.00844846176159759,0.00919999953508559,1.27420986747464E-9));
#809=CARTESIAN_POINT('',(0.00634846219676658,0.0071,0.00575555555555598));
#810=CARTESIAN_POINT('',(0.0071,0.0071,0.005166204860054));
#811=CARTESIAN_POINT('',(0.00682827383601676,0.0071,0.00553857034402823));
#812=CARTESIAN_POINT('',(0.00654290210602426,0.0071,0.005755555555556));
#813=CARTESIAN_POINT('',(0.006348462226512,0.0071,0.005755555555556));
#814=CARTESIAN_POINT('',(0.,0.00785,0.0037));
#815=CARTESIAN_POINT('',(-0.00634846222651192,0.00709999999999985,0.00575555555555596));
#816=CARTESIAN_POINT('',(-0.0071,0.0071,0.));
#817=CARTESIAN_POINT('',(0.,0.,0.));
#818=CARTESIAN_POINT('',(0.,-0.00785,0.0037));
#819=CARTESIAN_POINT('',(-0.0059403046229921,-0.00669184239648025,0.00687420972816523));
#820=CARTESIAN_POINT('',(-0.00605270838505578,-0.00680424615854389,0.00656614015806488));
#821=CARTESIAN_POINT('',(-0.00616511214711946,-0.00691664992060753,0.00625807058796454));
#822=CARTESIAN_POINT('',(-0.00627751590918314,-0.00702905368267117,0.0059500010178642));
#823=CARTESIAN_POINT('',(-0.00627751274809844,-0.007029054054054,0.00595));
#824=CARTESIAN_POINT('',(-0.00594030457835756,-0.00669184241789721,0.00687420966946682));
#825=CARTESIAN_POINT('',(-0.0071,-0.007029054054054,0.00595));
#826=CARTESIAN_POINT('',(0.00627751626164053,-0.00702905403512854,0.00595000005186984));
#827=CARTESIAN_POINT('',(0.006277516280566,-0.00702905405405403,0.00595000000000007));
#828=CARTESIAN_POINT('',(0.00616511239470803,-0.0069166501681961,0.00625806990938846));
#829=CARTESIAN_POINT('',(0.00605270850885007,-0.00680424628233818,0.00656613981877685));
#830=CARTESIAN_POINT('',(0.0059403046229921,-0.00669184239648025,0.00687420972816523));
#831=CARTESIAN_POINT('',(0.0059403045783576,-0.00669184241789725,0.00687420966946672));
#832=CARTESIAN_POINT('',(0.0059403046229921,-0.00669184239648025,0.00687420972816523));
#833=CARTESIAN_POINT('',(0.00198010154099737,-0.00669184239648025,0.00687420972816523));
#834=CARTESIAN_POINT('',(-0.00198010154099737,-0.00669184239648025,0.00687420972816523));
#835=CARTESIAN_POINT('',(-0.0059403046229921,-0.00669184239648025,0.00687420972816523));
#836=CARTESIAN_POINT('',(-0.00612580924309022,-0.00612580924309022,0.00609157993010482));
#837=CARTESIAN_POINT('',(-0.00669184239648064,-0.00594030462299238,0.00687420972816479));
#838=CARTESIAN_POINT('',(-0.00664877877407812,-0.00630684752703689,0.00699223595252709));
#839=CARTESIAN_POINT('',(-0.00630684752703647,-0.0066487787740782,0.00699223595252693));
#840=CARTESIAN_POINT('',(-0.00594030462299235,-0.00669184239648065,0.00687420972816477));
#841=CARTESIAN_POINT('',(-0.00669184241789721,-0.00594030457835757,0.00687420966946683));
#842=CARTESIAN_POINT('',(-0.00702905405405403,-0.006277516280566,0.00595000000000007));
#843=CARTESIAN_POINT('',(-0.0069166501681961,-0.00616511239470803,0.00625806990938846));
#844=CARTESIAN_POINT('',(-0.00680424628233818,-0.00605270850885007,0.00656613981877685));
#845=CARTESIAN_POINT('',(-0.00669184239648025,-0.0059403046229921,0.00687420972816523));
#846=CARTESIAN_POINT('',(-0.007029054054054,-0.00627751622223,0.00595));
#847=CARTESIAN_POINT('',(-0.006277516280566,-0.007029054054054,0.00595));
#848=CARTESIAN_POINT('',(-0.0064648623760596,-0.007029054054054,0.00595));
#849=CARTESIAN_POINT('',(-0.00688108316710758,-0.00688108317116165,0.00595));
#850=CARTESIAN_POINT('',(-0.007029054054054,-0.00646486237675022,0.00595));
#851=CARTESIAN_POINT('',(-0.007029054054054,-0.006277516280566,0.00595));
#852=CARTESIAN_POINT('',(-4.39876309979868E-18,-0.00594030462299253,0.006600000000001));
#853=CARTESIAN_POINT('',(0.00594030462299264,-0.00599317630626852,0.00739825095374565));
#854=CARTESIAN_POINT('',(0.00594030462299404,-0.00630045048225536,0.0073778988290916));
#855=CARTESIAN_POINT('',(0.00594030462299425,-0.00658628966539052,0.00716350239859688));
#856=CARTESIAN_POINT('',(0.00594030462299234,-0.00669184239648065,0.00687420972816477));
#857=CARTESIAN_POINT('',(0.00594030749787849,-0.00599317439181735,0.00739825108052949));
#858=CARTESIAN_POINT('',(-0.00594030653958199,-0.00599317502995011,0.00739825103826567));
#859=CARTESIAN_POINT('',(-0.00582329635493403,-0.00607109278441893,0.00739309057222196));
#860=CARTESIAN_POINT('',(-0.00540177516807973,-0.0062293442256586,0.00735844126014663));
#861=CARTESIAN_POINT('',(-0.00416549310177303,-0.00642437206441277,0.00724775842764465));
#862=CARTESIAN_POINT('',(-0.00236843066372649,-0.00654826402058672,0.0071251117078136));
#863=CARTESIAN_POINT('',(3.30636123373653E-9,-0.00659254369940376,0.00706245838831836));
#864=CARTESIAN_POINT('',(0.00236843725626545,-0.0065482637763817,0.00712511204646254));
#865=CARTESIAN_POINT('',(0.00416549651741404,-0.00642437149709841,0.00724775870693104));
#866=CARTESIAN_POINT('',(0.00540177628560215,-0.0062293440336438,0.00735844137536528));
#867=CARTESIAN_POINT('',(0.00582329732979392,-0.00607109235467396,0.00739309064252204));
#868=CARTESIAN_POINT('',(0.00594030717842724,-0.00599317460453878,0.0073982510664404));
#869=CARTESIAN_POINT('',(-0.00594030653959295,-0.0059931750299654,0.0073982510382692));
#870=CARTESIAN_POINT('',(-0.00594030462299235,-0.00669184239648065,0.00687420972816477));
#871=CARTESIAN_POINT('',(-0.00594030462299425,-0.00658628966539052,0.00716350239859688));
#872=CARTESIAN_POINT('',(-0.00594030462299404,-0.00630045048225536,0.00737789882909161));
#873=CARTESIAN_POINT('',(-0.00594030462299264,-0.00599317630626852,0.00739825095374565));
#874=CARTESIAN_POINT('',(0.00612580924309038,-0.00612580924309037,0.0060915799301044));
#875=CARTESIAN_POINT('',(0.007029054054054,-0.006277516280566,0.00595));
#876=CARTESIAN_POINT('',(0.007029054054054,-0.00646486237675022,0.00595));
#877=CARTESIAN_POINT('',(0.00688108316710778,-0.00688108317116007,0.00595));
#878=CARTESIAN_POINT('',(0.00646486237606035,-0.007029054054054,0.00595));
#879=CARTESIAN_POINT('',(0.006277516280566,-0.007029054054054,0.00595));
#880=CARTESIAN_POINT('',(0.00702905372861392,-0.00627751285965058,0.00595000089194694));
#881=CARTESIAN_POINT('',(0.00669184239648025,-0.0059403046229921,0.00687420972816523));
#882=CARTESIAN_POINT('',(0.00680424606537813,-0.00605270829189001,0.0065661404134081));
#883=CARTESIAN_POINT('',(0.006916649734276,-0.00616511196078793,0.00625807109865097));
#884=CARTESIAN_POINT('',(0.00702905340317387,-0.00627751562968584,0.00595000178389384));
#885=CARTESIAN_POINT('',(0.00669184241789725,-0.00594030457835761,0.00687420966946672));
#886=CARTESIAN_POINT('',(0.00594030462299234,-0.00669184239648065,0.00687420972816477));
#887=CARTESIAN_POINT('',(0.00630684752703646,-0.00664877877407821,0.00699223595252692));
#888=CARTESIAN_POINT('',(0.00664877877407812,-0.00630684752703686,0.00699223595252709));
#889=CARTESIAN_POINT('',(0.00669184239648064,-0.00594030462299239,0.00687420972816479));
#890=CARTESIAN_POINT('',(-0.0071,-0.0071,0.00595));
#891=CARTESIAN_POINT('',(-0.007029054054054,-0.0071,0.00595));
#892=CARTESIAN_POINT('',(-0.0070290535891396,0.00627751581565159,0.00595000127420991));
#893=CARTESIAN_POINT('',(-0.007029054054054,0.006277516280566,0.00595));
#894=CARTESIAN_POINT('',(-0.007029054054054,0.00646486237675022,0.00595));
#895=CARTESIAN_POINT('',(-0.00688108316710635,0.00688108317116151,0.00595));
#896=CARTESIAN_POINT('',(-0.00646486237606035,0.007029054054054,0.00595));
#897=CARTESIAN_POINT('',(-0.006277516280566,0.007029054054054,0.00595));
#898=CARTESIAN_POINT('',(-0.00627751620330497,0.00702905403512859,0.00595000005186972));
#899=CARTESIAN_POINT('',(-0.0071,0.007029054054054,0.00595));
#900=CARTESIAN_POINT('',(0.00627751581566031,0.00702905358914345,0.00595000127419936));
#901=CARTESIAN_POINT('',(0.006277516280566,0.007029054054054,0.00595));
#902=CARTESIAN_POINT('',(0.00646486237675022,0.007029054054054,0.00595));
#903=CARTESIAN_POINT('',(0.00688108317116007,0.00688108316710778,0.00595));
#904=CARTESIAN_POINT('',(0.007029054054054,0.00646486237606035,0.00595));
#905=CARTESIAN_POINT('',(0.007029054054054,0.006277516280566,0.00595));
#906=CARTESIAN_POINT('',(0.00702905403512859,0.00627751620330498,0.00595000005186972));
#907=CARTESIAN_POINT('',(0.007029054054054,-0.0071,0.00595));
#908=CARTESIAN_POINT('',(-0.005940304622981,-0.005940304622981,0.006600000000031));
#909=CARTESIAN_POINT('',(-0.00599317146270212,-0.00594031189647827,0.00739825127451164));
#910=CARTESIAN_POINT('',(-0.00597927462150597,-0.00596117950730739,0.00739917146355289));
#911=CARTESIAN_POINT('',(-0.00596116289982271,-0.00597928697733085,0.00739917090459871));
#912=CARTESIAN_POINT('',(-0.00594030845619327,-0.00599317375366233,0.00739825112279276));
#913=CARTESIAN_POINT('',(-0.00599317166899452,-0.00594031158669053,0.00739825126084943));
#914=CARTESIAN_POINT('',(-0.00599317172435056,-0.00594031150356394,0.00739825125718343));
#915=CARTESIAN_POINT('',(-0.00630044754446079,-0.00594031033350402,0.00737790079512456));
#916=CARTESIAN_POINT('',(-0.00658628914074426,-0.00594030751851093,0.00716350383651624));
#917=CARTESIAN_POINT('',(-0.00669184239648064,-0.00594030462299238,0.00687420972816479));
#918=CARTESIAN_POINT('',(-0.00785,0.,0.0037));
#919=CARTESIAN_POINT('',(-0.00669184239648025,0.0059403046229921,0.00687420972816523));
#920=CARTESIAN_POINT('',(-0.00680424612736671,0.0060527083538786,0.00656614024351346));
#921=CARTESIAN_POINT('',(-0.00691664985825317,0.0061651120847651,0.00625807075886169));
#922=CARTESIAN_POINT('',(-0.00702905358913962,0.00627751581565159,0.00595000127420992));
#923=CARTESIAN_POINT('',(-0.00669184241792044,0.00594030457831017,0.00687420966940295));
#924=CARTESIAN_POINT('',(-0.00669184239648025,-0.0059403046229921,0.00687420972816523));
#925=CARTESIAN_POINT('',(-0.00669184239648025,-0.00198010154099737,0.00687420972816523));
#926=CARTESIAN_POINT('',(-0.00669184239648025,0.00198010154099737,0.00687420972816523));
#927=CARTESIAN_POINT('',(-0.00669184239648025,0.0059403046229921,0.00687420972816523));
#928=CARTESIAN_POINT('',(0.005940304622981,-0.005940304622981,0.006600000000031));
#929=CARTESIAN_POINT('',(0.00669184239648064,-0.00594030462299239,0.00687420972816479));
#930=CARTESIAN_POINT('',(0.00658628914074426,-0.00594030751851092,0.00716350383651624));
#931=CARTESIAN_POINT('',(0.00630044754446079,-0.00594031033350402,0.00737790079512456));
#932=CARTESIAN_POINT('',(0.00599317172435056,-0.00594031150356394,0.00739825125718343));
#933=CARTESIAN_POINT('',(0.00599317153817034,-0.00594031178314771,0.00739825126951354));
#934=CARTESIAN_POINT('',(0.00594030845619327,-0.00599317375366233,0.00739825112279276));
#935=CARTESIAN_POINT('',(0.00596116289982284,-0.00597928697733073,0.00739917090459871));
#936=CARTESIAN_POINT('',(0.00597927462150588,-0.00596117950730749,0.00739917146355289));
#937=CARTESIAN_POINT('',(0.00599317146270215,-0.00594031189647823,0.00739825127451164));
#938=CARTESIAN_POINT('',(0.,0.,0.0516));
#939=CARTESIAN_POINT('',(0.00599317358807683,0.00594030870475614,0.00739825113374611));
#940=CARTESIAN_POINT('',(0.00597928477775823,0.0059611660618016,0.00739917103147612));
#941=CARTESIAN_POINT('',(0.00596116606180055,0.00597928477775915,0.0073991710314761));
#942=CARTESIAN_POINT('',(0.00594030870475588,0.00599317358807696,0.0073982511337461));
#943=CARTESIAN_POINT('',(0.00599317478158705,0.00594030691243713,0.00739825105469919));
#944=CARTESIAN_POINT('',(0.00594030631501162,0.00599317517941879,0.00739825102835137));
#945=CARTESIAN_POINT('',(0.00594030631501518,0.00599317517942421,0.00739825102835269));
#946=CARTESIAN_POINT('',(0.00582329493845826,0.00607109357145775,0.00739309048943193));
#947=CARTESIAN_POINT('',(0.00540177450361215,0.00622934421301279,0.00735844118127277));
#948=CARTESIAN_POINT('',(0.00416549196564809,0.00642437222195753,0.00724775834058439));
#949=CARTESIAN_POINT('',(0.00236843000103094,0.00654826401850909,0.00712511168484827));
#950=CARTESIAN_POINT('',(-3.15663217247481E-9,0.00659254369793669,0.0070624584030119));
#951=CARTESIAN_POINT('',(-0.0023684363468068,0.00654826378432714,0.00712511201065358));
#952=CARTESIAN_POINT('',(-0.00416549520118642,0.00642437167413379,0.0072477586050231));
#953=CARTESIAN_POINT('',(-0.00540177551286431,0.00622934404574508,0.00735844128629026));
#954=CARTESIAN_POINT('',(-0.0058232958447625,0.00607109317314738,0.00739309055493933));
#955=CARTESIAN_POINT('',(-0.00594030691244186,0.00599317478159409,0.00739825105470079));
#956=CARTESIAN_POINT('',(-0.00594030691243774,0.00599317478158658,0.00739825105469916));
#957=CARTESIAN_POINT('',(-0.00594030870475633,0.00599317358807613,0.00739825113374605));
#958=CARTESIAN_POINT('',(-0.00596116622750668,0.00597928466740891,0.00739917103878345));
#959=CARTESIAN_POINT('',(-0.00597928556007704,0.00596116502760548,0.00739917099839225));
#960=CARTESIAN_POINT('',(-0.00599317375358767,0.0059403084561925,0.00739825112278254));
#961=CARTESIAN_POINT('',(-0.00599317545527099,0.00594030590073951,0.00739825101007909));
#962=CARTESIAN_POINT('',(-0.00599317545527951,0.0059403059007451,0.00739825101008097));
#963=CARTESIAN_POINT('',(-0.00607109322284651,0.00582329536739415,0.00739309050139492));
#964=CARTESIAN_POINT('',(-0.00622934465989952,0.00540177337141104,0.0073584410933157));
#965=CARTESIAN_POINT('',(-0.00642437240311014,0.00416549000720313,0.00724775817011616));
#966=CARTESIAN_POINT('',(-0.00654826419368027,0.00236842611932471,0.00712511146986578));
#967=CARTESIAN_POINT('',(-0.00659254376467043,-9.01976470473775E-9,0.00706245837916996));
#968=CARTESIAN_POINT('',(-0.00654826334224379,-0.00236844265745642,0.00712511232101167));
#969=CARTESIAN_POINT('',(-0.00642437195367935,-0.00416549909812808,0.00724775896790021));
#970=CARTESIAN_POINT('',(-0.00622934023148579,-0.00540178355332235,0.00735844181932587));
#971=CARTESIAN_POINT('',(-0.00607109863553853,-0.00582328852381103,0.00739309029381319));
#972=CARTESIAN_POINT('',(-0.00599317166899386,-0.00594031158669001,0.00739825126084936));
#973=CARTESIAN_POINT('',(0.00599317154993544,-0.00594031176548016,0.00739825126873437));
#974=CARTESIAN_POINT('',(0.00614898064269177,-0.00570633316087084,0.00738793232776495));
#975=CARTESIAN_POINT('',(0.00638375271589661,-0.00476981416901213,0.00728992889194439));
#976=CARTESIAN_POINT('',(0.00654802364501741,-0.00236692538595051,0.00712496994060101));
#977=CARTESIAN_POINT('',(0.00657778376466792,-0.000797006314363199,0.00708334288442953));
#978=CARTESIAN_POINT('',(0.00657778376466791,2.76001355795826E-17,0.00708334288442953));
#979=CARTESIAN_POINT('',(0.00657778376466791,-8.05546183288399E-19,0.00708334288442953));
#980=CARTESIAN_POINT('',(0.,0.,0.0516));
#981=CARTESIAN_POINT('',(2.75545529808154E-18,0.,0.0066));
#982=CARTESIAN_POINT('',(0.00657778376466791,0.,0.00708334288442953));
#983=CARTESIAN_POINT('',(0.00657778376466791,0.000797007401923953,0.00708334288442953));
#984=CARTESIAN_POINT('',(0.00654802300989592,0.00236692525514094,0.0071249699821744));
#985=CARTESIAN_POINT('',(0.00638375614899577,0.00476980662204896,0.00728992841363802));
#986=CARTESIAN_POINT('',(0.00614896668363709,0.0057063521755582,0.00738793302762969));
#987=CARTESIAN_POINT('',(0.00599317478159492,0.00594030691244149,0.00739825105470085));
#988=CARTESIAN_POINT('',(0.00785,0.,0.0037));
#989=CARTESIAN_POINT('',(0.00702905405405403,0.006277516280566,0.00595000000000007));
#990=CARTESIAN_POINT('',(0.00691665029201608,0.00616511369626151,0.00625806957003));
#991=CARTESIAN_POINT('',(0.00680424652997813,0.00605271111195702,0.00656613914005993));
#992=CARTESIAN_POINT('',(0.00669184276794018,0.00594030852765253,0.00687420871008987));
#993=CARTESIAN_POINT('',(0.00669184258221012,0.00594030922522272,0.00687420921912738));
#994=CARTESIAN_POINT('',(0.00669184276794018,0.00594030852765253,0.00687420871008987));
#995=CARTESIAN_POINT('',(0.00669184264412021,0.00198010414410432,0.00687420904944832));
#996=CARTESIAN_POINT('',(0.00669184252030023,-0.00198010023944389,0.00687420938880677));
#997=CARTESIAN_POINT('',(0.00669184239648025,-0.0059403046229921,0.00687420972816523));
#998=CARTESIAN_POINT('',(-0.00612580924308941,0.00612580924308941,0.00609157993010704));
#999=CARTESIAN_POINT('',(-0.006277516280566,0.00702905405405403,0.00595000000000007));
#1000=CARTESIAN_POINT('',(-0.00616511369626151,0.00691665029201608,0.00625806957003));
#1001=CARTESIAN_POINT('',(-0.00605271111195702,0.00680424652997813,0.00656613914005993));
#1002=CARTESIAN_POINT('',(-0.00594030852765253,0.00669184276794018,0.00687420871008987));
#1003=CARTESIAN_POINT('',(-0.0059403092252229,0.00669184258221023,0.00687420921912707));
#1004=CARTESIAN_POINT('',(-0.00594031168939375,0.00669184239648063,0.00687420972816335));
#1005=CARTESIAN_POINT('',(-0.00630685244302827,0.00664877593761179,0.00699223428076202));
#1006=CARTESIAN_POINT('',(-0.0066487793840622,0.00630684578154864,0.00699223428076247));
#1007=CARTESIAN_POINT('',(-0.00669184239648029,0.00594030462299178,0.0068742097281649));
#1008=CARTESIAN_POINT('',(0.,0.00785,0.0037));
#1009=CARTESIAN_POINT('',(0.00594030852765253,0.00669184276794019,0.00687420871008987));
#1010=CARTESIAN_POINT('',(0.00605271095698846,0.00680424637500795,0.00656613956479304));
#1011=CARTESIAN_POINT('',(0.00616511338632438,0.00691664998207571,0.00625807041949621));
#1012=CARTESIAN_POINT('',(0.00627751581566031,0.00702905358914347,0.00595000127419938));
#1013=CARTESIAN_POINT('',(0.00594030922522263,0.0066918425822101,0.00687420921912744));
#1014=CARTESIAN_POINT('',(-0.00594030852765253,0.00669184276794018,0.00687420871008987));
#1015=CARTESIAN_POINT('',(-0.00198010284255084,0.00669184276794018,0.00687420871008987));
#1016=CARTESIAN_POINT('',(0.00198010284255084,0.00669184276794018,0.00687420871008987));
#1017=CARTESIAN_POINT('',(0.00594030852765253,0.00669184276794018,0.00687420871008987));
#1018=CARTESIAN_POINT('',(0.00612580924308974,0.00612580924308974,0.00609157993010615));
#1019=CARTESIAN_POINT('',(0.00669184239648016,0.00594031168939313,0.00687420972816465));
#1020=CARTESIAN_POINT('',(0.00664877654761119,0.00630685069753804,0.0069922326090011));
#1021=CARTESIAN_POINT('',(0.00630685069753774,0.00664877654761132,0.00699223260900115));
#1022=CARTESIAN_POINT('',(0.00594031168939279,0.00669184239648011,0.00687420972816477));
#1023=CARTESIAN_POINT('',(-0.00594030462299253,4.39876309979868E-18,0.006600000000001));
#1024=CARTESIAN_POINT('',(-0.00669184239648028,0.00594030462299178,0.00687420972816491));
#1025=CARTESIAN_POINT('',(-0.00658628966536358,0.00594030462298283,0.00716350239863262));
#1026=CARTESIAN_POINT('',(-0.00630045048215244,0.00594030462298223,0.00737789882913019));
#1027=CARTESIAN_POINT('',(-0.00599317630611904,0.00594030462299031,0.00739825095372528));
#1028=CARTESIAN_POINT('',(0.00594030462299253,-4.15868976160541E-18,0.006600000000001));
#1029=CARTESIAN_POINT('',(0.0059931759750973,0.00594030512011815,0.00739825097565227));
#1030=CARTESIAN_POINT('',(0.00630045026990625,0.00594030800928232,0.00737789897118178));
#1031=CARTESIAN_POINT('',(0.00658628962746148,0.00594031069691269,0.00716350250252497));
#1032=CARTESIAN_POINT('',(0.00669184239648016,0.00594031168939313,0.00687420972816465));
#1033=CARTESIAN_POINT('',(0.005940304623025,0.005940304623025,0.0066));
#1034=CARTESIAN_POINT('',(0.005940304623025,0.005940304623025,0.0066));
#1035=CARTESIAN_POINT('',(2.50140929794862E-18,0.00594030462299253,0.006600000000001));
#1036=CARTESIAN_POINT('',(-0.00594030512011917,0.00599317597509707,0.00739825097565228));
#1037=CARTESIAN_POINT('',(-0.00594030800929651,0.00630045026991549,0.00737789897118126));
#1038=CARTESIAN_POINT('',(-0.00594031069691839,0.00658628962745751,0.00716350250253739));
#1039=CARTESIAN_POINT('',(-0.00594031168939375,0.00669184239648063,0.00687420972816335));
#1040=CARTESIAN_POINT('',(-0.005940304622992,0.005940304623025,0.0066));
#1041=MECHANICAL_DESIGN_GEOMETRIC_PRESENTATION_REPRESENTATION('',(#532),
#1043);
#1042=MECHANICAL_DESIGN_GEOMETRIC_PRESENTATION_REPRESENTATION('',(#533),
#1044);
#1043=(
GEOMETRIC_REPRESENTATION_CONTEXT(3)
GLOBAL_UNCERTAINTY_ASSIGNED_CONTEXT((#1045))
GLOBAL_UNIT_ASSIGNED_CONTEXT((#1051,#1049,#1047))
REPRESENTATION_CONTEXT('Open CASCADE STEP translator 7.9 1.1',
'TOP_LEVEL_ASSEMBLY_PART')
);
#1044=(
GEOMETRIC_REPRESENTATION_CONTEXT(3)
GLOBAL_UNCERTAINTY_ASSIGNED_CONTEXT((#1046))
GLOBAL_UNIT_ASSIGNED_CONTEXT((#1052,#1050,#1048))
REPRESENTATION_CONTEXT('Open CASCADE STEP translator 7.9 1.2',
'TOP_LEVEL_ASSEMBLY_PART')
);
#1045=UNCERTAINTY_MEASURE_WITH_UNIT(LENGTH_MEASURE(2.E-5),#1051,
'DISTANCE_ACCURACY_VALUE','Maximum Tolerance applied to model');
#1046=UNCERTAINTY_MEASURE_WITH_UNIT(LENGTH_MEASURE(2.E-5),#1052,
'DISTANCE_ACCURACY_VALUE','Maximum Tolerance applied to model');
#1047=(
NAMED_UNIT(*)
SI_UNIT($,.STERADIAN.)
SOLID_ANGLE_UNIT()
);
#1048=(
NAMED_UNIT(*)
SI_UNIT($,.STERADIAN.)
SOLID_ANGLE_UNIT()
);
#1049=(
NAMED_UNIT(*)
PLANE_ANGLE_UNIT()
SI_UNIT($,.RADIAN.)
);
#1050=(
NAMED_UNIT(*)
PLANE_ANGLE_UNIT()
SI_UNIT($,.RADIAN.)
);
#1051=(
LENGTH_UNIT()
NAMED_UNIT(*)
SI_UNIT($,.METRE.)
);
#1052=(
LENGTH_UNIT()
NAMED_UNIT(*)
SI_UNIT($,.METRE.)
);
#1053=PRODUCT_DEFINITION_SHAPE('','',#1055);
#1054=PRODUCT_DEFINITION_SHAPE('','',#1056);
#1055=PRODUCT_DEFINITION('','',#1059,#1057);
#1056=PRODUCT_DEFINITION('','',#1060,#1058);
#1057=PRODUCT_DEFINITION_CONTEXT('',#1071,'design');
#1058=PRODUCT_DEFINITION_CONTEXT('',#1072,'design');
#1059=PRODUCT_DEFINITION_FORMATION_WITH_SPECIFIED_SOURCE('','',#1063,
 .NOT_KNOWN.);
#1060=PRODUCT_DEFINITION_FORMATION_WITH_SPECIFIED_SOURCE('','',#1064,
 .NOT_KNOWN.);
#1061=PRODUCT_RELATED_PRODUCT_CATEGORY('','',(#1063));
#1062=PRODUCT_RELATED_PRODUCT_CATEGORY('','',(#1064));
#1063=PRODUCT('Open CASCADE STEP translator 7.9 1.1',
'Open CASCADE STEP translator 7.9 1.1',
'Open CASCADE STEP translator 7.9 1.1',(#1067));
#1064=PRODUCT('Open CASCADE STEP translator 7.9 1.2',
'Open CASCADE STEP translator 7.9 1.2',
'Open CASCADE STEP translator 7.9 1.2',(#1068));
#1065=PRODUCT_CATEGORY('','');
#1066=PRODUCT_CATEGORY('','');
#1067=PRODUCT_CONTEXT('',#1071,'mechanical');
#1068=PRODUCT_CONTEXT('',#1072,'mechanical');
#1069=APPLICATION_PROTOCOL_DEFINITION('international standard',
'automotive_design',2010,#1071);
#1070=APPLICATION_PROTOCOL_DEFINITION('international standard',
'automotive_design',2010,#1072);
#1071=APPLICATION_CONTEXT(
'core data for automotive mechanical design processes');
#1072=APPLICATION_CONTEXT(
'core data for automotive mechanical design processes');
ENDSEC;
END-ISO-10303-21;
