ISO-10303-21;
HEADER;
/* Generated by software containing ST-Developer
 * from STEP Tools, Inc. (www.steptools.com) 
 */
/* OPTION: using custom renumber hook */

FILE_DESCRIPTION(
/* description */ ('STEP AP242 Edition 2',
'CAx-IF Rec.Pracs.---Representation and Presentation of Product Manufa
cturing Information (PMI)---4.0---2014-10-13',
'CAx-IF Rec.Pracs.---3D Tessellated Geometry---0.4---2014-09-14','2;1',
'CAx-IF Rec.Pracs.---User Defined Attributes---1.5---2016-08-15'),
/* implementation_level */ '2;1');

FILE_NAME(
/* name */ 'Top',
/* time_stamp */ '2026-09-26T22:37:03Z',
/* author */ (''),
/* organization */ (''),
/* preprocessor_version */ 'ST-DEVELOPER v20',
/* originating_system */ 'ONSHAPE BY PTC INC, 1.221',
/* authorisation */ '  ');

FILE_SCHEMA (('AP242_MANAGED_MODEL_BASED_3D_ENGINEERING_MIM_LF { 1 0 10303 442 3 1 4 }'));
ENDSEC;

DATA;
#10=SHAPE_REPRESENTATION_RELATIONSHIP('','',#302,#11);
#11=ADVANCED_BREP_SHAPE_REPRESENTATION('',(#300),#484);
#12=CYLINDRICAL_SURFACE('',#324,0.0065);
#13=CYLINDRICAL_SURFACE('',#325,0.0016);
#14=CYLINDRICAL_SURFACE('',#326,0.0016);
#15=CYLINDRICAL_SURFACE('',#327,0.0016);
#16=CYLINDRICAL_SURFACE('',#328,0.0016);
#17=CIRCLE('',#305,0.0065);
#18=CIRCLE('',#306,0.0016);
#19=CIRCLE('',#307,0.0016);
#20=CIRCLE('',#308,0.0016);
#21=CIRCLE('',#309,0.0016);
#22=CIRCLE('',#311,0.0016);
#23=CIRCLE('',#312,0.0016);
#24=CIRCLE('',#313,0.0016);
#25=CIRCLE('',#314,0.0065);
#26=CIRCLE('',#315,0.0016);
#27=ORIENTED_EDGE('',*,*,#97,.F.);
#28=ORIENTED_EDGE('',*,*,#98,.T.);
#29=ORIENTED_EDGE('',*,*,#99,.T.);
#30=ORIENTED_EDGE('',*,*,#100,.F.);
#31=ORIENTED_EDGE('',*,*,#101,.F.);
#32=ORIENTED_EDGE('',*,*,#102,.F.);
#33=ORIENTED_EDGE('',*,*,#103,.F.);
#34=ORIENTED_EDGE('',*,*,#104,.F.);
#35=ORIENTED_EDGE('',*,*,#105,.F.);
#36=ORIENTED_EDGE('',*,*,#106,.F.);
#37=ORIENTED_EDGE('',*,*,#107,.F.);
#38=ORIENTED_EDGE('',*,*,#108,.F.);
#39=ORIENTED_EDGE('',*,*,#109,.F.);
#40=ORIENTED_EDGE('',*,*,#110,.T.);
#41=ORIENTED_EDGE('',*,*,#111,.T.);
#42=ORIENTED_EDGE('',*,*,#112,.T.);
#43=ORIENTED_EDGE('',*,*,#113,.T.);
#44=ORIENTED_EDGE('',*,*,#114,.T.);
#45=ORIENTED_EDGE('',*,*,#115,.T.);
#46=ORIENTED_EDGE('',*,*,#116,.F.);
#47=ORIENTED_EDGE('',*,*,#117,.F.);
#48=ORIENTED_EDGE('',*,*,#118,.T.);
#49=ORIENTED_EDGE('',*,*,#119,.T.);
#50=ORIENTED_EDGE('',*,*,#120,.T.);
#51=ORIENTED_EDGE('',*,*,#121,.T.);
#52=ORIENTED_EDGE('',*,*,#122,.T.);
#53=ORIENTED_EDGE('',*,*,#123,.F.);
#54=ORIENTED_EDGE('',*,*,#118,.F.);
#55=ORIENTED_EDGE('',*,*,#124,.T.);
#56=ORIENTED_EDGE('',*,*,#106,.T.);
#57=ORIENTED_EDGE('',*,*,#125,.F.);
#58=ORIENTED_EDGE('',*,*,#109,.T.);
#59=ORIENTED_EDGE('',*,*,#126,.F.);
#60=ORIENTED_EDGE('',*,*,#120,.F.);
#61=ORIENTED_EDGE('',*,*,#114,.F.);
#62=ORIENTED_EDGE('',*,*,#127,.F.);
#63=ORIENTED_EDGE('',*,*,#97,.T.);
#64=ORIENTED_EDGE('',*,*,#128,.T.);
#65=ORIENTED_EDGE('',*,*,#117,.T.);
#66=ORIENTED_EDGE('',*,*,#129,.F.);
#67=ORIENTED_EDGE('',*,*,#98,.F.);
#68=ORIENTED_EDGE('',*,*,#127,.T.);
#69=ORIENTED_EDGE('',*,*,#116,.T.);
#70=ORIENTED_EDGE('',*,*,#130,.F.);
#71=ORIENTED_EDGE('',*,*,#99,.F.);
#72=ORIENTED_EDGE('',*,*,#129,.T.);
#73=ORIENTED_EDGE('',*,*,#115,.F.);
#74=ORIENTED_EDGE('',*,*,#128,.F.);
#75=ORIENTED_EDGE('',*,*,#100,.T.);
#76=ORIENTED_EDGE('',*,*,#130,.T.);
#77=ORIENTED_EDGE('',*,*,#108,.T.);
#78=ORIENTED_EDGE('',*,*,#131,.F.);
#79=ORIENTED_EDGE('',*,*,#121,.F.);
#80=ORIENTED_EDGE('',*,*,#126,.T.);
#81=ORIENTED_EDGE('',*,*,#107,.T.);
#82=ORIENTED_EDGE('',*,*,#124,.F.);
#83=ORIENTED_EDGE('',*,*,#122,.F.);
#84=ORIENTED_EDGE('',*,*,#131,.T.);
#85=ORIENTED_EDGE('',*,*,#113,.F.);
#86=ORIENTED_EDGE('',*,*,#101,.T.);
#87=ORIENTED_EDGE('',*,*,#123,.T.);
#88=ORIENTED_EDGE('',*,*,#105,.T.);
#89=ORIENTED_EDGE('',*,*,#125,.T.);
#90=ORIENTED_EDGE('',*,*,#119,.F.);
#91=ORIENTED_EDGE('',*,*,#102,.T.);
#92=ORIENTED_EDGE('',*,*,#112,.F.);
#93=ORIENTED_EDGE('',*,*,#103,.T.);
#94=ORIENTED_EDGE('',*,*,#111,.F.);
#95=ORIENTED_EDGE('',*,*,#104,.T.);
#96=ORIENTED_EDGE('',*,*,#110,.F.);
#97=EDGE_CURVE('',#132,#133,#158,.T.);
#98=EDGE_CURVE('',#132,#134,#159,.T.);
#99=EDGE_CURVE('',#134,#135,#160,.T.);
#100=EDGE_CURVE('',#133,#135,#161,.T.);
#101=EDGE_CURVE('',#136,#136,#17,.T.);
#102=EDGE_CURVE('',#137,#137,#18,.T.);
#103=EDGE_CURVE('',#138,#138,#19,.T.);
#104=EDGE_CURVE('',#139,#139,#20,.T.);
#105=EDGE_CURVE('',#140,#141,#21,.T.);
#106=EDGE_CURVE('',#142,#140,#162,.T.);
#107=EDGE_CURVE('',#143,#142,#163,.T.);
#108=EDGE_CURVE('',#144,#143,#164,.T.);
#109=EDGE_CURVE('',#141,#144,#165,.T.);
#110=EDGE_CURVE('',#145,#145,#22,.T.);
#111=EDGE_CURVE('',#146,#146,#23,.T.);
#112=EDGE_CURVE('',#147,#147,#24,.T.);
#113=EDGE_CURVE('',#148,#148,#25,.T.);
#114=EDGE_CURVE('',#149,#150,#166,.T.);
#115=EDGE_CURVE('',#150,#151,#167,.T.);
#116=EDGE_CURVE('',#152,#151,#168,.T.);
#117=EDGE_CURVE('',#149,#152,#169,.T.);
#118=EDGE_CURVE('',#153,#154,#170,.T.);
#119=EDGE_CURVE('',#154,#155,#26,.T.);
#120=EDGE_CURVE('',#155,#156,#171,.T.);
#121=EDGE_CURVE('',#156,#157,#172,.T.);
#122=EDGE_CURVE('',#157,#153,#173,.T.);
#123=EDGE_CURVE('',#154,#140,#174,.F.);
#124=EDGE_CURVE('',#153,#142,#175,.T.);
#125=EDGE_CURVE('',#141,#155,#176,.T.);
#126=EDGE_CURVE('',#156,#144,#177,.T.);
#127=EDGE_CURVE('',#132,#149,#178,.T.);
#128=EDGE_CURVE('',#133,#150,#179,.T.);
#129=EDGE_CURVE('',#134,#152,#180,.T.);
#130=EDGE_CURVE('',#135,#151,#181,.T.);
#131=EDGE_CURVE('',#157,#143,#182,.T.);
#132=VERTEX_POINT('',#409);
#133=VERTEX_POINT('',#410);
#134=VERTEX_POINT('',#412);
#135=VERTEX_POINT('',#414);
#136=VERTEX_POINT('',#417);
#137=VERTEX_POINT('',#419);
#138=VERTEX_POINT('',#421);
#139=VERTEX_POINT('',#423);
#140=VERTEX_POINT('',#425);
#141=VERTEX_POINT('',#426);
#142=VERTEX_POINT('',#428);
#143=VERTEX_POINT('',#430);
#144=VERTEX_POINT('',#432);
#145=VERTEX_POINT('',#436);
#146=VERTEX_POINT('',#438);
#147=VERTEX_POINT('',#440);
#148=VERTEX_POINT('',#442);
#149=VERTEX_POINT('',#444);
#150=VERTEX_POINT('',#445);
#151=VERTEX_POINT('',#447);
#152=VERTEX_POINT('',#449);
#153=VERTEX_POINT('',#452);
#154=VERTEX_POINT('',#453);
#155=VERTEX_POINT('',#455);
#156=VERTEX_POINT('',#457);
#157=VERTEX_POINT('',#459);
#158=LINE('',#408,#183);
#159=LINE('',#411,#184);
#160=LINE('',#413,#185);
#161=LINE('',#415,#186);
#162=LINE('',#427,#187);
#163=LINE('',#429,#188);
#164=LINE('',#431,#189);
#165=LINE('',#433,#190);
#166=LINE('',#443,#191);
#167=LINE('',#446,#192);
#168=LINE('',#448,#193);
#169=LINE('',#450,#194);
#170=LINE('',#451,#195);
#171=LINE('',#456,#196);
#172=LINE('',#458,#197);
#173=LINE('',#460,#198);
#174=LINE('',#462,#199);
#175=LINE('',#463,#200);
#176=LINE('',#465,#201);
#177=LINE('',#466,#202);
#178=LINE('',#468,#203);
#179=LINE('',#469,#204);
#180=LINE('',#471,#205);
#181=LINE('',#473,#206);
#182=LINE('',#476,#207);
#183=VECTOR('',#333,1.);
#184=VECTOR('',#334,1.);
#185=VECTOR('',#335,1.);
#186=VECTOR('',#336,1.);
#187=VECTOR('',#347,1.);
#188=VECTOR('',#348,1.);
#189=VECTOR('',#349,1.);
#190=VECTOR('',#350,1.);
#191=VECTOR('',#361,1.);
#192=VECTOR('',#362,1.);
#193=VECTOR('',#363,1.);
#194=VECTOR('',#364,1.);
#195=VECTOR('',#365,1.);
#196=VECTOR('',#368,1.);
#197=VECTOR('',#369,1.);
#198=VECTOR('',#370,1.);
#199=VECTOR('',#373,1.);
#200=VECTOR('',#374,1.);
#201=VECTOR('',#377,1.);
#202=VECTOR('',#378,1.);
#203=VECTOR('',#381,1.);
#204=VECTOR('',#382,1.);
#205=VECTOR('',#385,1.);
#206=VECTOR('',#388,1.);
#207=VECTOR('',#393,1.);
#208=EDGE_LOOP('',(#27,#28,#29,#30));
#209=EDGE_LOOP('',(#31));
#210=EDGE_LOOP('',(#32));
#211=EDGE_LOOP('',(#33));
#212=EDGE_LOOP('',(#34));
#213=EDGE_LOOP('',(#35,#36,#37,#38,#39));
#214=EDGE_LOOP('',(#40));
#215=EDGE_LOOP('',(#41));
#216=EDGE_LOOP('',(#42));
#217=EDGE_LOOP('',(#43));
#218=EDGE_LOOP('',(#44,#45,#46,#47));
#219=EDGE_LOOP('',(#48,#49,#50,#51,#52));
#220=EDGE_LOOP('',(#53,#54,#55,#56));
#221=EDGE_LOOP('',(#57,#58,#59,#60));
#222=EDGE_LOOP('',(#61,#62,#63,#64));
#223=EDGE_LOOP('',(#65,#66,#67,#68));
#224=EDGE_LOOP('',(#69,#70,#71,#72));
#225=EDGE_LOOP('',(#73,#74,#75,#76));
#226=EDGE_LOOP('',(#77,#78,#79,#80));
#227=EDGE_LOOP('',(#81,#82,#83,#84));
#228=EDGE_LOOP('',(#85));
#229=EDGE_LOOP('',(#86));
#230=EDGE_LOOP('',(#87,#88,#89,#90));
#231=EDGE_LOOP('',(#91));
#232=EDGE_LOOP('',(#92));
#233=EDGE_LOOP('',(#93));
#234=EDGE_LOOP('',(#94));
#235=EDGE_LOOP('',(#95));
#236=EDGE_LOOP('',(#96));
#237=FACE_BOUND('',#208,.T.);
#238=FACE_BOUND('',#209,.T.);
#239=FACE_BOUND('',#210,.T.);
#240=FACE_BOUND('',#211,.T.);
#241=FACE_BOUND('',#212,.T.);
#242=FACE_BOUND('',#213,.T.);
#243=FACE_BOUND('',#214,.T.);
#244=FACE_BOUND('',#215,.T.);
#245=FACE_BOUND('',#216,.T.);
#246=FACE_BOUND('',#217,.T.);
#247=FACE_BOUND('',#218,.T.);
#248=FACE_BOUND('',#219,.T.);
#249=FACE_BOUND('',#220,.T.);
#250=FACE_BOUND('',#221,.T.);
#251=FACE_BOUND('',#222,.T.);
#252=FACE_BOUND('',#223,.T.);
#253=FACE_BOUND('',#224,.T.);
#254=FACE_BOUND('',#225,.T.);
#255=FACE_BOUND('',#226,.T.);
#256=FACE_BOUND('',#227,.T.);
#257=FACE_BOUND('',#228,.T.);
#258=FACE_BOUND('',#229,.T.);
#259=FACE_BOUND('',#230,.T.);
#260=FACE_BOUND('',#231,.T.);
#261=FACE_BOUND('',#232,.T.);
#262=FACE_BOUND('',#233,.T.);
#263=FACE_BOUND('',#234,.T.);
#264=FACE_BOUND('',#235,.T.);
#265=FACE_BOUND('',#236,.T.);
#266=PLANE('',#304);
#267=PLANE('',#310);
#268=PLANE('',#316);
#269=PLANE('',#317);
#270=PLANE('',#318);
#271=PLANE('',#319);
#272=PLANE('',#320);
#273=PLANE('',#321);
#274=PLANE('',#322);
#275=PLANE('',#323);
#276=ADVANCED_FACE('',(#237,#238,#239,#240,#241,#242),#266,.T.);
#277=ADVANCED_FACE('',(#243,#244,#245,#246,#247,#248),#267,.F.);
#278=ADVANCED_FACE('',(#249),#268,.F.);
#279=ADVANCED_FACE('',(#250),#269,.F.);
#280=ADVANCED_FACE('',(#251),#270,.T.);
#281=ADVANCED_FACE('',(#252),#271,.F.);
#282=ADVANCED_FACE('',(#253),#272,.F.);
#283=ADVANCED_FACE('',(#254),#273,.T.);
#284=ADVANCED_FACE('',(#255),#274,.F.);
#285=ADVANCED_FACE('',(#256),#275,.F.);
#286=ADVANCED_FACE('',(#257,#258),#12,.F.);
#287=ADVANCED_FACE('',(#259),#13,.F.);
#288=ADVANCED_FACE('',(#260,#261),#14,.F.);
#289=ADVANCED_FACE('',(#262,#263),#15,.F.);
#290=ADVANCED_FACE('',(#264,#265),#16,.F.);
#291=CLOSED_SHELL('',(#276,#277,#278,#279,#280,#281,#282,#283,#284,#285,
#286,#287,#288,#289,#290));
#292=STYLED_ITEM('',(#293),#300);
#293=PRESENTATION_STYLE_ASSIGNMENT((#294));
#294=SURFACE_STYLE_USAGE(.BOTH.,#295);
#295=SURFACE_SIDE_STYLE('',(#296));
#296=SURFACE_STYLE_FILL_AREA(#297);
#297=FILL_AREA_STYLE('',(#298));
#298=FILL_AREA_STYLE_COLOUR('',#299);
#299=DRAUGHTING_PRE_DEFINED_COLOUR('red');
#300=MANIFOLD_SOLID_BREP('Part 1',#291);
#301=SHAPE_DEFINITION_REPRESENTATION(#489,#302);
#302=SHAPE_REPRESENTATION('Part 1',(#303),#484);
#303=AXIS2_PLACEMENT_3D('',#406,#329,#330);
#304=AXIS2_PLACEMENT_3D('',#407,#331,#332);
#305=AXIS2_PLACEMENT_3D('',#416,#337,#338);
#306=AXIS2_PLACEMENT_3D('',#418,#339,#340);
#307=AXIS2_PLACEMENT_3D('',#420,#341,#342);
#308=AXIS2_PLACEMENT_3D('',#422,#343,#344);
#309=AXIS2_PLACEMENT_3D('',#424,#345,#346);
#310=AXIS2_PLACEMENT_3D('',#434,#351,#352);
#311=AXIS2_PLACEMENT_3D('',#435,#353,#354);
#312=AXIS2_PLACEMENT_3D('',#437,#355,#356);
#313=AXIS2_PLACEMENT_3D('',#439,#357,#358);
#314=AXIS2_PLACEMENT_3D('',#441,#359,#360);
#315=AXIS2_PLACEMENT_3D('',#454,#366,#367);
#316=AXIS2_PLACEMENT_3D('',#461,#371,#372);
#317=AXIS2_PLACEMENT_3D('',#464,#375,#376);
#318=AXIS2_PLACEMENT_3D('',#467,#379,#380);
#319=AXIS2_PLACEMENT_3D('',#470,#383,#384);
#320=AXIS2_PLACEMENT_3D('',#472,#386,#387);
#321=AXIS2_PLACEMENT_3D('',#474,#389,#390);
#322=AXIS2_PLACEMENT_3D('',#475,#391,#392);
#323=AXIS2_PLACEMENT_3D('',#477,#394,#395);
#324=AXIS2_PLACEMENT_3D('',#478,#396,#397);
#325=AXIS2_PLACEMENT_3D('',#479,#398,#399);
#326=AXIS2_PLACEMENT_3D('',#480,#400,#401);
#327=AXIS2_PLACEMENT_3D('',#481,#402,#403);
#328=AXIS2_PLACEMENT_3D('',#482,#404,#405);
#329=DIRECTION('',(0.,0.,1.));
#330=DIRECTION('',(1.,0.,0.));
#331=DIRECTION('',(0.,0.,1.));
#332=DIRECTION('',(1.,0.,0.));
#333=DIRECTION('',(1.,0.,0.));
#334=DIRECTION('',(0.,-1.,0.));
#335=DIRECTION('',(1.,0.,0.));
#336=DIRECTION('',(0.,-1.,0.));
#337=DIRECTION('',(0.,0.,1.));
#338=DIRECTION('',(1.,0.,0.));
#339=DIRECTION('',(0.,0.,1.));
#340=DIRECTION('',(1.,0.,0.));
#341=DIRECTION('',(0.,0.,1.));
#342=DIRECTION('',(1.,0.,0.));
#343=DIRECTION('',(0.,0.,1.));
#344=DIRECTION('',(1.,0.,0.));
#345=DIRECTION('',(0.,0.,1.));
#346=DIRECTION('',(1.,0.,0.));
#347=DIRECTION('',(0.,-1.,0.));
#348=DIRECTION('',(-1.,0.,0.));
#349=DIRECTION('',(0.,1.,0.));
#350=DIRECTION('',(1.,0.,0.));
#351=DIRECTION('',(0.,0.,1.));
#352=DIRECTION('',(1.,0.,0.));
#353=DIRECTION('',(0.,0.,1.));
#354=DIRECTION('',(1.,0.,0.));
#355=DIRECTION('',(0.,0.,1.));
#356=DIRECTION('',(1.,0.,0.));
#357=DIRECTION('',(0.,0.,1.));
#358=DIRECTION('',(1.,0.,0.));
#359=DIRECTION('',(0.,0.,1.));
#360=DIRECTION('',(1.,0.,0.));
#361=DIRECTION('',(1.,0.,0.));
#362=DIRECTION('',(0.,-1.,0.));
#363=DIRECTION('',(1.,0.,0.));
#364=DIRECTION('',(0.,-1.,0.));
#365=DIRECTION('',(0.,-1.,0.));
#366=DIRECTION('',(0.,0.,1.));
#367=DIRECTION('',(1.,0.,0.));
#368=DIRECTION('',(1.,0.,0.));
#369=DIRECTION('',(0.,1.,0.));
#370=DIRECTION('',(-1.,0.,0.));
#371=DIRECTION('',(-1.,0.,0.));
#372=DIRECTION('',(0.,0.,1.));
#373=DIRECTION('',(0.,0.,-1.));
#374=DIRECTION('',(0.,0.,1.));
#375=DIRECTION('',(0.,-1.,0.));
#376=DIRECTION('',(0.,0.,-1.));
#377=DIRECTION('',(0.,0.,-1.));
#378=DIRECTION('',(0.,0.,1.));
#379=DIRECTION('',(0.,1.,0.));
#380=DIRECTION('',(0.,0.,1.));
#381=DIRECTION('',(0.,0.,-1.));
#382=DIRECTION('',(0.,0.,-1.));
#383=DIRECTION('',(1.,0.,0.));
#384=DIRECTION('',(0.,0.,-1.));
#385=DIRECTION('',(0.,0.,-1.));
#386=DIRECTION('',(0.,1.,0.));
#387=DIRECTION('',(0.,0.,1.));
#388=DIRECTION('',(0.,0.,-1.));
#389=DIRECTION('',(1.,0.,0.));
#390=DIRECTION('',(0.,0.,-1.));
#391=DIRECTION('',(1.,0.,0.));
#392=DIRECTION('',(0.,0.,-1.));
#393=DIRECTION('',(0.,0.,1.));
#394=DIRECTION('',(0.,1.,0.));
#395=DIRECTION('',(0.,0.,1.));
#396=DIRECTION('',(0.,0.,1.));
#397=DIRECTION('',(1.,0.,0.));
#398=DIRECTION('',(0.,0.,-1.));
#399=DIRECTION('',(-1.,0.,0.));
#400=DIRECTION('',(0.,0.,-1.));
#401=DIRECTION('',(-1.,0.,0.));
#402=DIRECTION('',(0.,0.,-1.));
#403=DIRECTION('',(-1.,0.,0.));
#404=DIRECTION('',(0.,0.,-1.));
#405=DIRECTION('',(-1.,0.,0.));
#406=CARTESIAN_POINT('',(0.,0.,0.));
#407=CARTESIAN_POINT('',(0.00438,-0.0033982153981924,0.002));
#408=CARTESIAN_POINT('',(0.00438,0.0486017846018076,0.002));
#409=CARTESIAN_POINT('',(-0.03912,0.0486017846018076,0.002));
#410=CARTESIAN_POINT('',(0.04788,0.0486017846018076,0.002));
#411=CARTESIAN_POINT('',(-0.03912,-0.00339821539819241,0.002));
#412=CARTESIAN_POINT('',(-0.03912,-0.0553982153981924,0.002));
#413=CARTESIAN_POINT('',(0.00438,-0.0553982153981924,0.002));
#414=CARTESIAN_POINT('',(0.04788,-0.0553982153981924,0.002));
#415=CARTESIAN_POINT('',(0.04788,-0.00339821539819242,0.002));
#416=CARTESIAN_POINT('',(0.02544,0.0278017846018076,0.002));
#417=CARTESIAN_POINT('',(0.03194,0.0278017846018076,0.002));
#418=CARTESIAN_POINT('',(0.034437,0.040299,0.002));
#419=CARTESIAN_POINT('',(0.036037,0.040299,0.002));
#420=CARTESIAN_POINT('',(0.036937,-0.045201,0.002));
#421=CARTESIAN_POINT('',(0.038537,-0.045201,0.002));
#422=CARTESIAN_POINT('',(-0.022563,0.039799,0.002));
#423=CARTESIAN_POINT('',(-0.020963,0.039799,0.002));
#424=CARTESIAN_POINT('',(-0.024563,-0.045201,0.002));
#425=CARTESIAN_POINT('',(-0.02531,-0.0437860826879284,0.002));
#426=CARTESIAN_POINT('',(-0.0230066070547577,-0.04483,0.002));
#427=CARTESIAN_POINT('',(-0.02531,-0.01583,0.002));
#428=CARTESIAN_POINT('',(-0.02531,0.01317,0.002));
#429=CARTESIAN_POINT('',(0.00369,0.01317,0.002));
#430=CARTESIAN_POINT('',(0.03269,0.01317,0.002));
#431=CARTESIAN_POINT('',(0.03269,-0.01583,0.002));
#432=CARTESIAN_POINT('',(0.03269,-0.04483,0.002));
#433=CARTESIAN_POINT('',(0.00369,-0.04483,0.002));
#434=CARTESIAN_POINT('',(0.00438,-0.0033982153981924,0.));
#435=CARTESIAN_POINT('',(-0.022563,0.039799,0.));
#436=CARTESIAN_POINT('',(-0.020963,0.039799,0.));
#437=CARTESIAN_POINT('',(0.036937,-0.045201,0.));
#438=CARTESIAN_POINT('',(0.038537,-0.045201,0.));
#439=CARTESIAN_POINT('',(0.034437,0.040299,0.));
#440=CARTESIAN_POINT('',(0.036037,0.040299,0.));
#441=CARTESIAN_POINT('',(0.02544,0.0278017846018076,0.));
#442=CARTESIAN_POINT('',(0.03194,0.0278017846018076,0.));
#443=CARTESIAN_POINT('',(0.00438,0.0486017846018076,0.));
#444=CARTESIAN_POINT('',(-0.03912,0.0486017846018076,0.));
#445=CARTESIAN_POINT('',(0.04788,0.0486017846018076,0.));
#446=CARTESIAN_POINT('',(0.04788,-0.00339821539819242,0.));
#447=CARTESIAN_POINT('',(0.04788,-0.0553982153981924,0.));
#448=CARTESIAN_POINT('',(0.00438,-0.0553982153981924,0.));
#449=CARTESIAN_POINT('',(-0.03912,-0.0553982153981924,0.));
#450=CARTESIAN_POINT('',(-0.03912,-0.00339821539819241,0.));
#451=CARTESIAN_POINT('',(-0.02531,-0.01583,0.));
#452=CARTESIAN_POINT('',(-0.02531,0.01317,0.));
#453=CARTESIAN_POINT('',(-0.02531,-0.0437860826879284,0.));
#454=CARTESIAN_POINT('',(-0.024563,-0.045201,0.));
#455=CARTESIAN_POINT('',(-0.0230066070547577,-0.04483,0.));
#456=CARTESIAN_POINT('',(0.00369,-0.04483,0.));
#457=CARTESIAN_POINT('',(0.03269,-0.04483,0.));
#458=CARTESIAN_POINT('',(0.03269,-0.01583,0.));
#459=CARTESIAN_POINT('',(0.03269,0.01317,0.));
#460=CARTESIAN_POINT('',(0.00369,0.01317,0.));
#461=CARTESIAN_POINT('',(-0.02531,-0.01583,0.));
#462=CARTESIAN_POINT('',(-0.02531,-0.0437860826879284,0.002));
#463=CARTESIAN_POINT('',(-0.02531,0.01317,0.));
#464=CARTESIAN_POINT('',(0.00369,-0.04483,0.));
#465=CARTESIAN_POINT('',(-0.0230066070547577,-0.04483,0.002));
#466=CARTESIAN_POINT('',(0.03269,-0.04483,0.));
#467=CARTESIAN_POINT('',(0.00438,0.0486017846018076,0.002));
#468=CARTESIAN_POINT('',(-0.03912,0.0486017846018076,0.002));
#469=CARTESIAN_POINT('',(0.04788,0.0486017846018076,0.002));
#470=CARTESIAN_POINT('',(-0.03912,-0.00339821539819241,0.002));
#471=CARTESIAN_POINT('',(-0.03912,-0.0553982153981924,0.002));
#472=CARTESIAN_POINT('',(0.00438,-0.0553982153981924,0.002));
#473=CARTESIAN_POINT('',(0.04788,-0.0553982153981924,0.002));
#474=CARTESIAN_POINT('',(0.04788,-0.00339821539819242,0.002));
#475=CARTESIAN_POINT('',(0.03269,-0.01583,0.));
#476=CARTESIAN_POINT('',(0.03269,0.01317,0.));
#477=CARTESIAN_POINT('',(0.00369,0.01317,0.));
#478=CARTESIAN_POINT('',(0.02544,0.0278017846018076,0.));
#479=CARTESIAN_POINT('',(-0.024563,-0.045201,0.002));
#480=CARTESIAN_POINT('',(0.034437,0.040299,0.002));
#481=CARTESIAN_POINT('',(0.036937,-0.045201,0.002));
#482=CARTESIAN_POINT('',(-0.022563,0.039799,0.002));
#483=MECHANICAL_DESIGN_GEOMETRIC_PRESENTATION_REPRESENTATION('',(#292),
#484);
#484=(
GEOMETRIC_REPRESENTATION_CONTEXT(3)
GLOBAL_UNCERTAINTY_ASSIGNED_CONTEXT((#485))
GLOBAL_UNIT_ASSIGNED_CONTEXT((#488,#487,#486))
REPRESENTATION_CONTEXT('Part 1','TOP_LEVEL_ASSEMBLY_PART')
);
#485=UNCERTAINTY_MEASURE_WITH_UNIT(LENGTH_MEASURE(1.E-8),#488,
'DISTANCE_ACCURACY_VALUE','Maximum Tolerance applied to model');
#486=(
NAMED_UNIT(*)
SI_UNIT($,.STERADIAN.)
SOLID_ANGLE_UNIT()
);
#487=(
NAMED_UNIT(*)
PLANE_ANGLE_UNIT()
SI_UNIT($,.RADIAN.)
);
#488=(
LENGTH_UNIT()
NAMED_UNIT(*)
SI_UNIT($,.METRE.)
);
#489=PRODUCT_DEFINITION_SHAPE('','',#490);
#490=PRODUCT_DEFINITION('','',#492,#491);
#491=PRODUCT_DEFINITION_CONTEXT('',#498,'design');
#492=PRODUCT_DEFINITION_FORMATION_WITH_SPECIFIED_SOURCE('','',#494,
 .NOT_KNOWN.);
#493=PRODUCT_RELATED_PRODUCT_CATEGORY('','',(#494));
#494=PRODUCT('Part 1','Part 1','Part 1',(#496));
#495=PRODUCT_CATEGORY('','');
#496=PRODUCT_CONTEXT('',#498,'mechanical');
#497=APPLICATION_PROTOCOL_DEFINITION('international standard',
'ap242_managed_model_based_3d_engineering',2020,#498);
#498=APPLICATION_CONTEXT('managed model based 3d engineering');
ENDSEC;
END-ISO-10303-21;
