ISO-10303-21;
HEADER;
/* Generated by software containing ST-Developer
 * from STEP Tools, Inc. (www.steptools.com) 
 */
/* OPTION: using custom renumber hook */

FILE_DESCRIPTION(
/* description */ ('STEP AP214',
'CAx-IF Rec.Pracs.---User Defined Attributes---1.5---2016-08-15'),
/* implementation_level */ '2;1');

FILE_NAME(
/* name */ '6ab80d76420e24b7ead9bee5',
/* time_stamp */ '2026-09-26T18:22:47Z',
/* author */ (''),
/* organization */ (''),
/* preprocessor_version */ 'ST-DEVELOPER v20',
/* originating_system */ 'ONSHAPE BY PTC INC, 1.221',
/* authorisation */ '  ');

FILE_SCHEMA (('AUTOMOTIVE_DESIGN {1 0 10303 214 3 1 1}'));
ENDSEC;

DATA;
#10=PROPERTY_DEFINITION_REPRESENTATION(#14,#12);
#11=PROPERTY_DEFINITION_REPRESENTATION(#15,#13);
#12=REPRESENTATION('',(#16),#791);
#13=REPRESENTATION('',(#17),#791);
#14=PROPERTY_DEFINITION('pmi validation property','',#796);
#15=PROPERTY_DEFINITION('pmi validation property','',#796);
#16=VALUE_REPRESENTATION_ITEM('number of annotations',COUNT_MEASURE(0.));
#17=VALUE_REPRESENTATION_ITEM('number of views',COUNT_MEASURE(0.));
#18=SHAPE_REPRESENTATION_RELATIONSHIP('','',#507,#19);
#19=ADVANCED_BREP_SHAPE_REPRESENTATION('',(#505),#791);
#20=ORIENTED_EDGE('',*,*,#148,.F.);
#21=ORIENTED_EDGE('',*,*,#149,.F.);
#22=ORIENTED_EDGE('',*,*,#150,.T.);
#23=ORIENTED_EDGE('',*,*,#151,.T.);
#24=ORIENTED_EDGE('',*,*,#152,.F.);
#25=ORIENTED_EDGE('',*,*,#151,.F.);
#26=ORIENTED_EDGE('',*,*,#153,.T.);
#27=ORIENTED_EDGE('',*,*,#154,.T.);
#28=ORIENTED_EDGE('',*,*,#155,.F.);
#29=ORIENTED_EDGE('',*,*,#154,.F.);
#30=ORIENTED_EDGE('',*,*,#156,.T.);
#31=ORIENTED_EDGE('',*,*,#157,.T.);
#32=ORIENTED_EDGE('',*,*,#158,.F.);
#33=ORIENTED_EDGE('',*,*,#157,.F.);
#34=ORIENTED_EDGE('',*,*,#159,.T.);
#35=ORIENTED_EDGE('',*,*,#149,.T.);
#36=ORIENTED_EDGE('',*,*,#148,.T.);
#37=ORIENTED_EDGE('',*,*,#152,.T.);
#38=ORIENTED_EDGE('',*,*,#155,.T.);
#39=ORIENTED_EDGE('',*,*,#158,.T.);
#40=ORIENTED_EDGE('',*,*,#160,.F.);
#41=ORIENTED_EDGE('',*,*,#161,.F.);
#42=ORIENTED_EDGE('',*,*,#162,.T.);
#43=ORIENTED_EDGE('',*,*,#163,.T.);
#44=ORIENTED_EDGE('',*,*,#164,.F.);
#45=ORIENTED_EDGE('',*,*,#163,.F.);
#46=ORIENTED_EDGE('',*,*,#165,.T.);
#47=ORIENTED_EDGE('',*,*,#166,.T.);
#48=ORIENTED_EDGE('',*,*,#167,.F.);
#49=ORIENTED_EDGE('',*,*,#166,.F.);
#50=ORIENTED_EDGE('',*,*,#168,.T.);
#51=ORIENTED_EDGE('',*,*,#169,.T.);
#52=ORIENTED_EDGE('',*,*,#170,.F.);
#53=ORIENTED_EDGE('',*,*,#169,.F.);
#54=ORIENTED_EDGE('',*,*,#171,.T.);
#55=ORIENTED_EDGE('',*,*,#161,.T.);
#56=ORIENTED_EDGE('',*,*,#160,.T.);
#57=ORIENTED_EDGE('',*,*,#164,.T.);
#58=ORIENTED_EDGE('',*,*,#167,.T.);
#59=ORIENTED_EDGE('',*,*,#170,.T.);
#60=ORIENTED_EDGE('',*,*,#172,.F.);
#61=ORIENTED_EDGE('',*,*,#173,.F.);
#62=ORIENTED_EDGE('',*,*,#174,.T.);
#63=ORIENTED_EDGE('',*,*,#175,.T.);
#64=ORIENTED_EDGE('',*,*,#176,.F.);
#65=ORIENTED_EDGE('',*,*,#175,.F.);
#66=ORIENTED_EDGE('',*,*,#177,.T.);
#67=ORIENTED_EDGE('',*,*,#178,.T.);
#68=ORIENTED_EDGE('',*,*,#179,.F.);
#69=ORIENTED_EDGE('',*,*,#178,.F.);
#70=ORIENTED_EDGE('',*,*,#180,.T.);
#71=ORIENTED_EDGE('',*,*,#181,.T.);
#72=ORIENTED_EDGE('',*,*,#182,.F.);
#73=ORIENTED_EDGE('',*,*,#181,.F.);
#74=ORIENTED_EDGE('',*,*,#183,.T.);
#75=ORIENTED_EDGE('',*,*,#184,.T.);
#76=ORIENTED_EDGE('',*,*,#185,.T.);
#77=ORIENTED_EDGE('',*,*,#173,.T.);
#78=ORIENTED_EDGE('',*,*,#186,.T.);
#79=ORIENTED_EDGE('',*,*,#187,.T.);
#80=ORIENTED_EDGE('',*,*,#188,.T.);
#81=ORIENTED_EDGE('',*,*,#189,.T.);
#82=ORIENTED_EDGE('',*,*,#185,.F.);
#83=ORIENTED_EDGE('',*,*,#190,.T.);
#84=ORIENTED_EDGE('',*,*,#191,.T.);
#85=ORIENTED_EDGE('',*,*,#192,.T.);
#86=ORIENTED_EDGE('',*,*,#183,.F.);
#87=ORIENTED_EDGE('',*,*,#180,.F.);
#88=ORIENTED_EDGE('',*,*,#177,.F.);
#89=ORIENTED_EDGE('',*,*,#174,.F.);
#90=ORIENTED_EDGE('',*,*,#153,.F.);
#91=ORIENTED_EDGE('',*,*,#150,.F.);
#92=ORIENTED_EDGE('',*,*,#159,.F.);
#93=ORIENTED_EDGE('',*,*,#156,.F.);
#94=ORIENTED_EDGE('',*,*,#165,.F.);
#95=ORIENTED_EDGE('',*,*,#162,.F.);
#96=ORIENTED_EDGE('',*,*,#171,.F.);
#97=ORIENTED_EDGE('',*,*,#168,.F.);
#98=ORIENTED_EDGE('',*,*,#172,.T.);
#99=ORIENTED_EDGE('',*,*,#176,.T.);
#100=ORIENTED_EDGE('',*,*,#179,.T.);
#101=ORIENTED_EDGE('',*,*,#182,.T.);
#102=ORIENTED_EDGE('',*,*,#184,.F.);
#103=ORIENTED_EDGE('',*,*,#193,.T.);
#104=ORIENTED_EDGE('',*,*,#194,.T.);
#105=ORIENTED_EDGE('',*,*,#195,.T.);
#106=ORIENTED_EDGE('',*,*,#195,.F.);
#107=ORIENTED_EDGE('',*,*,#196,.F.);
#108=ORIENTED_EDGE('',*,*,#197,.T.);
#109=ORIENTED_EDGE('',*,*,#198,.T.);
#110=ORIENTED_EDGE('',*,*,#190,.F.);
#111=ORIENTED_EDGE('',*,*,#191,.F.);
#112=ORIENTED_EDGE('',*,*,#198,.F.);
#113=ORIENTED_EDGE('',*,*,#199,.T.);
#114=ORIENTED_EDGE('',*,*,#200,.T.);
#115=ORIENTED_EDGE('',*,*,#192,.F.);
#116=ORIENTED_EDGE('',*,*,#200,.F.);
#117=ORIENTED_EDGE('',*,*,#201,.T.);
#118=ORIENTED_EDGE('',*,*,#202,.T.);
#119=ORIENTED_EDGE('',*,*,#193,.F.);
#120=ORIENTED_EDGE('',*,*,#194,.F.);
#121=ORIENTED_EDGE('',*,*,#202,.F.);
#122=ORIENTED_EDGE('',*,*,#203,.T.);
#123=ORIENTED_EDGE('',*,*,#196,.T.);
#124=ORIENTED_EDGE('',*,*,#197,.F.);
#125=ORIENTED_EDGE('',*,*,#203,.F.);
#126=ORIENTED_EDGE('',*,*,#201,.F.);
#127=ORIENTED_EDGE('',*,*,#199,.F.);
#128=ORIENTED_EDGE('',*,*,#187,.F.);
#129=ORIENTED_EDGE('',*,*,#204,.F.);
#130=ORIENTED_EDGE('',*,*,#205,.T.);
#131=ORIENTED_EDGE('',*,*,#206,.T.);
#132=ORIENTED_EDGE('',*,*,#188,.F.);
#133=ORIENTED_EDGE('',*,*,#206,.F.);
#134=ORIENTED_EDGE('',*,*,#207,.T.);
#135=ORIENTED_EDGE('',*,*,#208,.T.);
#136=ORIENTED_EDGE('',*,*,#189,.F.);
#137=ORIENTED_EDGE('',*,*,#208,.F.);
#138=ORIENTED_EDGE('',*,*,#209,.T.);
#139=ORIENTED_EDGE('',*,*,#210,.T.);
#140=ORIENTED_EDGE('',*,*,#186,.F.);
#141=ORIENTED_EDGE('',*,*,#210,.F.);
#142=ORIENTED_EDGE('',*,*,#211,.T.);
#143=ORIENTED_EDGE('',*,*,#204,.T.);
#144=ORIENTED_EDGE('',*,*,#205,.F.);
#145=ORIENTED_EDGE('',*,*,#211,.F.);
#146=ORIENTED_EDGE('',*,*,#209,.F.);
#147=ORIENTED_EDGE('',*,*,#207,.F.);
#148=EDGE_CURVE('',#212,#213,#254,.T.);
#149=EDGE_CURVE('',#214,#212,#255,.T.);
#150=EDGE_CURVE('',#214,#215,#256,.T.);
#151=EDGE_CURVE('',#215,#213,#257,.T.);
#152=EDGE_CURVE('',#213,#216,#258,.T.);
#153=EDGE_CURVE('',#215,#217,#259,.T.);
#154=EDGE_CURVE('',#217,#216,#260,.T.);
#155=EDGE_CURVE('',#216,#218,#261,.T.);
#156=EDGE_CURVE('',#217,#219,#262,.T.);
#157=EDGE_CURVE('',#219,#218,#263,.T.);
#158=EDGE_CURVE('',#218,#212,#264,.T.);
#159=EDGE_CURVE('',#219,#214,#265,.T.);
#160=EDGE_CURVE('',#220,#221,#266,.T.);
#161=EDGE_CURVE('',#222,#220,#267,.T.);
#162=EDGE_CURVE('',#222,#223,#268,.T.);
#163=EDGE_CURVE('',#223,#221,#269,.T.);
#164=EDGE_CURVE('',#221,#224,#270,.T.);
#165=EDGE_CURVE('',#223,#225,#271,.T.);
#166=EDGE_CURVE('',#225,#224,#272,.T.);
#167=EDGE_CURVE('',#224,#226,#273,.T.);
#168=EDGE_CURVE('',#225,#227,#274,.T.);
#169=EDGE_CURVE('',#227,#226,#275,.T.);
#170=EDGE_CURVE('',#226,#220,#276,.T.);
#171=EDGE_CURVE('',#227,#222,#277,.T.);
#172=EDGE_CURVE('',#228,#229,#278,.T.);
#173=EDGE_CURVE('',#230,#228,#279,.T.);
#174=EDGE_CURVE('',#230,#231,#280,.T.);
#175=EDGE_CURVE('',#231,#229,#281,.T.);
#176=EDGE_CURVE('',#229,#232,#282,.T.);
#177=EDGE_CURVE('',#231,#233,#283,.T.);
#178=EDGE_CURVE('',#233,#232,#284,.T.);
#179=EDGE_CURVE('',#232,#234,#285,.T.);
#180=EDGE_CURVE('',#233,#235,#286,.T.);
#181=EDGE_CURVE('',#235,#234,#287,.T.);
#182=EDGE_CURVE('',#234,#228,#288,.T.);
#183=EDGE_CURVE('',#235,#236,#289,.T.);
#184=EDGE_CURVE('',#236,#237,#290,.T.);
#185=EDGE_CURVE('',#237,#230,#291,.T.);
#186=EDGE_CURVE('',#238,#239,#292,.T.);
#187=EDGE_CURVE('',#239,#240,#293,.T.);
#188=EDGE_CURVE('',#240,#241,#294,.T.);
#189=EDGE_CURVE('',#241,#238,#295,.T.);
#190=EDGE_CURVE('',#237,#242,#296,.T.);
#191=EDGE_CURVE('',#242,#243,#297,.T.);
#192=EDGE_CURVE('',#243,#236,#298,.T.);
#193=EDGE_CURVE('',#236,#244,#299,.T.);
#194=EDGE_CURVE('',#244,#245,#300,.T.);
#195=EDGE_CURVE('',#245,#237,#301,.T.);
#196=EDGE_CURVE('',#246,#245,#302,.T.);
#197=EDGE_CURVE('',#246,#247,#303,.T.);
#198=EDGE_CURVE('',#247,#242,#304,.T.);
#199=EDGE_CURVE('',#247,#248,#305,.T.);
#200=EDGE_CURVE('',#248,#243,#306,.T.);
#201=EDGE_CURVE('',#248,#249,#307,.T.);
#202=EDGE_CURVE('',#249,#244,#308,.T.);
#203=EDGE_CURVE('',#249,#246,#309,.T.);
#204=EDGE_CURVE('',#250,#239,#310,.T.);
#205=EDGE_CURVE('',#250,#251,#311,.T.);
#206=EDGE_CURVE('',#251,#240,#312,.T.);
#207=EDGE_CURVE('',#251,#252,#313,.T.);
#208=EDGE_CURVE('',#252,#241,#314,.T.);
#209=EDGE_CURVE('',#252,#253,#315,.T.);
#210=EDGE_CURVE('',#253,#238,#316,.T.);
#211=EDGE_CURVE('',#253,#250,#317,.T.);
#212=VERTEX_POINT('',#659);
#213=VERTEX_POINT('',#660);
#214=VERTEX_POINT('',#662);
#215=VERTEX_POINT('',#664);
#216=VERTEX_POINT('',#668);
#217=VERTEX_POINT('',#670);
#218=VERTEX_POINT('',#674);
#219=VERTEX_POINT('',#676);
#220=VERTEX_POINT('',#684);
#221=VERTEX_POINT('',#685);
#222=VERTEX_POINT('',#687);
#223=VERTEX_POINT('',#689);
#224=VERTEX_POINT('',#693);
#225=VERTEX_POINT('',#695);
#226=VERTEX_POINT('',#699);
#227=VERTEX_POINT('',#701);
#228=VERTEX_POINT('',#709);
#229=VERTEX_POINT('',#710);
#230=VERTEX_POINT('',#712);
#231=VERTEX_POINT('',#714);
#232=VERTEX_POINT('',#718);
#233=VERTEX_POINT('',#720);
#234=VERTEX_POINT('',#724);
#235=VERTEX_POINT('',#726);
#236=VERTEX_POINT('',#731);
#237=VERTEX_POINT('',#733);
#238=VERTEX_POINT('',#737);
#239=VERTEX_POINT('',#738);
#240=VERTEX_POINT('',#740);
#241=VERTEX_POINT('',#742);
#242=VERTEX_POINT('',#745);
#243=VERTEX_POINT('',#747);
#244=VERTEX_POINT('',#752);
#245=VERTEX_POINT('',#754);
#246=VERTEX_POINT('',#758);
#247=VERTEX_POINT('',#760);
#248=VERTEX_POINT('',#764);
#249=VERTEX_POINT('',#768);
#250=VERTEX_POINT('',#775);
#251=VERTEX_POINT('',#777);
#252=VERTEX_POINT('',#781);
#253=VERTEX_POINT('',#785);
#254=LINE('',#658,#318);
#255=LINE('',#661,#319);
#256=LINE('',#663,#320);
#257=LINE('',#665,#321);
#258=LINE('',#667,#322);
#259=LINE('',#669,#323);
#260=LINE('',#671,#324);
#261=LINE('',#673,#325);
#262=LINE('',#675,#326);
#263=LINE('',#677,#327);
#264=LINE('',#679,#328);
#265=LINE('',#680,#329);
#266=LINE('',#683,#330);
#267=LINE('',#686,#331);
#268=LINE('',#688,#332);
#269=LINE('',#690,#333);
#270=LINE('',#692,#334);
#271=LINE('',#694,#335);
#272=LINE('',#696,#336);
#273=LINE('',#698,#337);
#274=LINE('',#700,#338);
#275=LINE('',#702,#339);
#276=LINE('',#704,#340);
#277=LINE('',#705,#341);
#278=LINE('',#708,#342);
#279=LINE('',#711,#343);
#280=LINE('',#713,#344);
#281=LINE('',#715,#345);
#282=LINE('',#717,#346);
#283=LINE('',#719,#347);
#284=LINE('',#721,#348);
#285=LINE('',#723,#349);
#286=LINE('',#725,#350);
#287=LINE('',#727,#351);
#288=LINE('',#729,#352);
#289=LINE('',#730,#353);
#290=LINE('',#732,#354);
#291=LINE('',#734,#355);
#292=LINE('',#736,#356);
#293=LINE('',#739,#357);
#294=LINE('',#741,#358);
#295=LINE('',#743,#359);
#296=LINE('',#744,#360);
#297=LINE('',#746,#361);
#298=LINE('',#748,#362);
#299=LINE('',#751,#363);
#300=LINE('',#753,#364);
#301=LINE('',#755,#365);
#302=LINE('',#757,#366);
#303=LINE('',#759,#367);
#304=LINE('',#761,#368);
#305=LINE('',#763,#369);
#306=LINE('',#765,#370);
#307=LINE('',#767,#371);
#308=LINE('',#769,#372);
#309=LINE('',#771,#373);
#310=LINE('',#774,#374);
#311=LINE('',#776,#375);
#312=LINE('',#778,#376);
#313=LINE('',#780,#377);
#314=LINE('',#782,#378);
#315=LINE('',#784,#379);
#316=LINE('',#786,#380);
#317=LINE('',#788,#381);
#318=VECTOR('',#540,1.);
#319=VECTOR('',#541,1.);
#320=VECTOR('',#542,1.);
#321=VECTOR('',#543,1.);
#322=VECTOR('',#546,1.);
#323=VECTOR('',#547,1.);
#324=VECTOR('',#548,1.);
#325=VECTOR('',#551,1.);
#326=VECTOR('',#552,1.);
#327=VECTOR('',#553,1.);
#328=VECTOR('',#556,1.);
#329=VECTOR('',#557,1.);
#330=VECTOR('',#562,1.);
#331=VECTOR('',#563,1.);
#332=VECTOR('',#564,1.);
#333=VECTOR('',#565,1.);
#334=VECTOR('',#568,1.);
#335=VECTOR('',#569,1.);
#336=VECTOR('',#570,1.);
#337=VECTOR('',#573,1.);
#338=VECTOR('',#574,1.);
#339=VECTOR('',#575,1.);
#340=VECTOR('',#578,1.);
#341=VECTOR('',#579,1.);
#342=VECTOR('',#584,1.);
#343=VECTOR('',#585,1.);
#344=VECTOR('',#586,1.);
#345=VECTOR('',#587,1.);
#346=VECTOR('',#590,1.);
#347=VECTOR('',#591,1.);
#348=VECTOR('',#592,1.);
#349=VECTOR('',#595,1.);
#350=VECTOR('',#596,1.);
#351=VECTOR('',#597,1.);
#352=VECTOR('',#600,1.);
#353=VECTOR('',#601,1.);
#354=VECTOR('',#602,1.);
#355=VECTOR('',#603,1.);
#356=VECTOR('',#606,1.);
#357=VECTOR('',#607,1.);
#358=VECTOR('',#608,1.);
#359=VECTOR('',#609,1.);
#360=VECTOR('',#610,1.);
#361=VECTOR('',#611,1.);
#362=VECTOR('',#612,1.);
#363=VECTOR('',#617,1.);
#364=VECTOR('',#618,1.);
#365=VECTOR('',#619,1.);
#366=VECTOR('',#622,1.);
#367=VECTOR('',#623,1.);
#368=VECTOR('',#624,1.);
#369=VECTOR('',#627,1.);
#370=VECTOR('',#628,1.);
#371=VECTOR('',#631,1.);
#372=VECTOR('',#632,1.);
#373=VECTOR('',#635,1.);
#374=VECTOR('',#640,1.);
#375=VECTOR('',#641,1.);
#376=VECTOR('',#642,1.);
#377=VECTOR('',#645,1.);
#378=VECTOR('',#646,1.);
#379=VECTOR('',#649,1.);
#380=VECTOR('',#650,1.);
#381=VECTOR('',#653,1.);
#382=EDGE_LOOP('',(#20,#21,#22,#23));
#383=EDGE_LOOP('',(#24,#25,#26,#27));
#384=EDGE_LOOP('',(#28,#29,#30,#31));
#385=EDGE_LOOP('',(#32,#33,#34,#35));
#386=EDGE_LOOP('',(#36,#37,#38,#39));
#387=EDGE_LOOP('',(#40,#41,#42,#43));
#388=EDGE_LOOP('',(#44,#45,#46,#47));
#389=EDGE_LOOP('',(#48,#49,#50,#51));
#390=EDGE_LOOP('',(#52,#53,#54,#55));
#391=EDGE_LOOP('',(#56,#57,#58,#59));
#392=EDGE_LOOP('',(#60,#61,#62,#63));
#393=EDGE_LOOP('',(#64,#65,#66,#67));
#394=EDGE_LOOP('',(#68,#69,#70,#71));
#395=EDGE_LOOP('',(#72,#73,#74,#75,#76,#77));
#396=EDGE_LOOP('',(#78,#79,#80,#81));
#397=EDGE_LOOP('',(#82,#83,#84,#85,#86,#87,#88,#89));
#398=EDGE_LOOP('',(#90,#91,#92,#93));
#399=EDGE_LOOP('',(#94,#95,#96,#97));
#400=EDGE_LOOP('',(#98,#99,#100,#101));
#401=EDGE_LOOP('',(#102,#103,#104,#105));
#402=EDGE_LOOP('',(#106,#107,#108,#109,#110));
#403=EDGE_LOOP('',(#111,#112,#113,#114));
#404=EDGE_LOOP('',(#115,#116,#117,#118,#119));
#405=EDGE_LOOP('',(#120,#121,#122,#123));
#406=EDGE_LOOP('',(#124,#125,#126,#127));
#407=EDGE_LOOP('',(#128,#129,#130,#131));
#408=EDGE_LOOP('',(#132,#133,#134,#135));
#409=EDGE_LOOP('',(#136,#137,#138,#139));
#410=EDGE_LOOP('',(#140,#141,#142,#143));
#411=EDGE_LOOP('',(#144,#145,#146,#147));
#412=FACE_BOUND('',#382,.T.);
#413=FACE_BOUND('',#383,.T.);
#414=FACE_BOUND('',#384,.T.);
#415=FACE_BOUND('',#385,.T.);
#416=FACE_BOUND('',#386,.T.);
#417=FACE_BOUND('',#387,.T.);
#418=FACE_BOUND('',#388,.T.);
#419=FACE_BOUND('',#389,.T.);
#420=FACE_BOUND('',#390,.T.);
#421=FACE_BOUND('',#391,.T.);
#422=FACE_BOUND('',#392,.T.);
#423=FACE_BOUND('',#393,.T.);
#424=FACE_BOUND('',#394,.T.);
#425=FACE_BOUND('',#395,.T.);
#426=FACE_BOUND('',#396,.T.);
#427=FACE_BOUND('',#397,.T.);
#428=FACE_BOUND('',#398,.T.);
#429=FACE_BOUND('',#399,.T.);
#430=FACE_BOUND('',#400,.T.);
#431=FACE_BOUND('',#401,.T.);
#432=FACE_BOUND('',#402,.T.);
#433=FACE_BOUND('',#403,.T.);
#434=FACE_BOUND('',#404,.T.);
#435=FACE_BOUND('',#405,.T.);
#436=FACE_BOUND('',#406,.T.);
#437=FACE_BOUND('',#407,.T.);
#438=FACE_BOUND('',#408,.T.);
#439=FACE_BOUND('',#409,.T.);
#440=FACE_BOUND('',#410,.T.);
#441=FACE_BOUND('',#411,.T.);
#442=PLANE('',#509);
#443=PLANE('',#510);
#444=PLANE('',#511);
#445=PLANE('',#512);
#446=PLANE('',#513);
#447=PLANE('',#514);
#448=PLANE('',#515);
#449=PLANE('',#516);
#450=PLANE('',#517);
#451=PLANE('',#518);
#452=PLANE('',#519);
#453=PLANE('',#520);
#454=PLANE('',#521);
#455=PLANE('',#522);
#456=PLANE('',#523);
#457=PLANE('',#524);
#458=PLANE('',#525);
#459=PLANE('',#526);
#460=PLANE('',#527);
#461=PLANE('',#528);
#462=PLANE('',#529);
#463=PLANE('',#530);
#464=PLANE('',#531);
#465=PLANE('',#532);
#466=PLANE('',#533);
#467=PLANE('',#534);
#468=PLANE('',#535);
#469=ADVANCED_FACE('',(#412),#442,.T.);
#470=ADVANCED_FACE('',(#413),#443,.T.);
#471=ADVANCED_FACE('',(#414),#444,.T.);
#472=ADVANCED_FACE('',(#415),#445,.T.);
#473=ADVANCED_FACE('',(#416),#446,.T.);
#474=ADVANCED_FACE('',(#417),#447,.T.);
#475=ADVANCED_FACE('',(#418),#448,.T.);
#476=ADVANCED_FACE('',(#419),#449,.T.);
#477=ADVANCED_FACE('',(#420),#450,.T.);
#478=ADVANCED_FACE('',(#421),#451,.T.);
#479=ADVANCED_FACE('',(#422),#452,.T.);
#480=ADVANCED_FACE('',(#423),#453,.T.);
#481=ADVANCED_FACE('',(#424),#454,.T.);
#482=ADVANCED_FACE('',(#425),#455,.T.);
#483=ADVANCED_FACE('',(#426,#427),#456,.F.);
#484=ADVANCED_FACE('',(#428,#429,#430),#457,.T.);
#485=ADVANCED_FACE('',(#431),#458,.T.);
#486=ADVANCED_FACE('',(#432),#459,.T.);
#487=ADVANCED_FACE('',(#433),#460,.T.);
#488=ADVANCED_FACE('',(#434),#461,.T.);
#489=ADVANCED_FACE('',(#435),#462,.T.);
#490=ADVANCED_FACE('',(#436),#463,.F.);
#491=ADVANCED_FACE('',(#437),#464,.T.);
#492=ADVANCED_FACE('',(#438),#465,.T.);
#493=ADVANCED_FACE('',(#439),#466,.T.);
#494=ADVANCED_FACE('',(#440),#467,.T.);
#495=ADVANCED_FACE('',(#441),#468,.F.);
#496=CLOSED_SHELL('',(#469,#470,#471,#472,#473,#474,#475,#476,#477,#478,
#479,#480,#481,#482,#483,#484,#485,#486,#487,#488,#489,#490,#491,#492,#493,
#494,#495));
#497=STYLED_ITEM('',(#498),#505);
#498=PRESENTATION_STYLE_ASSIGNMENT((#499));
#499=SURFACE_STYLE_USAGE(.BOTH.,#500);
#500=SURFACE_SIDE_STYLE('',(#501));
#501=SURFACE_STYLE_FILL_AREA(#502);
#502=FILL_AREA_STYLE('',(#503));
#503=FILL_AREA_STYLE_COLOUR('',#504);
#504=COLOUR_RGB('',0.615686274509804,0.811764705882353,0.929411764705882);
#505=MANIFOLD_SOLID_BREP('XIAO ESP32C3 on sockets',#496);
#506=SHAPE_DEFINITION_REPRESENTATION(#796,#507);
#507=SHAPE_REPRESENTATION('XIAO ESP32C3 on sockets',(#508),#791);
#508=AXIS2_PLACEMENT_3D('',#656,#536,#537);
#509=AXIS2_PLACEMENT_3D('',#657,#538,#539);
#510=AXIS2_PLACEMENT_3D('',#666,#544,#545);
#511=AXIS2_PLACEMENT_3D('',#672,#549,#550);
#512=AXIS2_PLACEMENT_3D('',#678,#554,#555);
#513=AXIS2_PLACEMENT_3D('',#681,#558,#559);
#514=AXIS2_PLACEMENT_3D('',#682,#560,#561);
#515=AXIS2_PLACEMENT_3D('',#691,#566,#567);
#516=AXIS2_PLACEMENT_3D('',#697,#571,#572);
#517=AXIS2_PLACEMENT_3D('',#703,#576,#577);
#518=AXIS2_PLACEMENT_3D('',#706,#580,#581);
#519=AXIS2_PLACEMENT_3D('',#707,#582,#583);
#520=AXIS2_PLACEMENT_3D('',#716,#588,#589);
#521=AXIS2_PLACEMENT_3D('',#722,#593,#594);
#522=AXIS2_PLACEMENT_3D('',#728,#598,#599);
#523=AXIS2_PLACEMENT_3D('',#735,#604,#605);
#524=AXIS2_PLACEMENT_3D('',#749,#613,#614);
#525=AXIS2_PLACEMENT_3D('',#750,#615,#616);
#526=AXIS2_PLACEMENT_3D('',#756,#620,#621);
#527=AXIS2_PLACEMENT_3D('',#762,#625,#626);
#528=AXIS2_PLACEMENT_3D('',#766,#629,#630);
#529=AXIS2_PLACEMENT_3D('',#770,#633,#634);
#530=AXIS2_PLACEMENT_3D('',#772,#636,#637);
#531=AXIS2_PLACEMENT_3D('',#773,#638,#639);
#532=AXIS2_PLACEMENT_3D('',#779,#643,#644);
#533=AXIS2_PLACEMENT_3D('',#783,#647,#648);
#534=AXIS2_PLACEMENT_3D('',#787,#651,#652);
#535=AXIS2_PLACEMENT_3D('',#789,#654,#655);
#536=DIRECTION('',(0.,0.,1.));
#537=DIRECTION('',(1.,0.,0.));
#538=DIRECTION('',(-1.,0.,0.));
#539=DIRECTION('',(0.,0.,1.));
#540=DIRECTION('',(0.,-1.,0.));
#541=DIRECTION('',(0.,0.,1.));
#542=DIRECTION('',(0.,-1.,0.));
#543=DIRECTION('',(0.,0.,1.));
#544=DIRECTION('',(0.,-1.,0.));
#545=DIRECTION('',(0.,0.,-1.));
#546=DIRECTION('',(1.,0.,0.));
#547=DIRECTION('',(1.,0.,0.));
#548=DIRECTION('',(0.,0.,1.));
#549=DIRECTION('',(1.,0.,0.));
#550=DIRECTION('',(0.,0.,-1.));
#551=DIRECTION('',(0.,1.,0.));
#552=DIRECTION('',(0.,1.,0.));
#553=DIRECTION('',(0.,0.,1.));
#554=DIRECTION('',(0.,1.,0.));
#555=DIRECTION('',(0.,0.,1.));
#556=DIRECTION('',(-1.,0.,0.));
#557=DIRECTION('',(-1.,0.,0.));
#558=DIRECTION('',(0.,0.,1.));
#559=DIRECTION('',(1.,0.,0.));
#560=DIRECTION('',(-1.,0.,0.));
#561=DIRECTION('',(0.,0.,1.));
#562=DIRECTION('',(0.,-1.,0.));
#563=DIRECTION('',(0.,0.,1.));
#564=DIRECTION('',(0.,-1.,0.));
#565=DIRECTION('',(0.,0.,1.));
#566=DIRECTION('',(0.,-1.,0.));
#567=DIRECTION('',(0.,0.,-1.));
#568=DIRECTION('',(1.,0.,0.));
#569=DIRECTION('',(1.,0.,0.));
#570=DIRECTION('',(0.,0.,1.));
#571=DIRECTION('',(1.,0.,0.));
#572=DIRECTION('',(0.,0.,-1.));
#573=DIRECTION('',(0.,1.,0.));
#574=DIRECTION('',(0.,1.,0.));
#575=DIRECTION('',(0.,0.,1.));
#576=DIRECTION('',(0.,1.,0.));
#577=DIRECTION('',(0.,0.,1.));
#578=DIRECTION('',(-1.,0.,0.));
#579=DIRECTION('',(-1.,0.,0.));
#580=DIRECTION('',(0.,0.,1.));
#581=DIRECTION('',(1.,0.,0.));
#582=DIRECTION('',(-1.,0.,0.));
#583=DIRECTION('',(0.,0.,1.));
#584=DIRECTION('',(0.,-1.,0.));
#585=DIRECTION('',(0.,0.,1.));
#586=DIRECTION('',(0.,-1.,0.));
#587=DIRECTION('',(0.,0.,1.));
#588=DIRECTION('',(0.,-1.,0.));
#589=DIRECTION('',(0.,0.,-1.));
#590=DIRECTION('',(1.,0.,0.));
#591=DIRECTION('',(1.,0.,0.));
#592=DIRECTION('',(0.,0.,1.));
#593=DIRECTION('',(1.,0.,0.));
#594=DIRECTION('',(0.,0.,-1.));
#595=DIRECTION('',(0.,1.,0.));
#596=DIRECTION('',(0.,1.,0.));
#597=DIRECTION('',(0.,0.,1.));
#598=DIRECTION('',(0.,1.,0.));
#599=DIRECTION('',(0.,0.,1.));
#600=DIRECTION('',(-1.,0.,0.));
#601=DIRECTION('',(-1.,0.,0.));
#602=DIRECTION('',(-1.,0.,0.));
#603=DIRECTION('',(-1.,0.,0.));
#604=DIRECTION('',(0.,0.,1.));
#605=DIRECTION('',(1.,0.,0.));
#606=DIRECTION('',(-1.,0.,0.));
#607=DIRECTION('',(0.,-1.,0.));
#608=DIRECTION('',(1.,0.,0.));
#609=DIRECTION('',(0.,1.,0.));
#610=DIRECTION('',(0.,-1.,0.));
#611=DIRECTION('',(1.,0.,0.));
#612=DIRECTION('',(0.,1.,0.));
#613=DIRECTION('',(0.,0.,1.));
#614=DIRECTION('',(1.,0.,0.));
#615=DIRECTION('',(0.,0.,1.));
#616=DIRECTION('',(1.,0.,0.));
#617=DIRECTION('',(0.,1.,0.));
#618=DIRECTION('',(-1.,0.,0.));
#619=DIRECTION('',(0.,-1.,0.));
#620=DIRECTION('',(-1.,0.,0.));
#621=DIRECTION('',(0.,0.,1.));
#622=DIRECTION('',(0.,0.,1.));
#623=DIRECTION('',(0.,-1.,0.));
#624=DIRECTION('',(0.,0.,1.));
#625=DIRECTION('',(0.,-1.,0.));
#626=DIRECTION('',(0.,0.,-1.));
#627=DIRECTION('',(1.,0.,0.));
#628=DIRECTION('',(0.,0.,1.));
#629=DIRECTION('',(1.,0.,0.));
#630=DIRECTION('',(0.,0.,-1.));
#631=DIRECTION('',(0.,1.,0.));
#632=DIRECTION('',(0.,0.,1.));
#633=DIRECTION('',(0.,1.,0.));
#634=DIRECTION('',(0.,0.,1.));
#635=DIRECTION('',(-1.,0.,0.));
#636=DIRECTION('',(0.,0.,1.));
#637=DIRECTION('',(1.,0.,0.));
#638=DIRECTION('',(-1.,0.,0.));
#639=DIRECTION('',(0.,0.,1.));
#640=DIRECTION('',(0.,0.,1.));
#641=DIRECTION('',(0.,-1.,0.));
#642=DIRECTION('',(0.,0.,1.));
#643=DIRECTION('',(0.,-1.,0.));
#644=DIRECTION('',(0.,0.,-1.));
#645=DIRECTION('',(1.,0.,0.));
#646=DIRECTION('',(0.,0.,1.));
#647=DIRECTION('',(1.,0.,0.));
#648=DIRECTION('',(0.,0.,-1.));
#649=DIRECTION('',(0.,1.,0.));
#650=DIRECTION('',(0.,0.,1.));
#651=DIRECTION('',(0.,1.,0.));
#652=DIRECTION('',(0.,0.,1.));
#653=DIRECTION('',(-1.,0.,0.));
#654=DIRECTION('',(0.,0.,1.));
#655=DIRECTION('',(1.,0.,0.));
#656=CARTESIAN_POINT('',(0.,0.,0.));
#657=CARTESIAN_POINT('',(0.08823,-0.03274,-0.0085));
#658=CARTESIAN_POINT('',(0.08823,-0.03274,0.));
#659=CARTESIAN_POINT('',(0.08823,-0.03147,0.));
#660=CARTESIAN_POINT('',(0.08823,-0.03401,0.));
#661=CARTESIAN_POINT('',(0.08823,-0.03147,-0.0085));
#662=CARTESIAN_POINT('',(0.08823,-0.03147,-0.01104));
#663=CARTESIAN_POINT('',(0.08823,-0.03274,-0.01104));
#664=CARTESIAN_POINT('',(0.08823,-0.03401,-0.01104));
#665=CARTESIAN_POINT('',(0.08823,-0.03401,-0.0085));
#666=CARTESIAN_POINT('',(0.09712,-0.03401,-0.0085));
#667=CARTESIAN_POINT('',(0.09712,-0.03401,0.));
#668=CARTESIAN_POINT('',(0.10601,-0.03401,0.));
#669=CARTESIAN_POINT('',(0.09712,-0.03401,-0.01104));
#670=CARTESIAN_POINT('',(0.10601,-0.03401,-0.01104));
#671=CARTESIAN_POINT('',(0.10601,-0.03401,-0.0085));
#672=CARTESIAN_POINT('',(0.10601,-0.03274,-0.0085));
#673=CARTESIAN_POINT('',(0.10601,-0.03274,0.));
#674=CARTESIAN_POINT('',(0.10601,-0.03147,0.));
#675=CARTESIAN_POINT('',(0.10601,-0.03274,-0.01104));
#676=CARTESIAN_POINT('',(0.10601,-0.03147,-0.01104));
#677=CARTESIAN_POINT('',(0.10601,-0.03147,-0.0085));
#678=CARTESIAN_POINT('',(0.09712,-0.03147,-0.0085));
#679=CARTESIAN_POINT('',(0.09712,-0.03147,0.));
#680=CARTESIAN_POINT('',(0.09712,-0.03147,-0.01104));
#681=CARTESIAN_POINT('',(0.09712,-0.02512,0.));
#682=CARTESIAN_POINT('',(0.08823,-0.0175,-0.0085));
#683=CARTESIAN_POINT('',(0.08823,-0.0175,0.));
#684=CARTESIAN_POINT('',(0.08823,-0.01623,0.));
#685=CARTESIAN_POINT('',(0.08823,-0.01877,0.));
#686=CARTESIAN_POINT('',(0.08823,-0.01623,-0.0085));
#687=CARTESIAN_POINT('',(0.08823,-0.01623,-0.01104));
#688=CARTESIAN_POINT('',(0.08823,-0.0175,-0.01104));
#689=CARTESIAN_POINT('',(0.08823,-0.01877,-0.01104));
#690=CARTESIAN_POINT('',(0.08823,-0.01877,-0.0085));
#691=CARTESIAN_POINT('',(0.09712,-0.01877,-0.0085));
#692=CARTESIAN_POINT('',(0.09712,-0.01877,0.));
#693=CARTESIAN_POINT('',(0.10601,-0.01877,0.));
#694=CARTESIAN_POINT('',(0.09712,-0.01877,-0.01104));
#695=CARTESIAN_POINT('',(0.10601,-0.01877,-0.01104));
#696=CARTESIAN_POINT('',(0.10601,-0.01877,-0.0085));
#697=CARTESIAN_POINT('',(0.10601,-0.0175,-0.0085));
#698=CARTESIAN_POINT('',(0.10601,-0.0175,0.));
#699=CARTESIAN_POINT('',(0.10601,-0.01623,0.));
#700=CARTESIAN_POINT('',(0.10601,-0.0175,-0.01104));
#701=CARTESIAN_POINT('',(0.10601,-0.01623,-0.01104));
#702=CARTESIAN_POINT('',(0.10601,-0.01623,-0.0085));
#703=CARTESIAN_POINT('',(0.09712,-0.01623,-0.0085));
#704=CARTESIAN_POINT('',(0.09712,-0.01623,0.));
#705=CARTESIAN_POINT('',(0.09712,-0.01623,-0.01104));
#706=CARTESIAN_POINT('',(0.09712,-0.02512,0.));
#707=CARTESIAN_POINT('',(0.08822,-0.0250575,-0.01224));
#708=CARTESIAN_POINT('',(0.08822,-0.0250575,-0.01104));
#709=CARTESIAN_POINT('',(0.08822,-0.01457,-0.01104));
#710=CARTESIAN_POINT('',(0.08822,-0.035545,-0.01104));
#711=CARTESIAN_POINT('',(0.08822,-0.01457,-0.01224));
#712=CARTESIAN_POINT('',(0.08822,-0.01457,-0.01224));
#713=CARTESIAN_POINT('',(0.08822,-0.0250575,-0.01224));
#714=CARTESIAN_POINT('',(0.08822,-0.035545,-0.01224));
#715=CARTESIAN_POINT('',(0.08822,-0.035545,-0.01224));
#716=CARTESIAN_POINT('',(0.09712,-0.035545,-0.01224));
#717=CARTESIAN_POINT('',(0.09712,-0.035545,-0.01104));
#718=CARTESIAN_POINT('',(0.10602,-0.035545,-0.01104));
#719=CARTESIAN_POINT('',(0.09712,-0.035545,-0.01224));
#720=CARTESIAN_POINT('',(0.10602,-0.035545,-0.01224));
#721=CARTESIAN_POINT('',(0.10602,-0.035545,-0.01224));
#722=CARTESIAN_POINT('',(0.10602,-0.0250575,-0.01224));
#723=CARTESIAN_POINT('',(0.10602,-0.0250575,-0.01104));
#724=CARTESIAN_POINT('',(0.10602,-0.01457,-0.01104));
#725=CARTESIAN_POINT('',(0.10602,-0.0250575,-0.01224));
#726=CARTESIAN_POINT('',(0.10602,-0.01457,-0.01224));
#727=CARTESIAN_POINT('',(0.10602,-0.01457,-0.01224));
#728=CARTESIAN_POINT('',(0.09712,-0.01457,-0.01224));
#729=CARTESIAN_POINT('',(0.09712,-0.01457,-0.01104));
#730=CARTESIAN_POINT('',(0.09712,-0.01457,-0.01224));
#731=CARTESIAN_POINT('',(0.10159,-0.01457,-0.01224));
#732=CARTESIAN_POINT('',(0.09712,-0.01457,-0.01224));
#733=CARTESIAN_POINT('',(0.09265,-0.01457,-0.01224));
#734=CARTESIAN_POINT('',(0.09712,-0.01457,-0.01224));
#735=CARTESIAN_POINT('',(0.09712,-0.0250575,-0.01224));
#736=CARTESIAN_POINT('',(0.09712,-0.02712,-0.01224));
#737=CARTESIAN_POINT('',(0.10062,-0.02712,-0.01224));
#738=CARTESIAN_POINT('',(0.09362,-0.02712,-0.01224));
#739=CARTESIAN_POINT('',(0.09362,-0.03087,-0.01224));
#740=CARTESIAN_POINT('',(0.09362,-0.03462,-0.01224));
#741=CARTESIAN_POINT('',(0.09712,-0.03462,-0.01224));
#742=CARTESIAN_POINT('',(0.10062,-0.03462,-0.01224));
#743=CARTESIAN_POINT('',(0.10062,-0.03087,-0.01224));
#744=CARTESIAN_POINT('',(0.09265,-0.016745,-0.01224));
#745=CARTESIAN_POINT('',(0.09265,-0.02042,-0.01224));
#746=CARTESIAN_POINT('',(0.09712,-0.02042,-0.01224));
#747=CARTESIAN_POINT('',(0.10159,-0.02042,-0.01224));
#748=CARTESIAN_POINT('',(0.10159,-0.016745,-0.01224));
#749=CARTESIAN_POINT('',(0.09712,-0.0250575,-0.01104));
#750=CARTESIAN_POINT('',(0.09712,-0.016745,-0.01224));
#751=CARTESIAN_POINT('',(0.10159,-0.016745,-0.01224));
#752=CARTESIAN_POINT('',(0.10159,-0.01307,-0.01224));
#753=CARTESIAN_POINT('',(0.09712,-0.01307,-0.01224));
#754=CARTESIAN_POINT('',(0.09265,-0.01307,-0.01224));
#755=CARTESIAN_POINT('',(0.09265,-0.016745,-0.01224));
#756=CARTESIAN_POINT('',(0.09265,-0.016745,-0.0155));
#757=CARTESIAN_POINT('',(0.09265,-0.01307,-0.0155));
#758=CARTESIAN_POINT('',(0.09265,-0.01307,-0.0155));
#759=CARTESIAN_POINT('',(0.09265,-0.016745,-0.0155));
#760=CARTESIAN_POINT('',(0.09265,-0.02042,-0.0155));
#761=CARTESIAN_POINT('',(0.09265,-0.02042,-0.0155));
#762=CARTESIAN_POINT('',(0.09712,-0.02042,-0.0155));
#763=CARTESIAN_POINT('',(0.09712,-0.02042,-0.0155));
#764=CARTESIAN_POINT('',(0.10159,-0.02042,-0.0155));
#765=CARTESIAN_POINT('',(0.10159,-0.02042,-0.0155));
#766=CARTESIAN_POINT('',(0.10159,-0.016745,-0.0155));
#767=CARTESIAN_POINT('',(0.10159,-0.016745,-0.0155));
#768=CARTESIAN_POINT('',(0.10159,-0.01307,-0.0155));
#769=CARTESIAN_POINT('',(0.10159,-0.01307,-0.0155));
#770=CARTESIAN_POINT('',(0.09712,-0.01307,-0.0155));
#771=CARTESIAN_POINT('',(0.09712,-0.01307,-0.0155));
#772=CARTESIAN_POINT('',(0.09712,-0.016745,-0.0155));
#773=CARTESIAN_POINT('',(0.09362,-0.03087,-0.01464));
#774=CARTESIAN_POINT('',(0.09362,-0.02712,-0.01464));
#775=CARTESIAN_POINT('',(0.09362,-0.02712,-0.01464));
#776=CARTESIAN_POINT('',(0.09362,-0.03087,-0.01464));
#777=CARTESIAN_POINT('',(0.09362,-0.03462,-0.01464));
#778=CARTESIAN_POINT('',(0.09362,-0.03462,-0.01464));
#779=CARTESIAN_POINT('',(0.09712,-0.03462,-0.01464));
#780=CARTESIAN_POINT('',(0.09712,-0.03462,-0.01464));
#781=CARTESIAN_POINT('',(0.10062,-0.03462,-0.01464));
#782=CARTESIAN_POINT('',(0.10062,-0.03462,-0.01464));
#783=CARTESIAN_POINT('',(0.10062,-0.03087,-0.01464));
#784=CARTESIAN_POINT('',(0.10062,-0.03087,-0.01464));
#785=CARTESIAN_POINT('',(0.10062,-0.02712,-0.01464));
#786=CARTESIAN_POINT('',(0.10062,-0.02712,-0.01464));
#787=CARTESIAN_POINT('',(0.09712,-0.02712,-0.01464));
#788=CARTESIAN_POINT('',(0.09712,-0.02712,-0.01464));
#789=CARTESIAN_POINT('',(0.09712,-0.03087,-0.01464));
#790=MECHANICAL_DESIGN_GEOMETRIC_PRESENTATION_REPRESENTATION('',(#497),
#791);
#791=(
GEOMETRIC_REPRESENTATION_CONTEXT(3)
GLOBAL_UNCERTAINTY_ASSIGNED_CONTEXT((#792))
GLOBAL_UNIT_ASSIGNED_CONTEXT((#795,#794,#793))
REPRESENTATION_CONTEXT('XIAO ESP32C3 on sockets',
'TOP_LEVEL_ASSEMBLY_PART')
);
#792=UNCERTAINTY_MEASURE_WITH_UNIT(LENGTH_MEASURE(1.E-8),#795,
'DISTANCE_ACCURACY_VALUE','Maximum Tolerance applied to model');
#793=(
NAMED_UNIT(*)
SI_UNIT($,.STERADIAN.)
SOLID_ANGLE_UNIT()
);
#794=(
NAMED_UNIT(*)
PLANE_ANGLE_UNIT()
SI_UNIT($,.RADIAN.)
);
#795=(
LENGTH_UNIT()
NAMED_UNIT(*)
SI_UNIT($,.METRE.)
);
#796=PRODUCT_DEFINITION_SHAPE('','',#797);
#797=PRODUCT_DEFINITION('','',#799,#798);
#798=PRODUCT_DEFINITION_CONTEXT('',#805,'design');
#799=PRODUCT_DEFINITION_FORMATION_WITH_SPECIFIED_SOURCE('','',#801,
 .NOT_KNOWN.);
#800=PRODUCT_RELATED_PRODUCT_CATEGORY('','',(#801));
#801=PRODUCT('XIAO ESP32C3 on sockets','XIAO ESP32C3 on sockets',
'XIAO ESP32C3 on sockets',(#803));
#802=PRODUCT_CATEGORY('','');
#803=PRODUCT_CONTEXT('',#805,'mechanical');
#804=APPLICATION_PROTOCOL_DEFINITION('international standard',
'automotive_design',2010,#805);
#805=APPLICATION_CONTEXT(
'core data for automotive mechanical design processes');
ENDSEC;
END-ISO-10303-21;
