%TF.GenerationSoftware,KiCad,Pcbnew,10.0.4*%
%TF.CreationDate,2026-09-03T20:47:45-04:00*%
%TF.ProjectId,kicad_schematic,6b696361-645f-4736-9368-656d61746963,rev?*%
%TF.SameCoordinates,Original*%
%TF.FileFunction,Soldermask,Top*%
%TF.FilePolarity,Negative*%
%FSLAX46Y46*%
G04 Gerber Fmt 4.6, Leading zero omitted, Abs format (unit mm)*
G04 Created by KiCad (PCBNEW 10.0.4) date 2026-09-03 20:47:45*
%MOMM*%
%LPD*%
G01*
G04 APERTURE LIST*
G04 Aperture macros list*
%AMRoundRect*
0 Rectangle with rounded corners*
0 $1 Rounding radius*
0 $2 $3 $4 $5 $6 $7 $8 $9 X,Y pos of 4 corners*
0 Add a 4 corners polygon primitive as box body*
4,1,4,$2,$3,$4,$5,$6,$7,$8,$9,$2,$3,0*
0 Add four circle primitives for the rounded corners*
1,1,$1+$1,$2,$3*
1,1,$1+$1,$4,$5*
1,1,$1+$1,$6,$7*
1,1,$1+$1,$8,$9*
0 Add four rect primitives between the rounded corners*
20,1,$1+$1,$2,$3,$4,$5,0*
20,1,$1+$1,$4,$5,$6,$7,0*
20,1,$1+$1,$6,$7,$8,$9,0*
20,1,$1+$1,$8,$9,$2,$3,0*%
G04 Aperture macros list end*
%ADD10C,1.700000*%
%ADD11C,4.000000*%
%ADD12C,2.200000*%
%ADD13RoundRect,0.250000X-0.550000X-0.550000X0.550000X-0.550000X0.550000X0.550000X-0.550000X0.550000X0*%
%ADD14C,1.600000*%
%ADD15C,3.200000*%
%ADD16R,2.000000X2.000000*%
%ADD17C,2.000000*%
%ADD18C,1.524000*%
%ADD19R,1.700000X1.700000*%
G04 APERTURE END LIST*
D10*
%TO.C,SW3*%
X120879999Y-52000000D03*
D11*
X115799999Y-52000000D03*
D10*
X110719999Y-52000000D03*
D12*
X113259999Y-57080000D03*
X119609999Y-54540000D03*
%TD*%
D13*
%TO.C,D3*%
X111990000Y-61525000D03*
D14*
X119610000Y-61525000D03*
%TD*%
D10*
%TO.C,SW6*%
X101830000Y-52000000D03*
D11*
X96750000Y-52000000D03*
D10*
X91670000Y-52000000D03*
D12*
X94210000Y-57080000D03*
X100560000Y-54540000D03*
%TD*%
D10*
%TO.C,SW7*%
X82780000Y-90100000D03*
D11*
X77700000Y-90100000D03*
D10*
X72620000Y-90100000D03*
D12*
X75160000Y-95180000D03*
X81510000Y-92640000D03*
%TD*%
D13*
%TO.C,D6*%
X92940000Y-61525000D03*
D14*
X100560000Y-61525000D03*
%TD*%
D10*
%TO.C,SW2*%
X120879999Y-71050000D03*
D11*
X115799999Y-71050000D03*
D10*
X110719999Y-71050000D03*
D12*
X113259999Y-76130000D03*
X119609999Y-73590000D03*
%TD*%
D13*
%TO.C,D7*%
X73890000Y-99625000D03*
D14*
X81510000Y-99625000D03*
%TD*%
D15*
%TO.C,H4*%
X127500000Y-105500000D03*
%TD*%
D16*
%TO.C,BZ1*%
X112200000Y-32500000D03*
D17*
X119800000Y-32500000D03*
%TD*%
D15*
%TO.C,H3*%
X66000000Y-105500000D03*
%TD*%
D10*
%TO.C,SW5*%
X101830000Y-71050000D03*
D11*
X96750000Y-71050000D03*
D10*
X91670000Y-71050000D03*
D12*
X94210000Y-76130000D03*
X100560000Y-73590000D03*
%TD*%
D13*
%TO.C,D9*%
X73890000Y-61525000D03*
D14*
X81510000Y-61525000D03*
%TD*%
D13*
%TO.C,D4*%
X92940000Y-99625000D03*
D14*
X100560000Y-99625000D03*
%TD*%
D15*
%TO.C,H1*%
X68000000Y-20500000D03*
%TD*%
D13*
%TO.C,D1*%
X111990000Y-99625000D03*
D14*
X119610000Y-99625000D03*
%TD*%
D10*
%TO.C,SW1*%
X120879999Y-90100000D03*
D11*
X115799999Y-90100000D03*
D10*
X110719999Y-90100000D03*
D12*
X113259999Y-95180000D03*
X119609999Y-92640000D03*
%TD*%
D10*
%TO.C,SW8*%
X82780000Y-71050000D03*
D11*
X77700000Y-71050000D03*
D10*
X72620000Y-71050000D03*
D12*
X75160000Y-76130000D03*
X81510000Y-73590000D03*
%TD*%
D10*
%TO.C,SW9*%
X82780000Y-52000000D03*
D11*
X77700000Y-52000000D03*
D10*
X72620000Y-52000000D03*
D12*
X75160000Y-57080000D03*
X81510000Y-54540000D03*
%TD*%
D13*
%TO.C,D2*%
X111990000Y-80575000D03*
D14*
X119610000Y-80575000D03*
%TD*%
D15*
%TO.C,H2*%
X125000000Y-20000000D03*
%TD*%
D10*
%TO.C,SW4*%
X101830000Y-90100000D03*
D11*
X96750000Y-90100000D03*
D10*
X91670000Y-90100000D03*
D12*
X94210000Y-95180000D03*
X100560000Y-92640000D03*
%TD*%
D13*
%TO.C,D5*%
X92940000Y-80575000D03*
D14*
X100560000Y-80575000D03*
%TD*%
D13*
%TO.C,D8*%
X73890000Y-80575000D03*
D14*
X81510000Y-80575000D03*
%TD*%
D18*
%TO.C,U1*%
X104740000Y-17500000D03*
X104740000Y-20040000D03*
X104740000Y-22580000D03*
X104740000Y-25120000D03*
X104740000Y-27660000D03*
X104740000Y-30200000D03*
X104740000Y-32740000D03*
X89500000Y-32740000D03*
X89500000Y-30200000D03*
X89500000Y-27660000D03*
X89500000Y-25120000D03*
X89500000Y-22580000D03*
X89500000Y-20040000D03*
X89500000Y-17500000D03*
%TD*%
D19*
%TO.C,J1*%
X88420000Y-108500000D03*
D10*
X90960000Y-108500000D03*
X93500000Y-108500000D03*
X96040000Y-108500000D03*
X98580000Y-108500000D03*
X101120000Y-108500000D03*
X103660000Y-108500000D03*
X106200000Y-108500000D03*
%TD*%
M02*
