%TF.GenerationSoftware,KiCad,Pcbnew,10.0.4*%
%TF.CreationDate,2026-08-28T18:10:49-04:00*%
%TF.ProjectId,kicad_schematic,6b696361-645f-4736-9368-656d61746963,rev?*%
%TF.SameCoordinates,Original*%
%TF.FileFunction,Legend,Top*%
%TF.FilePolarity,Positive*%
%FSLAX46Y46*%
G04 Gerber Fmt 4.6, Leading zero omitted, Abs format (unit mm)*
G04 Created by KiCad (PCBNEW 10.0.4) date 2026-08-28 18:10:49*
%MOMM*%
%LPD*%
G01*
G04 APERTURE LIST*
%ADD10C,0.100000*%
%ADD11C,0.150000*%
%ADD12C,0.101600*%
%ADD13C,0.120000*%
%ADD14C,0.127000*%
%ADD15C,0.504000*%
G04 APERTURE END LIST*
D10*
X125372342Y-27994360D02*
X126800914Y-26994360D01*
X125372342Y-26280074D02*
X128372342Y-26280074D01*
X128372342Y-26280074D02*
X128372342Y-27422931D01*
X128372342Y-27422931D02*
X128229485Y-27708646D01*
X128229485Y-27708646D02*
X128086628Y-27851503D01*
X128086628Y-27851503D02*
X127800914Y-27994360D01*
X127800914Y-27994360D02*
X127372342Y-27994360D01*
X127372342Y-27994360D02*
X127086628Y-27851503D01*
X127086628Y-27851503D02*
X126943771Y-27708646D01*
X126943771Y-27708646D02*
X126800914Y-27422931D01*
X126800914Y-27422931D02*
X126800914Y-26280074D01*
X127372342Y-30565789D02*
X125372342Y-30565789D01*
X127372342Y-29280074D02*
X125800914Y-29280074D01*
X125800914Y-29280074D02*
X125515200Y-29422931D01*
X125515200Y-29422931D02*
X125372342Y-29708646D01*
X125372342Y-29708646D02*
X125372342Y-30137217D01*
X125372342Y-30137217D02*
X125515200Y-30422931D01*
X125515200Y-30422931D02*
X125658057Y-30565789D01*
X125372342Y-32422932D02*
X125515200Y-32137217D01*
X125515200Y-32137217D02*
X125800914Y-31994360D01*
X125800914Y-31994360D02*
X128372342Y-31994360D01*
X125515200Y-34708646D02*
X125372342Y-34422932D01*
X125372342Y-34422932D02*
X125372342Y-33851504D01*
X125372342Y-33851504D02*
X125515200Y-33565789D01*
X125515200Y-33565789D02*
X125800914Y-33422932D01*
X125800914Y-33422932D02*
X126943771Y-33422932D01*
X126943771Y-33422932D02*
X127229485Y-33565789D01*
X127229485Y-33565789D02*
X127372342Y-33851504D01*
X127372342Y-33851504D02*
X127372342Y-34422932D01*
X127372342Y-34422932D02*
X127229485Y-34708646D01*
X127229485Y-34708646D02*
X126943771Y-34851504D01*
X126943771Y-34851504D02*
X126658057Y-34851504D01*
X126658057Y-34851504D02*
X126372342Y-33422932D01*
X125372342Y-39994361D02*
X125372342Y-38280075D01*
X125372342Y-39137218D02*
X128372342Y-39137218D01*
X128372342Y-39137218D02*
X127943771Y-38851504D01*
X127943771Y-38851504D02*
X127658057Y-38565789D01*
X127658057Y-38565789D02*
X127515200Y-38280075D01*
X125658057Y-41280075D02*
X125515200Y-41422932D01*
X125515200Y-41422932D02*
X125372342Y-41280075D01*
X125372342Y-41280075D02*
X125515200Y-41137218D01*
X125515200Y-41137218D02*
X125658057Y-41280075D01*
X125658057Y-41280075D02*
X125372342Y-41280075D01*
X127229485Y-41280075D02*
X127086628Y-41422932D01*
X127086628Y-41422932D02*
X126943771Y-41280075D01*
X126943771Y-41280075D02*
X127086628Y-41137218D01*
X127086628Y-41137218D02*
X127229485Y-41280075D01*
X127229485Y-41280075D02*
X126943771Y-41280075D01*
X125372342Y-44994360D02*
X128372342Y-44994360D01*
X128372342Y-46565788D02*
X127800914Y-46280074D01*
X125372342Y-47851502D02*
X127372342Y-47851502D01*
X127086628Y-47851502D02*
X127229485Y-47994359D01*
X127229485Y-47994359D02*
X127372342Y-48280074D01*
X127372342Y-48280074D02*
X127372342Y-48708645D01*
X127372342Y-48708645D02*
X127229485Y-48994359D01*
X127229485Y-48994359D02*
X126943771Y-49137217D01*
X126943771Y-49137217D02*
X125372342Y-49137217D01*
X126943771Y-49137217D02*
X127229485Y-49280074D01*
X127229485Y-49280074D02*
X127372342Y-49565788D01*
X127372342Y-49565788D02*
X127372342Y-49994359D01*
X127372342Y-49994359D02*
X127229485Y-50280074D01*
X127229485Y-50280074D02*
X126943771Y-50422931D01*
X126943771Y-50422931D02*
X125372342Y-50422931D01*
X125372342Y-54137216D02*
X128372342Y-54137216D01*
X128372342Y-54137216D02*
X125372342Y-55851502D01*
X125372342Y-55851502D02*
X128372342Y-55851502D01*
X125372342Y-57708645D02*
X125515200Y-57422930D01*
X125515200Y-57422930D02*
X125658057Y-57280073D01*
X125658057Y-57280073D02*
X125943771Y-57137216D01*
X125943771Y-57137216D02*
X126800914Y-57137216D01*
X126800914Y-57137216D02*
X127086628Y-57280073D01*
X127086628Y-57280073D02*
X127229485Y-57422930D01*
X127229485Y-57422930D02*
X127372342Y-57708645D01*
X127372342Y-57708645D02*
X127372342Y-58137216D01*
X127372342Y-58137216D02*
X127229485Y-58422930D01*
X127229485Y-58422930D02*
X127086628Y-58565788D01*
X127086628Y-58565788D02*
X126800914Y-58708645D01*
X126800914Y-58708645D02*
X125943771Y-58708645D01*
X125943771Y-58708645D02*
X125658057Y-58565788D01*
X125658057Y-58565788D02*
X125515200Y-58422930D01*
X125515200Y-58422930D02*
X125372342Y-58137216D01*
X125372342Y-58137216D02*
X125372342Y-57708645D01*
X127372342Y-59565788D02*
X127372342Y-60708645D01*
X128372342Y-59994359D02*
X125800914Y-59994359D01*
X125800914Y-59994359D02*
X125515200Y-60137216D01*
X125515200Y-60137216D02*
X125372342Y-60422931D01*
X125372342Y-60422931D02*
X125372342Y-60708645D01*
X125372342Y-63994359D02*
X128372342Y-63994359D01*
X128372342Y-63994359D02*
X126229485Y-64994359D01*
X126229485Y-64994359D02*
X128372342Y-65994359D01*
X128372342Y-65994359D02*
X125372342Y-65994359D01*
X125372342Y-67422930D02*
X127372342Y-67422930D01*
X128372342Y-67422930D02*
X128229485Y-67280073D01*
X128229485Y-67280073D02*
X128086628Y-67422930D01*
X128086628Y-67422930D02*
X128229485Y-67565787D01*
X128229485Y-67565787D02*
X128372342Y-67422930D01*
X128372342Y-67422930D02*
X128086628Y-67422930D01*
X125515200Y-68708644D02*
X125372342Y-68994358D01*
X125372342Y-68994358D02*
X125372342Y-69565787D01*
X125372342Y-69565787D02*
X125515200Y-69851501D01*
X125515200Y-69851501D02*
X125800914Y-69994358D01*
X125800914Y-69994358D02*
X125943771Y-69994358D01*
X125943771Y-69994358D02*
X126229485Y-69851501D01*
X126229485Y-69851501D02*
X126372342Y-69565787D01*
X126372342Y-69565787D02*
X126372342Y-69137216D01*
X126372342Y-69137216D02*
X126515200Y-68851501D01*
X126515200Y-68851501D02*
X126800914Y-68708644D01*
X126800914Y-68708644D02*
X126943771Y-68708644D01*
X126943771Y-68708644D02*
X127229485Y-68851501D01*
X127229485Y-68851501D02*
X127372342Y-69137216D01*
X127372342Y-69137216D02*
X127372342Y-69565787D01*
X127372342Y-69565787D02*
X127229485Y-69851501D01*
X125515200Y-71137215D02*
X125372342Y-71422929D01*
X125372342Y-71422929D02*
X125372342Y-71994358D01*
X125372342Y-71994358D02*
X125515200Y-72280072D01*
X125515200Y-72280072D02*
X125800914Y-72422929D01*
X125800914Y-72422929D02*
X125943771Y-72422929D01*
X125943771Y-72422929D02*
X126229485Y-72280072D01*
X126229485Y-72280072D02*
X126372342Y-71994358D01*
X126372342Y-71994358D02*
X126372342Y-71565787D01*
X126372342Y-71565787D02*
X126515200Y-71280072D01*
X126515200Y-71280072D02*
X126800914Y-71137215D01*
X126800914Y-71137215D02*
X126943771Y-71137215D01*
X126943771Y-71137215D02*
X127229485Y-71280072D01*
X127229485Y-71280072D02*
X127372342Y-71565787D01*
X127372342Y-71565787D02*
X127372342Y-71994358D01*
X127372342Y-71994358D02*
X127229485Y-72280072D01*
X125372342Y-73708643D02*
X127372342Y-73708643D01*
X128372342Y-73708643D02*
X128229485Y-73565786D01*
X128229485Y-73565786D02*
X128086628Y-73708643D01*
X128086628Y-73708643D02*
X128229485Y-73851500D01*
X128229485Y-73851500D02*
X128372342Y-73708643D01*
X128372342Y-73708643D02*
X128086628Y-73708643D01*
X127372342Y-75137214D02*
X125372342Y-75137214D01*
X127086628Y-75137214D02*
X127229485Y-75280071D01*
X127229485Y-75280071D02*
X127372342Y-75565786D01*
X127372342Y-75565786D02*
X127372342Y-75994357D01*
X127372342Y-75994357D02*
X127229485Y-76280071D01*
X127229485Y-76280071D02*
X126943771Y-76422929D01*
X126943771Y-76422929D02*
X125372342Y-76422929D01*
X127372342Y-79137215D02*
X124943771Y-79137215D01*
X124943771Y-79137215D02*
X124658057Y-78994357D01*
X124658057Y-78994357D02*
X124515200Y-78851500D01*
X124515200Y-78851500D02*
X124372342Y-78565786D01*
X124372342Y-78565786D02*
X124372342Y-78137215D01*
X124372342Y-78137215D02*
X124515200Y-77851500D01*
X125515200Y-79137215D02*
X125372342Y-78851500D01*
X125372342Y-78851500D02*
X125372342Y-78280072D01*
X125372342Y-78280072D02*
X125515200Y-77994357D01*
X125515200Y-77994357D02*
X125658057Y-77851500D01*
X125658057Y-77851500D02*
X125943771Y-77708643D01*
X125943771Y-77708643D02*
X126800914Y-77708643D01*
X126800914Y-77708643D02*
X127086628Y-77851500D01*
X127086628Y-77851500D02*
X127229485Y-77994357D01*
X127229485Y-77994357D02*
X127372342Y-78280072D01*
X127372342Y-78280072D02*
X127372342Y-78851500D01*
X127372342Y-78851500D02*
X127229485Y-79137215D01*
X127372342Y-82422929D02*
X127372342Y-83565786D01*
X128372342Y-82851500D02*
X125800914Y-82851500D01*
X125800914Y-82851500D02*
X125515200Y-82994357D01*
X125515200Y-82994357D02*
X125372342Y-83280072D01*
X125372342Y-83280072D02*
X125372342Y-83565786D01*
X125372342Y-84565786D02*
X128372342Y-84565786D01*
X125372342Y-85851501D02*
X126943771Y-85851501D01*
X126943771Y-85851501D02*
X127229485Y-85708643D01*
X127229485Y-85708643D02*
X127372342Y-85422929D01*
X127372342Y-85422929D02*
X127372342Y-84994358D01*
X127372342Y-84994358D02*
X127229485Y-84708643D01*
X127229485Y-84708643D02*
X127086628Y-84565786D01*
X125515200Y-88422929D02*
X125372342Y-88137215D01*
X125372342Y-88137215D02*
X125372342Y-87565787D01*
X125372342Y-87565787D02*
X125515200Y-87280072D01*
X125515200Y-87280072D02*
X125800914Y-87137215D01*
X125800914Y-87137215D02*
X126943771Y-87137215D01*
X126943771Y-87137215D02*
X127229485Y-87280072D01*
X127229485Y-87280072D02*
X127372342Y-87565787D01*
X127372342Y-87565787D02*
X127372342Y-88137215D01*
X127372342Y-88137215D02*
X127229485Y-88422929D01*
X127229485Y-88422929D02*
X126943771Y-88565787D01*
X126943771Y-88565787D02*
X126658057Y-88565787D01*
X126658057Y-88565787D02*
X126372342Y-87137215D01*
X126943771Y-93137215D02*
X126800914Y-93565787D01*
X126800914Y-93565787D02*
X126658057Y-93708644D01*
X126658057Y-93708644D02*
X126372342Y-93851501D01*
X126372342Y-93851501D02*
X125943771Y-93851501D01*
X125943771Y-93851501D02*
X125658057Y-93708644D01*
X125658057Y-93708644D02*
X125515200Y-93565787D01*
X125515200Y-93565787D02*
X125372342Y-93280072D01*
X125372342Y-93280072D02*
X125372342Y-92137215D01*
X125372342Y-92137215D02*
X128372342Y-92137215D01*
X128372342Y-92137215D02*
X128372342Y-93137215D01*
X128372342Y-93137215D02*
X128229485Y-93422930D01*
X128229485Y-93422930D02*
X128086628Y-93565787D01*
X128086628Y-93565787D02*
X127800914Y-93708644D01*
X127800914Y-93708644D02*
X127515200Y-93708644D01*
X127515200Y-93708644D02*
X127229485Y-93565787D01*
X127229485Y-93565787D02*
X127086628Y-93422930D01*
X127086628Y-93422930D02*
X126943771Y-93137215D01*
X126943771Y-93137215D02*
X126943771Y-92137215D01*
X127372342Y-96422930D02*
X125372342Y-96422930D01*
X127372342Y-95137215D02*
X125800914Y-95137215D01*
X125800914Y-95137215D02*
X125515200Y-95280072D01*
X125515200Y-95280072D02*
X125372342Y-95565787D01*
X125372342Y-95565787D02*
X125372342Y-95994358D01*
X125372342Y-95994358D02*
X125515200Y-96280072D01*
X125515200Y-96280072D02*
X125658057Y-96422930D01*
X125515200Y-97708644D02*
X125372342Y-97994358D01*
X125372342Y-97994358D02*
X125372342Y-98565787D01*
X125372342Y-98565787D02*
X125515200Y-98851501D01*
X125515200Y-98851501D02*
X125800914Y-98994358D01*
X125800914Y-98994358D02*
X125943771Y-98994358D01*
X125943771Y-98994358D02*
X126229485Y-98851501D01*
X126229485Y-98851501D02*
X126372342Y-98565787D01*
X126372342Y-98565787D02*
X126372342Y-98137216D01*
X126372342Y-98137216D02*
X126515200Y-97851501D01*
X126515200Y-97851501D02*
X126800914Y-97708644D01*
X126800914Y-97708644D02*
X126943771Y-97708644D01*
X126943771Y-97708644D02*
X127229485Y-97851501D01*
X127229485Y-97851501D02*
X127372342Y-98137216D01*
X127372342Y-98137216D02*
X127372342Y-98565787D01*
X127372342Y-98565787D02*
X127229485Y-98851501D01*
D11*
X124738095Y-101804819D02*
X124738095Y-100804819D01*
X124738095Y-101281009D02*
X125309523Y-101281009D01*
X125309523Y-101804819D02*
X125309523Y-100804819D01*
X126214285Y-101138152D02*
X126214285Y-101804819D01*
X125976190Y-100757200D02*
X125738095Y-101471485D01*
X125738095Y-101471485D02*
X126357142Y-101471485D01*
X110696667Y-72701200D02*
X110839524Y-72748819D01*
X110839524Y-72748819D02*
X111077619Y-72748819D01*
X111077619Y-72748819D02*
X111172857Y-72701200D01*
X111172857Y-72701200D02*
X111220476Y-72653580D01*
X111220476Y-72653580D02*
X111268095Y-72558342D01*
X111268095Y-72558342D02*
X111268095Y-72463104D01*
X111268095Y-72463104D02*
X111220476Y-72367866D01*
X111220476Y-72367866D02*
X111172857Y-72320247D01*
X111172857Y-72320247D02*
X111077619Y-72272628D01*
X111077619Y-72272628D02*
X110887143Y-72225009D01*
X110887143Y-72225009D02*
X110791905Y-72177390D01*
X110791905Y-72177390D02*
X110744286Y-72129771D01*
X110744286Y-72129771D02*
X110696667Y-72034533D01*
X110696667Y-72034533D02*
X110696667Y-71939295D01*
X110696667Y-71939295D02*
X110744286Y-71844057D01*
X110744286Y-71844057D02*
X110791905Y-71796438D01*
X110791905Y-71796438D02*
X110887143Y-71748819D01*
X110887143Y-71748819D02*
X111125238Y-71748819D01*
X111125238Y-71748819D02*
X111268095Y-71796438D01*
X111601429Y-71748819D02*
X111839524Y-72748819D01*
X111839524Y-72748819D02*
X112030000Y-72034533D01*
X112030000Y-72034533D02*
X112220476Y-72748819D01*
X112220476Y-72748819D02*
X112458572Y-71748819D01*
X112744286Y-71748819D02*
X113363333Y-71748819D01*
X113363333Y-71748819D02*
X113030000Y-72129771D01*
X113030000Y-72129771D02*
X113172857Y-72129771D01*
X113172857Y-72129771D02*
X113268095Y-72177390D01*
X113268095Y-72177390D02*
X113315714Y-72225009D01*
X113315714Y-72225009D02*
X113363333Y-72320247D01*
X113363333Y-72320247D02*
X113363333Y-72558342D01*
X113363333Y-72558342D02*
X113315714Y-72653580D01*
X113315714Y-72653580D02*
X113268095Y-72701200D01*
X113268095Y-72701200D02*
X113172857Y-72748819D01*
X113172857Y-72748819D02*
X112887143Y-72748819D01*
X112887143Y-72748819D02*
X112791905Y-72701200D01*
X112791905Y-72701200D02*
X112744286Y-72653580D01*
X77261905Y-25684819D02*
X77261905Y-24684819D01*
X77261905Y-24684819D02*
X77500000Y-24684819D01*
X77500000Y-24684819D02*
X77642857Y-24732438D01*
X77642857Y-24732438D02*
X77738095Y-24827676D01*
X77738095Y-24827676D02*
X77785714Y-24922914D01*
X77785714Y-24922914D02*
X77833333Y-25113390D01*
X77833333Y-25113390D02*
X77833333Y-25256247D01*
X77833333Y-25256247D02*
X77785714Y-25446723D01*
X77785714Y-25446723D02*
X77738095Y-25541961D01*
X77738095Y-25541961D02*
X77642857Y-25637200D01*
X77642857Y-25637200D02*
X77500000Y-25684819D01*
X77500000Y-25684819D02*
X77261905Y-25684819D01*
X78166667Y-24684819D02*
X78785714Y-24684819D01*
X78785714Y-24684819D02*
X78452381Y-25065771D01*
X78452381Y-25065771D02*
X78595238Y-25065771D01*
X78595238Y-25065771D02*
X78690476Y-25113390D01*
X78690476Y-25113390D02*
X78738095Y-25161009D01*
X78738095Y-25161009D02*
X78785714Y-25256247D01*
X78785714Y-25256247D02*
X78785714Y-25494342D01*
X78785714Y-25494342D02*
X78738095Y-25589580D01*
X78738095Y-25589580D02*
X78690476Y-25637200D01*
X78690476Y-25637200D02*
X78595238Y-25684819D01*
X78595238Y-25684819D02*
X78309524Y-25684819D01*
X78309524Y-25684819D02*
X78214286Y-25637200D01*
X78214286Y-25637200D02*
X78166667Y-25589580D01*
X73928095Y-26004819D02*
X73928095Y-25004819D01*
X74499523Y-26004819D02*
X74070952Y-25433390D01*
X74499523Y-25004819D02*
X73928095Y-25576247D01*
D12*
X86498479Y-25878809D02*
X87012526Y-25878809D01*
X87012526Y-25878809D02*
X87073002Y-25848571D01*
X87073002Y-25848571D02*
X87103241Y-25818333D01*
X87103241Y-25818333D02*
X87133479Y-25757857D01*
X87133479Y-25757857D02*
X87133479Y-25636904D01*
X87133479Y-25636904D02*
X87103241Y-25576428D01*
X87103241Y-25576428D02*
X87073002Y-25546190D01*
X87073002Y-25546190D02*
X87012526Y-25515952D01*
X87012526Y-25515952D02*
X86498479Y-25515952D01*
X87133479Y-24880952D02*
X87133479Y-25243809D01*
X87133479Y-25062381D02*
X86498479Y-25062381D01*
X86498479Y-25062381D02*
X86589193Y-25122857D01*
X86589193Y-25122857D02*
X86649669Y-25183333D01*
X86649669Y-25183333D02*
X86679907Y-25243809D01*
D11*
X95606667Y-72701200D02*
X95749524Y-72748819D01*
X95749524Y-72748819D02*
X95987619Y-72748819D01*
X95987619Y-72748819D02*
X96082857Y-72701200D01*
X96082857Y-72701200D02*
X96130476Y-72653580D01*
X96130476Y-72653580D02*
X96178095Y-72558342D01*
X96178095Y-72558342D02*
X96178095Y-72463104D01*
X96178095Y-72463104D02*
X96130476Y-72367866D01*
X96130476Y-72367866D02*
X96082857Y-72320247D01*
X96082857Y-72320247D02*
X95987619Y-72272628D01*
X95987619Y-72272628D02*
X95797143Y-72225009D01*
X95797143Y-72225009D02*
X95701905Y-72177390D01*
X95701905Y-72177390D02*
X95654286Y-72129771D01*
X95654286Y-72129771D02*
X95606667Y-72034533D01*
X95606667Y-72034533D02*
X95606667Y-71939295D01*
X95606667Y-71939295D02*
X95654286Y-71844057D01*
X95654286Y-71844057D02*
X95701905Y-71796438D01*
X95701905Y-71796438D02*
X95797143Y-71748819D01*
X95797143Y-71748819D02*
X96035238Y-71748819D01*
X96035238Y-71748819D02*
X96178095Y-71796438D01*
X96511429Y-71748819D02*
X96749524Y-72748819D01*
X96749524Y-72748819D02*
X96940000Y-72034533D01*
X96940000Y-72034533D02*
X97130476Y-72748819D01*
X97130476Y-72748819D02*
X97368572Y-71748819D01*
X98178095Y-71748819D02*
X97987619Y-71748819D01*
X97987619Y-71748819D02*
X97892381Y-71796438D01*
X97892381Y-71796438D02*
X97844762Y-71844057D01*
X97844762Y-71844057D02*
X97749524Y-71986914D01*
X97749524Y-71986914D02*
X97701905Y-72177390D01*
X97701905Y-72177390D02*
X97701905Y-72558342D01*
X97701905Y-72558342D02*
X97749524Y-72653580D01*
X97749524Y-72653580D02*
X97797143Y-72701200D01*
X97797143Y-72701200D02*
X97892381Y-72748819D01*
X97892381Y-72748819D02*
X98082857Y-72748819D01*
X98082857Y-72748819D02*
X98178095Y-72701200D01*
X98178095Y-72701200D02*
X98225714Y-72653580D01*
X98225714Y-72653580D02*
X98273333Y-72558342D01*
X98273333Y-72558342D02*
X98273333Y-72320247D01*
X98273333Y-72320247D02*
X98225714Y-72225009D01*
X98225714Y-72225009D02*
X98178095Y-72177390D01*
X98178095Y-72177390D02*
X98082857Y-72129771D01*
X98082857Y-72129771D02*
X97892381Y-72129771D01*
X97892381Y-72129771D02*
X97797143Y-72177390D01*
X97797143Y-72177390D02*
X97749524Y-72225009D01*
X97749524Y-72225009D02*
X97701905Y-72320247D01*
X80516667Y-102881200D02*
X80659524Y-102928819D01*
X80659524Y-102928819D02*
X80897619Y-102928819D01*
X80897619Y-102928819D02*
X80992857Y-102881200D01*
X80992857Y-102881200D02*
X81040476Y-102833580D01*
X81040476Y-102833580D02*
X81088095Y-102738342D01*
X81088095Y-102738342D02*
X81088095Y-102643104D01*
X81088095Y-102643104D02*
X81040476Y-102547866D01*
X81040476Y-102547866D02*
X80992857Y-102500247D01*
X80992857Y-102500247D02*
X80897619Y-102452628D01*
X80897619Y-102452628D02*
X80707143Y-102405009D01*
X80707143Y-102405009D02*
X80611905Y-102357390D01*
X80611905Y-102357390D02*
X80564286Y-102309771D01*
X80564286Y-102309771D02*
X80516667Y-102214533D01*
X80516667Y-102214533D02*
X80516667Y-102119295D01*
X80516667Y-102119295D02*
X80564286Y-102024057D01*
X80564286Y-102024057D02*
X80611905Y-101976438D01*
X80611905Y-101976438D02*
X80707143Y-101928819D01*
X80707143Y-101928819D02*
X80945238Y-101928819D01*
X80945238Y-101928819D02*
X81088095Y-101976438D01*
X81421429Y-101928819D02*
X81659524Y-102928819D01*
X81659524Y-102928819D02*
X81850000Y-102214533D01*
X81850000Y-102214533D02*
X82040476Y-102928819D01*
X82040476Y-102928819D02*
X82278572Y-101928819D01*
X82564286Y-101928819D02*
X83230952Y-101928819D01*
X83230952Y-101928819D02*
X82802381Y-102928819D01*
X77261905Y-36334819D02*
X77261905Y-35334819D01*
X77261905Y-35334819D02*
X77500000Y-35334819D01*
X77500000Y-35334819D02*
X77642857Y-35382438D01*
X77642857Y-35382438D02*
X77738095Y-35477676D01*
X77738095Y-35477676D02*
X77785714Y-35572914D01*
X77785714Y-35572914D02*
X77833333Y-35763390D01*
X77833333Y-35763390D02*
X77833333Y-35906247D01*
X77833333Y-35906247D02*
X77785714Y-36096723D01*
X77785714Y-36096723D02*
X77738095Y-36191961D01*
X77738095Y-36191961D02*
X77642857Y-36287200D01*
X77642857Y-36287200D02*
X77500000Y-36334819D01*
X77500000Y-36334819D02*
X77261905Y-36334819D01*
X78690476Y-35334819D02*
X78500000Y-35334819D01*
X78500000Y-35334819D02*
X78404762Y-35382438D01*
X78404762Y-35382438D02*
X78357143Y-35430057D01*
X78357143Y-35430057D02*
X78261905Y-35572914D01*
X78261905Y-35572914D02*
X78214286Y-35763390D01*
X78214286Y-35763390D02*
X78214286Y-36144342D01*
X78214286Y-36144342D02*
X78261905Y-36239580D01*
X78261905Y-36239580D02*
X78309524Y-36287200D01*
X78309524Y-36287200D02*
X78404762Y-36334819D01*
X78404762Y-36334819D02*
X78595238Y-36334819D01*
X78595238Y-36334819D02*
X78690476Y-36287200D01*
X78690476Y-36287200D02*
X78738095Y-36239580D01*
X78738095Y-36239580D02*
X78785714Y-36144342D01*
X78785714Y-36144342D02*
X78785714Y-35906247D01*
X78785714Y-35906247D02*
X78738095Y-35811009D01*
X78738095Y-35811009D02*
X78690476Y-35763390D01*
X78690476Y-35763390D02*
X78595238Y-35715771D01*
X78595238Y-35715771D02*
X78404762Y-35715771D01*
X78404762Y-35715771D02*
X78309524Y-35763390D01*
X78309524Y-35763390D02*
X78261905Y-35811009D01*
X78261905Y-35811009D02*
X78214286Y-35906247D01*
X73928095Y-36654819D02*
X73928095Y-35654819D01*
X74499523Y-36654819D02*
X74070952Y-36083390D01*
X74499523Y-35654819D02*
X73928095Y-36226247D01*
X110696667Y-87791200D02*
X110839524Y-87838819D01*
X110839524Y-87838819D02*
X111077619Y-87838819D01*
X111077619Y-87838819D02*
X111172857Y-87791200D01*
X111172857Y-87791200D02*
X111220476Y-87743580D01*
X111220476Y-87743580D02*
X111268095Y-87648342D01*
X111268095Y-87648342D02*
X111268095Y-87553104D01*
X111268095Y-87553104D02*
X111220476Y-87457866D01*
X111220476Y-87457866D02*
X111172857Y-87410247D01*
X111172857Y-87410247D02*
X111077619Y-87362628D01*
X111077619Y-87362628D02*
X110887143Y-87315009D01*
X110887143Y-87315009D02*
X110791905Y-87267390D01*
X110791905Y-87267390D02*
X110744286Y-87219771D01*
X110744286Y-87219771D02*
X110696667Y-87124533D01*
X110696667Y-87124533D02*
X110696667Y-87029295D01*
X110696667Y-87029295D02*
X110744286Y-86934057D01*
X110744286Y-86934057D02*
X110791905Y-86886438D01*
X110791905Y-86886438D02*
X110887143Y-86838819D01*
X110887143Y-86838819D02*
X111125238Y-86838819D01*
X111125238Y-86838819D02*
X111268095Y-86886438D01*
X111601429Y-86838819D02*
X111839524Y-87838819D01*
X111839524Y-87838819D02*
X112030000Y-87124533D01*
X112030000Y-87124533D02*
X112220476Y-87838819D01*
X112220476Y-87838819D02*
X112458572Y-86838819D01*
X112791905Y-86934057D02*
X112839524Y-86886438D01*
X112839524Y-86886438D02*
X112934762Y-86838819D01*
X112934762Y-86838819D02*
X113172857Y-86838819D01*
X113172857Y-86838819D02*
X113268095Y-86886438D01*
X113268095Y-86886438D02*
X113315714Y-86934057D01*
X113315714Y-86934057D02*
X113363333Y-87029295D01*
X113363333Y-87029295D02*
X113363333Y-87124533D01*
X113363333Y-87124533D02*
X113315714Y-87267390D01*
X113315714Y-87267390D02*
X112744286Y-87838819D01*
X112744286Y-87838819D02*
X113363333Y-87838819D01*
X77261905Y-39884819D02*
X77261905Y-38884819D01*
X77261905Y-38884819D02*
X77500000Y-38884819D01*
X77500000Y-38884819D02*
X77642857Y-38932438D01*
X77642857Y-38932438D02*
X77738095Y-39027676D01*
X77738095Y-39027676D02*
X77785714Y-39122914D01*
X77785714Y-39122914D02*
X77833333Y-39313390D01*
X77833333Y-39313390D02*
X77833333Y-39456247D01*
X77833333Y-39456247D02*
X77785714Y-39646723D01*
X77785714Y-39646723D02*
X77738095Y-39741961D01*
X77738095Y-39741961D02*
X77642857Y-39837200D01*
X77642857Y-39837200D02*
X77500000Y-39884819D01*
X77500000Y-39884819D02*
X77261905Y-39884819D01*
X78166667Y-38884819D02*
X78833333Y-38884819D01*
X78833333Y-38884819D02*
X78404762Y-39884819D01*
X73928095Y-40204819D02*
X73928095Y-39204819D01*
X74499523Y-40204819D02*
X74070952Y-39633390D01*
X74499523Y-39204819D02*
X73928095Y-39776247D01*
X116619047Y-25231009D02*
X116761904Y-25278628D01*
X116761904Y-25278628D02*
X116809523Y-25326247D01*
X116809523Y-25326247D02*
X116857142Y-25421485D01*
X116857142Y-25421485D02*
X116857142Y-25564342D01*
X116857142Y-25564342D02*
X116809523Y-25659580D01*
X116809523Y-25659580D02*
X116761904Y-25707200D01*
X116761904Y-25707200D02*
X116666666Y-25754819D01*
X116666666Y-25754819D02*
X116285714Y-25754819D01*
X116285714Y-25754819D02*
X116285714Y-24754819D01*
X116285714Y-24754819D02*
X116619047Y-24754819D01*
X116619047Y-24754819D02*
X116714285Y-24802438D01*
X116714285Y-24802438D02*
X116761904Y-24850057D01*
X116761904Y-24850057D02*
X116809523Y-24945295D01*
X116809523Y-24945295D02*
X116809523Y-25040533D01*
X116809523Y-25040533D02*
X116761904Y-25135771D01*
X116761904Y-25135771D02*
X116714285Y-25183390D01*
X116714285Y-25183390D02*
X116619047Y-25231009D01*
X116619047Y-25231009D02*
X116285714Y-25231009D01*
X117190476Y-24754819D02*
X117857142Y-24754819D01*
X117857142Y-24754819D02*
X117190476Y-25754819D01*
X117190476Y-25754819D02*
X117857142Y-25754819D01*
X118761904Y-25754819D02*
X118190476Y-25754819D01*
X118476190Y-25754819D02*
X118476190Y-24754819D01*
X118476190Y-24754819D02*
X118380952Y-24897676D01*
X118380952Y-24897676D02*
X118285714Y-24992914D01*
X118285714Y-24992914D02*
X118190476Y-25040533D01*
X113309048Y-30033866D02*
X114070953Y-30033866D01*
X113690000Y-30414819D02*
X113690000Y-29652914D01*
X67738095Y-101804819D02*
X67738095Y-100804819D01*
X67738095Y-101281009D02*
X68309523Y-101281009D01*
X68309523Y-101804819D02*
X68309523Y-100804819D01*
X68690476Y-100804819D02*
X69309523Y-100804819D01*
X69309523Y-100804819D02*
X68976190Y-101185771D01*
X68976190Y-101185771D02*
X69119047Y-101185771D01*
X69119047Y-101185771D02*
X69214285Y-101233390D01*
X69214285Y-101233390D02*
X69261904Y-101281009D01*
X69261904Y-101281009D02*
X69309523Y-101376247D01*
X69309523Y-101376247D02*
X69309523Y-101614342D01*
X69309523Y-101614342D02*
X69261904Y-101709580D01*
X69261904Y-101709580D02*
X69214285Y-101757200D01*
X69214285Y-101757200D02*
X69119047Y-101804819D01*
X69119047Y-101804819D02*
X68833333Y-101804819D01*
X68833333Y-101804819D02*
X68738095Y-101757200D01*
X68738095Y-101757200D02*
X68690476Y-101709580D01*
X95606667Y-87791200D02*
X95749524Y-87838819D01*
X95749524Y-87838819D02*
X95987619Y-87838819D01*
X95987619Y-87838819D02*
X96082857Y-87791200D01*
X96082857Y-87791200D02*
X96130476Y-87743580D01*
X96130476Y-87743580D02*
X96178095Y-87648342D01*
X96178095Y-87648342D02*
X96178095Y-87553104D01*
X96178095Y-87553104D02*
X96130476Y-87457866D01*
X96130476Y-87457866D02*
X96082857Y-87410247D01*
X96082857Y-87410247D02*
X95987619Y-87362628D01*
X95987619Y-87362628D02*
X95797143Y-87315009D01*
X95797143Y-87315009D02*
X95701905Y-87267390D01*
X95701905Y-87267390D02*
X95654286Y-87219771D01*
X95654286Y-87219771D02*
X95606667Y-87124533D01*
X95606667Y-87124533D02*
X95606667Y-87029295D01*
X95606667Y-87029295D02*
X95654286Y-86934057D01*
X95654286Y-86934057D02*
X95701905Y-86886438D01*
X95701905Y-86886438D02*
X95797143Y-86838819D01*
X95797143Y-86838819D02*
X96035238Y-86838819D01*
X96035238Y-86838819D02*
X96178095Y-86886438D01*
X96511429Y-86838819D02*
X96749524Y-87838819D01*
X96749524Y-87838819D02*
X96940000Y-87124533D01*
X96940000Y-87124533D02*
X97130476Y-87838819D01*
X97130476Y-87838819D02*
X97368572Y-86838819D01*
X98225714Y-86838819D02*
X97749524Y-86838819D01*
X97749524Y-86838819D02*
X97701905Y-87315009D01*
X97701905Y-87315009D02*
X97749524Y-87267390D01*
X97749524Y-87267390D02*
X97844762Y-87219771D01*
X97844762Y-87219771D02*
X98082857Y-87219771D01*
X98082857Y-87219771D02*
X98178095Y-87267390D01*
X98178095Y-87267390D02*
X98225714Y-87315009D01*
X98225714Y-87315009D02*
X98273333Y-87410247D01*
X98273333Y-87410247D02*
X98273333Y-87648342D01*
X98273333Y-87648342D02*
X98225714Y-87743580D01*
X98225714Y-87743580D02*
X98178095Y-87791200D01*
X98178095Y-87791200D02*
X98082857Y-87838819D01*
X98082857Y-87838819D02*
X97844762Y-87838819D01*
X97844762Y-87838819D02*
X97749524Y-87791200D01*
X97749524Y-87791200D02*
X97701905Y-87743580D01*
X77261905Y-46984819D02*
X77261905Y-45984819D01*
X77261905Y-45984819D02*
X77500000Y-45984819D01*
X77500000Y-45984819D02*
X77642857Y-46032438D01*
X77642857Y-46032438D02*
X77738095Y-46127676D01*
X77738095Y-46127676D02*
X77785714Y-46222914D01*
X77785714Y-46222914D02*
X77833333Y-46413390D01*
X77833333Y-46413390D02*
X77833333Y-46556247D01*
X77833333Y-46556247D02*
X77785714Y-46746723D01*
X77785714Y-46746723D02*
X77738095Y-46841961D01*
X77738095Y-46841961D02*
X77642857Y-46937200D01*
X77642857Y-46937200D02*
X77500000Y-46984819D01*
X77500000Y-46984819D02*
X77261905Y-46984819D01*
X78309524Y-46984819D02*
X78500000Y-46984819D01*
X78500000Y-46984819D02*
X78595238Y-46937200D01*
X78595238Y-46937200D02*
X78642857Y-46889580D01*
X78642857Y-46889580D02*
X78738095Y-46746723D01*
X78738095Y-46746723D02*
X78785714Y-46556247D01*
X78785714Y-46556247D02*
X78785714Y-46175295D01*
X78785714Y-46175295D02*
X78738095Y-46080057D01*
X78738095Y-46080057D02*
X78690476Y-46032438D01*
X78690476Y-46032438D02*
X78595238Y-45984819D01*
X78595238Y-45984819D02*
X78404762Y-45984819D01*
X78404762Y-45984819D02*
X78309524Y-46032438D01*
X78309524Y-46032438D02*
X78261905Y-46080057D01*
X78261905Y-46080057D02*
X78214286Y-46175295D01*
X78214286Y-46175295D02*
X78214286Y-46413390D01*
X78214286Y-46413390D02*
X78261905Y-46508628D01*
X78261905Y-46508628D02*
X78309524Y-46556247D01*
X78309524Y-46556247D02*
X78404762Y-46603866D01*
X78404762Y-46603866D02*
X78595238Y-46603866D01*
X78595238Y-46603866D02*
X78690476Y-46556247D01*
X78690476Y-46556247D02*
X78738095Y-46508628D01*
X78738095Y-46508628D02*
X78785714Y-46413390D01*
X73928095Y-47304819D02*
X73928095Y-46304819D01*
X74499523Y-47304819D02*
X74070952Y-46733390D01*
X74499523Y-46304819D02*
X73928095Y-46876247D01*
X77261905Y-29234819D02*
X77261905Y-28234819D01*
X77261905Y-28234819D02*
X77500000Y-28234819D01*
X77500000Y-28234819D02*
X77642857Y-28282438D01*
X77642857Y-28282438D02*
X77738095Y-28377676D01*
X77738095Y-28377676D02*
X77785714Y-28472914D01*
X77785714Y-28472914D02*
X77833333Y-28663390D01*
X77833333Y-28663390D02*
X77833333Y-28806247D01*
X77833333Y-28806247D02*
X77785714Y-28996723D01*
X77785714Y-28996723D02*
X77738095Y-29091961D01*
X77738095Y-29091961D02*
X77642857Y-29187200D01*
X77642857Y-29187200D02*
X77500000Y-29234819D01*
X77500000Y-29234819D02*
X77261905Y-29234819D01*
X78690476Y-28568152D02*
X78690476Y-29234819D01*
X78452381Y-28187200D02*
X78214286Y-28901485D01*
X78214286Y-28901485D02*
X78833333Y-28901485D01*
X73928095Y-29554819D02*
X73928095Y-28554819D01*
X74499523Y-29554819D02*
X74070952Y-28983390D01*
X74499523Y-28554819D02*
X73928095Y-29126247D01*
X67238095Y-16804819D02*
X67238095Y-15804819D01*
X67238095Y-16281009D02*
X67809523Y-16281009D01*
X67809523Y-16804819D02*
X67809523Y-15804819D01*
X68809523Y-16804819D02*
X68238095Y-16804819D01*
X68523809Y-16804819D02*
X68523809Y-15804819D01*
X68523809Y-15804819D02*
X68428571Y-15947676D01*
X68428571Y-15947676D02*
X68333333Y-16042914D01*
X68333333Y-16042914D02*
X68238095Y-16090533D01*
X77261905Y-18584819D02*
X77261905Y-17584819D01*
X77261905Y-17584819D02*
X77500000Y-17584819D01*
X77500000Y-17584819D02*
X77642857Y-17632438D01*
X77642857Y-17632438D02*
X77738095Y-17727676D01*
X77738095Y-17727676D02*
X77785714Y-17822914D01*
X77785714Y-17822914D02*
X77833333Y-18013390D01*
X77833333Y-18013390D02*
X77833333Y-18156247D01*
X77833333Y-18156247D02*
X77785714Y-18346723D01*
X77785714Y-18346723D02*
X77738095Y-18441961D01*
X77738095Y-18441961D02*
X77642857Y-18537200D01*
X77642857Y-18537200D02*
X77500000Y-18584819D01*
X77500000Y-18584819D02*
X77261905Y-18584819D01*
X78785714Y-18584819D02*
X78214286Y-18584819D01*
X78500000Y-18584819D02*
X78500000Y-17584819D01*
X78500000Y-17584819D02*
X78404762Y-17727676D01*
X78404762Y-17727676D02*
X78309524Y-17822914D01*
X78309524Y-17822914D02*
X78214286Y-17870533D01*
X73928095Y-18904819D02*
X73928095Y-17904819D01*
X74499523Y-18904819D02*
X74070952Y-18333390D01*
X74499523Y-17904819D02*
X73928095Y-18476247D01*
X108424819Y-108833333D02*
X109139104Y-108833333D01*
X109139104Y-108833333D02*
X109281961Y-108880952D01*
X109281961Y-108880952D02*
X109377200Y-108976190D01*
X109377200Y-108976190D02*
X109424819Y-109119047D01*
X109424819Y-109119047D02*
X109424819Y-109214285D01*
X109424819Y-107833333D02*
X109424819Y-108404761D01*
X109424819Y-108119047D02*
X108424819Y-108119047D01*
X108424819Y-108119047D02*
X108567676Y-108214285D01*
X108567676Y-108214285D02*
X108662914Y-108309523D01*
X108662914Y-108309523D02*
X108710533Y-108404761D01*
X110696667Y-102881200D02*
X110839524Y-102928819D01*
X110839524Y-102928819D02*
X111077619Y-102928819D01*
X111077619Y-102928819D02*
X111172857Y-102881200D01*
X111172857Y-102881200D02*
X111220476Y-102833580D01*
X111220476Y-102833580D02*
X111268095Y-102738342D01*
X111268095Y-102738342D02*
X111268095Y-102643104D01*
X111268095Y-102643104D02*
X111220476Y-102547866D01*
X111220476Y-102547866D02*
X111172857Y-102500247D01*
X111172857Y-102500247D02*
X111077619Y-102452628D01*
X111077619Y-102452628D02*
X110887143Y-102405009D01*
X110887143Y-102405009D02*
X110791905Y-102357390D01*
X110791905Y-102357390D02*
X110744286Y-102309771D01*
X110744286Y-102309771D02*
X110696667Y-102214533D01*
X110696667Y-102214533D02*
X110696667Y-102119295D01*
X110696667Y-102119295D02*
X110744286Y-102024057D01*
X110744286Y-102024057D02*
X110791905Y-101976438D01*
X110791905Y-101976438D02*
X110887143Y-101928819D01*
X110887143Y-101928819D02*
X111125238Y-101928819D01*
X111125238Y-101928819D02*
X111268095Y-101976438D01*
X111601429Y-101928819D02*
X111839524Y-102928819D01*
X111839524Y-102928819D02*
X112030000Y-102214533D01*
X112030000Y-102214533D02*
X112220476Y-102928819D01*
X112220476Y-102928819D02*
X112458572Y-101928819D01*
X113363333Y-102928819D02*
X112791905Y-102928819D01*
X113077619Y-102928819D02*
X113077619Y-101928819D01*
X113077619Y-101928819D02*
X112982381Y-102071676D01*
X112982381Y-102071676D02*
X112887143Y-102166914D01*
X112887143Y-102166914D02*
X112791905Y-102214533D01*
X80516667Y-87791200D02*
X80659524Y-87838819D01*
X80659524Y-87838819D02*
X80897619Y-87838819D01*
X80897619Y-87838819D02*
X80992857Y-87791200D01*
X80992857Y-87791200D02*
X81040476Y-87743580D01*
X81040476Y-87743580D02*
X81088095Y-87648342D01*
X81088095Y-87648342D02*
X81088095Y-87553104D01*
X81088095Y-87553104D02*
X81040476Y-87457866D01*
X81040476Y-87457866D02*
X80992857Y-87410247D01*
X80992857Y-87410247D02*
X80897619Y-87362628D01*
X80897619Y-87362628D02*
X80707143Y-87315009D01*
X80707143Y-87315009D02*
X80611905Y-87267390D01*
X80611905Y-87267390D02*
X80564286Y-87219771D01*
X80564286Y-87219771D02*
X80516667Y-87124533D01*
X80516667Y-87124533D02*
X80516667Y-87029295D01*
X80516667Y-87029295D02*
X80564286Y-86934057D01*
X80564286Y-86934057D02*
X80611905Y-86886438D01*
X80611905Y-86886438D02*
X80707143Y-86838819D01*
X80707143Y-86838819D02*
X80945238Y-86838819D01*
X80945238Y-86838819D02*
X81088095Y-86886438D01*
X81421429Y-86838819D02*
X81659524Y-87838819D01*
X81659524Y-87838819D02*
X81850000Y-87124533D01*
X81850000Y-87124533D02*
X82040476Y-87838819D01*
X82040476Y-87838819D02*
X82278572Y-86838819D01*
X82802381Y-87267390D02*
X82707143Y-87219771D01*
X82707143Y-87219771D02*
X82659524Y-87172152D01*
X82659524Y-87172152D02*
X82611905Y-87076914D01*
X82611905Y-87076914D02*
X82611905Y-87029295D01*
X82611905Y-87029295D02*
X82659524Y-86934057D01*
X82659524Y-86934057D02*
X82707143Y-86886438D01*
X82707143Y-86886438D02*
X82802381Y-86838819D01*
X82802381Y-86838819D02*
X82992857Y-86838819D01*
X82992857Y-86838819D02*
X83088095Y-86886438D01*
X83088095Y-86886438D02*
X83135714Y-86934057D01*
X83135714Y-86934057D02*
X83183333Y-87029295D01*
X83183333Y-87029295D02*
X83183333Y-87076914D01*
X83183333Y-87076914D02*
X83135714Y-87172152D01*
X83135714Y-87172152D02*
X83088095Y-87219771D01*
X83088095Y-87219771D02*
X82992857Y-87267390D01*
X82992857Y-87267390D02*
X82802381Y-87267390D01*
X82802381Y-87267390D02*
X82707143Y-87315009D01*
X82707143Y-87315009D02*
X82659524Y-87362628D01*
X82659524Y-87362628D02*
X82611905Y-87457866D01*
X82611905Y-87457866D02*
X82611905Y-87648342D01*
X82611905Y-87648342D02*
X82659524Y-87743580D01*
X82659524Y-87743580D02*
X82707143Y-87791200D01*
X82707143Y-87791200D02*
X82802381Y-87838819D01*
X82802381Y-87838819D02*
X82992857Y-87838819D01*
X82992857Y-87838819D02*
X83088095Y-87791200D01*
X83088095Y-87791200D02*
X83135714Y-87743580D01*
X83135714Y-87743580D02*
X83183333Y-87648342D01*
X83183333Y-87648342D02*
X83183333Y-87457866D01*
X83183333Y-87457866D02*
X83135714Y-87362628D01*
X83135714Y-87362628D02*
X83088095Y-87315009D01*
X83088095Y-87315009D02*
X82992857Y-87267390D01*
X80516667Y-72701200D02*
X80659524Y-72748819D01*
X80659524Y-72748819D02*
X80897619Y-72748819D01*
X80897619Y-72748819D02*
X80992857Y-72701200D01*
X80992857Y-72701200D02*
X81040476Y-72653580D01*
X81040476Y-72653580D02*
X81088095Y-72558342D01*
X81088095Y-72558342D02*
X81088095Y-72463104D01*
X81088095Y-72463104D02*
X81040476Y-72367866D01*
X81040476Y-72367866D02*
X80992857Y-72320247D01*
X80992857Y-72320247D02*
X80897619Y-72272628D01*
X80897619Y-72272628D02*
X80707143Y-72225009D01*
X80707143Y-72225009D02*
X80611905Y-72177390D01*
X80611905Y-72177390D02*
X80564286Y-72129771D01*
X80564286Y-72129771D02*
X80516667Y-72034533D01*
X80516667Y-72034533D02*
X80516667Y-71939295D01*
X80516667Y-71939295D02*
X80564286Y-71844057D01*
X80564286Y-71844057D02*
X80611905Y-71796438D01*
X80611905Y-71796438D02*
X80707143Y-71748819D01*
X80707143Y-71748819D02*
X80945238Y-71748819D01*
X80945238Y-71748819D02*
X81088095Y-71796438D01*
X81421429Y-71748819D02*
X81659524Y-72748819D01*
X81659524Y-72748819D02*
X81850000Y-72034533D01*
X81850000Y-72034533D02*
X82040476Y-72748819D01*
X82040476Y-72748819D02*
X82278572Y-71748819D01*
X82707143Y-72748819D02*
X82897619Y-72748819D01*
X82897619Y-72748819D02*
X82992857Y-72701200D01*
X82992857Y-72701200D02*
X83040476Y-72653580D01*
X83040476Y-72653580D02*
X83135714Y-72510723D01*
X83135714Y-72510723D02*
X83183333Y-72320247D01*
X83183333Y-72320247D02*
X83183333Y-71939295D01*
X83183333Y-71939295D02*
X83135714Y-71844057D01*
X83135714Y-71844057D02*
X83088095Y-71796438D01*
X83088095Y-71796438D02*
X82992857Y-71748819D01*
X82992857Y-71748819D02*
X82802381Y-71748819D01*
X82802381Y-71748819D02*
X82707143Y-71796438D01*
X82707143Y-71796438D02*
X82659524Y-71844057D01*
X82659524Y-71844057D02*
X82611905Y-71939295D01*
X82611905Y-71939295D02*
X82611905Y-72177390D01*
X82611905Y-72177390D02*
X82659524Y-72272628D01*
X82659524Y-72272628D02*
X82707143Y-72320247D01*
X82707143Y-72320247D02*
X82802381Y-72367866D01*
X82802381Y-72367866D02*
X82992857Y-72367866D01*
X82992857Y-72367866D02*
X83088095Y-72320247D01*
X83088095Y-72320247D02*
X83135714Y-72272628D01*
X83135714Y-72272628D02*
X83183333Y-72177390D01*
X77261905Y-22134819D02*
X77261905Y-21134819D01*
X77261905Y-21134819D02*
X77500000Y-21134819D01*
X77500000Y-21134819D02*
X77642857Y-21182438D01*
X77642857Y-21182438D02*
X77738095Y-21277676D01*
X77738095Y-21277676D02*
X77785714Y-21372914D01*
X77785714Y-21372914D02*
X77833333Y-21563390D01*
X77833333Y-21563390D02*
X77833333Y-21706247D01*
X77833333Y-21706247D02*
X77785714Y-21896723D01*
X77785714Y-21896723D02*
X77738095Y-21991961D01*
X77738095Y-21991961D02*
X77642857Y-22087200D01*
X77642857Y-22087200D02*
X77500000Y-22134819D01*
X77500000Y-22134819D02*
X77261905Y-22134819D01*
X78214286Y-21230057D02*
X78261905Y-21182438D01*
X78261905Y-21182438D02*
X78357143Y-21134819D01*
X78357143Y-21134819D02*
X78595238Y-21134819D01*
X78595238Y-21134819D02*
X78690476Y-21182438D01*
X78690476Y-21182438D02*
X78738095Y-21230057D01*
X78738095Y-21230057D02*
X78785714Y-21325295D01*
X78785714Y-21325295D02*
X78785714Y-21420533D01*
X78785714Y-21420533D02*
X78738095Y-21563390D01*
X78738095Y-21563390D02*
X78166667Y-22134819D01*
X78166667Y-22134819D02*
X78785714Y-22134819D01*
X73928095Y-22454819D02*
X73928095Y-21454819D01*
X74499523Y-22454819D02*
X74070952Y-21883390D01*
X74499523Y-21454819D02*
X73928095Y-22026247D01*
X124238095Y-16304819D02*
X124238095Y-15304819D01*
X124238095Y-15781009D02*
X124809523Y-15781009D01*
X124809523Y-16304819D02*
X124809523Y-15304819D01*
X125238095Y-15400057D02*
X125285714Y-15352438D01*
X125285714Y-15352438D02*
X125380952Y-15304819D01*
X125380952Y-15304819D02*
X125619047Y-15304819D01*
X125619047Y-15304819D02*
X125714285Y-15352438D01*
X125714285Y-15352438D02*
X125761904Y-15400057D01*
X125761904Y-15400057D02*
X125809523Y-15495295D01*
X125809523Y-15495295D02*
X125809523Y-15590533D01*
X125809523Y-15590533D02*
X125761904Y-15733390D01*
X125761904Y-15733390D02*
X125190476Y-16304819D01*
X125190476Y-16304819D02*
X125809523Y-16304819D01*
X77261905Y-32784819D02*
X77261905Y-31784819D01*
X77261905Y-31784819D02*
X77500000Y-31784819D01*
X77500000Y-31784819D02*
X77642857Y-31832438D01*
X77642857Y-31832438D02*
X77738095Y-31927676D01*
X77738095Y-31927676D02*
X77785714Y-32022914D01*
X77785714Y-32022914D02*
X77833333Y-32213390D01*
X77833333Y-32213390D02*
X77833333Y-32356247D01*
X77833333Y-32356247D02*
X77785714Y-32546723D01*
X77785714Y-32546723D02*
X77738095Y-32641961D01*
X77738095Y-32641961D02*
X77642857Y-32737200D01*
X77642857Y-32737200D02*
X77500000Y-32784819D01*
X77500000Y-32784819D02*
X77261905Y-32784819D01*
X78738095Y-31784819D02*
X78261905Y-31784819D01*
X78261905Y-31784819D02*
X78214286Y-32261009D01*
X78214286Y-32261009D02*
X78261905Y-32213390D01*
X78261905Y-32213390D02*
X78357143Y-32165771D01*
X78357143Y-32165771D02*
X78595238Y-32165771D01*
X78595238Y-32165771D02*
X78690476Y-32213390D01*
X78690476Y-32213390D02*
X78738095Y-32261009D01*
X78738095Y-32261009D02*
X78785714Y-32356247D01*
X78785714Y-32356247D02*
X78785714Y-32594342D01*
X78785714Y-32594342D02*
X78738095Y-32689580D01*
X78738095Y-32689580D02*
X78690476Y-32737200D01*
X78690476Y-32737200D02*
X78595238Y-32784819D01*
X78595238Y-32784819D02*
X78357143Y-32784819D01*
X78357143Y-32784819D02*
X78261905Y-32737200D01*
X78261905Y-32737200D02*
X78214286Y-32689580D01*
X73928095Y-33104819D02*
X73928095Y-32104819D01*
X74499523Y-33104819D02*
X74070952Y-32533390D01*
X74499523Y-32104819D02*
X73928095Y-32676247D01*
X77261905Y-43434819D02*
X77261905Y-42434819D01*
X77261905Y-42434819D02*
X77500000Y-42434819D01*
X77500000Y-42434819D02*
X77642857Y-42482438D01*
X77642857Y-42482438D02*
X77738095Y-42577676D01*
X77738095Y-42577676D02*
X77785714Y-42672914D01*
X77785714Y-42672914D02*
X77833333Y-42863390D01*
X77833333Y-42863390D02*
X77833333Y-43006247D01*
X77833333Y-43006247D02*
X77785714Y-43196723D01*
X77785714Y-43196723D02*
X77738095Y-43291961D01*
X77738095Y-43291961D02*
X77642857Y-43387200D01*
X77642857Y-43387200D02*
X77500000Y-43434819D01*
X77500000Y-43434819D02*
X77261905Y-43434819D01*
X78404762Y-42863390D02*
X78309524Y-42815771D01*
X78309524Y-42815771D02*
X78261905Y-42768152D01*
X78261905Y-42768152D02*
X78214286Y-42672914D01*
X78214286Y-42672914D02*
X78214286Y-42625295D01*
X78214286Y-42625295D02*
X78261905Y-42530057D01*
X78261905Y-42530057D02*
X78309524Y-42482438D01*
X78309524Y-42482438D02*
X78404762Y-42434819D01*
X78404762Y-42434819D02*
X78595238Y-42434819D01*
X78595238Y-42434819D02*
X78690476Y-42482438D01*
X78690476Y-42482438D02*
X78738095Y-42530057D01*
X78738095Y-42530057D02*
X78785714Y-42625295D01*
X78785714Y-42625295D02*
X78785714Y-42672914D01*
X78785714Y-42672914D02*
X78738095Y-42768152D01*
X78738095Y-42768152D02*
X78690476Y-42815771D01*
X78690476Y-42815771D02*
X78595238Y-42863390D01*
X78595238Y-42863390D02*
X78404762Y-42863390D01*
X78404762Y-42863390D02*
X78309524Y-42911009D01*
X78309524Y-42911009D02*
X78261905Y-42958628D01*
X78261905Y-42958628D02*
X78214286Y-43053866D01*
X78214286Y-43053866D02*
X78214286Y-43244342D01*
X78214286Y-43244342D02*
X78261905Y-43339580D01*
X78261905Y-43339580D02*
X78309524Y-43387200D01*
X78309524Y-43387200D02*
X78404762Y-43434819D01*
X78404762Y-43434819D02*
X78595238Y-43434819D01*
X78595238Y-43434819D02*
X78690476Y-43387200D01*
X78690476Y-43387200D02*
X78738095Y-43339580D01*
X78738095Y-43339580D02*
X78785714Y-43244342D01*
X78785714Y-43244342D02*
X78785714Y-43053866D01*
X78785714Y-43053866D02*
X78738095Y-42958628D01*
X78738095Y-42958628D02*
X78690476Y-42911009D01*
X78690476Y-42911009D02*
X78595238Y-42863390D01*
X73928095Y-43754819D02*
X73928095Y-42754819D01*
X74499523Y-43754819D02*
X74070952Y-43183390D01*
X74499523Y-42754819D02*
X73928095Y-43326247D01*
X95606667Y-102881200D02*
X95749524Y-102928819D01*
X95749524Y-102928819D02*
X95987619Y-102928819D01*
X95987619Y-102928819D02*
X96082857Y-102881200D01*
X96082857Y-102881200D02*
X96130476Y-102833580D01*
X96130476Y-102833580D02*
X96178095Y-102738342D01*
X96178095Y-102738342D02*
X96178095Y-102643104D01*
X96178095Y-102643104D02*
X96130476Y-102547866D01*
X96130476Y-102547866D02*
X96082857Y-102500247D01*
X96082857Y-102500247D02*
X95987619Y-102452628D01*
X95987619Y-102452628D02*
X95797143Y-102405009D01*
X95797143Y-102405009D02*
X95701905Y-102357390D01*
X95701905Y-102357390D02*
X95654286Y-102309771D01*
X95654286Y-102309771D02*
X95606667Y-102214533D01*
X95606667Y-102214533D02*
X95606667Y-102119295D01*
X95606667Y-102119295D02*
X95654286Y-102024057D01*
X95654286Y-102024057D02*
X95701905Y-101976438D01*
X95701905Y-101976438D02*
X95797143Y-101928819D01*
X95797143Y-101928819D02*
X96035238Y-101928819D01*
X96035238Y-101928819D02*
X96178095Y-101976438D01*
X96511429Y-101928819D02*
X96749524Y-102928819D01*
X96749524Y-102928819D02*
X96940000Y-102214533D01*
X96940000Y-102214533D02*
X97130476Y-102928819D01*
X97130476Y-102928819D02*
X97368572Y-101928819D01*
X98178095Y-102262152D02*
X98178095Y-102928819D01*
X97940000Y-101881200D02*
X97701905Y-102595485D01*
X97701905Y-102595485D02*
X98320952Y-102595485D01*
%TO.C,SW3*%
D13*
X105045000Y-57435000D02*
X119015000Y-57435000D01*
X105045000Y-71405000D02*
X105045000Y-57435000D01*
X119015000Y-57435000D02*
X119015000Y-71405000D01*
X119015000Y-71405000D02*
X105045000Y-71405000D01*
%TO.C,D3*%
X75230000Y-27350000D02*
X75880000Y-27350000D01*
X76480000Y-26230000D02*
X76480000Y-28470000D01*
X76600000Y-26230000D02*
X76600000Y-28470000D01*
X76720000Y-26230000D02*
X76720000Y-28470000D01*
X80770000Y-27350000D02*
X80120000Y-27350000D01*
X75880000Y-26230000D02*
X80120000Y-26230000D01*
X80120000Y-28470000D01*
X75880000Y-28470000D01*
X75880000Y-26230000D01*
%TO.C,U1*%
D14*
X88230000Y-33629000D02*
X88230000Y-16484000D01*
X90135000Y-35534000D02*
X104105000Y-35534000D01*
X92625000Y-14579000D02*
X92628728Y-13568728D01*
X93128728Y-13069000D02*
X101124000Y-13069000D01*
X101624000Y-13569000D02*
X101624000Y-14579000D01*
D10*
X104105000Y-14579000D02*
X90135000Y-14579000D01*
D14*
X104105000Y-14579000D02*
X90135000Y-14579000D01*
X106010000Y-33629000D02*
X106010000Y-16484000D01*
X88230000Y-16484000D02*
G75*
G02*
X90135000Y-14579000I1905000J0D01*
G01*
X90135000Y-35534000D02*
G75*
G02*
X88230000Y-33629000I1J1905001D01*
G01*
X92628728Y-13568728D02*
G75*
G02*
X93128728Y-13069028I499972J-272D01*
G01*
X101124000Y-13069000D02*
G75*
G02*
X101624000Y-13569000I0J-500000D01*
G01*
X104105000Y-14579000D02*
G75*
G02*
X106010000Y-16484000I0J-1905000D01*
G01*
X106010000Y-33629000D02*
G75*
G02*
X104105000Y-35534000I-1905001J1D01*
G01*
D15*
X88372000Y-14870000D02*
G75*
G02*
X87868000Y-14870000I-252000J0D01*
G01*
X87868000Y-14870000D02*
G75*
G02*
X88372000Y-14870000I252000J0D01*
G01*
X89515000Y-15750000D02*
G75*
G02*
X89011000Y-15750000I-252000J0D01*
G01*
X89011000Y-15750000D02*
G75*
G02*
X89515000Y-15750000I252000J0D01*
G01*
%TO.C,SW6*%
D13*
X89955000Y-57435000D02*
X103925000Y-57435000D01*
X89955000Y-71405000D02*
X89955000Y-57435000D01*
X103925000Y-57435000D02*
X103925000Y-71405000D01*
X103925000Y-71405000D02*
X89955000Y-71405000D01*
%TO.C,SW7*%
X74865000Y-87615000D02*
X88835000Y-87615000D01*
X74865000Y-101585000D02*
X74865000Y-87615000D01*
X88835000Y-87615000D02*
X88835000Y-101585000D01*
X88835000Y-101585000D02*
X74865000Y-101585000D01*
%TO.C,D6*%
X75230000Y-38000000D02*
X75880000Y-38000000D01*
X76480000Y-36880000D02*
X76480000Y-39120000D01*
X76600000Y-36880000D02*
X76600000Y-39120000D01*
X76720000Y-36880000D02*
X76720000Y-39120000D01*
X80770000Y-38000000D02*
X80120000Y-38000000D01*
X75880000Y-36880000D02*
X80120000Y-36880000D01*
X80120000Y-39120000D01*
X75880000Y-39120000D01*
X75880000Y-36880000D01*
%TO.C,SW2*%
X105045000Y-72525000D02*
X119015000Y-72525000D01*
X105045000Y-86495000D02*
X105045000Y-72525000D01*
X119015000Y-72525000D02*
X119015000Y-86495000D01*
X119015000Y-86495000D02*
X105045000Y-86495000D01*
%TO.C,D7*%
X75230000Y-41550000D02*
X75880000Y-41550000D01*
X76480000Y-40430000D02*
X76480000Y-42670000D01*
X76600000Y-40430000D02*
X76600000Y-42670000D01*
X76720000Y-40430000D02*
X76720000Y-42670000D01*
X80770000Y-41550000D02*
X80120000Y-41550000D01*
X75880000Y-40430000D02*
X80120000Y-40430000D01*
X80120000Y-42670000D01*
X75880000Y-42670000D01*
X75880000Y-40430000D01*
%TO.C,BZ1*%
X122100000Y-32500000D02*
G75*
G02*
X109900000Y-32500000I-6100000J0D01*
G01*
X109900000Y-32500000D02*
G75*
G02*
X122100000Y-32500000I6100000J0D01*
G01*
%TO.C,SW5*%
X89955000Y-72525000D02*
X103925000Y-72525000D01*
X89955000Y-86495000D02*
X89955000Y-72525000D01*
X103925000Y-72525000D02*
X103925000Y-86495000D01*
X103925000Y-86495000D02*
X89955000Y-86495000D01*
%TO.C,D9*%
X75230000Y-48650000D02*
X75880000Y-48650000D01*
X76480000Y-47530000D02*
X76480000Y-49770000D01*
X76600000Y-47530000D02*
X76600000Y-49770000D01*
X76720000Y-47530000D02*
X76720000Y-49770000D01*
X80770000Y-48650000D02*
X80120000Y-48650000D01*
X75880000Y-47530000D02*
X80120000Y-47530000D01*
X80120000Y-49770000D01*
X75880000Y-49770000D01*
X75880000Y-47530000D01*
%TO.C,D4*%
X75230000Y-30900000D02*
X75880000Y-30900000D01*
X76480000Y-29780000D02*
X76480000Y-32020000D01*
X76600000Y-29780000D02*
X76600000Y-32020000D01*
X76720000Y-29780000D02*
X76720000Y-32020000D01*
X80770000Y-30900000D02*
X80120000Y-30900000D01*
X75880000Y-29780000D02*
X80120000Y-29780000D01*
X80120000Y-32020000D01*
X75880000Y-32020000D01*
X75880000Y-29780000D01*
%TO.C,D1*%
X75230000Y-20250000D02*
X75880000Y-20250000D01*
X76480000Y-19130000D02*
X76480000Y-21370000D01*
X76600000Y-19130000D02*
X76600000Y-21370000D01*
X76720000Y-19130000D02*
X76720000Y-21370000D01*
X80770000Y-20250000D02*
X80120000Y-20250000D01*
X75880000Y-19130000D02*
X80120000Y-19130000D01*
X80120000Y-21370000D01*
X75880000Y-21370000D01*
X75880000Y-19130000D01*
%TO.C,J1*%
X87090000Y-107170000D02*
X87090000Y-109830000D01*
X104930000Y-107170000D02*
X87090000Y-107170000D01*
X104930000Y-107170000D02*
X104930000Y-109830000D01*
X104930000Y-109830000D02*
X87090000Y-109830000D01*
X107530000Y-108500000D02*
X107530000Y-109830000D01*
X107530000Y-109830000D02*
X106200000Y-109830000D01*
%TO.C,SW1*%
X105045000Y-87615000D02*
X119015000Y-87615000D01*
X105045000Y-101585000D02*
X105045000Y-87615000D01*
X119015000Y-87615000D02*
X119015000Y-101585000D01*
X119015000Y-101585000D02*
X105045000Y-101585000D01*
%TO.C,SW8*%
X74865000Y-72525000D02*
X88835000Y-72525000D01*
X74865000Y-86495000D02*
X74865000Y-72525000D01*
X88835000Y-72525000D02*
X88835000Y-86495000D01*
X88835000Y-86495000D02*
X74865000Y-86495000D01*
%TO.C,SW9*%
X74865000Y-57435000D02*
X88835000Y-57435000D01*
X74865000Y-71405000D02*
X74865000Y-57435000D01*
X88835000Y-57435000D02*
X88835000Y-71405000D01*
X88835000Y-71405000D02*
X74865000Y-71405000D01*
%TO.C,D2*%
X75230000Y-23800000D02*
X75880000Y-23800000D01*
X76480000Y-22680000D02*
X76480000Y-24920000D01*
X76600000Y-22680000D02*
X76600000Y-24920000D01*
X76720000Y-22680000D02*
X76720000Y-24920000D01*
X80770000Y-23800000D02*
X80120000Y-23800000D01*
X75880000Y-22680000D02*
X80120000Y-22680000D01*
X80120000Y-24920000D01*
X75880000Y-24920000D01*
X75880000Y-22680000D01*
%TO.C,D5*%
X75230000Y-34450000D02*
X75880000Y-34450000D01*
X76480000Y-33330000D02*
X76480000Y-35570000D01*
X76600000Y-33330000D02*
X76600000Y-35570000D01*
X76720000Y-33330000D02*
X76720000Y-35570000D01*
X80770000Y-34450000D02*
X80120000Y-34450000D01*
X75880000Y-33330000D02*
X80120000Y-33330000D01*
X80120000Y-35570000D01*
X75880000Y-35570000D01*
X75880000Y-33330000D01*
%TO.C,D8*%
X75230000Y-45100000D02*
X75880000Y-45100000D01*
X76480000Y-43980000D02*
X76480000Y-46220000D01*
X76600000Y-43980000D02*
X76600000Y-46220000D01*
X76720000Y-43980000D02*
X76720000Y-46220000D01*
X80770000Y-45100000D02*
X80120000Y-45100000D01*
X75880000Y-43980000D02*
X80120000Y-43980000D01*
X80120000Y-46220000D01*
X75880000Y-46220000D01*
X75880000Y-43980000D01*
%TO.C,SW4*%
X89955000Y-87615000D02*
X103925000Y-87615000D01*
X89955000Y-101585000D02*
X89955000Y-87615000D01*
X103925000Y-87615000D02*
X103925000Y-101585000D01*
X103925000Y-101585000D02*
X89955000Y-101585000D01*
%TD*%
M02*
