M48
; DRILL file KiCad 10.0.4 date 2026-09-03T20:47:45
; FORMAT={-:-/ absolute / metric / decimal}
; #@! TF.CreationDate,2026-09-03T20:47:45-04:00
; #@! TF.GenerationSoftware,Kicad,Pcbnew,10.0.4
; #@! TF.FileFunction,MixedPlating,1,2
FMAT,2
METRIC
; #@! TA.AperFunction,Plated,PTH,ViaDrill
T1C0.300
; #@! TA.AperFunction,Plated,PTH,ComponentDrill
T2C0.800
; #@! TA.AperFunction,Plated,PTH,ComponentDrill
T3C0.889
; #@! TA.AperFunction,Plated,PTH,ComponentDrill
T4C1.000
; #@! TA.AperFunction,Plated,PTH,ComponentDrill
T5C1.500
; #@! TA.AperFunction,NonPlated,NPTH,ComponentDrill
T6C1.700
; #@! TA.AperFunction,NonPlated,NPTH,ComponentDrill
T7C3.200
; #@! TA.AperFunction,NonPlated,NPTH,ComponentDrill
T8C4.000
%
G90
G05
T1
X86.875Y-55.875
X88.375Y-58.275
X91.875Y-27.675
X91.875Y-53.975
X92.275Y-106.975
X93.975Y-26.475
X99.875Y-110.275
X101.575Y-106.575
X107.675Y-18.575
X108.075Y-20.375
X108.575Y-31.275
X109.775Y-79.675
X110.475Y-33.975
X110.575Y-97.875
T2
X73.89Y-61.525
X73.89Y-80.575
X73.89Y-99.625
X81.51Y-61.525
X81.51Y-80.575
X81.51Y-99.625
X92.94Y-61.525
X92.94Y-80.575
X92.94Y-99.625
X100.56Y-61.525
X100.56Y-80.575
X100.56Y-99.625
X111.99Y-61.525
X111.99Y-80.575
X111.99Y-99.625
X119.61Y-61.525
X119.61Y-80.575
X119.61Y-99.625
T3
X89.5Y-17.5
X89.5Y-20.04
X89.5Y-22.58
X89.5Y-25.12
X89.5Y-27.66
X89.5Y-30.2
X89.5Y-32.74
X104.74Y-17.5
X104.74Y-20.04
X104.74Y-22.58
X104.74Y-25.12
X104.74Y-27.66
X104.74Y-30.2
X104.74Y-32.74
T4
X88.42Y-108.5
X90.96Y-108.5
X93.5Y-108.5
X96.04Y-108.5
X98.58Y-108.5
X101.12Y-108.5
X103.66Y-108.5
X106.2Y-108.5
X112.2Y-32.5
X119.8Y-32.5
T5
X75.16Y-57.08
X75.16Y-76.13
X75.16Y-95.18
X81.51Y-54.54
X81.51Y-73.59
X81.51Y-92.64
X94.21Y-57.08
X94.21Y-76.13
X94.21Y-95.18
X100.56Y-54.54
X100.56Y-73.59
X100.56Y-92.64
X113.26Y-57.08
X113.26Y-76.13
X113.26Y-95.18
X119.61Y-54.54
X119.61Y-73.59
X119.61Y-92.64
T6
X72.62Y-52.0
X72.62Y-71.05
X72.62Y-90.1
X82.78Y-52.0
X82.78Y-71.05
X82.78Y-90.1
X91.67Y-52.0
X91.67Y-71.05
X91.67Y-90.1
X101.83Y-52.0
X101.83Y-71.05
X101.83Y-90.1
X110.72Y-52.0
X110.72Y-71.05
X110.72Y-90.1
X120.88Y-52.0
X120.88Y-71.05
X120.88Y-90.1
T7
X66.0Y-105.5
X68.0Y-20.5
X125.0Y-20.0
X127.5Y-105.5
T8
X77.7Y-52.0
X77.7Y-71.05
X77.7Y-90.1
X96.75Y-52.0
X96.75Y-71.05
X96.75Y-90.1
X115.8Y-52.0
X115.8Y-71.05
X115.8Y-90.1
M30
