%TF.GenerationSoftware,KiCad,Pcbnew,10.0.4*%
%TF.CreationDate,2026-09-03T20:47:45-04:00*%
%TF.ProjectId,kicad_schematic,6b696361-645f-4736-9368-656d61746963,rev?*%
%TF.SameCoordinates,Original*%
%TF.FileFunction,Copper,L2,Bot*%
%TF.FilePolarity,Positive*%
%FSLAX46Y46*%
G04 Gerber Fmt 4.6, Leading zero omitted, Abs format (unit mm)*
G04 Created by KiCad (PCBNEW 10.0.4) date 2026-09-03 20:47:45*
%MOMM*%
%LPD*%
G01*
G04 APERTURE LIST*
G04 Aperture macros list*
%AMRoundRect*
0 Rectangle with rounded corners*
0 $1 Rounding radius*
0 $2 $3 $4 $5 $6 $7 $8 $9 X,Y pos of 4 corners*
0 Add a 4 corners polygon primitive as box body*
4,1,4,$2,$3,$4,$5,$6,$7,$8,$9,$2,$3,0*
0 Add four circle primitives for the rounded corners*
1,1,$1+$1,$2,$3*
1,1,$1+$1,$4,$5*
1,1,$1+$1,$6,$7*
1,1,$1+$1,$8,$9*
0 Add four rect primitives between the rounded corners*
20,1,$1+$1,$2,$3,$4,$5,0*
20,1,$1+$1,$4,$5,$6,$7,0*
20,1,$1+$1,$6,$7,$8,$9,0*
20,1,$1+$1,$8,$9,$2,$3,0*%
G04 Aperture macros list end*
%TA.AperFunction,ComponentPad*%
%ADD10C,2.200000*%
%TD*%
%TA.AperFunction,ComponentPad*%
%ADD11RoundRect,0.250000X-0.550000X-0.550000X0.550000X-0.550000X0.550000X0.550000X-0.550000X0.550000X0*%
%TD*%
%TA.AperFunction,ComponentPad*%
%ADD12C,1.600000*%
%TD*%
%TA.AperFunction,ComponentPad*%
%ADD13R,2.000000X2.000000*%
%TD*%
%TA.AperFunction,ComponentPad*%
%ADD14C,2.000000*%
%TD*%
%TA.AperFunction,ComponentPad*%
%ADD15C,1.524000*%
%TD*%
%TA.AperFunction,SMDPad,CuDef*%
%ADD16RoundRect,0.152400X-1.063600X-0.609600X1.063600X-0.609600X1.063600X0.609600X-1.063600X0.609600X0*%
%TD*%
%TA.AperFunction,SMDPad,CuDef*%
%ADD17RoundRect,0.152400X1.063600X0.609600X-1.063600X0.609600X-1.063600X-0.609600X1.063600X-0.609600X0*%
%TD*%
%TA.AperFunction,ComponentPad*%
%ADD18R,1.700000X1.700000*%
%TD*%
%TA.AperFunction,ComponentPad*%
%ADD19C,1.700000*%
%TD*%
%TA.AperFunction,ViaPad*%
%ADD20C,0.600000*%
%TD*%
%TA.AperFunction,Conductor*%
%ADD21C,0.200000*%
%TD*%
G04 APERTURE END LIST*
D10*
%TO.P,SW3,1,1_1*%
%TO.N,Net-(U1-D9{slash}BOOT)*%
X113259999Y-57080000D03*
%TO.P,SW3,2,2_2*%
%TO.N,Net-(D3-A)*%
X119609999Y-54540000D03*
%TD*%
D11*
%TO.P,D3,1,K_1*%
%TO.N,Net-(D1-K)*%
X111990000Y-61525000D03*
D12*
%TO.P,D3,2,A_2*%
%TO.N,Net-(D3-A)*%
X119610000Y-61525000D03*
%TD*%
D10*
%TO.P,SW6,1,1_1*%
%TO.N,Net-(U1-D9{slash}BOOT)*%
X94210000Y-57080000D03*
%TO.P,SW6,2,2_2*%
%TO.N,Net-(D6-A)*%
X100560000Y-54540000D03*
%TD*%
%TO.P,SW7,1,1_1*%
%TO.N,Net-(U1-D0)*%
X75160000Y-95180000D03*
%TO.P,SW7,2,2_2*%
%TO.N,Net-(D7-A)*%
X81510000Y-92640000D03*
%TD*%
D11*
%TO.P,D6,1,K_1*%
%TO.N,Net-(D4-K)*%
X92940000Y-61525000D03*
D12*
%TO.P,D6,2,A_2*%
%TO.N,Net-(D6-A)*%
X100560000Y-61525000D03*
%TD*%
D10*
%TO.P,SW2,1,1_1*%
%TO.N,Net-(U1-D10)*%
X113259999Y-76130000D03*
%TO.P,SW2,2,2_2*%
%TO.N,Net-(D2-A)*%
X119609999Y-73590000D03*
%TD*%
D11*
%TO.P,D7,1,K_1*%
%TO.N,Net-(D7-K)*%
X73890000Y-99625000D03*
D12*
%TO.P,D7,2,A_2*%
%TO.N,Net-(D7-A)*%
X81510000Y-99625000D03*
%TD*%
D13*
%TO.P,BZ1,1,+_1*%
%TO.N,Net-(BZ1-+)*%
X112200000Y-32500000D03*
D14*
%TO.P,BZ1,2,-_2*%
%TO.N,GND*%
X119800000Y-32500000D03*
%TD*%
D10*
%TO.P,SW5,1,1_1*%
%TO.N,Net-(U1-D10)*%
X94210000Y-76130000D03*
%TO.P,SW5,2,2_2*%
%TO.N,Net-(D5-A)*%
X100560000Y-73590000D03*
%TD*%
D11*
%TO.P,D9,1,K_1*%
%TO.N,Net-(D7-K)*%
X73890000Y-61525000D03*
D12*
%TO.P,D9,2,A_2*%
%TO.N,Net-(D9-A)*%
X81510000Y-61525000D03*
%TD*%
D11*
%TO.P,D4,1,K_1*%
%TO.N,Net-(D4-K)*%
X92940000Y-99625000D03*
D12*
%TO.P,D4,2,A_2*%
%TO.N,Net-(D4-A)*%
X100560000Y-99625000D03*
%TD*%
D11*
%TO.P,D1,1,K_1*%
%TO.N,Net-(D1-K)*%
X111990000Y-99625000D03*
D12*
%TO.P,D1,2,A_2*%
%TO.N,Net-(D1-A)*%
X119610000Y-99625000D03*
%TD*%
D10*
%TO.P,SW1,1,1_1*%
%TO.N,Net-(U1-D0)*%
X113259999Y-95180000D03*
%TO.P,SW1,2,2_2*%
%TO.N,Net-(D1-A)*%
X119609999Y-92640000D03*
%TD*%
%TO.P,SW8,1,1_1*%
%TO.N,Net-(U1-D10)*%
X75160000Y-76130000D03*
%TO.P,SW8,2,2_2*%
%TO.N,Net-(D8-A)*%
X81510000Y-73590000D03*
%TD*%
%TO.P,SW9,1,1_1*%
%TO.N,Net-(U1-D9{slash}BOOT)*%
X75160000Y-57080000D03*
%TO.P,SW9,2,2_2*%
%TO.N,Net-(D9-A)*%
X81510000Y-54540000D03*
%TD*%
D11*
%TO.P,D2,1,K_1*%
%TO.N,Net-(D1-K)*%
X111990000Y-80575000D03*
D12*
%TO.P,D2,2,A_2*%
%TO.N,Net-(D2-A)*%
X119610000Y-80575000D03*
%TD*%
D10*
%TO.P,SW4,1,1_1*%
%TO.N,Net-(U1-D0)*%
X94210000Y-95180000D03*
%TO.P,SW4,2,2_2*%
%TO.N,Net-(D4-A)*%
X100560000Y-92640000D03*
%TD*%
D11*
%TO.P,D5,1,K_1*%
%TO.N,Net-(D4-K)*%
X92940000Y-80575000D03*
D12*
%TO.P,D5,2,A_2*%
%TO.N,Net-(D5-A)*%
X100560000Y-80575000D03*
%TD*%
D11*
%TO.P,D8,1,K_1*%
%TO.N,Net-(D7-K)*%
X73890000Y-80575000D03*
D12*
%TO.P,D8,2,A_2*%
%TO.N,Net-(D8-A)*%
X81510000Y-80575000D03*
%TD*%
D15*
%TO.P,U1,1,D0_1*%
%TO.N,Net-(U1-D0)*%
X104740000Y-17500000D03*
D16*
X105575000Y-17500000D03*
D15*
%TO.P,U1,2,D1_2*%
%TO.N,Net-(J1-Pin_3)*%
X104740000Y-20040000D03*
D16*
X105575000Y-20040000D03*
D15*
%TO.P,U1,3,D2_3*%
%TO.N,Net-(J1-Pin_4)*%
X104740000Y-22580000D03*
D16*
X105575000Y-22580000D03*
D15*
%TO.P,U1,4,D3_4*%
%TO.N,Net-(J1-Pin_6)*%
X104740000Y-25120000D03*
D16*
X105575000Y-25120000D03*
D15*
%TO.P,U1,5,D4_5*%
%TO.N,Net-(J1-Pin_7)*%
X104740000Y-27660000D03*
D16*
X105575000Y-27660000D03*
D15*
%TO.P,U1,6,D5_6*%
%TO.N,Net-(BZ1-+)*%
X104740000Y-30200000D03*
D16*
X105575000Y-30200000D03*
D15*
%TO.P,U1,7,D6_7*%
%TO.N,Net-(D7-K)*%
X104740000Y-32740000D03*
D16*
X105575000Y-32740000D03*
D17*
%TO.P,U1,8,D7_8*%
%TO.N,Net-(D4-K)*%
X88665000Y-32740000D03*
D15*
X89500000Y-32740000D03*
D17*
%TO.P,U1,9,D8_9*%
%TO.N,Net-(D1-K)*%
X88665000Y-30200000D03*
D15*
X89500000Y-30200000D03*
D17*
%TO.P,U1,10,D9/BOOT_10*%
%TO.N,Net-(U1-D9{slash}BOOT)*%
X88665000Y-27660000D03*
D15*
X89500000Y-27660000D03*
D17*
%TO.P,U1,11,D10_11*%
%TO.N,Net-(U1-D10)*%
X88665000Y-25120000D03*
D15*
X89500000Y-25120000D03*
D17*
%TO.P,U1,12,3V3_OUT_12*%
%TO.N,+3.3V*%
X88665000Y-22580000D03*
D15*
X89500000Y-22580000D03*
D17*
%TO.P,U1,13,GND_13*%
%TO.N,GND*%
X88665000Y-20040000D03*
D15*
X89500000Y-20040000D03*
D17*
%TO.P,U1,14,VBUS_14*%
%TO.N,unconnected-(U1-VBUS-Pad14)_1*%
X88665000Y-17500000D03*
D15*
%TO.N,unconnected-(U1-VBUS-Pad14)*%
X89500000Y-17500000D03*
%TD*%
D18*
%TO.P,J1,1,Pin_1_1*%
%TO.N,GND*%
X88420000Y-108500000D03*
D19*
%TO.P,J1,2,Pin_2_2*%
%TO.N,+3.3V*%
X90960000Y-108500000D03*
%TO.P,J1,3,Pin_3_3*%
%TO.N,Net-(J1-Pin_3)*%
X93500000Y-108500000D03*
%TO.P,J1,4,Pin_4_4*%
%TO.N,Net-(J1-Pin_4)*%
X96040000Y-108500000D03*
%TO.P,J1,5,Pin_5_5*%
%TO.N,+3.3V*%
X98580000Y-108500000D03*
%TO.P,J1,6,Pin_6_6*%
%TO.N,Net-(J1-Pin_6)*%
X101120000Y-108500000D03*
%TO.P,J1,7,Pin_7_7*%
%TO.N,Net-(J1-Pin_7)*%
X103660000Y-108500000D03*
%TO.P,J1,8,Pin_8_8*%
%TO.N,GND*%
X106200000Y-108500000D03*
%TD*%
D20*
%TO.N,Net-(U1-D9{slash}BOOT)*%
X91875000Y-27675000D03*
%TO.N,Net-(D1-K)*%
X108075000Y-20375000D03*
X93975000Y-26475000D03*
%TO.N,Net-(U1-D0)*%
X101575000Y-106575000D03*
X110575000Y-97875000D03*
%TO.N,Net-(D4-K)*%
X91875000Y-53975000D03*
%TO.N,Net-(U1-D10)*%
X99875000Y-110275000D03*
X92275000Y-106975000D03*
X109775000Y-79675000D03*
X88375000Y-58275000D03*
%TO.N,Net-(D7-K)*%
X107675000Y-18575000D03*
X110475000Y-33975000D03*
%TO.N,GND*%
X86875000Y-55875000D03*
%TO.N,Net-(J1-Pin_7)*%
X108575000Y-31275000D03*
%TD*%
%TO.N,Net-(U1-D9{slash}BOOT)*%
D21*
X91875000Y-27675000D02*
X88675000Y-27675000D01*
X94175000Y-57075000D02*
X75175000Y-57075000D01*
%TO.N,Net-(D1-K)*%
X109475000Y-52375000D02*
X109475000Y-50975000D01*
X92075000Y-28275000D02*
X91975000Y-28375000D01*
X90475000Y-28375000D02*
X88675000Y-30175000D01*
X91975000Y-28375000D02*
X90475000Y-28375000D01*
X111775000Y-54875000D02*
X109675000Y-52775000D01*
X109575000Y-52575000D02*
X109575000Y-52475000D01*
X108075000Y-29875000D02*
X108075000Y-20375000D01*
X92175000Y-28275000D02*
X92075000Y-28275000D01*
X109275000Y-50775000D02*
X109275000Y-31175000D01*
X111875000Y-57475000D02*
X111775000Y-57375000D01*
X109675000Y-52675000D02*
X109575000Y-52575000D01*
X109575000Y-52475000D02*
X109475000Y-52375000D01*
X111775000Y-57375000D02*
X111775000Y-54875000D01*
X93975000Y-26475000D02*
X92175000Y-28275000D01*
X109175000Y-31075000D02*
X109175000Y-30975000D01*
X111975000Y-57775000D02*
X111875000Y-57675000D01*
X111975000Y-61475000D02*
X111975000Y-57775000D01*
X89075000Y-29775000D02*
X89475000Y-30175000D01*
X109175000Y-30975000D02*
X108075000Y-29875000D01*
X109275000Y-31175000D02*
X109175000Y-31075000D01*
X111875000Y-57675000D02*
X111875000Y-57475000D01*
X109675000Y-52775000D02*
X109675000Y-52675000D01*
X109475000Y-50975000D02*
X109275000Y-50775000D01*
%TO.N,Net-(U1-D0)*%
X101975000Y-54775000D02*
X102075000Y-54675000D01*
X103075000Y-52375000D02*
X103075000Y-19175000D01*
X94875000Y-108775000D02*
X94875000Y-108975000D01*
X102075000Y-54675000D02*
X102075000Y-53575000D01*
X95575000Y-76775000D02*
X95575000Y-76575000D01*
X101875000Y-55275000D02*
X101875000Y-55175000D01*
X94375000Y-80875000D02*
X94475000Y-80774999D01*
X98675000Y-109775000D02*
X98775000Y-109675000D01*
X95375000Y-76975000D02*
X95575000Y-76775000D01*
X95575000Y-109675000D02*
X95875000Y-109675000D01*
X104775000Y-17475000D02*
X105575000Y-17475000D01*
X94775000Y-108675000D02*
X94875000Y-108775000D01*
X110575000Y-97875000D02*
X113275000Y-95175000D01*
X95675000Y-75575000D02*
X98675000Y-72575000D01*
X99175000Y-71475000D02*
X99175000Y-57975000D01*
X94375000Y-81075000D02*
X94375000Y-80875000D01*
X99675000Y-109075000D02*
X99675000Y-108975000D01*
X100575000Y-107375000D02*
X100675000Y-107375000D01*
X98875000Y-72175000D02*
X98975000Y-72075000D01*
X95375000Y-109475000D02*
X95575000Y-109675000D01*
X101875000Y-55175000D02*
X101975000Y-55075000D01*
X94275000Y-81274999D02*
X94275000Y-81175000D01*
X102975000Y-52575000D02*
X102975000Y-52475000D01*
X81875000Y-95175000D02*
X94775000Y-108075000D01*
X94775000Y-108075000D02*
X94775000Y-108675000D01*
X100775000Y-107275000D02*
X100875000Y-107275000D01*
X95975000Y-109775000D02*
X98675000Y-109775000D01*
X95375000Y-77075000D02*
X95375000Y-76975000D01*
X103075000Y-19175000D02*
X104775000Y-17475000D01*
X94275000Y-81175000D02*
X94375000Y-81075000D01*
X95875000Y-109675000D02*
X95975000Y-109775000D01*
X95575000Y-76575000D02*
X95675000Y-76475000D01*
X95275000Y-109475000D02*
X95375000Y-109475000D01*
X99075000Y-71875000D02*
X99075000Y-71575000D01*
X99075000Y-109575000D02*
X99175000Y-109575000D01*
X98775000Y-109675000D02*
X98975000Y-109675000D01*
X99975000Y-108175000D02*
X99975000Y-107975000D01*
X102875000Y-52775000D02*
X102875000Y-52675000D01*
X94975000Y-109175000D02*
X95275000Y-109475000D01*
X98975000Y-72075000D02*
X98975000Y-71975000D01*
X98675000Y-72575000D02*
X98675000Y-72475000D01*
X87975000Y-101275000D02*
X88075000Y-101275000D01*
X102975000Y-52475000D02*
X103075000Y-52375000D01*
X102875000Y-52675000D02*
X102975000Y-52575000D01*
X99875000Y-108575000D02*
X99875000Y-108275000D01*
X98875000Y-72275000D02*
X98875000Y-72175000D01*
X75175000Y-95175000D02*
X81875000Y-95175000D01*
X99975000Y-107975000D02*
X100575000Y-107375000D01*
X94175000Y-81375000D02*
X94275000Y-81274999D01*
X99775000Y-108675000D02*
X99875000Y-108575000D01*
X99775000Y-108875000D02*
X99775000Y-108675000D01*
X88075000Y-101275000D02*
X94175000Y-95175000D01*
X94175000Y-95175000D02*
X94175000Y-81375000D01*
X99175000Y-109575000D02*
X99675000Y-109075000D01*
X100675000Y-107375000D02*
X100775000Y-107275000D01*
X98675000Y-72475000D02*
X98875000Y-72275000D01*
X99075000Y-71575000D02*
X99175000Y-71475000D01*
X98975000Y-109675000D02*
X99075000Y-109575000D01*
X94875000Y-108975000D02*
X94975000Y-109075000D01*
X94475000Y-77975000D02*
X95375000Y-77075000D01*
X102075000Y-53575000D02*
X102875000Y-52775000D01*
X101975000Y-55075000D02*
X101975000Y-54775000D01*
X94475000Y-80774999D02*
X94475000Y-77975000D01*
X99875000Y-108275000D02*
X99975000Y-108175000D01*
X100875000Y-107275000D02*
X101575000Y-106575000D01*
X95675000Y-76475000D02*
X95675000Y-75575000D01*
X99175000Y-57975000D02*
X101875000Y-55275000D01*
X98975000Y-71975000D02*
X99075000Y-71875000D01*
X94975000Y-109075000D02*
X94975000Y-109175000D01*
X99675000Y-108975000D02*
X99775000Y-108875000D01*
%TO.N,Net-(D4-K)*%
X90475000Y-52375000D02*
X90375000Y-52275000D01*
X89075000Y-33174999D02*
X89475000Y-32775000D01*
X90575000Y-52675000D02*
X90575000Y-52575000D01*
X90375000Y-34475000D02*
X88675000Y-32775000D01*
X90375000Y-52275000D02*
X90375000Y-34475000D01*
X91875000Y-53975000D02*
X90575000Y-52675000D01*
X90575000Y-52575000D02*
X90475000Y-52475000D01*
X90475000Y-52475000D02*
X90475000Y-52375000D01*
%TO.N,Net-(U1-D10)*%
X88375000Y-76175000D02*
X88375000Y-58275000D01*
X92875000Y-109575000D02*
X92375000Y-109075000D01*
X99875000Y-110275000D02*
X95875000Y-110275000D01*
X95775000Y-110175000D02*
X95475000Y-110175000D01*
X94875000Y-109775000D02*
X93475000Y-109775000D01*
X92375000Y-108875000D02*
X92275000Y-108775000D01*
X95475000Y-110175000D02*
X95375000Y-110075000D01*
X95375000Y-110075000D02*
X95275000Y-110075000D01*
X94975000Y-109875000D02*
X94875000Y-109775000D01*
X95875000Y-110275000D02*
X95775000Y-110175000D01*
X92275000Y-108775000D02*
X92275000Y-106975000D01*
X95075000Y-109875000D02*
X94975000Y-109875000D01*
X95275000Y-110075000D02*
X95075000Y-109875000D01*
X93375000Y-109675000D02*
X93075000Y-109675000D01*
X113275000Y-76175000D02*
X109775000Y-79675000D01*
X92975000Y-109575000D02*
X92875000Y-109575000D01*
X94175000Y-76175000D02*
X75175000Y-76175000D01*
X93475000Y-109775000D02*
X93375000Y-109675000D01*
X93075000Y-109675000D02*
X92975000Y-109575000D01*
X92375000Y-109075000D02*
X92375000Y-108875000D01*
%TO.N,Net-(D7-K)*%
X109675000Y-30975000D02*
X109775000Y-31075000D01*
X109775000Y-31075000D02*
X109775000Y-33275000D01*
X108675000Y-20075000D02*
X108675000Y-20175000D01*
X109575000Y-30675000D02*
X109575000Y-30775000D01*
X109775000Y-33275000D02*
X110475000Y-33975000D01*
X109575000Y-30775000D02*
X109675000Y-30875000D01*
X108775000Y-20275000D02*
X108775000Y-29875000D01*
X107675000Y-18575000D02*
X107675000Y-19075000D01*
X107675000Y-19075000D02*
X108675000Y-20075000D01*
X109675000Y-30875000D02*
X109675000Y-30975000D01*
X108775000Y-29875000D02*
X109575000Y-30675000D01*
X108675000Y-20175000D02*
X108775000Y-20275000D01*
%TO.N,GND*%
X87075000Y-21775000D02*
X86975000Y-21875000D01*
X113775000Y-69675000D02*
X113775000Y-69775000D01*
X111875000Y-75575000D02*
X111875000Y-75675000D01*
X86975000Y-21875000D02*
X86975000Y-21975000D01*
X113375000Y-70575000D02*
X113375000Y-73975000D01*
X108375000Y-19075000D02*
X108375000Y-18475000D01*
X105875000Y-15674999D02*
X93075000Y-15674999D01*
X111975000Y-75375000D02*
X111975000Y-75475000D01*
X118275000Y-53875000D02*
X118275000Y-53975000D01*
X107175000Y-16575000D02*
X106575000Y-15975000D01*
X107375000Y-17075000D02*
X107275000Y-16975000D01*
X119575000Y-52475000D02*
X118375000Y-53675000D01*
X106475000Y-15975000D02*
X106375000Y-15875000D01*
X119575000Y-51775000D02*
X119575000Y-52475000D01*
X89075000Y-19675000D02*
X89475000Y-20075000D01*
X108375000Y-18475000D02*
X108275000Y-18375000D01*
X109075000Y-19775000D02*
X108375000Y-19075000D01*
X88675000Y-20075000D02*
X87075000Y-21675000D01*
X109075000Y-105575000D02*
X106175000Y-108475000D01*
X113475000Y-70275000D02*
X113475000Y-70475000D01*
X119775000Y-32475000D02*
X109275000Y-21975000D01*
X106275000Y-15875000D02*
X106175000Y-15775000D01*
X113575000Y-70075000D02*
X113575000Y-70175000D01*
X108275000Y-18275000D02*
X107375000Y-17375000D01*
X118375000Y-53675000D02*
X118375000Y-53775000D01*
X119775000Y-51375000D02*
X119675000Y-51475000D01*
X109175000Y-79375000D02*
X109175000Y-79475000D01*
X109175000Y-79475000D02*
X109075000Y-79575000D01*
X111775000Y-75775000D02*
X111775000Y-76775000D01*
X111775000Y-76775000D02*
X109175000Y-79375000D01*
X113475000Y-70475000D02*
X113375000Y-70575000D01*
X118375000Y-53775000D02*
X118275000Y-53875000D01*
X108275000Y-18375000D02*
X108275000Y-18275000D01*
X118275000Y-53975000D02*
X118175000Y-54075000D01*
X107175000Y-16675000D02*
X107175000Y-16575000D01*
X106575000Y-15975000D02*
X106475000Y-15975000D01*
X109175000Y-20075000D02*
X109175000Y-19975000D01*
X105975000Y-15775000D02*
X105875000Y-15674999D01*
X111875000Y-75675000D02*
X111775000Y-75775000D01*
X113375000Y-73975000D02*
X111975000Y-75375000D01*
X109075000Y-79575000D02*
X109075000Y-105575000D01*
X87075000Y-21675000D02*
X87075000Y-21775000D01*
X86875000Y-22075000D02*
X86875000Y-55875000D01*
X86975000Y-21975000D02*
X86875000Y-22075000D01*
X107375000Y-17375000D02*
X107375000Y-17075000D01*
X118175000Y-54075000D02*
X118175000Y-65275000D01*
X106175000Y-15775000D02*
X105975000Y-15775000D01*
X93075000Y-15674999D02*
X88675000Y-20075000D01*
X119775000Y-32475000D02*
X119775000Y-51375000D01*
X111975000Y-75475000D02*
X111875000Y-75575000D01*
X109175000Y-19975000D02*
X109075000Y-19875000D01*
X109275000Y-20175000D02*
X109175000Y-20075000D01*
X107275000Y-16975000D02*
X107275000Y-16774999D01*
X118175000Y-65275000D02*
X113775000Y-69675000D01*
X113675000Y-69875000D02*
X113675000Y-69975000D01*
X109275000Y-21975000D02*
X109275000Y-20175000D01*
X119675000Y-51675000D02*
X119575000Y-51775000D01*
X109075000Y-19875000D02*
X109075000Y-19775000D01*
X113575000Y-70175000D02*
X113475000Y-70275000D01*
X113775000Y-69775000D02*
X113675000Y-69875000D01*
X106375000Y-15875000D02*
X106275000Y-15875000D01*
X113675000Y-69975000D02*
X113575000Y-70075000D01*
X119675000Y-51475000D02*
X119675000Y-51675000D01*
X107275000Y-16774999D02*
X107175000Y-16675000D01*
%TO.N,Net-(J1-Pin_4)*%
X103775000Y-24475000D02*
X103775000Y-24575000D01*
X103675000Y-24875000D02*
X103575000Y-24975000D01*
X104075000Y-24075000D02*
X104075000Y-24175000D01*
X103775000Y-24575000D02*
X103675000Y-24675000D01*
X103575000Y-100975000D02*
X96075000Y-108475000D01*
X104775000Y-23375000D02*
X104075000Y-24075000D01*
X103575000Y-24975000D02*
X103575000Y-100975000D01*
X103675000Y-24675000D02*
X103675000Y-24875000D01*
X104075000Y-24175000D02*
X103775000Y-24475000D01*
X104775000Y-22575000D02*
X104775000Y-23375000D01*
%TO.N,Net-(J1-Pin_6)*%
X107175000Y-26775000D02*
X107175000Y-26875000D01*
X107275000Y-26975000D02*
X107275000Y-27175000D01*
X106975000Y-26575000D02*
X107175000Y-26775000D01*
X105575000Y-25075000D02*
X106975000Y-26475000D01*
X107175000Y-26875000D02*
X107275000Y-26975000D01*
X107375000Y-27275000D02*
X107375000Y-102175000D01*
X107375000Y-102175000D02*
X101075000Y-108475000D01*
X106975000Y-26475000D02*
X106975000Y-26575000D01*
X107275000Y-27175000D02*
X107375000Y-27275000D01*
%TO.N,Net-(J1-Pin_7)*%
X108575000Y-103575000D02*
X103675000Y-108475000D01*
X108575000Y-31275000D02*
X108575000Y-103575000D01*
%TD*%
M02*
