%TF.GenerationSoftware,KiCad,Pcbnew,10.0.4*%
%TF.CreationDate,2026-09-03T20:47:45-04:00*%
%TF.ProjectId,kicad_schematic,6b696361-645f-4736-9368-656d61746963,rev?*%
%TF.SameCoordinates,Original*%
%TF.FileFunction,Legend,Bot*%
%TF.FilePolarity,Positive*%
%FSLAX46Y46*%
G04 Gerber Fmt 4.6, Leading zero omitted, Abs format (unit mm)*
G04 Created by KiCad (PCBNEW 10.0.4) date 2026-09-03 20:47:45*
%MOMM*%
%LPD*%
G01*
G04 APERTURE LIST*
%ADD10C,0.101600*%
%ADD11C,0.150000*%
%ADD12C,0.127000*%
%ADD13C,0.100000*%
%ADD14C,0.504000*%
%ADD15C,0.120000*%
G04 APERTURE END LIST*
D10*
X107741520Y-25878809D02*
X107227473Y-25878809D01*
X107227473Y-25878809D02*
X107166997Y-25848571D01*
X107166997Y-25848571D02*
X107136759Y-25818333D01*
X107136759Y-25818333D02*
X107106520Y-25757857D01*
X107106520Y-25757857D02*
X107106520Y-25636904D01*
X107106520Y-25636904D02*
X107136759Y-25576428D01*
X107136759Y-25576428D02*
X107166997Y-25546190D01*
X107166997Y-25546190D02*
X107227473Y-25515952D01*
X107227473Y-25515952D02*
X107741520Y-25515952D01*
X107106520Y-24880952D02*
X107106520Y-25243809D01*
X107106520Y-25062381D02*
X107741520Y-25062381D01*
X107741520Y-25062381D02*
X107650806Y-25122857D01*
X107650806Y-25122857D02*
X107590330Y-25183333D01*
X107590330Y-25183333D02*
X107560092Y-25243809D01*
D11*
X85104819Y-108166666D02*
X85819104Y-108166666D01*
X85819104Y-108166666D02*
X85961961Y-108119047D01*
X85961961Y-108119047D02*
X86057200Y-108023809D01*
X86057200Y-108023809D02*
X86104819Y-107880952D01*
X86104819Y-107880952D02*
X86104819Y-107785714D01*
X86104819Y-109166666D02*
X86104819Y-108595238D01*
X86104819Y-108880952D02*
X85104819Y-108880952D01*
X85104819Y-108880952D02*
X85247676Y-108785714D01*
X85247676Y-108785714D02*
X85342914Y-108690476D01*
X85342914Y-108690476D02*
X85390533Y-108595238D01*
%TO.C,U1*%
D12*
X88230000Y-33629000D02*
X88230000Y-16484000D01*
D13*
X90135000Y-14579000D02*
X104105000Y-14579000D01*
D12*
X90135000Y-14579000D02*
X104105000Y-14579000D01*
X92616000Y-13569000D02*
X92616000Y-14579000D01*
X101111272Y-13069000D02*
X93116000Y-13069000D01*
X101615000Y-14579000D02*
X101611272Y-13568728D01*
X104105000Y-35534000D02*
X90135000Y-35534000D01*
X106010000Y-33629000D02*
X106010000Y-16484000D01*
X88230000Y-16484000D02*
G75*
G02*
X90135000Y-14579000I1905000J0D01*
G01*
X90135000Y-35534000D02*
G75*
G02*
X88230000Y-33629000I1J1905001D01*
G01*
X92616000Y-13569000D02*
G75*
G02*
X93116000Y-13069000I500000J0D01*
G01*
X101111272Y-13069000D02*
G75*
G02*
X101611300Y-13568728I28J-500000D01*
G01*
X104105000Y-14579000D02*
G75*
G02*
X106010000Y-16484000I0J-1905000D01*
G01*
X106010000Y-33629000D02*
G75*
G02*
X104105000Y-35534000I-1905001J1D01*
G01*
D14*
X105229000Y-15750000D02*
G75*
G02*
X104725000Y-15750000I-252000J0D01*
G01*
X104725000Y-15750000D02*
G75*
G02*
X105229000Y-15750000I252000J0D01*
G01*
X106372000Y-14870000D02*
G75*
G02*
X105868000Y-14870000I-252000J0D01*
G01*
X105868000Y-14870000D02*
G75*
G02*
X106372000Y-14870000I252000J0D01*
G01*
%TO.C,J1*%
D15*
X87090000Y-108500000D02*
X87090000Y-109830000D01*
X87090000Y-109830000D02*
X88420000Y-109830000D01*
X89690000Y-107170000D02*
X89690000Y-109830000D01*
X89690000Y-107170000D02*
X107530000Y-107170000D01*
X89690000Y-109830000D02*
X107530000Y-109830000D01*
X107530000Y-107170000D02*
X107530000Y-109830000D01*
%TD*%
M02*
