%TF.GenerationSoftware,KiCad,Pcbnew,10.0.4*%
%TF.CreationDate,2026-08-28T18:10:48-04:00*%
%TF.ProjectId,kicad_schematic,6b696361-645f-4736-9368-656d61746963,rev?*%
%TF.SameCoordinates,Original*%
%TF.FileFunction,Copper,L1,Top*%
%TF.FilePolarity,Positive*%
%FSLAX46Y46*%
G04 Gerber Fmt 4.6, Leading zero omitted, Abs format (unit mm)*
G04 Created by KiCad (PCBNEW 10.0.4) date 2026-08-28 18:10:48*
%MOMM*%
%LPD*%
G01*
G04 APERTURE LIST*
G04 Aperture macros list*
%AMRoundRect*
0 Rectangle with rounded corners*
0 $1 Rounding radius*
0 $2 $3 $4 $5 $6 $7 $8 $9 X,Y pos of 4 corners*
0 Add a 4 corners polygon primitive as box body*
4,1,4,$2,$3,$4,$5,$6,$7,$8,$9,$2,$3,0*
0 Add four circle primitives for the rounded corners*
1,1,$1+$1,$2,$3*
1,1,$1+$1,$4,$5*
1,1,$1+$1,$6,$7*
1,1,$1+$1,$8,$9*
0 Add four rect primitives between the rounded corners*
20,1,$1+$1,$2,$3,$4,$5,0*
20,1,$1+$1,$4,$5,$6,$7,0*
20,1,$1+$1,$6,$7,$8,$9,0*
20,1,$1+$1,$8,$9,$2,$3,0*%
G04 Aperture macros list end*
%TA.AperFunction,ComponentPad*%
%ADD10C,2.200000*%
%TD*%
%TA.AperFunction,ComponentPad*%
%ADD11RoundRect,0.250000X-0.550000X-0.550000X0.550000X-0.550000X0.550000X0.550000X-0.550000X0.550000X0*%
%TD*%
%TA.AperFunction,ComponentPad*%
%ADD12C,1.600000*%
%TD*%
%TA.AperFunction,SMDPad,CuDef*%
%ADD13RoundRect,0.152400X1.063600X0.609600X-1.063600X0.609600X-1.063600X-0.609600X1.063600X-0.609600X0*%
%TD*%
%TA.AperFunction,ComponentPad*%
%ADD14C,1.524000*%
%TD*%
%TA.AperFunction,SMDPad,CuDef*%
%ADD15RoundRect,0.152400X-1.063600X-0.609600X1.063600X-0.609600X1.063600X0.609600X-1.063600X0.609600X0*%
%TD*%
%TA.AperFunction,ComponentPad*%
%ADD16R,2.000000X2.000000*%
%TD*%
%TA.AperFunction,ComponentPad*%
%ADD17C,2.000000*%
%TD*%
%TA.AperFunction,ComponentPad*%
%ADD18R,1.700000X1.700000*%
%TD*%
%TA.AperFunction,ComponentPad*%
%ADD19C,1.700000*%
%TD*%
%TA.AperFunction,ViaPad*%
%ADD20C,0.600000*%
%TD*%
%TA.AperFunction,Conductor*%
%ADD21C,0.200000*%
%TD*%
G04 APERTURE END LIST*
D10*
%TO.P,SW3,1,1_1*%
%TO.N,Net-(U1-D9{slash}BOOT)*%
X109490000Y-69500000D03*
%TO.P,SW3,2,2_2*%
%TO.N,Net-(D3-A)*%
X115840000Y-66960000D03*
%TD*%
D11*
%TO.P,D3,1,K_1*%
%TO.N,Net-(D1-K)*%
X74190000Y-27350000D03*
D12*
%TO.P,D3,2,A_2*%
%TO.N,Net-(D3-A)*%
X81810000Y-27350000D03*
%TD*%
D13*
%TO.P,U1,1,D0_1*%
%TO.N,Net-(U1-D0)*%
X88665000Y-17500000D03*
D14*
X89500000Y-17500000D03*
D13*
%TO.P,U1,2,D1_2*%
%TO.N,Net-(J1-Pin_3)*%
X88665000Y-20040000D03*
D14*
X89500000Y-20040000D03*
D13*
%TO.P,U1,3,D2_3*%
%TO.N,Net-(J1-Pin_4)*%
X88665000Y-22580000D03*
D14*
X89500000Y-22580000D03*
D13*
%TO.P,U1,4,D3_4*%
%TO.N,Net-(J1-Pin_6)*%
X88665000Y-25120000D03*
D14*
X89500000Y-25120000D03*
D13*
%TO.P,U1,5,D4_5*%
%TO.N,Net-(J1-Pin_7)*%
X88665000Y-27660000D03*
D14*
X89500000Y-27660000D03*
D13*
%TO.P,U1,6,D5_6*%
%TO.N,Net-(BZ1-+)*%
X88665000Y-30200000D03*
D14*
X89500000Y-30200000D03*
D13*
%TO.P,U1,7,D6_7*%
%TO.N,Net-(D7-K)*%
X88665000Y-32740000D03*
D14*
X89500000Y-32740000D03*
%TO.P,U1,8,D7_8*%
%TO.N,Net-(D4-K)*%
X104740000Y-32740000D03*
D15*
X105575000Y-32740000D03*
D14*
%TO.P,U1,9,D8_9*%
%TO.N,Net-(D1-K)*%
X104740000Y-30200000D03*
D15*
X105575000Y-30200000D03*
D14*
%TO.P,U1,10,D9/BOOT_10*%
%TO.N,Net-(U1-D9{slash}BOOT)*%
X104740000Y-27660000D03*
D15*
X105575000Y-27660000D03*
D14*
%TO.P,U1,11,D10_11*%
%TO.N,Net-(U1-D10)*%
X104740000Y-25120000D03*
D15*
X105575000Y-25120000D03*
D14*
%TO.P,U1,12,3V3_OUT_12*%
%TO.N,+3.3V*%
X104740000Y-22580000D03*
D15*
X105575000Y-22580000D03*
D14*
%TO.P,U1,13,GND_13*%
%TO.N,GND*%
X104740000Y-20040000D03*
D15*
X105575000Y-20040000D03*
D14*
%TO.P,U1,14,VBUS_14*%
%TO.N,unconnected-(U1-VBUS-Pad14)*%
X104740000Y-17500000D03*
D15*
%TO.N,unconnected-(U1-VBUS-Pad14)_1*%
X105575000Y-17500000D03*
%TD*%
D10*
%TO.P,SW6,1,1_1*%
%TO.N,Net-(U1-D9{slash}BOOT)*%
X94400000Y-69500000D03*
%TO.P,SW6,2,2_2*%
%TO.N,Net-(D6-A)*%
X100750000Y-66960000D03*
%TD*%
%TO.P,SW7,1,1_1*%
%TO.N,Net-(U1-D0)*%
X79310000Y-99680000D03*
%TO.P,SW7,2,2_2*%
%TO.N,Net-(D7-A)*%
X85660000Y-97140000D03*
%TD*%
D11*
%TO.P,D6,1,K_1*%
%TO.N,Net-(D4-K)*%
X74190000Y-38000000D03*
D12*
%TO.P,D6,2,A_2*%
%TO.N,Net-(D6-A)*%
X81810000Y-38000000D03*
%TD*%
D10*
%TO.P,SW2,1,1_1*%
%TO.N,Net-(U1-D10)*%
X109490000Y-84590000D03*
%TO.P,SW2,2,2_2*%
%TO.N,Net-(D2-A)*%
X115840000Y-82050000D03*
%TD*%
D11*
%TO.P,D7,1,K_1*%
%TO.N,Net-(D7-K)*%
X74190000Y-41550000D03*
D12*
%TO.P,D7,2,A_2*%
%TO.N,Net-(D7-A)*%
X81810000Y-41550000D03*
%TD*%
D16*
%TO.P,BZ1,1,+_1*%
%TO.N,Net-(BZ1-+)*%
X112200000Y-32500000D03*
D17*
%TO.P,BZ1,2,-_2*%
%TO.N,GND*%
X119800000Y-32500000D03*
%TD*%
D10*
%TO.P,SW5,1,1_1*%
%TO.N,Net-(U1-D10)*%
X94400000Y-84590000D03*
%TO.P,SW5,2,2_2*%
%TO.N,Net-(D5-A)*%
X100750000Y-82050000D03*
%TD*%
D11*
%TO.P,D9,1,K_1*%
%TO.N,Net-(D7-K)*%
X74190000Y-48650000D03*
D12*
%TO.P,D9,2,A_2*%
%TO.N,Net-(D9-A)*%
X81810000Y-48650000D03*
%TD*%
D11*
%TO.P,D4,1,K_1*%
%TO.N,Net-(D4-K)*%
X74190000Y-30900000D03*
D12*
%TO.P,D4,2,A_2*%
%TO.N,Net-(D4-A)*%
X81810000Y-30900000D03*
%TD*%
D11*
%TO.P,D1,1,K_1*%
%TO.N,Net-(D1-K)*%
X74190000Y-20250000D03*
D12*
%TO.P,D1,2,A_2*%
%TO.N,Net-(D1-A)*%
X81810000Y-20250000D03*
%TD*%
D18*
%TO.P,J1,1,Pin_1_1*%
%TO.N,GND*%
X106200000Y-108500000D03*
D19*
%TO.P,J1,2,Pin_2_2*%
%TO.N,+3.3V*%
X103660000Y-108500000D03*
%TO.P,J1,3,Pin_3_3*%
%TO.N,Net-(J1-Pin_3)*%
X101120000Y-108500000D03*
%TO.P,J1,4,Pin_4_4*%
%TO.N,Net-(J1-Pin_4)*%
X98580000Y-108500000D03*
%TO.P,J1,5,Pin_5_5*%
%TO.N,+3.3V*%
X96040000Y-108500000D03*
%TO.P,J1,6,Pin_6_6*%
%TO.N,Net-(J1-Pin_6)*%
X93500000Y-108500000D03*
%TO.P,J1,7,Pin_7_7*%
%TO.N,Net-(J1-Pin_7)*%
X90960000Y-108500000D03*
%TO.P,J1,8,Pin_8_8*%
%TO.N,GND*%
X88420000Y-108500000D03*
%TD*%
D10*
%TO.P,SW1,1,1_1*%
%TO.N,Net-(U1-D0)*%
X109490000Y-99680000D03*
%TO.P,SW1,2,2_2*%
%TO.N,Net-(D1-A)*%
X115840000Y-97140000D03*
%TD*%
%TO.P,SW8,1,1_1*%
%TO.N,Net-(U1-D10)*%
X79310000Y-84590000D03*
%TO.P,SW8,2,2_2*%
%TO.N,Net-(D8-A)*%
X85660000Y-82050000D03*
%TD*%
%TO.P,SW9,1,1_1*%
%TO.N,Net-(U1-D9{slash}BOOT)*%
X79310000Y-69500000D03*
%TO.P,SW9,2,2_2*%
%TO.N,Net-(D9-A)*%
X85660000Y-66960000D03*
%TD*%
D11*
%TO.P,D2,1,K_1*%
%TO.N,Net-(D1-K)*%
X74190000Y-23800000D03*
D12*
%TO.P,D2,2,A_2*%
%TO.N,Net-(D2-A)*%
X81810000Y-23800000D03*
%TD*%
D11*
%TO.P,D5,1,K_1*%
%TO.N,Net-(D4-K)*%
X74190000Y-34450000D03*
D12*
%TO.P,D5,2,A_2*%
%TO.N,Net-(D5-A)*%
X81810000Y-34450000D03*
%TD*%
D11*
%TO.P,D8,1,K_1*%
%TO.N,Net-(D7-K)*%
X74190000Y-45100000D03*
D12*
%TO.P,D8,2,A_2*%
%TO.N,Net-(D8-A)*%
X81810000Y-45100000D03*
%TD*%
D10*
%TO.P,SW4,1,1_1*%
%TO.N,Net-(U1-D0)*%
X94400000Y-99680000D03*
%TO.P,SW4,2,2_2*%
%TO.N,Net-(D4-A)*%
X100750000Y-97140000D03*
%TD*%
D20*
%TO.N,Net-(D7-A)*%
X82000000Y-68000000D03*
X80500000Y-62000000D03*
%TO.N,Net-(U1-D10)*%
X104730000Y-62500000D03*
X102500000Y-54000000D03*
X97000000Y-50500000D03*
X94000000Y-31000000D03*
%TO.N,Net-(U1-D0)*%
X97500000Y-100500000D03*
%TO.N,Net-(U1-D9{slash}BOOT)*%
X101350000Y-61388426D03*
%TO.N,Net-(D3-A)*%
X108000000Y-24000000D03*
%TO.N,Net-(U1-D0)*%
X94400000Y-99680000D03*
%TO.N,Net-(J1-Pin_6)*%
X117490000Y-96500000D03*
%TO.N,Net-(J1-Pin_7)*%
X87500000Y-46500000D03*
%TO.N,Net-(U1-D9{slash}BOOT)*%
X98490000Y-61000000D03*
%TO.N,Net-(U1-D10)*%
X97192793Y-82297207D03*
X104730000Y-86995000D03*
%TO.N,Net-(U1-D0)*%
X94400000Y-99680000D03*
%TO.N,Net-(J1-Pin_4)*%
X89500000Y-22580000D03*
%TO.N,Net-(J1-Pin_3)*%
X101120000Y-108500000D03*
%TO.N,+3.3V*%
X96040000Y-108500000D03*
%TO.N,Net-(BZ1-+)*%
X89500000Y-30200000D03*
%TO.N,GND*%
X106200000Y-108500000D03*
%TO.N,Net-(D9-A)*%
X81810000Y-48650000D03*
%TD*%
%TO.N,Net-(D7-A)*%
D21*
X81710101Y-67710101D02*
X80359899Y-67710101D01*
X82000000Y-68000000D02*
X81710101Y-67710101D01*
X80410025Y-61910025D02*
X80500000Y-62000000D01*
X80410025Y-43350000D02*
X80410025Y-61910025D01*
X81810000Y-41550000D02*
X80010000Y-43350000D01*
%TO.N,Net-(D2-A)*%
X80710000Y-22700000D02*
X81810000Y-23800000D01*
X80710000Y-19794365D02*
X80710000Y-22700000D01*
X81354365Y-19150000D02*
X80710000Y-19794365D01*
X82265635Y-19150000D02*
X81354365Y-19150000D01*
X85900000Y-22784365D02*
X82265635Y-19150000D01*
X100820000Y-64863528D02*
X85900000Y-49943528D01*
X100820000Y-65320000D02*
X100820000Y-64863528D01*
X101576472Y-65620000D02*
X101389899Y-65620000D01*
X115383528Y-79427056D02*
X101576472Y-65620000D01*
X115500000Y-79427056D02*
X115383528Y-79427056D01*
X85900000Y-49943528D02*
X85900000Y-22784365D01*
X101389899Y-65620000D02*
X101329899Y-65560000D01*
X115500000Y-81710000D02*
X115500000Y-79427056D01*
X101060000Y-65560000D02*
X100820000Y-65320000D01*
X115840000Y-82050000D02*
X115500000Y-81710000D01*
X101329899Y-65560000D02*
X101060000Y-65560000D01*
%TO.N,Net-(D7-A)*%
X80010000Y-43350000D02*
X80410025Y-43350000D01*
%TO.N,Net-(D5-A)*%
X84190000Y-63377056D02*
X84700000Y-63377056D01*
%TO.N,Net-(U1-D10)*%
X102500000Y-60270000D02*
X104730000Y-62500000D01*
X102500000Y-54000000D02*
X102500000Y-60270000D01*
X94000000Y-31000000D02*
X97000000Y-34000000D01*
X97000000Y-34000000D02*
X97000000Y-50500000D01*
%TO.N,Net-(D4-K)*%
X118310000Y-66469899D02*
X118820000Y-66469899D01*
X104230000Y-59943402D02*
X104740000Y-59943402D01*
%TO.N,GND*%
X97470000Y-98940000D02*
X97470000Y-99450000D01*
X97470000Y-99450000D02*
X97980000Y-98940000D01*
%TO.N,Net-(D7-A)*%
X84200000Y-72410101D02*
X85059899Y-72410101D01*
%TO.N,GND*%
X119290000Y-95669899D02*
X119800000Y-95669899D01*
%TO.N,Net-(J1-Pin_6)*%
X97890000Y-57079899D02*
X98400000Y-57079899D01*
%TO.N,Net-(D3-A)*%
X110390000Y-59456598D02*
X110900000Y-59456598D01*
%TO.N,Net-(D1-A)*%
X115840000Y-86702944D02*
X115840000Y-97140000D01*
X85500000Y-56362944D02*
X115840000Y-86702944D01*
X85500000Y-23940000D02*
X85500000Y-56362944D01*
X81810000Y-20250000D02*
X85500000Y-23940000D01*
%TO.N,Net-(D4-A)*%
X100750000Y-86702944D02*
X100750000Y-97140000D01*
X93000000Y-68792944D02*
X93000000Y-78952944D01*
X93000000Y-78952944D02*
X100750000Y-86702944D01*
X85100000Y-60382944D02*
X85100000Y-60892944D01*
X85100000Y-60892944D02*
X93000000Y-68792944D01*
%TO.N,Net-(D8-A)*%
X78730101Y-68100000D02*
X79240101Y-68100000D01*
%TO.N,Net-(U1-D10)*%
X97192793Y-82580051D02*
X97192793Y-82297207D01*
X101329899Y-80650000D02*
X99840000Y-80650000D01*
X104490000Y-83810101D02*
X101329899Y-80650000D01*
X104730000Y-86995000D02*
X104490000Y-86755000D01*
X99840000Y-80650000D02*
X97551371Y-82938629D01*
X97551371Y-82938629D02*
X97192793Y-82580051D01*
X104490000Y-86755000D02*
X104490000Y-83810101D01*
%TO.N,Net-(U1-D0)*%
X98320000Y-99680000D02*
X97500000Y-100500000D01*
X109490000Y-99680000D02*
X98320000Y-99680000D01*
%TO.N,Net-(U1-D9{slash}BOOT)*%
X101029897Y-61388426D02*
X101350000Y-61388426D01*
X86749000Y-46597529D02*
X101539897Y-61388426D01*
X86749000Y-24718786D02*
X86749000Y-46597529D01*
X87409786Y-24058000D02*
X86749000Y-24718786D01*
X89939895Y-24058000D02*
X87409786Y-24058000D01*
X107091000Y-31001214D02*
X106830214Y-31262000D01*
X107091000Y-28933370D02*
X107091000Y-31001214D01*
X106830214Y-31262000D02*
X97143895Y-31262000D01*
X105817630Y-27660000D02*
X107091000Y-28933370D01*
X97143895Y-31262000D02*
X89939895Y-24058000D01*
X104740000Y-27660000D02*
X105817630Y-27660000D01*
%TO.N,Net-(D3-A)*%
X107658000Y-23658000D02*
X104740000Y-23658000D01*
X108000000Y-24000000D02*
X107658000Y-23658000D01*
%TO.N,Net-(J1-Pin_6)*%
X118408610Y-76438711D02*
X118408610Y-95581390D01*
X110069899Y-68100000D02*
X118408610Y-76438711D01*
X118408610Y-95581390D02*
X117490000Y-96500000D01*
X98400000Y-34020000D02*
X98400000Y-57079899D01*
X97890000Y-57079899D02*
X108910101Y-68100000D01*
X108910101Y-68100000D02*
X110069899Y-68100000D01*
X89500000Y-25120000D02*
X98400000Y-34020000D01*
%TO.N,Net-(J1-Pin_7)*%
X88422370Y-27660000D02*
X89500000Y-27660000D01*
X87149000Y-28933370D02*
X88422370Y-27660000D01*
X87149000Y-46149000D02*
X87149000Y-28933370D01*
X87500000Y-46500000D02*
X87149000Y-46149000D01*
%TO.N,Net-(U1-D9{slash}BOOT)*%
X100990000Y-61000000D02*
X98490000Y-61000000D01*
X109490000Y-69500000D02*
X100990000Y-61000000D01*
%TO.N,Net-(U1-D10)*%
X90580000Y-88410000D02*
X94400000Y-84590000D01*
X90580000Y-94765585D02*
X90580000Y-88410000D01*
X82300913Y-98940000D02*
X86405585Y-98940000D01*
X86405585Y-98940000D02*
X90580000Y-94765585D01*
X79310000Y-84590000D02*
X78210001Y-85689999D01*
X78210001Y-85689999D02*
X78210001Y-94849089D01*
X78210001Y-94849089D02*
X82300913Y-98940000D01*
%TO.N,Net-(U1-D0)*%
X109170000Y-99680000D02*
X108990000Y-99500000D01*
X109490000Y-99680000D02*
X109170000Y-99680000D01*
X94400000Y-99680000D02*
X79310000Y-99680000D01*
%TO.N,+3.3V*%
X103678000Y-20683000D02*
X105575000Y-22580000D01*
X103678000Y-19600105D02*
X103678000Y-20683000D01*
X104300105Y-18978000D02*
X103678000Y-19600105D01*
X108116478Y-18978000D02*
X104300105Y-18978000D01*
X121100000Y-31961522D02*
X108116478Y-18978000D01*
X121100000Y-95900000D02*
X121100000Y-31961522D01*
X107350000Y-109650000D02*
X121100000Y-95900000D01*
X104810000Y-109650000D02*
X107350000Y-109650000D01*
X103660000Y-108500000D02*
X104810000Y-109650000D01*
X97190000Y-109650000D02*
X96040000Y-108500000D01*
X102510000Y-109650000D02*
X97190000Y-109650000D01*
X103660000Y-108500000D02*
X102510000Y-109650000D01*
%TO.N,GND*%
X107340000Y-20040000D02*
X105575000Y-20040000D01*
X119800000Y-32500000D02*
X107340000Y-20040000D01*
X116419899Y-98540000D02*
X119290000Y-95669899D01*
X115260101Y-98540000D02*
X116419899Y-98540000D01*
X101495585Y-98940000D02*
X102715686Y-97719899D01*
X102715686Y-97719899D02*
X114440000Y-97719899D01*
X97470000Y-98940000D02*
X101495585Y-98940000D01*
X119800000Y-95669899D02*
X119800000Y-32500000D01*
X88420000Y-108500000D02*
X97470000Y-99450000D01*
X114440000Y-97719899D02*
X115260101Y-98540000D01*
X105050000Y-107350000D02*
X106200000Y-108500000D01*
X89570000Y-107350000D02*
X105050000Y-107350000D01*
X88420000Y-108500000D02*
X89570000Y-107350000D01*
%TO.N,Net-(D8-A)*%
X85660000Y-95160101D02*
X85660000Y-82050000D01*
X87060000Y-96560101D02*
X85660000Y-95160101D01*
X87060000Y-97719899D02*
X87060000Y-96560101D01*
X86239899Y-98540000D02*
X87060000Y-97719899D01*
X82466598Y-98540000D02*
X86239899Y-98540000D01*
X79500000Y-95573402D02*
X82466598Y-98540000D01*
X79500000Y-93626598D02*
X79500000Y-95573402D01*
X80876598Y-92250000D02*
X79500000Y-93626598D01*
X80876598Y-81860000D02*
X80876598Y-92250000D01*
X77910000Y-78893402D02*
X80876598Y-81860000D01*
X77910000Y-68920101D02*
X77910000Y-78893402D01*
X78730101Y-68100000D02*
X77910000Y-68920101D01*
X79240101Y-42564264D02*
X79240101Y-68100000D01*
X81354365Y-40450000D02*
X79240101Y-42564264D01*
X82265635Y-40450000D02*
X81354365Y-40450000D01*
X82910000Y-41094365D02*
X82265635Y-40450000D01*
X82910000Y-44000000D02*
X82910000Y-41094365D01*
X81810000Y-45100000D02*
X82910000Y-44000000D01*
%TO.N,Net-(D7-A)*%
X84200000Y-95680000D02*
X85660000Y-97140000D01*
X80359899Y-67710101D02*
X85059899Y-72410101D01*
X84200000Y-72410101D02*
X84200000Y-95680000D01*
%TO.N,Net-(D5-A)*%
X103220000Y-84520000D02*
X100750000Y-82050000D01*
X103220000Y-96649899D02*
X103220000Y-84520000D01*
X101329899Y-98540000D02*
X103220000Y-96649899D01*
X100170101Y-98540000D02*
X101329899Y-98540000D01*
X99350000Y-97719899D02*
X100170101Y-98540000D01*
X99350000Y-85868630D02*
X99350000Y-97719899D01*
X94191370Y-80710000D02*
X99350000Y-85868630D01*
X91362944Y-80710000D02*
X94191370Y-80710000D01*
X90660000Y-80007056D02*
X91362944Y-80710000D01*
X90660000Y-69847056D02*
X90660000Y-80007056D01*
X84190000Y-63377056D02*
X90660000Y-69847056D01*
X84700000Y-37340000D02*
X84700000Y-63377056D01*
X81810000Y-34450000D02*
X84700000Y-37340000D01*
%TO.N,Net-(D4-A)*%
X85100000Y-34190000D02*
X85100000Y-60382944D01*
X81810000Y-30900000D02*
X85100000Y-34190000D01*
%TO.N,Net-(D4-K)*%
X104740000Y-59943402D02*
X104740000Y-32740000D01*
X112646598Y-68360000D02*
X104230000Y-59943402D01*
X116419899Y-68360000D02*
X112646598Y-68360000D01*
X118310000Y-66469899D02*
X116419899Y-68360000D01*
X118820000Y-36047786D02*
X118820000Y-66469899D01*
X104300105Y-24058000D02*
X106830214Y-24058000D01*
X96280105Y-16038000D02*
X104300105Y-24058000D01*
X75951571Y-16038000D02*
X96280105Y-16038000D01*
X72690000Y-19299570D02*
X75951571Y-16038000D01*
X72690000Y-32950000D02*
X72690000Y-19299570D01*
X106830214Y-24058000D02*
X118820000Y-36047786D01*
X74190000Y-34450000D02*
X72690000Y-32950000D01*
X74190000Y-34450000D02*
X74190000Y-38000000D01*
X74190000Y-30900000D02*
X74190000Y-34450000D01*
%TO.N,Net-(D3-A)*%
X115840000Y-64906598D02*
X115840000Y-66960000D01*
X110390000Y-59456598D02*
X115840000Y-64906598D01*
X110900000Y-30667786D02*
X110900000Y-59456598D01*
X106830214Y-26598000D02*
X110900000Y-30667786D01*
X104300105Y-26598000D02*
X106830214Y-26598000D01*
X94140105Y-16438000D02*
X104300105Y-26598000D01*
X76117256Y-16438000D02*
X94140105Y-16438000D01*
X73090000Y-19465256D02*
X76117256Y-16438000D01*
X73405256Y-28450000D02*
X73090000Y-28134744D01*
X80710000Y-28450000D02*
X73405256Y-28450000D01*
X73090000Y-28134744D02*
X73090000Y-19465256D01*
X81810000Y-27350000D02*
X80710000Y-28450000D01*
%TO.N,Net-(D1-K)*%
X75690000Y-18750000D02*
X94125000Y-18750000D01*
X94125000Y-18750000D02*
X105575000Y-30200000D01*
X74190000Y-20250000D02*
X75690000Y-18750000D01*
X81188680Y-18750000D02*
X93290000Y-18750000D01*
X93290000Y-18750000D02*
X104740000Y-30200000D01*
X74190000Y-25748680D02*
X81188680Y-18750000D01*
X74190000Y-27350000D02*
X74190000Y-25748680D01*
X79240000Y-18750000D02*
X93290000Y-18750000D01*
X74190000Y-23800000D02*
X79240000Y-18750000D01*
X74190000Y-23800000D02*
X74190000Y-27350000D01*
X74190000Y-20250000D02*
X74190000Y-23800000D01*
%TO.N,Net-(D2-A)*%
X81700000Y-23800000D02*
X81500000Y-24000000D01*
X81810000Y-23800000D02*
X81700000Y-23800000D01*
%TD*%
M02*
